<?xml version="1.0" encoding="utf-8" standalone="no"?>
<!DOCTYPE svg PUBLIC "-//W3C//DTD SVG 1.1//EN"
  "http://www.w3.org/Graphics/SVG/1.1/DTD/svg11.dtd">
<svg xmlns:xlink="http://www.w3.org/1999/xlink" width="1152pt" height="576pt" viewBox="0 0 1152 576" xmlns="http://www.w3.org/2000/svg" version="1.1">
 <metadata>
  <rdf:RDF xmlns:dc="http://purl.org/dc/elements/1.1/" xmlns:cc="http://creativecommons.org/ns#" xmlns:rdf="http://www.w3.org/1999/02/22-rdf-syntax-ns#">
   <cc:Work>
    <dc:type rdf:resource="http://purl.org/dc/dcmitype/StillImage"/>
    <dc:date>2025-06-05T08:46:30.621806</dc:date>
    <dc:format>image/svg+xml</dc:format>
    <dc:creator>
     <cc:Agent>
      <dc:title>Matplotlib v3.10.1, https://matplotlib.org/</dc:title>
     </cc:Agent>
    </dc:creator>
   </cc:Work>
  </rdf:RDF>
 </metadata>
 <defs>
  <style type="text/css">*{stroke-linejoin: round; stroke-linecap: butt}</style>
 </defs>
 <g id="figure_1">
  <g id="patch_1">
   <path d="M 0 576 
L 1152 576 
L 1152 0 
L 0 0 
z
" style="fill: #ffffff"/>
  </g>
  <g id="axes_1">
   <g id="patch_2">
    <path d="M 46.08 483.84 
L 990.72 483.84 
L 990.72 11.52 
L 46.08 11.52 
z
" style="fill: #ffffff"/>
   </g>
   <g id="patch_3">
    <path d="M 89.018182 483.84 
L 128.052893 483.84 
L 128.052893 73.126957 
L 89.018182 73.126957 
z
" clip-path="url(#p4e60bd130b)" style="fill: url(#hee8e66e861); opacity: 0.8; stroke: #000000; stroke-width: 0.5; stroke-linejoin: miter"/>
   </g>
   <g id="patch_4">
    <path d="M 245.157025 483.84 
L 284.191736 483.84 
L 284.191736 73.126957 
L 245.157025 73.126957 
z
" clip-path="url(#p4e60bd130b)" style="fill: url(#h6985a6b041); opacity: 0.8; stroke: #000000; stroke-width: 0.5; stroke-linejoin: miter"/>
   </g>
   <g id="patch_5">
    <path d="M 401.295868 483.84 
L 440.330579 483.84 
L 440.330579 73.126957 
L 401.295868 73.126957 
z
" clip-path="url(#p4e60bd130b)" style="fill: url(#h20a4b3dfb7); opacity: 0.8; stroke: #000000; stroke-width: 0.5; stroke-linejoin: miter"/>
   </g>
   <g id="patch_6">
    <path d="M 557.434711 483.84 
L 596.469421 483.84 
L 596.469421 73.126957 
L 557.434711 73.126957 
z
" clip-path="url(#p4e60bd130b)" style="fill: url(#hb83ca17da4); opacity: 0.8; stroke: #000000; stroke-width: 0.5; stroke-linejoin: miter"/>
   </g>
   <g id="patch_7">
    <path d="M 713.573554 483.84 
L 752.608264 483.84 
L 752.608264 73.126957 
L 713.573554 73.126957 
z
" clip-path="url(#p4e60bd130b)" style="fill: url(#hea6bc92623); opacity: 0.8; stroke: #000000; stroke-width: 0.5; stroke-linejoin: miter"/>
   </g>
   <g id="patch_8">
    <path d="M 869.712397 483.84 
L 908.747107 483.84 
L 908.747107 73.126957 
L 869.712397 73.126957 
z
" clip-path="url(#p4e60bd130b)" style="fill: url(#hca7527eb69); opacity: 0.8; stroke: #000000; stroke-width: 0.5; stroke-linejoin: miter"/>
   </g>
   <g id="patch_9">
    <path d="M 128.052893 483.84 
L 167.087603 483.84 
L 167.087603 73.126957 
L 128.052893 73.126957 
z
" clip-path="url(#p4e60bd130b)" style="fill: url(#h8cd850e40b); opacity: 0.8; stroke: #000000; stroke-width: 0.5; stroke-linejoin: miter"/>
   </g>
   <g id="patch_10">
    <path d="M 284.191736 483.84 
L 323.226446 483.84 
L 323.226446 73.126957 
L 284.191736 73.126957 
z
" clip-path="url(#p4e60bd130b)" style="fill: url(#h65bae37064); opacity: 0.8; stroke: #000000; stroke-width: 0.5; stroke-linejoin: miter"/>
   </g>
   <g id="patch_11">
    <path d="M 440.330579 483.84 
L 479.365289 483.84 
L 479.365289 73.126957 
L 440.330579 73.126957 
z
" clip-path="url(#p4e60bd130b)" style="fill: url(#h08987f25a9); opacity: 0.8; stroke: #000000; stroke-width: 0.5; stroke-linejoin: miter"/>
   </g>
   <g id="patch_12">
    <path d="M 596.469421 483.84 
L 635.504132 483.84 
L 635.504132 73.126957 
L 596.469421 73.126957 
z
" clip-path="url(#p4e60bd130b)" style="fill: url(#h3c0d28f3bc); opacity: 0.8; stroke: #000000; stroke-width: 0.5; stroke-linejoin: miter"/>
   </g>
   <g id="patch_13">
    <path d="M 752.608264 483.84 
L 791.642975 483.84 
L 791.642975 483.84 
L 752.608264 483.84 
z
" clip-path="url(#p4e60bd130b)" style="fill: url(#h2e624d72e8); opacity: 0.8; stroke: #000000; stroke-width: 0.5; stroke-linejoin: miter"/>
   </g>
   <g id="patch_14">
    <path d="M 908.747107 483.84 
L 947.781818 483.84 
L 947.781818 483.84 
L 908.747107 483.84 
z
" clip-path="url(#p4e60bd130b)" style="fill: url(#ha16f7279ac); opacity: 0.8; stroke: #000000; stroke-width: 0.5; stroke-linejoin: miter"/>
   </g>
   <g id="matplotlib.axis_1">
    <g id="xtick_1">
     <g id="line2d_1">
      <defs>
       <path id="m0edff6da1a" d="M 0 0 
L 0 3.5 
" style="stroke: #000000; stroke-width: 0.8"/>
      </defs>
      <g>
       <use xlink:href="#m0edff6da1a" x="128.052893" y="483.84" style="stroke: #000000; stroke-width: 0.8"/>
      </g>
     </g>
     <g id="text_1">
      <!-- Kueue-CPU -->
      <g transform="translate(87.706926 535.088312) rotate(-45) scale(0.1 -0.1)">
       <defs>
        <path id="DejaVuSans-4b" d="M 628 4666 
L 1259 4666 
L 1259 2694 
L 3353 4666 
L 4166 4666 
L 1850 2491 
L 4331 0 
L 3500 0 
L 1259 2247 
L 1259 0 
L 628 0 
L 628 4666 
z
" transform="scale(0.015625)"/>
        <path id="DejaVuSans-75" d="M 544 1381 
L 544 3500 
L 1119 3500 
L 1119 1403 
Q 1119 906 1312 657 
Q 1506 409 1894 409 
Q 2359 409 2629 706 
Q 2900 1003 2900 1516 
L 2900 3500 
L 3475 3500 
L 3475 0 
L 2900 0 
L 2900 538 
Q 2691 219 2414 64 
Q 2138 -91 1772 -91 
Q 1169 -91 856 284 
Q 544 659 544 1381 
z
M 1991 3584 
L 1991 3584 
z
" transform="scale(0.015625)"/>
        <path id="DejaVuSans-65" d="M 3597 1894 
L 3597 1613 
L 953 1613 
Q 991 1019 1311 708 
Q 1631 397 2203 397 
Q 2534 397 2845 478 
Q 3156 559 3463 722 
L 3463 178 
Q 3153 47 2828 -22 
Q 2503 -91 2169 -91 
Q 1331 -91 842 396 
Q 353 884 353 1716 
Q 353 2575 817 3079 
Q 1281 3584 2069 3584 
Q 2775 3584 3186 3129 
Q 3597 2675 3597 1894 
z
M 3022 2063 
Q 3016 2534 2758 2815 
Q 2500 3097 2075 3097 
Q 1594 3097 1305 2825 
Q 1016 2553 972 2059 
L 3022 2063 
z
" transform="scale(0.015625)"/>
        <path id="DejaVuSans-2d" d="M 313 2009 
L 1997 2009 
L 1997 1497 
L 313 1497 
L 313 2009 
z
" transform="scale(0.015625)"/>
        <path id="DejaVuSans-43" d="M 4122 4306 
L 4122 3641 
Q 3803 3938 3442 4084 
Q 3081 4231 2675 4231 
Q 1875 4231 1450 3742 
Q 1025 3253 1025 2328 
Q 1025 1406 1450 917 
Q 1875 428 2675 428 
Q 3081 428 3442 575 
Q 3803 722 4122 1019 
L 4122 359 
Q 3791 134 3420 21 
Q 3050 -91 2638 -91 
Q 1578 -91 968 557 
Q 359 1206 359 2328 
Q 359 3453 968 4101 
Q 1578 4750 2638 4750 
Q 3056 4750 3426 4639 
Q 3797 4528 4122 4306 
z
" transform="scale(0.015625)"/>
        <path id="DejaVuSans-50" d="M 1259 4147 
L 1259 2394 
L 2053 2394 
Q 2494 2394 2734 2622 
Q 2975 2850 2975 3272 
Q 2975 3691 2734 3919 
Q 2494 4147 2053 4147 
L 1259 4147 
z
M 628 4666 
L 2053 4666 
Q 2838 4666 3239 4311 
Q 3641 3956 3641 3272 
Q 3641 2581 3239 2228 
Q 2838 1875 2053 1875 
L 1259 1875 
L 1259 0 
L 628 0 
L 628 4666 
z
" transform="scale(0.015625)"/>
        <path id="DejaVuSans-55" d="M 556 4666 
L 1191 4666 
L 1191 1831 
Q 1191 1081 1462 751 
Q 1734 422 2344 422 
Q 2950 422 3222 751 
Q 3494 1081 3494 1831 
L 3494 4666 
L 4128 4666 
L 4128 1753 
Q 4128 841 3676 375 
Q 3225 -91 2344 -91 
Q 1459 -91 1007 375 
Q 556 841 556 1753 
L 556 4666 
z
" transform="scale(0.015625)"/>
       </defs>
       <use xlink:href="#DejaVuSans-4b"/>
       <use xlink:href="#DejaVuSans-75" transform="translate(60.576172 0)"/>
       <use xlink:href="#DejaVuSans-65" transform="translate(123.955078 0)"/>
       <use xlink:href="#DejaVuSans-75" transform="translate(185.478516 0)"/>
       <use xlink:href="#DejaVuSans-65" transform="translate(248.857422 0)"/>
       <use xlink:href="#DejaVuSans-2d" transform="translate(310.380859 0)"/>
       <use xlink:href="#DejaVuSans-43" transform="translate(346.464844 0)"/>
       <use xlink:href="#DejaVuSans-50" transform="translate(416.289062 0)"/>
       <use xlink:href="#DejaVuSans-55" transform="translate(476.591797 0)"/>
      </g>
     </g>
    </g>
    <g id="xtick_2">
     <g id="line2d_2">
      <g>
       <use xlink:href="#m0edff6da1a" x="284.191736" y="483.84" style="stroke: #000000; stroke-width: 0.8"/>
      </g>
     </g>
     <g id="text_2">
      <!-- Kueue-Memory -->
      <g transform="translate(229.46388 549.470201) rotate(-45) scale(0.1 -0.1)">
       <defs>
        <path id="DejaVuSans-4d" d="M 628 4666 
L 1569 4666 
L 2759 1491 
L 3956 4666 
L 4897 4666 
L 4897 0 
L 4281 0 
L 4281 4097 
L 3078 897 
L 2444 897 
L 1241 4097 
L 1241 0 
L 628 0 
L 628 4666 
z
" transform="scale(0.015625)"/>
        <path id="DejaVuSans-6d" d="M 3328 2828 
Q 3544 3216 3844 3400 
Q 4144 3584 4550 3584 
Q 5097 3584 5394 3201 
Q 5691 2819 5691 2113 
L 5691 0 
L 5113 0 
L 5113 2094 
Q 5113 2597 4934 2840 
Q 4756 3084 4391 3084 
Q 3944 3084 3684 2787 
Q 3425 2491 3425 1978 
L 3425 0 
L 2847 0 
L 2847 2094 
Q 2847 2600 2669 2842 
Q 2491 3084 2119 3084 
Q 1678 3084 1418 2786 
Q 1159 2488 1159 1978 
L 1159 0 
L 581 0 
L 581 3500 
L 1159 3500 
L 1159 2956 
Q 1356 3278 1631 3431 
Q 1906 3584 2284 3584 
Q 2666 3584 2933 3390 
Q 3200 3197 3328 2828 
z
" transform="scale(0.015625)"/>
        <path id="DejaVuSans-6f" d="M 1959 3097 
Q 1497 3097 1228 2736 
Q 959 2375 959 1747 
Q 959 1119 1226 758 
Q 1494 397 1959 397 
Q 2419 397 2687 759 
Q 2956 1122 2956 1747 
Q 2956 2369 2687 2733 
Q 2419 3097 1959 3097 
z
M 1959 3584 
Q 2709 3584 3137 3096 
Q 3566 2609 3566 1747 
Q 3566 888 3137 398 
Q 2709 -91 1959 -91 
Q 1206 -91 779 398 
Q 353 888 353 1747 
Q 353 2609 779 3096 
Q 1206 3584 1959 3584 
z
" transform="scale(0.015625)"/>
        <path id="DejaVuSans-72" d="M 2631 2963 
Q 2534 3019 2420 3045 
Q 2306 3072 2169 3072 
Q 1681 3072 1420 2755 
Q 1159 2438 1159 1844 
L 1159 0 
L 581 0 
L 581 3500 
L 1159 3500 
L 1159 2956 
Q 1341 3275 1631 3429 
Q 1922 3584 2338 3584 
Q 2397 3584 2469 3576 
Q 2541 3569 2628 3553 
L 2631 2963 
z
" transform="scale(0.015625)"/>
        <path id="DejaVuSans-79" d="M 2059 -325 
Q 1816 -950 1584 -1140 
Q 1353 -1331 966 -1331 
L 506 -1331 
L 506 -850 
L 844 -850 
Q 1081 -850 1212 -737 
Q 1344 -625 1503 -206 
L 1606 56 
L 191 3500 
L 800 3500 
L 1894 763 
L 2988 3500 
L 3597 3500 
L 2059 -325 
z
" transform="scale(0.015625)"/>
       </defs>
       <use xlink:href="#DejaVuSans-4b"/>
       <use xlink:href="#DejaVuSans-75" transform="translate(60.576172 0)"/>
       <use xlink:href="#DejaVuSans-65" transform="translate(123.955078 0)"/>
       <use xlink:href="#DejaVuSans-75" transform="translate(185.478516 0)"/>
       <use xlink:href="#DejaVuSans-65" transform="translate(248.857422 0)"/>
       <use xlink:href="#DejaVuSans-2d" transform="translate(310.380859 0)"/>
       <use xlink:href="#DejaVuSans-4d" transform="translate(346.464844 0)"/>
       <use xlink:href="#DejaVuSans-65" transform="translate(432.744141 0)"/>
       <use xlink:href="#DejaVuSans-6d" transform="translate(494.267578 0)"/>
       <use xlink:href="#DejaVuSans-6f" transform="translate(591.679688 0)"/>
       <use xlink:href="#DejaVuSans-72" transform="translate(652.861328 0)"/>
       <use xlink:href="#DejaVuSans-79" transform="translate(693.974609 0)"/>
      </g>
     </g>
    </g>
    <g id="xtick_3">
     <g id="line2d_3">
      <g>
       <use xlink:href="#m0edff6da1a" x="440.330579" y="483.84" style="stroke: #000000; stroke-width: 0.8"/>
      </g>
     </g>
     <g id="text_3">
      <!-- Volcano-CPU -->
      <g transform="translate(394.190756 540.882168) rotate(-45) scale(0.1 -0.1)">
       <defs>
        <path id="DejaVuSans-56" d="M 1831 0 
L 50 4666 
L 709 4666 
L 2188 738 
L 3669 4666 
L 4325 4666 
L 2547 0 
L 1831 0 
z
" transform="scale(0.015625)"/>
        <path id="DejaVuSans-6c" d="M 603 4863 
L 1178 4863 
L 1178 0 
L 603 0 
L 603 4863 
z
" transform="scale(0.015625)"/>
        <path id="DejaVuSans-63" d="M 3122 3366 
L 3122 2828 
Q 2878 2963 2633 3030 
Q 2388 3097 2138 3097 
Q 1578 3097 1268 2742 
Q 959 2388 959 1747 
Q 959 1106 1268 751 
Q 1578 397 2138 397 
Q 2388 397 2633 464 
Q 2878 531 3122 666 
L 3122 134 
Q 2881 22 2623 -34 
Q 2366 -91 2075 -91 
Q 1284 -91 818 406 
Q 353 903 353 1747 
Q 353 2603 823 3093 
Q 1294 3584 2113 3584 
Q 2378 3584 2631 3529 
Q 2884 3475 3122 3366 
z
" transform="scale(0.015625)"/>
        <path id="DejaVuSans-61" d="M 2194 1759 
Q 1497 1759 1228 1600 
Q 959 1441 959 1056 
Q 959 750 1161 570 
Q 1363 391 1709 391 
Q 2188 391 2477 730 
Q 2766 1069 2766 1631 
L 2766 1759 
L 2194 1759 
z
M 3341 1997 
L 3341 0 
L 2766 0 
L 2766 531 
Q 2569 213 2275 61 
Q 1981 -91 1556 -91 
Q 1019 -91 701 211 
Q 384 513 384 1019 
Q 384 1609 779 1909 
Q 1175 2209 1959 2209 
L 2766 2209 
L 2766 2266 
Q 2766 2663 2505 2880 
Q 2244 3097 1772 3097 
Q 1472 3097 1187 3025 
Q 903 2953 641 2809 
L 641 3341 
Q 956 3463 1253 3523 
Q 1550 3584 1831 3584 
Q 2591 3584 2966 3190 
Q 3341 2797 3341 1997 
z
" transform="scale(0.015625)"/>
        <path id="DejaVuSans-6e" d="M 3513 2113 
L 3513 0 
L 2938 0 
L 2938 2094 
Q 2938 2591 2744 2837 
Q 2550 3084 2163 3084 
Q 1697 3084 1428 2787 
Q 1159 2491 1159 1978 
L 1159 0 
L 581 0 
L 581 3500 
L 1159 3500 
L 1159 2956 
Q 1366 3272 1645 3428 
Q 1925 3584 2291 3584 
Q 2894 3584 3203 3211 
Q 3513 2838 3513 2113 
z
" transform="scale(0.015625)"/>
       </defs>
       <use xlink:href="#DejaVuSans-56"/>
       <use xlink:href="#DejaVuSans-6f" transform="translate(60.658203 0)"/>
       <use xlink:href="#DejaVuSans-6c" transform="translate(121.839844 0)"/>
       <use xlink:href="#DejaVuSans-63" transform="translate(149.623047 0)"/>
       <use xlink:href="#DejaVuSans-61" transform="translate(204.603516 0)"/>
       <use xlink:href="#DejaVuSans-6e" transform="translate(265.882812 0)"/>
       <use xlink:href="#DejaVuSans-6f" transform="translate(329.261719 0)"/>
       <use xlink:href="#DejaVuSans-2d" transform="translate(392.318359 0)"/>
       <use xlink:href="#DejaVuSans-43" transform="translate(428.402344 0)"/>
       <use xlink:href="#DejaVuSans-50" transform="translate(498.226562 0)"/>
       <use xlink:href="#DejaVuSans-55" transform="translate(558.529297 0)"/>
      </g>
     </g>
    </g>
    <g id="xtick_4">
     <g id="line2d_4">
      <g>
       <use xlink:href="#m0edff6da1a" x="596.469421" y="483.84" style="stroke: #000000; stroke-width: 0.8"/>
      </g>
     </g>
     <g id="text_4">
      <!-- Volcano-Memory -->
      <g transform="translate(535.94771 555.264057) rotate(-45) scale(0.1 -0.1)">
       <use xlink:href="#DejaVuSans-56"/>
       <use xlink:href="#DejaVuSans-6f" transform="translate(60.658203 0)"/>
       <use xlink:href="#DejaVuSans-6c" transform="translate(121.839844 0)"/>
       <use xlink:href="#DejaVuSans-63" transform="translate(149.623047 0)"/>
       <use xlink:href="#DejaVuSans-61" transform="translate(204.603516 0)"/>
       <use xlink:href="#DejaVuSans-6e" transform="translate(265.882812 0)"/>
       <use xlink:href="#DejaVuSans-6f" transform="translate(329.261719 0)"/>
       <use xlink:href="#DejaVuSans-2d" transform="translate(392.318359 0)"/>
       <use xlink:href="#DejaVuSans-4d" transform="translate(428.402344 0)"/>
       <use xlink:href="#DejaVuSans-65" transform="translate(514.681641 0)"/>
       <use xlink:href="#DejaVuSans-6d" transform="translate(576.205078 0)"/>
       <use xlink:href="#DejaVuSans-6f" transform="translate(673.617188 0)"/>
       <use xlink:href="#DejaVuSans-72" transform="translate(734.798828 0)"/>
       <use xlink:href="#DejaVuSans-79" transform="translate(775.912109 0)"/>
      </g>
     </g>
    </g>
    <g id="xtick_5">
     <g id="line2d_5">
      <g>
       <use xlink:href="#m0edff6da1a" x="752.608264" y="483.84" style="stroke: #000000; stroke-width: 0.8"/>
      </g>
     </g>
     <g id="text_5">
      <!-- YuniKorn-CPU -->
      <g transform="translate(703.90297 543.44764) rotate(-45) scale(0.1 -0.1)">
       <defs>
        <path id="DejaVuSans-59" d="M -13 4666 
L 666 4666 
L 1959 2747 
L 3244 4666 
L 3922 4666 
L 2272 2222 
L 2272 0 
L 1638 0 
L 1638 2222 
L -13 4666 
z
" transform="scale(0.015625)"/>
        <path id="DejaVuSans-69" d="M 603 3500 
L 1178 3500 
L 1178 0 
L 603 0 
L 603 3500 
z
M 603 4863 
L 1178 4863 
L 1178 4134 
L 603 4134 
L 603 4863 
z
" transform="scale(0.015625)"/>
       </defs>
       <use xlink:href="#DejaVuSans-59"/>
       <use xlink:href="#DejaVuSans-75" transform="translate(49.583984 0)"/>
       <use xlink:href="#DejaVuSans-6e" transform="translate(112.962891 0)"/>
       <use xlink:href="#DejaVuSans-69" transform="translate(176.341797 0)"/>
       <use xlink:href="#DejaVuSans-4b" transform="translate(204.125 0)"/>
       <use xlink:href="#DejaVuSans-6f" transform="translate(264.701172 0)"/>
       <use xlink:href="#DejaVuSans-72" transform="translate(325.882812 0)"/>
       <use xlink:href="#DejaVuSans-6e" transform="translate(365.246094 0)"/>
       <use xlink:href="#DejaVuSans-2d" transform="translate(428.625 0)"/>
       <use xlink:href="#DejaVuSans-43" transform="translate(464.708984 0)"/>
       <use xlink:href="#DejaVuSans-50" transform="translate(534.533203 0)"/>
       <use xlink:href="#DejaVuSans-55" transform="translate(594.835938 0)"/>
      </g>
     </g>
    </g>
    <g id="xtick_6">
     <g id="line2d_6">
      <g>
       <use xlink:href="#m0edff6da1a" x="908.747107" y="483.84" style="stroke: #000000; stroke-width: 0.8"/>
      </g>
     </g>
     <g id="text_6">
      <!-- YuniKorn-Memory -->
      <g transform="translate(845.659924 557.829529) rotate(-45) scale(0.1 -0.1)">
       <use xlink:href="#DejaVuSans-59"/>
       <use xlink:href="#DejaVuSans-75" transform="translate(49.583984 0)"/>
       <use xlink:href="#DejaVuSans-6e" transform="translate(112.962891 0)"/>
       <use xlink:href="#DejaVuSans-69" transform="translate(176.341797 0)"/>
       <use xlink:href="#DejaVuSans-4b" transform="translate(204.125 0)"/>
       <use xlink:href="#DejaVuSans-6f" transform="translate(264.701172 0)"/>
       <use xlink:href="#DejaVuSans-72" transform="translate(325.882812 0)"/>
       <use xlink:href="#DejaVuSans-6e" transform="translate(365.246094 0)"/>
       <use xlink:href="#DejaVuSans-2d" transform="translate(428.625 0)"/>
       <use xlink:href="#DejaVuSans-4d" transform="translate(464.708984 0)"/>
       <use xlink:href="#DejaVuSans-65" transform="translate(550.988281 0)"/>
       <use xlink:href="#DejaVuSans-6d" transform="translate(612.511719 0)"/>
       <use xlink:href="#DejaVuSans-6f" transform="translate(709.923828 0)"/>
       <use xlink:href="#DejaVuSans-72" transform="translate(771.105469 0)"/>
       <use xlink:href="#DejaVuSans-79" transform="translate(812.21875 0)"/>
      </g>
     </g>
    </g>
    <g id="text_7">
     <!-- System-Resource -->
     <g transform="translate(475.023438 570.898527) scale(0.1 -0.1)">
      <defs>
       <path id="DejaVuSans-53" d="M 3425 4513 
L 3425 3897 
Q 3066 4069 2747 4153 
Q 2428 4238 2131 4238 
Q 1616 4238 1336 4038 
Q 1056 3838 1056 3469 
Q 1056 3159 1242 3001 
Q 1428 2844 1947 2747 
L 2328 2669 
Q 3034 2534 3370 2195 
Q 3706 1856 3706 1288 
Q 3706 609 3251 259 
Q 2797 -91 1919 -91 
Q 1588 -91 1214 -16 
Q 841 59 441 206 
L 441 856 
Q 825 641 1194 531 
Q 1563 422 1919 422 
Q 2459 422 2753 634 
Q 3047 847 3047 1241 
Q 3047 1584 2836 1778 
Q 2625 1972 2144 2069 
L 1759 2144 
Q 1053 2284 737 2584 
Q 422 2884 422 3419 
Q 422 4038 858 4394 
Q 1294 4750 2059 4750 
Q 2388 4750 2728 4690 
Q 3069 4631 3425 4513 
z
" transform="scale(0.015625)"/>
       <path id="DejaVuSans-73" d="M 2834 3397 
L 2834 2853 
Q 2591 2978 2328 3040 
Q 2066 3103 1784 3103 
Q 1356 3103 1142 2972 
Q 928 2841 928 2578 
Q 928 2378 1081 2264 
Q 1234 2150 1697 2047 
L 1894 2003 
Q 2506 1872 2764 1633 
Q 3022 1394 3022 966 
Q 3022 478 2636 193 
Q 2250 -91 1575 -91 
Q 1294 -91 989 -36 
Q 684 19 347 128 
L 347 722 
Q 666 556 975 473 
Q 1284 391 1588 391 
Q 1994 391 2212 530 
Q 2431 669 2431 922 
Q 2431 1156 2273 1281 
Q 2116 1406 1581 1522 
L 1381 1569 
Q 847 1681 609 1914 
Q 372 2147 372 2553 
Q 372 3047 722 3315 
Q 1072 3584 1716 3584 
Q 2034 3584 2315 3537 
Q 2597 3491 2834 3397 
z
" transform="scale(0.015625)"/>
       <path id="DejaVuSans-74" d="M 1172 4494 
L 1172 3500 
L 2356 3500 
L 2356 3053 
L 1172 3053 
L 1172 1153 
Q 1172 725 1289 603 
Q 1406 481 1766 481 
L 2356 481 
L 2356 0 
L 1766 0 
Q 1100 0 847 248 
Q 594 497 594 1153 
L 594 3053 
L 172 3053 
L 172 3500 
L 594 3500 
L 594 4494 
L 1172 4494 
z
" transform="scale(0.015625)"/>
       <path id="DejaVuSans-52" d="M 2841 2188 
Q 3044 2119 3236 1894 
Q 3428 1669 3622 1275 
L 4263 0 
L 3584 0 
L 2988 1197 
Q 2756 1666 2539 1819 
Q 2322 1972 1947 1972 
L 1259 1972 
L 1259 0 
L 628 0 
L 628 4666 
L 2053 4666 
Q 2853 4666 3247 4331 
Q 3641 3997 3641 3322 
Q 3641 2881 3436 2590 
Q 3231 2300 2841 2188 
z
M 1259 4147 
L 1259 2491 
L 2053 2491 
Q 2509 2491 2742 2702 
Q 2975 2913 2975 3322 
Q 2975 3731 2742 3939 
Q 2509 4147 2053 4147 
L 1259 4147 
z
" transform="scale(0.015625)"/>
      </defs>
      <use xlink:href="#DejaVuSans-53"/>
      <use xlink:href="#DejaVuSans-79" transform="translate(63.476562 0)"/>
      <use xlink:href="#DejaVuSans-73" transform="translate(122.65625 0)"/>
      <use xlink:href="#DejaVuSans-74" transform="translate(174.755859 0)"/>
      <use xlink:href="#DejaVuSans-65" transform="translate(213.964844 0)"/>
      <use xlink:href="#DejaVuSans-6d" transform="translate(275.488281 0)"/>
      <use xlink:href="#DejaVuSans-2d" transform="translate(372.900391 0)"/>
      <use xlink:href="#DejaVuSans-52" transform="translate(408.984375 0)"/>
      <use xlink:href="#DejaVuSans-65" transform="translate(473.966797 0)"/>
      <use xlink:href="#DejaVuSans-73" transform="translate(535.490234 0)"/>
      <use xlink:href="#DejaVuSans-6f" transform="translate(587.589844 0)"/>
      <use xlink:href="#DejaVuSans-75" transform="translate(648.771484 0)"/>
      <use xlink:href="#DejaVuSans-72" transform="translate(712.150391 0)"/>
      <use xlink:href="#DejaVuSans-63" transform="translate(751.013672 0)"/>
      <use xlink:href="#DejaVuSans-65" transform="translate(805.994141 0)"/>
     </g>
    </g>
   </g>
   <g id="matplotlib.axis_2">
    <g id="ytick_1">
     <g id="line2d_7">
      <path d="M 46.08 483.84 
L 990.72 483.84 
" clip-path="url(#p4e60bd130b)" style="fill: none; stroke: #b0b0b0; stroke-opacity: 0.3; stroke-width: 0.8; stroke-linecap: square"/>
     </g>
     <g id="line2d_8">
      <defs>
       <path id="maba19f752d" d="M 0 0 
L -3.5 0 
" style="stroke: #000000; stroke-width: 0.8"/>
      </defs>
      <g>
       <use xlink:href="#maba19f752d" x="46.08" y="483.84" style="stroke: #000000; stroke-width: 0.8"/>
      </g>
     </g>
     <g id="text_8">
      <!-- 0.0 -->
      <g transform="translate(23.176875 487.639219) scale(0.1 -0.1)">
       <defs>
        <path id="DejaVuSans-30" d="M 2034 4250 
Q 1547 4250 1301 3770 
Q 1056 3291 1056 2328 
Q 1056 1369 1301 889 
Q 1547 409 2034 409 
Q 2525 409 2770 889 
Q 3016 1369 3016 2328 
Q 3016 3291 2770 3770 
Q 2525 4250 2034 4250 
z
M 2034 4750 
Q 2819 4750 3233 4129 
Q 3647 3509 3647 2328 
Q 3647 1150 3233 529 
Q 2819 -91 2034 -91 
Q 1250 -91 836 529 
Q 422 1150 422 2328 
Q 422 3509 836 4129 
Q 1250 4750 2034 4750 
z
" transform="scale(0.015625)"/>
        <path id="DejaVuSans-2e" d="M 684 794 
L 1344 794 
L 1344 0 
L 684 0 
L 684 794 
z
" transform="scale(0.015625)"/>
       </defs>
       <use xlink:href="#DejaVuSans-30"/>
       <use xlink:href="#DejaVuSans-2e" transform="translate(63.623047 0)"/>
       <use xlink:href="#DejaVuSans-30" transform="translate(95.410156 0)"/>
      </g>
     </g>
    </g>
    <g id="ytick_2">
     <g id="line2d_9">
      <path d="M 46.08 401.697391 
L 990.72 401.697391 
" clip-path="url(#p4e60bd130b)" style="fill: none; stroke: #b0b0b0; stroke-opacity: 0.3; stroke-width: 0.8; stroke-linecap: square"/>
     </g>
     <g id="line2d_10">
      <g>
       <use xlink:href="#maba19f752d" x="46.08" y="401.697391" style="stroke: #000000; stroke-width: 0.8"/>
      </g>
     </g>
     <g id="text_9">
      <!-- 0.2 -->
      <g transform="translate(23.176875 405.49661) scale(0.1 -0.1)">
       <defs>
        <path id="DejaVuSans-32" d="M 1228 531 
L 3431 531 
L 3431 0 
L 469 0 
L 469 531 
Q 828 903 1448 1529 
Q 2069 2156 2228 2338 
Q 2531 2678 2651 2914 
Q 2772 3150 2772 3378 
Q 2772 3750 2511 3984 
Q 2250 4219 1831 4219 
Q 1534 4219 1204 4116 
Q 875 4013 500 3803 
L 500 4441 
Q 881 4594 1212 4672 
Q 1544 4750 1819 4750 
Q 2544 4750 2975 4387 
Q 3406 4025 3406 3419 
Q 3406 3131 3298 2873 
Q 3191 2616 2906 2266 
Q 2828 2175 2409 1742 
Q 1991 1309 1228 531 
z
" transform="scale(0.015625)"/>
       </defs>
       <use xlink:href="#DejaVuSans-30"/>
       <use xlink:href="#DejaVuSans-2e" transform="translate(63.623047 0)"/>
       <use xlink:href="#DejaVuSans-32" transform="translate(95.410156 0)"/>
      </g>
     </g>
    </g>
    <g id="ytick_3">
     <g id="line2d_11">
      <path d="M 46.08 319.554783 
L 990.72 319.554783 
" clip-path="url(#p4e60bd130b)" style="fill: none; stroke: #b0b0b0; stroke-opacity: 0.3; stroke-width: 0.8; stroke-linecap: square"/>
     </g>
     <g id="line2d_12">
      <g>
       <use xlink:href="#maba19f752d" x="46.08" y="319.554783" style="stroke: #000000; stroke-width: 0.8"/>
      </g>
     </g>
     <g id="text_10">
      <!-- 0.4 -->
      <g transform="translate(23.176875 323.354001) scale(0.1 -0.1)">
       <defs>
        <path id="DejaVuSans-34" d="M 2419 4116 
L 825 1625 
L 2419 1625 
L 2419 4116 
z
M 2253 4666 
L 3047 4666 
L 3047 1625 
L 3713 1625 
L 3713 1100 
L 3047 1100 
L 3047 0 
L 2419 0 
L 2419 1100 
L 313 1100 
L 313 1709 
L 2253 4666 
z
" transform="scale(0.015625)"/>
       </defs>
       <use xlink:href="#DejaVuSans-30"/>
       <use xlink:href="#DejaVuSans-2e" transform="translate(63.623047 0)"/>
       <use xlink:href="#DejaVuSans-34" transform="translate(95.410156 0)"/>
      </g>
     </g>
    </g>
    <g id="ytick_4">
     <g id="line2d_13">
      <path d="M 46.08 237.412174 
L 990.72 237.412174 
" clip-path="url(#p4e60bd130b)" style="fill: none; stroke: #b0b0b0; stroke-opacity: 0.3; stroke-width: 0.8; stroke-linecap: square"/>
     </g>
     <g id="line2d_14">
      <g>
       <use xlink:href="#maba19f752d" x="46.08" y="237.412174" style="stroke: #000000; stroke-width: 0.8"/>
      </g>
     </g>
     <g id="text_11">
      <!-- 0.6 -->
      <g transform="translate(23.176875 241.211393) scale(0.1 -0.1)">
       <defs>
        <path id="DejaVuSans-36" d="M 2113 2584 
Q 1688 2584 1439 2293 
Q 1191 2003 1191 1497 
Q 1191 994 1439 701 
Q 1688 409 2113 409 
Q 2538 409 2786 701 
Q 3034 994 3034 1497 
Q 3034 2003 2786 2293 
Q 2538 2584 2113 2584 
z
M 3366 4563 
L 3366 3988 
Q 3128 4100 2886 4159 
Q 2644 4219 2406 4219 
Q 1781 4219 1451 3797 
Q 1122 3375 1075 2522 
Q 1259 2794 1537 2939 
Q 1816 3084 2150 3084 
Q 2853 3084 3261 2657 
Q 3669 2231 3669 1497 
Q 3669 778 3244 343 
Q 2819 -91 2113 -91 
Q 1303 -91 875 529 
Q 447 1150 447 2328 
Q 447 3434 972 4092 
Q 1497 4750 2381 4750 
Q 2619 4750 2861 4703 
Q 3103 4656 3366 4563 
z
" transform="scale(0.015625)"/>
       </defs>
       <use xlink:href="#DejaVuSans-30"/>
       <use xlink:href="#DejaVuSans-2e" transform="translate(63.623047 0)"/>
       <use xlink:href="#DejaVuSans-36" transform="translate(95.410156 0)"/>
      </g>
     </g>
    </g>
    <g id="ytick_5">
     <g id="line2d_15">
      <path d="M 46.08 155.269565 
L 990.72 155.269565 
" clip-path="url(#p4e60bd130b)" style="fill: none; stroke: #b0b0b0; stroke-opacity: 0.3; stroke-width: 0.8; stroke-linecap: square"/>
     </g>
     <g id="line2d_16">
      <g>
       <use xlink:href="#maba19f752d" x="46.08" y="155.269565" style="stroke: #000000; stroke-width: 0.8"/>
      </g>
     </g>
     <g id="text_12">
      <!-- 0.8 -->
      <g transform="translate(23.176875 159.068784) scale(0.1 -0.1)">
       <defs>
        <path id="DejaVuSans-38" d="M 2034 2216 
Q 1584 2216 1326 1975 
Q 1069 1734 1069 1313 
Q 1069 891 1326 650 
Q 1584 409 2034 409 
Q 2484 409 2743 651 
Q 3003 894 3003 1313 
Q 3003 1734 2745 1975 
Q 2488 2216 2034 2216 
z
M 1403 2484 
Q 997 2584 770 2862 
Q 544 3141 544 3541 
Q 544 4100 942 4425 
Q 1341 4750 2034 4750 
Q 2731 4750 3128 4425 
Q 3525 4100 3525 3541 
Q 3525 3141 3298 2862 
Q 3072 2584 2669 2484 
Q 3125 2378 3379 2068 
Q 3634 1759 3634 1313 
Q 3634 634 3220 271 
Q 2806 -91 2034 -91 
Q 1263 -91 848 271 
Q 434 634 434 1313 
Q 434 1759 690 2068 
Q 947 2378 1403 2484 
z
M 1172 3481 
Q 1172 3119 1398 2916 
Q 1625 2713 2034 2713 
Q 2441 2713 2670 2916 
Q 2900 3119 2900 3481 
Q 2900 3844 2670 4047 
Q 2441 4250 2034 4250 
Q 1625 4250 1398 4047 
Q 1172 3844 1172 3481 
z
" transform="scale(0.015625)"/>
       </defs>
       <use xlink:href="#DejaVuSans-30"/>
       <use xlink:href="#DejaVuSans-2e" transform="translate(63.623047 0)"/>
       <use xlink:href="#DejaVuSans-38" transform="translate(95.410156 0)"/>
      </g>
     </g>
    </g>
    <g id="ytick_6">
     <g id="line2d_17">
      <path d="M 46.08 73.126957 
L 990.72 73.126957 
" clip-path="url(#p4e60bd130b)" style="fill: none; stroke: #b0b0b0; stroke-opacity: 0.3; stroke-width: 0.8; stroke-linecap: square"/>
     </g>
     <g id="line2d_18">
      <g>
       <use xlink:href="#maba19f752d" x="46.08" y="73.126957" style="stroke: #000000; stroke-width: 0.8"/>
      </g>
     </g>
     <g id="text_13">
      <!-- 1.0 -->
      <g transform="translate(23.176875 76.926175) scale(0.1 -0.1)">
       <defs>
        <path id="DejaVuSans-31" d="M 794 531 
L 1825 531 
L 1825 4091 
L 703 3866 
L 703 4441 
L 1819 4666 
L 2450 4666 
L 2450 531 
L 3481 531 
L 3481 0 
L 794 0 
L 794 531 
z
" transform="scale(0.015625)"/>
       </defs>
       <use xlink:href="#DejaVuSans-31"/>
       <use xlink:href="#DejaVuSans-2e" transform="translate(63.623047 0)"/>
       <use xlink:href="#DejaVuSans-30" transform="translate(95.410156 0)"/>
      </g>
     </g>
    </g>
    <g id="text_14">
     <!-- JFI -->
     <g transform="translate(17.097187 253.505781) rotate(-90) scale(0.1 -0.1)">
      <defs>
       <path id="DejaVuSans-4a" d="M 628 4666 
L 1259 4666 
L 1259 325 
Q 1259 -519 939 -900 
Q 619 -1281 -91 -1281 
L -331 -1281 
L -331 -750 
L -134 -750 
Q 284 -750 456 -515 
Q 628 -281 628 325 
L 628 4666 
z
" transform="scale(0.015625)"/>
       <path id="DejaVuSans-46" d="M 628 4666 
L 3309 4666 
L 3309 4134 
L 1259 4134 
L 1259 2759 
L 3109 2759 
L 3109 2228 
L 1259 2228 
L 1259 0 
L 628 0 
L 628 4666 
z
" transform="scale(0.015625)"/>
       <path id="DejaVuSans-49" d="M 628 4666 
L 1259 4666 
L 1259 0 
L 628 0 
L 628 4666 
z
" transform="scale(0.015625)"/>
      </defs>
      <use xlink:href="#DejaVuSans-4a"/>
      <use xlink:href="#DejaVuSans-46" transform="translate(29.492188 0)"/>
      <use xlink:href="#DejaVuSans-49" transform="translate(87.011719 0)"/>
     </g>
    </g>
   </g>
   <g id="LineCollection_1">
    <path d="M 108.535537 73.126957 
L 108.535537 73.126957 
" clip-path="url(#p4e60bd130b)" style="fill: none; stroke: #000000; stroke-width: 1.5"/>
    <path d="M 264.67438 73.126957 
L 264.67438 73.126957 
" clip-path="url(#p4e60bd130b)" style="fill: none; stroke: #000000; stroke-width: 1.5"/>
    <path d="M 420.813223 73.126957 
L 420.813223 73.126957 
" clip-path="url(#p4e60bd130b)" style="fill: none; stroke: #000000; stroke-width: 1.5"/>
    <path d="M 576.952066 73.126957 
L 576.952066 73.126957 
" clip-path="url(#p4e60bd130b)" style="fill: none; stroke: #000000; stroke-width: 1.5"/>
    <path d="M 733.090909 73.126957 
L 733.090909 73.126957 
" clip-path="url(#p4e60bd130b)" style="fill: none; stroke: #000000; stroke-width: 1.5"/>
    <path d="M 889.229752 73.126957 
L 889.229752 73.126957 
" clip-path="url(#p4e60bd130b)" style="fill: none; stroke: #000000; stroke-width: 1.5"/>
   </g>
   <g id="line2d_19">
    <defs>
     <path id="ma5dfd79dda" d="M 2 0 
L -2 -0 
" style="stroke: #000000"/>
    </defs>
    <g clip-path="url(#p4e60bd130b)">
     <use xlink:href="#ma5dfd79dda" x="108.535537" y="73.126957" style="stroke: #000000"/>
     <use xlink:href="#ma5dfd79dda" x="264.67438" y="73.126957" style="stroke: #000000"/>
     <use xlink:href="#ma5dfd79dda" x="420.813223" y="73.126957" style="stroke: #000000"/>
     <use xlink:href="#ma5dfd79dda" x="576.952066" y="73.126957" style="stroke: #000000"/>
     <use xlink:href="#ma5dfd79dda" x="733.090909" y="73.126957" style="stroke: #000000"/>
     <use xlink:href="#ma5dfd79dda" x="889.229752" y="73.126957" style="stroke: #000000"/>
    </g>
   </g>
   <g id="line2d_20">
    <g clip-path="url(#p4e60bd130b)">
     <use xlink:href="#ma5dfd79dda" x="108.535537" y="73.126957" style="stroke: #000000"/>
     <use xlink:href="#ma5dfd79dda" x="264.67438" y="73.126957" style="stroke: #000000"/>
     <use xlink:href="#ma5dfd79dda" x="420.813223" y="73.126957" style="stroke: #000000"/>
     <use xlink:href="#ma5dfd79dda" x="576.952066" y="73.126957" style="stroke: #000000"/>
     <use xlink:href="#ma5dfd79dda" x="733.090909" y="73.126957" style="stroke: #000000"/>
     <use xlink:href="#ma5dfd79dda" x="889.229752" y="73.126957" style="stroke: #000000"/>
    </g>
   </g>
   <g id="LineCollection_2">
    <path d="M 147.570248 73.126957 
L 147.570248 73.126957 
" clip-path="url(#p4e60bd130b)" style="fill: none; stroke: #000000; stroke-width: 1.5"/>
    <path d="M 303.709091 73.126957 
L 303.709091 73.126957 
" clip-path="url(#p4e60bd130b)" style="fill: none; stroke: #000000; stroke-width: 1.5"/>
    <path d="M 459.847934 73.126957 
L 459.847934 73.126957 
" clip-path="url(#p4e60bd130b)" style="fill: none; stroke: #000000; stroke-width: 1.5"/>
    <path d="M 615.986777 73.126957 
L 615.986777 73.126957 
" clip-path="url(#p4e60bd130b)" style="fill: none; stroke: #000000; stroke-width: 1.5"/>
    <path d="M 772.12562 483.84 
L 772.12562 483.84 
" clip-path="url(#p4e60bd130b)" style="fill: none; stroke: #000000; stroke-width: 1.5"/>
    <path d="M 928.264463 483.84 
L 928.264463 483.84 
" clip-path="url(#p4e60bd130b)" style="fill: none; stroke: #000000; stroke-width: 1.5"/>
   </g>
   <g id="line2d_21">
    <g clip-path="url(#p4e60bd130b)">
     <use xlink:href="#ma5dfd79dda" x="147.570248" y="73.126957" style="stroke: #000000"/>
     <use xlink:href="#ma5dfd79dda" x="303.709091" y="73.126957" style="stroke: #000000"/>
     <use xlink:href="#ma5dfd79dda" x="459.847934" y="73.126957" style="stroke: #000000"/>
     <use xlink:href="#ma5dfd79dda" x="615.986777" y="73.126957" style="stroke: #000000"/>
     <use xlink:href="#ma5dfd79dda" x="772.12562" y="483.84" style="stroke: #000000"/>
     <use xlink:href="#ma5dfd79dda" x="928.264463" y="483.84" style="stroke: #000000"/>
    </g>
   </g>
   <g id="line2d_22">
    <g clip-path="url(#p4e60bd130b)">
     <use xlink:href="#ma5dfd79dda" x="147.570248" y="73.126957" style="stroke: #000000"/>
     <use xlink:href="#ma5dfd79dda" x="303.709091" y="73.126957" style="stroke: #000000"/>
     <use xlink:href="#ma5dfd79dda" x="459.847934" y="73.126957" style="stroke: #000000"/>
     <use xlink:href="#ma5dfd79dda" x="615.986777" y="73.126957" style="stroke: #000000"/>
     <use xlink:href="#ma5dfd79dda" x="772.12562" y="483.84" style="stroke: #000000"/>
     <use xlink:href="#ma5dfd79dda" x="928.264463" y="483.84" style="stroke: #000000"/>
    </g>
   </g>
   <g id="patch_15">
    <path d="M 46.08 483.84 
L 46.08 11.52 
" style="fill: none; stroke: #000000; stroke-width: 0.8; stroke-linejoin: miter; stroke-linecap: square"/>
   </g>
   <g id="patch_16">
    <path d="M 990.72 483.84 
L 990.72 11.52 
" style="fill: none; stroke: #000000; stroke-width: 0.8; stroke-linejoin: miter; stroke-linecap: square"/>
   </g>
   <g id="patch_17">
    <path d="M 46.08 483.84 
L 990.72 483.84 
" style="fill: none; stroke: #000000; stroke-width: 0.8; stroke-linejoin: miter; stroke-linecap: square"/>
   </g>
   <g id="patch_18">
    <path d="M 46.08 11.52 
L 990.72 11.52 
" style="fill: none; stroke: #000000; stroke-width: 0.8; stroke-linejoin: miter; stroke-linecap: square"/>
   </g>
   <g id="text_15">
    <g id="patch_19">
     <path d="M 99.900381 65.962696 
L 117.170693 65.962696 
Q 118.220693 65.962696 118.220693 64.912696 
L 118.220693 58.138008 
Q 118.220693 57.088008 117.170693 57.088008 
L 99.900381 57.088008 
Q 98.850381 57.088008 98.850381 58.138008 
L 98.850381 64.912696 
Q 98.850381 65.962696 99.900381 65.962696 
z
" style="fill: #ffffff; opacity: 0.8"/>
    </g>
    <!-- 1.00 -->
    <g transform="translate(99.900381 63.456914) scale(0.07 -0.07)">
     <defs>
      <path id="DejaVuSans-Bold-31" d="M 750 831 
L 1813 831 
L 1813 3847 
L 722 3622 
L 722 4441 
L 1806 4666 
L 2950 4666 
L 2950 831 
L 4013 831 
L 4013 0 
L 750 0 
L 750 831 
z
" transform="scale(0.015625)"/>
      <path id="DejaVuSans-Bold-2e" d="M 653 1209 
L 1778 1209 
L 1778 0 
L 653 0 
L 653 1209 
z
" transform="scale(0.015625)"/>
      <path id="DejaVuSans-Bold-30" d="M 2944 2338 
Q 2944 3213 2780 3570 
Q 2616 3928 2228 3928 
Q 1841 3928 1675 3570 
Q 1509 3213 1509 2338 
Q 1509 1453 1675 1090 
Q 1841 728 2228 728 
Q 2613 728 2778 1090 
Q 2944 1453 2944 2338 
z
M 4147 2328 
Q 4147 1169 3647 539 
Q 3147 -91 2228 -91 
Q 1306 -91 806 539 
Q 306 1169 306 2328 
Q 306 3491 806 4120 
Q 1306 4750 2228 4750 
Q 3147 4750 3647 4120 
Q 4147 3491 4147 2328 
z
" transform="scale(0.015625)"/>
     </defs>
     <use xlink:href="#DejaVuSans-Bold-31"/>
     <use xlink:href="#DejaVuSans-Bold-2e" transform="translate(69.580078 0)"/>
     <use xlink:href="#DejaVuSans-Bold-30" transform="translate(107.568359 0)"/>
     <use xlink:href="#DejaVuSans-Bold-30" transform="translate(177.148438 0)"/>
    </g>
   </g>
   <g id="text_16">
    <g id="patch_20">
     <path d="M 256.039224 65.962696 
L 273.309536 65.962696 
Q 274.359536 65.962696 274.359536 64.912696 
L 274.359536 58.138008 
Q 274.359536 57.088008 273.309536 57.088008 
L 256.039224 57.088008 
Q 254.989224 57.088008 254.989224 58.138008 
L 254.989224 64.912696 
Q 254.989224 65.962696 256.039224 65.962696 
z
" style="fill: #ffffff; opacity: 0.8"/>
    </g>
    <!-- 1.00 -->
    <g transform="translate(256.039224 63.456914) scale(0.07 -0.07)">
     <use xlink:href="#DejaVuSans-Bold-31"/>
     <use xlink:href="#DejaVuSans-Bold-2e" transform="translate(69.580078 0)"/>
     <use xlink:href="#DejaVuSans-Bold-30" transform="translate(107.568359 0)"/>
     <use xlink:href="#DejaVuSans-Bold-30" transform="translate(177.148438 0)"/>
    </g>
   </g>
   <g id="text_17">
    <g id="patch_21">
     <path d="M 412.178067 65.962696 
L 429.448379 65.962696 
Q 430.498379 65.962696 430.498379 64.912696 
L 430.498379 58.138008 
Q 430.498379 57.088008 429.448379 57.088008 
L 412.178067 57.088008 
Q 411.128067 57.088008 411.128067 58.138008 
L 411.128067 64.912696 
Q 411.128067 65.962696 412.178067 65.962696 
z
" style="fill: #ffffff; opacity: 0.8"/>
    </g>
    <!-- 1.00 -->
    <g transform="translate(412.178067 63.456914) scale(0.07 -0.07)">
     <use xlink:href="#DejaVuSans-Bold-31"/>
     <use xlink:href="#DejaVuSans-Bold-2e" transform="translate(69.580078 0)"/>
     <use xlink:href="#DejaVuSans-Bold-30" transform="translate(107.568359 0)"/>
     <use xlink:href="#DejaVuSans-Bold-30" transform="translate(177.148438 0)"/>
    </g>
   </g>
   <g id="text_18">
    <g id="patch_22">
     <path d="M 568.31691 65.962696 
L 585.587222 65.962696 
Q 586.637222 65.962696 586.637222 64.912696 
L 586.637222 58.138008 
Q 586.637222 57.088008 585.587222 57.088008 
L 568.31691 57.088008 
Q 567.26691 57.088008 567.26691 58.138008 
L 567.26691 64.912696 
Q 567.26691 65.962696 568.31691 65.962696 
z
" style="fill: #ffffff; opacity: 0.8"/>
    </g>
    <!-- 1.00 -->
    <g transform="translate(568.31691 63.456914) scale(0.07 -0.07)">
     <use xlink:href="#DejaVuSans-Bold-31"/>
     <use xlink:href="#DejaVuSans-Bold-2e" transform="translate(69.580078 0)"/>
     <use xlink:href="#DejaVuSans-Bold-30" transform="translate(107.568359 0)"/>
     <use xlink:href="#DejaVuSans-Bold-30" transform="translate(177.148438 0)"/>
    </g>
   </g>
   <g id="text_19">
    <g id="patch_23">
     <path d="M 724.455753 65.962696 
L 741.726065 65.962696 
Q 742.776065 65.962696 742.776065 64.912696 
L 742.776065 58.138008 
Q 742.776065 57.088008 741.726065 57.088008 
L 724.455753 57.088008 
Q 723.405753 57.088008 723.405753 58.138008 
L 723.405753 64.912696 
Q 723.405753 65.962696 724.455753 65.962696 
z
" style="fill: #ffffff; opacity: 0.8"/>
    </g>
    <!-- 1.00 -->
    <g transform="translate(724.455753 63.456914) scale(0.07 -0.07)">
     <use xlink:href="#DejaVuSans-Bold-31"/>
     <use xlink:href="#DejaVuSans-Bold-2e" transform="translate(69.580078 0)"/>
     <use xlink:href="#DejaVuSans-Bold-30" transform="translate(107.568359 0)"/>
     <use xlink:href="#DejaVuSans-Bold-30" transform="translate(177.148438 0)"/>
    </g>
   </g>
   <g id="text_20">
    <g id="patch_24">
     <path d="M 880.594596 65.962696 
L 897.864908 65.962696 
Q 898.914908 65.962696 898.914908 64.912696 
L 898.914908 58.138008 
Q 898.914908 57.088008 897.864908 57.088008 
L 880.594596 57.088008 
Q 879.544596 57.088008 879.544596 58.138008 
L 879.544596 64.912696 
Q 879.544596 65.962696 880.594596 65.962696 
z
" style="fill: #ffffff; opacity: 0.8"/>
    </g>
    <!-- 1.00 -->
    <g transform="translate(880.594596 63.456914) scale(0.07 -0.07)">
     <use xlink:href="#DejaVuSans-Bold-31"/>
     <use xlink:href="#DejaVuSans-Bold-2e" transform="translate(69.580078 0)"/>
     <use xlink:href="#DejaVuSans-Bold-30" transform="translate(107.568359 0)"/>
     <use xlink:href="#DejaVuSans-Bold-30" transform="translate(177.148438 0)"/>
    </g>
   </g>
   <g id="text_21">
    <g id="patch_25">
     <path d="M 138.935092 65.962696 
L 156.205404 65.962696 
Q 157.255404 65.962696 157.255404 64.912696 
L 157.255404 58.138008 
Q 157.255404 57.088008 156.205404 57.088008 
L 138.935092 57.088008 
Q 137.885092 57.088008 137.885092 58.138008 
L 137.885092 64.912696 
Q 137.885092 65.962696 138.935092 65.962696 
z
" style="fill: #ffffff; opacity: 0.8"/>
    </g>
    <!-- 1.00 -->
    <g transform="translate(138.935092 63.456914) scale(0.07 -0.07)">
     <use xlink:href="#DejaVuSans-Bold-31"/>
     <use xlink:href="#DejaVuSans-Bold-2e" transform="translate(69.580078 0)"/>
     <use xlink:href="#DejaVuSans-Bold-30" transform="translate(107.568359 0)"/>
     <use xlink:href="#DejaVuSans-Bold-30" transform="translate(177.148438 0)"/>
    </g>
   </g>
   <g id="text_22">
    <g id="patch_26">
     <path d="M 295.073935 65.962696 
L 312.344247 65.962696 
Q 313.394247 65.962696 313.394247 64.912696 
L 313.394247 58.138008 
Q 313.394247 57.088008 312.344247 57.088008 
L 295.073935 57.088008 
Q 294.023935 57.088008 294.023935 58.138008 
L 294.023935 64.912696 
Q 294.023935 65.962696 295.073935 65.962696 
z
" style="fill: #ffffff; opacity: 0.8"/>
    </g>
    <!-- 1.00 -->
    <g transform="translate(295.073935 63.456914) scale(0.07 -0.07)">
     <use xlink:href="#DejaVuSans-Bold-31"/>
     <use xlink:href="#DejaVuSans-Bold-2e" transform="translate(69.580078 0)"/>
     <use xlink:href="#DejaVuSans-Bold-30" transform="translate(107.568359 0)"/>
     <use xlink:href="#DejaVuSans-Bold-30" transform="translate(177.148438 0)"/>
    </g>
   </g>
   <g id="text_23">
    <g id="patch_27">
     <path d="M 451.212778 65.962696 
L 468.48309 65.962696 
Q 469.53309 65.962696 469.53309 64.912696 
L 469.53309 58.138008 
Q 469.53309 57.088008 468.48309 57.088008 
L 451.212778 57.088008 
Q 450.162778 57.088008 450.162778 58.138008 
L 450.162778 64.912696 
Q 450.162778 65.962696 451.212778 65.962696 
z
" style="fill: #ffffff; opacity: 0.8"/>
    </g>
    <!-- 1.00 -->
    <g transform="translate(451.212778 63.456914) scale(0.07 -0.07)">
     <use xlink:href="#DejaVuSans-Bold-31"/>
     <use xlink:href="#DejaVuSans-Bold-2e" transform="translate(69.580078 0)"/>
     <use xlink:href="#DejaVuSans-Bold-30" transform="translate(107.568359 0)"/>
     <use xlink:href="#DejaVuSans-Bold-30" transform="translate(177.148438 0)"/>
    </g>
   </g>
   <g id="text_24">
    <g id="patch_28">
     <path d="M 607.351621 65.962696 
L 624.621933 65.962696 
Q 625.671933 65.962696 625.671933 64.912696 
L 625.671933 58.138008 
Q 625.671933 57.088008 624.621933 57.088008 
L 607.351621 57.088008 
Q 606.301621 57.088008 606.301621 58.138008 
L 606.301621 64.912696 
Q 606.301621 65.962696 607.351621 65.962696 
z
" style="fill: #ffffff; opacity: 0.8"/>
    </g>
    <!-- 1.00 -->
    <g transform="translate(607.351621 63.456914) scale(0.07 -0.07)">
     <use xlink:href="#DejaVuSans-Bold-31"/>
     <use xlink:href="#DejaVuSans-Bold-2e" transform="translate(69.580078 0)"/>
     <use xlink:href="#DejaVuSans-Bold-30" transform="translate(107.568359 0)"/>
     <use xlink:href="#DejaVuSans-Bold-30" transform="translate(177.148438 0)"/>
    </g>
   </g>
   <g id="text_25">
    <g id="patch_29">
     <path d="M 763.490464 476.675739 
L 780.760776 476.675739 
Q 781.810776 476.675739 781.810776 475.625739 
L 781.810776 468.851052 
Q 781.810776 467.801052 780.760776 467.801052 
L 763.490464 467.801052 
Q 762.440464 467.801052 762.440464 468.851052 
L 762.440464 475.625739 
Q 762.440464 476.675739 763.490464 476.675739 
z
" style="fill: #ffffff; opacity: 0.8"/>
    </g>
    <!-- 0.00 -->
    <g transform="translate(763.490464 474.169958) scale(0.07 -0.07)">
     <use xlink:href="#DejaVuSans-Bold-30"/>
     <use xlink:href="#DejaVuSans-Bold-2e" transform="translate(69.580078 0)"/>
     <use xlink:href="#DejaVuSans-Bold-30" transform="translate(107.568359 0)"/>
     <use xlink:href="#DejaVuSans-Bold-30" transform="translate(177.148438 0)"/>
    </g>
   </g>
   <g id="text_26">
    <g id="patch_30">
     <path d="M 919.629307 476.675739 
L 936.899619 476.675739 
Q 937.949619 476.675739 937.949619 475.625739 
L 937.949619 468.851052 
Q 937.949619 467.801052 936.899619 467.801052 
L 919.629307 467.801052 
Q 918.579307 467.801052 918.579307 468.851052 
L 918.579307 475.625739 
Q 918.579307 476.675739 919.629307 476.675739 
z
" style="fill: #ffffff; opacity: 0.8"/>
    </g>
    <!-- 0.00 -->
    <g transform="translate(919.629307 474.169958) scale(0.07 -0.07)">
     <use xlink:href="#DejaVuSans-Bold-30"/>
     <use xlink:href="#DejaVuSans-Bold-2e" transform="translate(69.580078 0)"/>
     <use xlink:href="#DejaVuSans-Bold-30" transform="translate(107.568359 0)"/>
     <use xlink:href="#DejaVuSans-Bold-30" transform="translate(177.148438 0)"/>
    </g>
   </g>
   <g id="legend_1">
    <g id="patch_31">
     <path d="M 1011.6128 73.2325 
L 1086.473737 73.2325 
Q 1088.473737 73.2325 1088.473737 71.2325 
L 1088.473737 13.52 
Q 1088.473737 11.52 1086.473737 11.52 
L 1011.6128 11.52 
Q 1009.6128 11.52 1009.6128 13.52 
L 1009.6128 71.2325 
Q 1009.6128 73.2325 1011.6128 73.2325 
z
" style="fill: #ffffff; opacity: 0.8; stroke: #cccccc; stroke-linejoin: miter"/>
    </g>
    <g id="text_27">
     <!-- Systems -->
     <g transform="translate(1027.793269 23.118437) scale(0.1 -0.1)">
      <use xlink:href="#DejaVuSans-53"/>
      <use xlink:href="#DejaVuSans-79" transform="translate(63.476562 0)"/>
      <use xlink:href="#DejaVuSans-73" transform="translate(122.65625 0)"/>
      <use xlink:href="#DejaVuSans-74" transform="translate(174.755859 0)"/>
      <use xlink:href="#DejaVuSans-65" transform="translate(213.964844 0)"/>
      <use xlink:href="#DejaVuSans-6d" transform="translate(275.488281 0)"/>
      <use xlink:href="#DejaVuSans-73" transform="translate(372.900391 0)"/>
     </g>
    </g>
    <g id="patch_32">
     <path d="M 1013.6128 37.796562 
L 1033.6128 37.796562 
L 1033.6128 30.796562 
L 1013.6128 30.796562 
z
" style="fill: #0000ff; stroke: #000000; stroke-linejoin: miter"/>
    </g>
    <g id="text_28">
     <!-- Kueue -->
     <g transform="translate(1041.6128 37.796562) scale(0.1 -0.1)">
      <use xlink:href="#DejaVuSans-4b"/>
      <use xlink:href="#DejaVuSans-75" transform="translate(60.576172 0)"/>
      <use xlink:href="#DejaVuSans-65" transform="translate(123.955078 0)"/>
      <use xlink:href="#DejaVuSans-75" transform="translate(185.478516 0)"/>
      <use xlink:href="#DejaVuSans-65" transform="translate(248.857422 0)"/>
     </g>
    </g>
    <g id="patch_33">
     <path d="M 1013.6128 52.474687 
L 1033.6128 52.474687 
L 1033.6128 45.474687 
L 1013.6128 45.474687 
z
" style="fill: #ff0000; stroke: #000000; stroke-linejoin: miter"/>
    </g>
    <g id="text_29">
     <!-- Volcano -->
     <g transform="translate(1041.6128 52.474687) scale(0.1 -0.1)">
      <use xlink:href="#DejaVuSans-56"/>
      <use xlink:href="#DejaVuSans-6f" transform="translate(60.658203 0)"/>
      <use xlink:href="#DejaVuSans-6c" transform="translate(121.839844 0)"/>
      <use xlink:href="#DejaVuSans-63" transform="translate(149.623047 0)"/>
      <use xlink:href="#DejaVuSans-61" transform="translate(204.603516 0)"/>
      <use xlink:href="#DejaVuSans-6e" transform="translate(265.882812 0)"/>
      <use xlink:href="#DejaVuSans-6f" transform="translate(329.261719 0)"/>
     </g>
    </g>
    <g id="patch_34">
     <path d="M 1013.6128 67.152812 
L 1033.6128 67.152812 
L 1033.6128 60.152812 
L 1013.6128 60.152812 
z
" style="fill: #008000; stroke: #000000; stroke-linejoin: miter"/>
    </g>
    <g id="text_30">
     <!-- YuniKorn -->
     <g transform="translate(1041.6128 67.152812) scale(0.1 -0.1)">
      <use xlink:href="#DejaVuSans-59"/>
      <use xlink:href="#DejaVuSans-75" transform="translate(49.583984 0)"/>
      <use xlink:href="#DejaVuSans-6e" transform="translate(112.962891 0)"/>
      <use xlink:href="#DejaVuSans-69" transform="translate(176.341797 0)"/>
      <use xlink:href="#DejaVuSans-4b" transform="translate(204.125 0)"/>
      <use xlink:href="#DejaVuSans-6f" transform="translate(264.701172 0)"/>
      <use xlink:href="#DejaVuSans-72" transform="translate(325.882812 0)"/>
      <use xlink:href="#DejaVuSans-6e" transform="translate(365.246094 0)"/>
     </g>
    </g>
   </g>
   <g id="legend_2">
    <g id="patch_35">
     <path d="M 1011.6128 143.571975 
L 1142.692487 143.571975 
Q 1144.692487 143.571975 1144.692487 141.571975 
L 1144.692487 98.5376 
Q 1144.692487 96.5376 1142.692487 96.5376 
L 1011.6128 96.5376 
Q 1009.6128 96.5376 1009.6128 98.5376 
L 1009.6128 141.571975 
Q 1009.6128 143.571975 1011.6128 143.571975 
z
" style="fill: #ffffff; opacity: 0.8; stroke: #cccccc; stroke-linejoin: miter"/>
    </g>
    <g id="text_31">
     <!-- Variants -->
     <g transform="translate(1056.813581 108.136037) scale(0.1 -0.1)">
      <use xlink:href="#DejaVuSans-56"/>
      <use xlink:href="#DejaVuSans-61" transform="translate(60.658203 0)"/>
      <use xlink:href="#DejaVuSans-72" transform="translate(121.9375 0)"/>
      <use xlink:href="#DejaVuSans-69" transform="translate(163.050781 0)"/>
      <use xlink:href="#DejaVuSans-61" transform="translate(190.833984 0)"/>
      <use xlink:href="#DejaVuSans-6e" transform="translate(252.113281 0)"/>
      <use xlink:href="#DejaVuSans-74" transform="translate(315.492188 0)"/>
      <use xlink:href="#DejaVuSans-73" transform="translate(354.701172 0)"/>
     </g>
    </g>
    <g id="patch_36">
     <path d="M 1013.6128 122.814163 
L 1033.6128 122.814163 
L 1033.6128 115.814163 
L 1013.6128 115.814163 
z
" style="fill: #404040; stroke: #000000; stroke-linejoin: miter"/>
    </g>
    <g id="text_32">
     <!-- With guarantees -->
     <g transform="translate(1041.6128 122.814163) scale(0.1 -0.1)">
      <defs>
       <path id="DejaVuSans-57" d="M 213 4666 
L 850 4666 
L 1831 722 
L 2809 4666 
L 3519 4666 
L 4500 722 
L 5478 4666 
L 6119 4666 
L 4947 0 
L 4153 0 
L 3169 4050 
L 2175 0 
L 1381 0 
L 213 4666 
z
" transform="scale(0.015625)"/>
       <path id="DejaVuSans-68" d="M 3513 2113 
L 3513 0 
L 2938 0 
L 2938 2094 
Q 2938 2591 2744 2837 
Q 2550 3084 2163 3084 
Q 1697 3084 1428 2787 
Q 1159 2491 1159 1978 
L 1159 0 
L 581 0 
L 581 4863 
L 1159 4863 
L 1159 2956 
Q 1366 3272 1645 3428 
Q 1925 3584 2291 3584 
Q 2894 3584 3203 3211 
Q 3513 2838 3513 2113 
z
" transform="scale(0.015625)"/>
       <path id="DejaVuSans-20" transform="scale(0.015625)"/>
       <path id="DejaVuSans-67" d="M 2906 1791 
Q 2906 2416 2648 2759 
Q 2391 3103 1925 3103 
Q 1463 3103 1205 2759 
Q 947 2416 947 1791 
Q 947 1169 1205 825 
Q 1463 481 1925 481 
Q 2391 481 2648 825 
Q 2906 1169 2906 1791 
z
M 3481 434 
Q 3481 -459 3084 -895 
Q 2688 -1331 1869 -1331 
Q 1566 -1331 1297 -1286 
Q 1028 -1241 775 -1147 
L 775 -588 
Q 1028 -725 1275 -790 
Q 1522 -856 1778 -856 
Q 2344 -856 2625 -561 
Q 2906 -266 2906 331 
L 2906 616 
Q 2728 306 2450 153 
Q 2172 0 1784 0 
Q 1141 0 747 490 
Q 353 981 353 1791 
Q 353 2603 747 3093 
Q 1141 3584 1784 3584 
Q 2172 3584 2450 3431 
Q 2728 3278 2906 2969 
L 2906 3500 
L 3481 3500 
L 3481 434 
z
" transform="scale(0.015625)"/>
      </defs>
      <use xlink:href="#DejaVuSans-57"/>
      <use xlink:href="#DejaVuSans-69" transform="translate(96.626953 0)"/>
      <use xlink:href="#DejaVuSans-74" transform="translate(124.410156 0)"/>
      <use xlink:href="#DejaVuSans-68" transform="translate(163.619141 0)"/>
      <use xlink:href="#DejaVuSans-20" transform="translate(226.998047 0)"/>
      <use xlink:href="#DejaVuSans-67" transform="translate(258.785156 0)"/>
      <use xlink:href="#DejaVuSans-75" transform="translate(322.261719 0)"/>
      <use xlink:href="#DejaVuSans-61" transform="translate(385.640625 0)"/>
      <use xlink:href="#DejaVuSans-72" transform="translate(446.919922 0)"/>
      <use xlink:href="#DejaVuSans-61" transform="translate(488.033203 0)"/>
      <use xlink:href="#DejaVuSans-6e" transform="translate(549.3125 0)"/>
      <use xlink:href="#DejaVuSans-74" transform="translate(612.691406 0)"/>
      <use xlink:href="#DejaVuSans-65" transform="translate(651.900391 0)"/>
      <use xlink:href="#DejaVuSans-65" transform="translate(713.423828 0)"/>
      <use xlink:href="#DejaVuSans-73" transform="translate(774.947266 0)"/>
     </g>
    </g>
    <g id="patch_37">
     <path d="M 1013.6128 137.492288 
L 1033.6128 137.492288 
L 1033.6128 130.492288 
L 1013.6128 130.492288 
z
" style="fill: #808080; stroke: #000000; stroke-linejoin: miter"/>
    </g>
    <g id="text_33">
     <!-- Without guarantees -->
     <g transform="translate(1041.6128 137.492288) scale(0.1 -0.1)">
      <use xlink:href="#DejaVuSans-57"/>
      <use xlink:href="#DejaVuSans-69" transform="translate(96.626953 0)"/>
      <use xlink:href="#DejaVuSans-74" transform="translate(124.410156 0)"/>
      <use xlink:href="#DejaVuSans-68" transform="translate(163.619141 0)"/>
      <use xlink:href="#DejaVuSans-6f" transform="translate(226.998047 0)"/>
      <use xlink:href="#DejaVuSans-75" transform="translate(288.179688 0)"/>
      <use xlink:href="#DejaVuSans-74" transform="translate(351.558594 0)"/>
      <use xlink:href="#DejaVuSans-20" transform="translate(390.767578 0)"/>
      <use xlink:href="#DejaVuSans-67" transform="translate(422.554688 0)"/>
      <use xlink:href="#DejaVuSans-75" transform="translate(486.03125 0)"/>
      <use xlink:href="#DejaVuSans-61" transform="translate(549.410156 0)"/>
      <use xlink:href="#DejaVuSans-72" transform="translate(610.689453 0)"/>
      <use xlink:href="#DejaVuSans-61" transform="translate(651.802734 0)"/>
      <use xlink:href="#DejaVuSans-6e" transform="translate(713.082031 0)"/>
      <use xlink:href="#DejaVuSans-74" transform="translate(776.460938 0)"/>
      <use xlink:href="#DejaVuSans-65" transform="translate(815.669922 0)"/>
      <use xlink:href="#DejaVuSans-65" transform="translate(877.193359 0)"/>
      <use xlink:href="#DejaVuSans-73" transform="translate(938.716797 0)"/>
     </g>
    </g>
   </g>
   <g id="legend_3">
    <g id="patch_38">
     <path d="M 1011.6128 214.419975 
L 1084.283113 214.419975 
Q 1086.283113 214.419975 1086.283113 212.419975 
L 1086.283113 169.3856 
Q 1086.283113 167.3856 1084.283113 167.3856 
L 1011.6128 167.3856 
Q 1009.6128 167.3856 1009.6128 169.3856 
L 1009.6128 212.419975 
Q 1009.6128 214.419975 1011.6128 214.419975 
z
" style="fill: #ffffff; opacity: 0.8; stroke: #cccccc; stroke-linejoin: miter"/>
    </g>
    <g id="text_34">
     <!-- Resources -->
     <g transform="translate(1022.415925 178.984037) scale(0.1 -0.1)">
      <use xlink:href="#DejaVuSans-52"/>
      <use xlink:href="#DejaVuSans-65" transform="translate(64.982422 0)"/>
      <use xlink:href="#DejaVuSans-73" transform="translate(126.505859 0)"/>
      <use xlink:href="#DejaVuSans-6f" transform="translate(178.605469 0)"/>
      <use xlink:href="#DejaVuSans-75" transform="translate(239.787109 0)"/>
      <use xlink:href="#DejaVuSans-72" transform="translate(303.166016 0)"/>
      <use xlink:href="#DejaVuSans-63" transform="translate(342.029297 0)"/>
      <use xlink:href="#DejaVuSans-65" transform="translate(397.009766 0)"/>
      <use xlink:href="#DejaVuSans-73" transform="translate(458.533203 0)"/>
     </g>
    </g>
    <g id="patch_39">
     <path d="M 1013.6128 193.662162 
L 1033.6128 193.662162 
L 1033.6128 186.662162 
L 1013.6128 186.662162 
z
" style="fill: url(#h5735fb1cef); stroke: #000000; stroke-linejoin: miter"/>
    </g>
    <g id="text_35">
     <!-- CPU -->
     <g transform="translate(1041.6128 193.662162) scale(0.1 -0.1)">
      <use xlink:href="#DejaVuSans-43"/>
      <use xlink:href="#DejaVuSans-50" transform="translate(69.824219 0)"/>
      <use xlink:href="#DejaVuSans-55" transform="translate(130.126953 0)"/>
     </g>
    </g>
    <g id="patch_40">
     <path d="M 1013.6128 208.340287 
L 1033.6128 208.340287 
L 1033.6128 201.340287 
L 1013.6128 201.340287 
z
" style="fill: url(#hb2a5f8f83d); stroke: #000000; stroke-linejoin: miter"/>
    </g>
    <g id="text_36">
     <!-- Memory -->
     <g transform="translate(1041.6128 208.340287) scale(0.1 -0.1)">
      <use xlink:href="#DejaVuSans-4d"/>
      <use xlink:href="#DejaVuSans-65" transform="translate(86.279297 0)"/>
      <use xlink:href="#DejaVuSans-6d" transform="translate(147.802734 0)"/>
      <use xlink:href="#DejaVuSans-6f" transform="translate(245.214844 0)"/>
      <use xlink:href="#DejaVuSans-72" transform="translate(306.396484 0)"/>
      <use xlink:href="#DejaVuSans-79" transform="translate(347.509766 0)"/>
     </g>
    </g>
   </g>
  </g>
 </g>
 <defs>
  <clipPath id="p4e60bd130b">
   <rect x="46.08" y="11.52" width="944.64" height="472.32"/>
  </clipPath>
 </defs>
 <defs>
  <pattern id="hee8e66e861" patternUnits="userSpaceOnUse" x="0" y="0" width="72" height="72">
   <rect x="0" y="0" width="73" height="73" fill="#000080"/>
   <path d="M -36 36 
L 36 -36 
M -32 40 
L 40 -32 
M -28 44 
L 44 -28 
M -24 48 
L 48 -24 
M -20 52 
L 52 -20 
M -16 56 
L 56 -16 
M -12 60 
L 60 -12 
M -8 64 
L 64 -8 
M -4 68 
L 68 -4 
M 0 72 
L 72 0 
M 4 76 
L 76 4 
M 8 80 
L 80 8 
M 12 84 
L 84 12 
M 16 88 
L 88 16 
M 20 92 
L 92 20 
M 24 96 
L 96 24 
M 28 100 
L 100 28 
M 32 104 
L 104 32 
M 36 108 
L 108 36 
" style="fill: #000000; stroke: #000000; stroke-width: 0.5; stroke-linecap: butt; stroke-linejoin: miter; stroke-opacity: 0.8"/>
  </pattern>
  <pattern id="h6985a6b041" patternUnits="userSpaceOnUse" x="0" y="0" width="72" height="72">
   <rect x="0" y="0" width="73" height="73" fill="#000080"/>
   <path d="M -36 36 
L 36 108 
M -32 32 
L 40 104 
M -28 28 
L 44 100 
M -24 24 
L 48 96 
M -20 20 
L 52 92 
M -16 16 
L 56 88 
M -12 12 
L 60 84 
M -8 8 
L 64 80 
M -4 4 
L 68 76 
M 0 0 
L 72 72 
M 4 -4 
L 76 68 
M 8 -8 
L 80 64 
M 12 -12 
L 84 60 
M 16 -16 
L 88 56 
M 20 -20 
L 92 52 
M 24 -24 
L 96 48 
M 28 -28 
L 100 44 
M 32 -32 
L 104 40 
M 36 -36 
L 108 36 
" style="fill: #000000; stroke: #000000; stroke-width: 0.5; stroke-linecap: butt; stroke-linejoin: miter; stroke-opacity: 0.8"/>
  </pattern>
  <pattern id="h20a4b3dfb7" patternUnits="userSpaceOnUse" x="0" y="0" width="72" height="72">
   <rect x="0" y="0" width="73" height="73" fill="#8b0000"/>
   <path d="M -36 36 
L 36 -36 
M -32 40 
L 40 -32 
M -28 44 
L 44 -28 
M -24 48 
L 48 -24 
M -20 52 
L 52 -20 
M -16 56 
L 56 -16 
M -12 60 
L 60 -12 
M -8 64 
L 64 -8 
M -4 68 
L 68 -4 
M 0 72 
L 72 0 
M 4 76 
L 76 4 
M 8 80 
L 80 8 
M 12 84 
L 84 12 
M 16 88 
L 88 16 
M 20 92 
L 92 20 
M 24 96 
L 96 24 
M 28 100 
L 100 28 
M 32 104 
L 104 32 
M 36 108 
L 108 36 
" style="fill: #000000; stroke: #000000; stroke-width: 0.5; stroke-linecap: butt; stroke-linejoin: miter; stroke-opacity: 0.8"/>
  </pattern>
  <pattern id="hb83ca17da4" patternUnits="userSpaceOnUse" x="0" y="0" width="72" height="72">
   <rect x="0" y="0" width="73" height="73" fill="#8b0000"/>
   <path d="M -36 36 
L 36 108 
M -32 32 
L 40 104 
M -28 28 
L 44 100 
M -24 24 
L 48 96 
M -20 20 
L 52 92 
M -16 16 
L 56 88 
M -12 12 
L 60 84 
M -8 8 
L 64 80 
M -4 4 
L 68 76 
M 0 0 
L 72 72 
M 4 -4 
L 76 68 
M 8 -8 
L 80 64 
M 12 -12 
L 84 60 
M 16 -16 
L 88 56 
M 20 -20 
L 92 52 
M 24 -24 
L 96 48 
M 28 -28 
L 100 44 
M 32 -32 
L 104 40 
M 36 -36 
L 108 36 
" style="fill: #000000; stroke: #000000; stroke-width: 0.5; stroke-linecap: butt; stroke-linejoin: miter; stroke-opacity: 0.8"/>
  </pattern>
  <pattern id="hea6bc92623" patternUnits="userSpaceOnUse" x="0" y="0" width="72" height="72">
   <rect x="0" y="0" width="73" height="73" fill="#006400"/>
   <path d="M -36 36 
L 36 -36 
M -32 40 
L 40 -32 
M -28 44 
L 44 -28 
M -24 48 
L 48 -24 
M -20 52 
L 52 -20 
M -16 56 
L 56 -16 
M -12 60 
L 60 -12 
M -8 64 
L 64 -8 
M -4 68 
L 68 -4 
M 0 72 
L 72 0 
M 4 76 
L 76 4 
M 8 80 
L 80 8 
M 12 84 
L 84 12 
M 16 88 
L 88 16 
M 20 92 
L 92 20 
M 24 96 
L 96 24 
M 28 100 
L 100 28 
M 32 104 
L 104 32 
M 36 108 
L 108 36 
" style="fill: #000000; stroke: #000000; stroke-width: 0.5; stroke-linecap: butt; stroke-linejoin: miter; stroke-opacity: 0.8"/>
  </pattern>
  <pattern id="hca7527eb69" patternUnits="userSpaceOnUse" x="0" y="0" width="72" height="72">
   <rect x="0" y="0" width="73" height="73" fill="#006400"/>
   <path d="M -36 36 
L 36 108 
M -32 32 
L 40 104 
M -28 28 
L 44 100 
M -24 24 
L 48 96 
M -20 20 
L 52 92 
M -16 16 
L 56 88 
M -12 12 
L 60 84 
M -8 8 
L 64 80 
M -4 4 
L 68 76 
M 0 0 
L 72 72 
M 4 -4 
L 76 68 
M 8 -8 
L 80 64 
M 12 -12 
L 84 60 
M 16 -16 
L 88 56 
M 20 -20 
L 92 52 
M 24 -24 
L 96 48 
M 28 -28 
L 100 44 
M 32 -32 
L 104 40 
M 36 -36 
L 108 36 
" style="fill: #000000; stroke: #000000; stroke-width: 0.5; stroke-linecap: butt; stroke-linejoin: miter; stroke-opacity: 0.8"/>
  </pattern>
  <pattern id="h8cd850e40b" patternUnits="userSpaceOnUse" x="0" y="0" width="72" height="72">
   <rect x="0" y="0" width="73" height="73" fill="#4169e1"/>
   <path d="M -36 36 
L 36 -36 
M -32 40 
L 40 -32 
M -28 44 
L 44 -28 
M -24 48 
L 48 -24 
M -20 52 
L 52 -20 
M -16 56 
L 56 -16 
M -12 60 
L 60 -12 
M -8 64 
L 64 -8 
M -4 68 
L 68 -4 
M 0 72 
L 72 0 
M 4 76 
L 76 4 
M 8 80 
L 80 8 
M 12 84 
L 84 12 
M 16 88 
L 88 16 
M 20 92 
L 92 20 
M 24 96 
L 96 24 
M 28 100 
L 100 28 
M 32 104 
L 104 32 
M 36 108 
L 108 36 
" style="fill: #000000; stroke: #000000; stroke-width: 0.5; stroke-linecap: butt; stroke-linejoin: miter; stroke-opacity: 0.8"/>
  </pattern>
  <pattern id="h65bae37064" patternUnits="userSpaceOnUse" x="0" y="0" width="72" height="72">
   <rect x="0" y="0" width="73" height="73" fill="#4169e1"/>
   <path d="M -36 36 
L 36 108 
M -32 32 
L 40 104 
M -28 28 
L 44 100 
M -24 24 
L 48 96 
M -20 20 
L 52 92 
M -16 16 
L 56 88 
M -12 12 
L 60 84 
M -8 8 
L 64 80 
M -4 4 
L 68 76 
M 0 0 
L 72 72 
M 4 -4 
L 76 68 
M 8 -8 
L 80 64 
M 12 -12 
L 84 60 
M 16 -16 
L 88 56 
M 20 -20 
L 92 52 
M 24 -24 
L 96 48 
M 28 -28 
L 100 44 
M 32 -32 
L 104 40 
M 36 -36 
L 108 36 
" style="fill: #000000; stroke: #000000; stroke-width: 0.5; stroke-linecap: butt; stroke-linejoin: miter; stroke-opacity: 0.8"/>
  </pattern>
  <pattern id="h08987f25a9" patternUnits="userSpaceOnUse" x="0" y="0" width="72" height="72">
   <rect x="0" y="0" width="73" height="73" fill="#ff4500"/>
   <path d="M -36 36 
L 36 -36 
M -32 40 
L 40 -32 
M -28 44 
L 44 -28 
M -24 48 
L 48 -24 
M -20 52 
L 52 -20 
M -16 56 
L 56 -16 
M -12 60 
L 60 -12 
M -8 64 
L 64 -8 
M -4 68 
L 68 -4 
M 0 72 
L 72 0 
M 4 76 
L 76 4 
M 8 80 
L 80 8 
M 12 84 
L 84 12 
M 16 88 
L 88 16 
M 20 92 
L 92 20 
M 24 96 
L 96 24 
M 28 100 
L 100 28 
M 32 104 
L 104 32 
M 36 108 
L 108 36 
" style="fill: #000000; stroke: #000000; stroke-width: 0.5; stroke-linecap: butt; stroke-linejoin: miter; stroke-opacity: 0.8"/>
  </pattern>
  <pattern id="h3c0d28f3bc" patternUnits="userSpaceOnUse" x="0" y="0" width="72" height="72">
   <rect x="0" y="0" width="73" height="73" fill="#ff4500"/>
   <path d="M -36 36 
L 36 108 
M -32 32 
L 40 104 
M -28 28 
L 44 100 
M -24 24 
L 48 96 
M -20 20 
L 52 92 
M -16 16 
L 56 88 
M -12 12 
L 60 84 
M -8 8 
L 64 80 
M -4 4 
L 68 76 
M 0 0 
L 72 72 
M 4 -4 
L 76 68 
M 8 -8 
L 80 64 
M 12 -12 
L 84 60 
M 16 -16 
L 88 56 
M 20 -20 
L 92 52 
M 24 -24 
L 96 48 
M 28 -28 
L 100 44 
M 32 -32 
L 104 40 
M 36 -36 
L 108 36 
" style="fill: #000000; stroke: #000000; stroke-width: 0.5; stroke-linecap: butt; stroke-linejoin: miter; stroke-opacity: 0.8"/>
  </pattern>
  <pattern id="h2e624d72e8" patternUnits="userSpaceOnUse" x="0" y="0" width="72" height="72">
   <rect x="0" y="0" width="73" height="73" fill="#32cd32"/>
   <path d="M -36 36 
L 36 -36 
M -32 40 
L 40 -32 
M -28 44 
L 44 -28 
M -24 48 
L 48 -24 
M -20 52 
L 52 -20 
M -16 56 
L 56 -16 
M -12 60 
L 60 -12 
M -8 64 
L 64 -8 
M -4 68 
L 68 -4 
M 0 72 
L 72 0 
M 4 76 
L 76 4 
M 8 80 
L 80 8 
M 12 84 
L 84 12 
M 16 88 
L 88 16 
M 20 92 
L 92 20 
M 24 96 
L 96 24 
M 28 100 
L 100 28 
M 32 104 
L 104 32 
M 36 108 
L 108 36 
" style="fill: #000000; stroke: #000000; stroke-width: 0.5; stroke-linecap: butt; stroke-linejoin: miter; stroke-opacity: 0.8"/>
  </pattern>
  <pattern id="ha16f7279ac" patternUnits="userSpaceOnUse" x="0" y="0" width="72" height="72">
   <rect x="0" y="0" width="73" height="73" fill="#32cd32"/>
   <path d="M -36 36 
L 36 108 
M -32 32 
L 40 104 
M -28 28 
L 44 100 
M -24 24 
L 48 96 
M -20 20 
L 52 92 
M -16 16 
L 56 88 
M -12 12 
L 60 84 
M -8 8 
L 64 80 
M -4 4 
L 68 76 
M 0 0 
L 72 72 
M 4 -4 
L 76 68 
M 8 -8 
L 80 64 
M 12 -12 
L 84 60 
M 16 -16 
L 88 56 
M 20 -20 
L 92 52 
M 24 -24 
L 96 48 
M 28 -28 
L 100 44 
M 32 -32 
L 104 40 
M 36 -36 
L 108 36 
" style="fill: #000000; stroke: #000000; stroke-width: 0.5; stroke-linecap: butt; stroke-linejoin: miter; stroke-opacity: 0.8"/>
  </pattern>
  <pattern id="h5735fb1cef" patternUnits="userSpaceOnUse" x="0" y="0" width="72" height="72">
   <rect x="0" y="0" width="73" height="73" fill="#ffffff"/>
   <path d="M -36 36 
L 36 -36 
M -32 40 
L 40 -32 
M -28 44 
L 44 -28 
M -24 48 
L 48 -24 
M -20 52 
L 52 -20 
M -16 56 
L 56 -16 
M -12 60 
L 60 -12 
M -8 64 
L 64 -8 
M -4 68 
L 68 -4 
M 0 72 
L 72 0 
M 4 76 
L 76 4 
M 8 80 
L 80 8 
M 12 84 
L 84 12 
M 16 88 
L 88 16 
M 20 92 
L 92 20 
M 24 96 
L 96 24 
M 28 100 
L 100 28 
M 32 104 
L 104 32 
M 36 108 
L 108 36 
" style="fill: #000000; stroke: #000000; stroke-width: 0.5; stroke-linecap: butt; stroke-linejoin: miter"/>
  </pattern>
  <pattern id="hb2a5f8f83d" patternUnits="userSpaceOnUse" x="0" y="0" width="72" height="72">
   <rect x="0" y="0" width="73" height="73" fill="#ffffff"/>
   <path d="M -36 36 
L 36 108 
M -32 32 
L 40 104 
M -28 28 
L 44 100 
M -24 24 
L 48 96 
M -20 20 
L 52 92 
M -16 16 
L 56 88 
M -12 12 
L 60 84 
M -8 8 
L 64 80 
M -4 4 
L 68 76 
M 0 0 
L 72 72 
M 4 -4 
L 76 68 
M 8 -8 
L 80 64 
M 12 -12 
L 84 60 
M 16 -16 
L 88 56 
M 20 -20 
L 92 52 
M 24 -24 
L 96 48 
M 28 -28 
L 100 44 
M 32 -32 
L 104 40 
M 36 -36 
L 108 36 
" style="fill: #000000; stroke: #000000; stroke-width: 0.5; stroke-linecap: butt; stroke-linejoin: miter"/>
  </pattern>
 </defs>
</svg>
