<?xml version="1.0" encoding="utf-8" standalone="no"?>
<!DOCTYPE svg PUBLIC "-//W3C//DTD SVG 1.1//EN"
  "http://www.w3.org/Graphics/SVG/1.1/DTD/svg11.dtd">
<svg xmlns:xlink="http://www.w3.org/1999/xlink" width="1152pt" height="576pt" viewBox="0 0 1152 576" xmlns="http://www.w3.org/2000/svg" version="1.1">
 <metadata>
  <rdf:RDF xmlns:dc="http://purl.org/dc/elements/1.1/" xmlns:cc="http://creativecommons.org/ns#" xmlns:rdf="http://www.w3.org/1999/02/22-rdf-syntax-ns#">
   <cc:Work>
    <dc:type rdf:resource="http://purl.org/dc/dcmitype/StillImage"/>
    <dc:date>2025-06-05T08:46:32.569149</dc:date>
    <dc:format>image/svg+xml</dc:format>
    <dc:creator>
     <cc:Agent>
      <dc:title>Matplotlib v3.10.1, https://matplotlib.org/</dc:title>
     </cc:Agent>
    </dc:creator>
   </cc:Work>
  </rdf:RDF>
 </metadata>
 <defs>
  <style type="text/css">*{stroke-linejoin: round; stroke-linecap: butt}</style>
 </defs>
 <g id="figure_1">
  <g id="patch_1">
   <path d="M 0 576 
L 1152 576 
L 1152 0 
L 0 0 
z
" style="fill: #ffffff"/>
  </g>
  <g id="axes_1">
   <g id="patch_2">
    <path d="M 46.08 483.84 
L 1048.32 483.84 
L 1048.32 11.52 
L 46.08 11.52 
z
" style="fill: #ffffff"/>
   </g>
   <g id="patch_3">
    <path d="M 91.636364 483.84 
L 192.872727 483.84 
L 192.872727 74.998644 
L 91.636364 74.998644 
z
" clip-path="url(#p7be3e1c636)" style="fill: url(#hb0c2905715); opacity: 0.8; stroke: #000000; stroke-width: 0.5; stroke-linejoin: miter"/>
   </g>
   <g id="patch_4">
    <path d="M 253.614545 483.84 
L 354.850909 483.84 
L 354.850909 76.512872 
L 253.614545 76.512872 
z
" clip-path="url(#p7be3e1c636)" style="fill: url(#h2046676d62); opacity: 0.8; stroke: #000000; stroke-width: 0.5; stroke-linejoin: miter"/>
   </g>
   <g id="patch_5">
    <path d="M 415.592727 483.84 
L 516.829091 483.84 
L 516.829091 233.992505 
L 415.592727 233.992505 
z
" clip-path="url(#p7be3e1c636)" style="fill: url(#ha6e5b093d5); opacity: 0.8; stroke: #000000; stroke-width: 0.5; stroke-linejoin: miter"/>
   </g>
   <g id="patch_6">
    <path d="M 577.570909 483.84 
L 678.807273 483.84 
L 678.807273 82.569781 
L 577.570909 82.569781 
z
" clip-path="url(#p7be3e1c636)" style="fill: url(#h07d0626176); opacity: 0.8; stroke: #000000; stroke-width: 0.5; stroke-linejoin: miter"/>
   </g>
   <g id="patch_7">
    <path d="M 739.549091 483.84 
L 840.785455 483.84 
L 840.785455 79.541326 
L 739.549091 79.541326 
z
" clip-path="url(#p7be3e1c636)" style="fill: url(#h565cc880de); opacity: 0.8; stroke: #000000; stroke-width: 0.5; stroke-linejoin: miter"/>
   </g>
   <g id="patch_8">
    <path d="M 901.527273 483.84 
L 1002.763636 483.84 
L 1002.763636 233.992505 
L 901.527273 233.992505 
z
" clip-path="url(#p7be3e1c636)" style="fill: url(#h7443869861); opacity: 0.8; stroke: #000000; stroke-width: 0.5; stroke-linejoin: miter"/>
   </g>
   <g id="matplotlib.axis_1">
    <g id="xtick_1">
     <g id="line2d_1">
      <defs>
       <path id="mb004fcb675" d="M 0 0 
L 0 3.5 
" style="stroke: #000000; stroke-width: 0.8"/>
      </defs>
      <g>
       <use xlink:href="#mb004fcb675" x="142.254545" y="483.84" style="stroke: #000000; stroke-width: 0.8"/>
      </g>
     </g>
     <g id="text_1">
      <!-- Kueue-CPU -->
      <g transform="translate(101.908579 535.088312) rotate(-45) scale(0.1 -0.1)">
       <defs>
        <path id="DejaVuSans-4b" d="M 628 4666 
L 1259 4666 
L 1259 2694 
L 3353 4666 
L 4166 4666 
L 1850 2491 
L 4331 0 
L 3500 0 
L 1259 2247 
L 1259 0 
L 628 0 
L 628 4666 
z
" transform="scale(0.015625)"/>
        <path id="DejaVuSans-75" d="M 544 1381 
L 544 3500 
L 1119 3500 
L 1119 1403 
Q 1119 906 1312 657 
Q 1506 409 1894 409 
Q 2359 409 2629 706 
Q 2900 1003 2900 1516 
L 2900 3500 
L 3475 3500 
L 3475 0 
L 2900 0 
L 2900 538 
Q 2691 219 2414 64 
Q 2138 -91 1772 -91 
Q 1169 -91 856 284 
Q 544 659 544 1381 
z
M 1991 3584 
L 1991 3584 
z
" transform="scale(0.015625)"/>
        <path id="DejaVuSans-65" d="M 3597 1894 
L 3597 1613 
L 953 1613 
Q 991 1019 1311 708 
Q 1631 397 2203 397 
Q 2534 397 2845 478 
Q 3156 559 3463 722 
L 3463 178 
Q 3153 47 2828 -22 
Q 2503 -91 2169 -91 
Q 1331 -91 842 396 
Q 353 884 353 1716 
Q 353 2575 817 3079 
Q 1281 3584 2069 3584 
Q 2775 3584 3186 3129 
Q 3597 2675 3597 1894 
z
M 3022 2063 
Q 3016 2534 2758 2815 
Q 2500 3097 2075 3097 
Q 1594 3097 1305 2825 
Q 1016 2553 972 2059 
L 3022 2063 
z
" transform="scale(0.015625)"/>
        <path id="DejaVuSans-2d" d="M 313 2009 
L 1997 2009 
L 1997 1497 
L 313 1497 
L 313 2009 
z
" transform="scale(0.015625)"/>
        <path id="DejaVuSans-43" d="M 4122 4306 
L 4122 3641 
Q 3803 3938 3442 4084 
Q 3081 4231 2675 4231 
Q 1875 4231 1450 3742 
Q 1025 3253 1025 2328 
Q 1025 1406 1450 917 
Q 1875 428 2675 428 
Q 3081 428 3442 575 
Q 3803 722 4122 1019 
L 4122 359 
Q 3791 134 3420 21 
Q 3050 -91 2638 -91 
Q 1578 -91 968 557 
Q 359 1206 359 2328 
Q 359 3453 968 4101 
Q 1578 4750 2638 4750 
Q 3056 4750 3426 4639 
Q 3797 4528 4122 4306 
z
" transform="scale(0.015625)"/>
        <path id="DejaVuSans-50" d="M 1259 4147 
L 1259 2394 
L 2053 2394 
Q 2494 2394 2734 2622 
Q 2975 2850 2975 3272 
Q 2975 3691 2734 3919 
Q 2494 4147 2053 4147 
L 1259 4147 
z
M 628 4666 
L 2053 4666 
Q 2838 4666 3239 4311 
Q 3641 3956 3641 3272 
Q 3641 2581 3239 2228 
Q 2838 1875 2053 1875 
L 1259 1875 
L 1259 0 
L 628 0 
L 628 4666 
z
" transform="scale(0.015625)"/>
        <path id="DejaVuSans-55" d="M 556 4666 
L 1191 4666 
L 1191 1831 
Q 1191 1081 1462 751 
Q 1734 422 2344 422 
Q 2950 422 3222 751 
Q 3494 1081 3494 1831 
L 3494 4666 
L 4128 4666 
L 4128 1753 
Q 4128 841 3676 375 
Q 3225 -91 2344 -91 
Q 1459 -91 1007 375 
Q 556 841 556 1753 
L 556 4666 
z
" transform="scale(0.015625)"/>
       </defs>
       <use xlink:href="#DejaVuSans-4b"/>
       <use xlink:href="#DejaVuSans-75" transform="translate(60.576172 0)"/>
       <use xlink:href="#DejaVuSans-65" transform="translate(123.955078 0)"/>
       <use xlink:href="#DejaVuSans-75" transform="translate(185.478516 0)"/>
       <use xlink:href="#DejaVuSans-65" transform="translate(248.857422 0)"/>
       <use xlink:href="#DejaVuSans-2d" transform="translate(310.380859 0)"/>
       <use xlink:href="#DejaVuSans-43" transform="translate(346.464844 0)"/>
       <use xlink:href="#DejaVuSans-50" transform="translate(416.289062 0)"/>
       <use xlink:href="#DejaVuSans-55" transform="translate(476.591797 0)"/>
      </g>
     </g>
    </g>
    <g id="xtick_2">
     <g id="line2d_2">
      <g>
       <use xlink:href="#mb004fcb675" x="304.232727" y="483.84" style="stroke: #000000; stroke-width: 0.8"/>
      </g>
     </g>
     <g id="text_2">
      <!-- Kueue-Memory -->
      <g transform="translate(249.504872 549.470201) rotate(-45) scale(0.1 -0.1)">
       <defs>
        <path id="DejaVuSans-4d" d="M 628 4666 
L 1569 4666 
L 2759 1491 
L 3956 4666 
L 4897 4666 
L 4897 0 
L 4281 0 
L 4281 4097 
L 3078 897 
L 2444 897 
L 1241 4097 
L 1241 0 
L 628 0 
L 628 4666 
z
" transform="scale(0.015625)"/>
        <path id="DejaVuSans-6d" d="M 3328 2828 
Q 3544 3216 3844 3400 
Q 4144 3584 4550 3584 
Q 5097 3584 5394 3201 
Q 5691 2819 5691 2113 
L 5691 0 
L 5113 0 
L 5113 2094 
Q 5113 2597 4934 2840 
Q 4756 3084 4391 3084 
Q 3944 3084 3684 2787 
Q 3425 2491 3425 1978 
L 3425 0 
L 2847 0 
L 2847 2094 
Q 2847 2600 2669 2842 
Q 2491 3084 2119 3084 
Q 1678 3084 1418 2786 
Q 1159 2488 1159 1978 
L 1159 0 
L 581 0 
L 581 3500 
L 1159 3500 
L 1159 2956 
Q 1356 3278 1631 3431 
Q 1906 3584 2284 3584 
Q 2666 3584 2933 3390 
Q 3200 3197 3328 2828 
z
" transform="scale(0.015625)"/>
        <path id="DejaVuSans-6f" d="M 1959 3097 
Q 1497 3097 1228 2736 
Q 959 2375 959 1747 
Q 959 1119 1226 758 
Q 1494 397 1959 397 
Q 2419 397 2687 759 
Q 2956 1122 2956 1747 
Q 2956 2369 2687 2733 
Q 2419 3097 1959 3097 
z
M 1959 3584 
Q 2709 3584 3137 3096 
Q 3566 2609 3566 1747 
Q 3566 888 3137 398 
Q 2709 -91 1959 -91 
Q 1206 -91 779 398 
Q 353 888 353 1747 
Q 353 2609 779 3096 
Q 1206 3584 1959 3584 
z
" transform="scale(0.015625)"/>
        <path id="DejaVuSans-72" d="M 2631 2963 
Q 2534 3019 2420 3045 
Q 2306 3072 2169 3072 
Q 1681 3072 1420 2755 
Q 1159 2438 1159 1844 
L 1159 0 
L 581 0 
L 581 3500 
L 1159 3500 
L 1159 2956 
Q 1341 3275 1631 3429 
Q 1922 3584 2338 3584 
Q 2397 3584 2469 3576 
Q 2541 3569 2628 3553 
L 2631 2963 
z
" transform="scale(0.015625)"/>
        <path id="DejaVuSans-79" d="M 2059 -325 
Q 1816 -950 1584 -1140 
Q 1353 -1331 966 -1331 
L 506 -1331 
L 506 -850 
L 844 -850 
Q 1081 -850 1212 -737 
Q 1344 -625 1503 -206 
L 1606 56 
L 191 3500 
L 800 3500 
L 1894 763 
L 2988 3500 
L 3597 3500 
L 2059 -325 
z
" transform="scale(0.015625)"/>
       </defs>
       <use xlink:href="#DejaVuSans-4b"/>
       <use xlink:href="#DejaVuSans-75" transform="translate(60.576172 0)"/>
       <use xlink:href="#DejaVuSans-65" transform="translate(123.955078 0)"/>
       <use xlink:href="#DejaVuSans-75" transform="translate(185.478516 0)"/>
       <use xlink:href="#DejaVuSans-65" transform="translate(248.857422 0)"/>
       <use xlink:href="#DejaVuSans-2d" transform="translate(310.380859 0)"/>
       <use xlink:href="#DejaVuSans-4d" transform="translate(346.464844 0)"/>
       <use xlink:href="#DejaVuSans-65" transform="translate(432.744141 0)"/>
       <use xlink:href="#DejaVuSans-6d" transform="translate(494.267578 0)"/>
       <use xlink:href="#DejaVuSans-6f" transform="translate(591.679688 0)"/>
       <use xlink:href="#DejaVuSans-72" transform="translate(652.861328 0)"/>
       <use xlink:href="#DejaVuSans-79" transform="translate(693.974609 0)"/>
      </g>
     </g>
    </g>
    <g id="xtick_3">
     <g id="line2d_3">
      <g>
       <use xlink:href="#mb004fcb675" x="466.210909" y="483.84" style="stroke: #000000; stroke-width: 0.8"/>
      </g>
     </g>
     <g id="text_3">
      <!-- Kueue-GPU -->
      <g transform="translate(425.067238 535.886017) rotate(-45) scale(0.1 -0.1)">
       <defs>
        <path id="DejaVuSans-47" d="M 3809 666 
L 3809 1919 
L 2778 1919 
L 2778 2438 
L 4434 2438 
L 4434 434 
Q 4069 175 3628 42 
Q 3188 -91 2688 -91 
Q 1594 -91 976 548 
Q 359 1188 359 2328 
Q 359 3472 976 4111 
Q 1594 4750 2688 4750 
Q 3144 4750 3555 4637 
Q 3966 4525 4313 4306 
L 4313 3634 
Q 3963 3931 3569 4081 
Q 3175 4231 2741 4231 
Q 1884 4231 1454 3753 
Q 1025 3275 1025 2328 
Q 1025 1384 1454 906 
Q 1884 428 2741 428 
Q 3075 428 3337 486 
Q 3600 544 3809 666 
z
" transform="scale(0.015625)"/>
       </defs>
       <use xlink:href="#DejaVuSans-4b"/>
       <use xlink:href="#DejaVuSans-75" transform="translate(60.576172 0)"/>
       <use xlink:href="#DejaVuSans-65" transform="translate(123.955078 0)"/>
       <use xlink:href="#DejaVuSans-75" transform="translate(185.478516 0)"/>
       <use xlink:href="#DejaVuSans-65" transform="translate(248.857422 0)"/>
       <use xlink:href="#DejaVuSans-2d" transform="translate(310.380859 0)"/>
       <use xlink:href="#DejaVuSans-47" transform="translate(350.089844 0)"/>
       <use xlink:href="#DejaVuSans-50" transform="translate(427.580078 0)"/>
       <use xlink:href="#DejaVuSans-55" transform="translate(487.882812 0)"/>
      </g>
     </g>
    </g>
    <g id="xtick_4">
     <g id="line2d_4">
      <g>
       <use xlink:href="#mb004fcb675" x="628.189091" y="483.84" style="stroke: #000000; stroke-width: 0.8"/>
      </g>
     </g>
     <g id="text_4">
      <!-- Volcano-CPU -->
      <g transform="translate(582.049269 540.882168) rotate(-45) scale(0.1 -0.1)">
       <defs>
        <path id="DejaVuSans-56" d="M 1831 0 
L 50 4666 
L 709 4666 
L 2188 738 
L 3669 4666 
L 4325 4666 
L 2547 0 
L 1831 0 
z
" transform="scale(0.015625)"/>
        <path id="DejaVuSans-6c" d="M 603 4863 
L 1178 4863 
L 1178 0 
L 603 0 
L 603 4863 
z
" transform="scale(0.015625)"/>
        <path id="DejaVuSans-63" d="M 3122 3366 
L 3122 2828 
Q 2878 2963 2633 3030 
Q 2388 3097 2138 3097 
Q 1578 3097 1268 2742 
Q 959 2388 959 1747 
Q 959 1106 1268 751 
Q 1578 397 2138 397 
Q 2388 397 2633 464 
Q 2878 531 3122 666 
L 3122 134 
Q 2881 22 2623 -34 
Q 2366 -91 2075 -91 
Q 1284 -91 818 406 
Q 353 903 353 1747 
Q 353 2603 823 3093 
Q 1294 3584 2113 3584 
Q 2378 3584 2631 3529 
Q 2884 3475 3122 3366 
z
" transform="scale(0.015625)"/>
        <path id="DejaVuSans-61" d="M 2194 1759 
Q 1497 1759 1228 1600 
Q 959 1441 959 1056 
Q 959 750 1161 570 
Q 1363 391 1709 391 
Q 2188 391 2477 730 
Q 2766 1069 2766 1631 
L 2766 1759 
L 2194 1759 
z
M 3341 1997 
L 3341 0 
L 2766 0 
L 2766 531 
Q 2569 213 2275 61 
Q 1981 -91 1556 -91 
Q 1019 -91 701 211 
Q 384 513 384 1019 
Q 384 1609 779 1909 
Q 1175 2209 1959 2209 
L 2766 2209 
L 2766 2266 
Q 2766 2663 2505 2880 
Q 2244 3097 1772 3097 
Q 1472 3097 1187 3025 
Q 903 2953 641 2809 
L 641 3341 
Q 956 3463 1253 3523 
Q 1550 3584 1831 3584 
Q 2591 3584 2966 3190 
Q 3341 2797 3341 1997 
z
" transform="scale(0.015625)"/>
        <path id="DejaVuSans-6e" d="M 3513 2113 
L 3513 0 
L 2938 0 
L 2938 2094 
Q 2938 2591 2744 2837 
Q 2550 3084 2163 3084 
Q 1697 3084 1428 2787 
Q 1159 2491 1159 1978 
L 1159 0 
L 581 0 
L 581 3500 
L 1159 3500 
L 1159 2956 
Q 1366 3272 1645 3428 
Q 1925 3584 2291 3584 
Q 2894 3584 3203 3211 
Q 3513 2838 3513 2113 
z
" transform="scale(0.015625)"/>
       </defs>
       <use xlink:href="#DejaVuSans-56"/>
       <use xlink:href="#DejaVuSans-6f" transform="translate(60.658203 0)"/>
       <use xlink:href="#DejaVuSans-6c" transform="translate(121.839844 0)"/>
       <use xlink:href="#DejaVuSans-63" transform="translate(149.623047 0)"/>
       <use xlink:href="#DejaVuSans-61" transform="translate(204.603516 0)"/>
       <use xlink:href="#DejaVuSans-6e" transform="translate(265.882812 0)"/>
       <use xlink:href="#DejaVuSans-6f" transform="translate(329.261719 0)"/>
       <use xlink:href="#DejaVuSans-2d" transform="translate(392.318359 0)"/>
       <use xlink:href="#DejaVuSans-43" transform="translate(428.402344 0)"/>
       <use xlink:href="#DejaVuSans-50" transform="translate(498.226562 0)"/>
       <use xlink:href="#DejaVuSans-55" transform="translate(558.529297 0)"/>
      </g>
     </g>
    </g>
    <g id="xtick_5">
     <g id="line2d_5">
      <g>
       <use xlink:href="#mb004fcb675" x="790.167273" y="483.84" style="stroke: #000000; stroke-width: 0.8"/>
      </g>
     </g>
     <g id="text_5">
      <!-- Volcano-Memory -->
      <g transform="translate(729.645561 555.264057) rotate(-45) scale(0.1 -0.1)">
       <use xlink:href="#DejaVuSans-56"/>
       <use xlink:href="#DejaVuSans-6f" transform="translate(60.658203 0)"/>
       <use xlink:href="#DejaVuSans-6c" transform="translate(121.839844 0)"/>
       <use xlink:href="#DejaVuSans-63" transform="translate(149.623047 0)"/>
       <use xlink:href="#DejaVuSans-61" transform="translate(204.603516 0)"/>
       <use xlink:href="#DejaVuSans-6e" transform="translate(265.882812 0)"/>
       <use xlink:href="#DejaVuSans-6f" transform="translate(329.261719 0)"/>
       <use xlink:href="#DejaVuSans-2d" transform="translate(392.318359 0)"/>
       <use xlink:href="#DejaVuSans-4d" transform="translate(428.402344 0)"/>
       <use xlink:href="#DejaVuSans-65" transform="translate(514.681641 0)"/>
       <use xlink:href="#DejaVuSans-6d" transform="translate(576.205078 0)"/>
       <use xlink:href="#DejaVuSans-6f" transform="translate(673.617188 0)"/>
       <use xlink:href="#DejaVuSans-72" transform="translate(734.798828 0)"/>
       <use xlink:href="#DejaVuSans-79" transform="translate(775.912109 0)"/>
      </g>
     </g>
    </g>
    <g id="xtick_6">
     <g id="line2d_6">
      <g>
       <use xlink:href="#mb004fcb675" x="952.145455" y="483.84" style="stroke: #000000; stroke-width: 0.8"/>
      </g>
     </g>
     <g id="text_6">
      <!-- Volcano-GPU -->
      <g transform="translate(905.207927 541.679873) rotate(-45) scale(0.1 -0.1)">
       <use xlink:href="#DejaVuSans-56"/>
       <use xlink:href="#DejaVuSans-6f" transform="translate(60.658203 0)"/>
       <use xlink:href="#DejaVuSans-6c" transform="translate(121.839844 0)"/>
       <use xlink:href="#DejaVuSans-63" transform="translate(149.623047 0)"/>
       <use xlink:href="#DejaVuSans-61" transform="translate(204.603516 0)"/>
       <use xlink:href="#DejaVuSans-6e" transform="translate(265.882812 0)"/>
       <use xlink:href="#DejaVuSans-6f" transform="translate(329.261719 0)"/>
       <use xlink:href="#DejaVuSans-2d" transform="translate(392.318359 0)"/>
       <use xlink:href="#DejaVuSans-47" transform="translate(432.027344 0)"/>
       <use xlink:href="#DejaVuSans-50" transform="translate(509.517578 0)"/>
       <use xlink:href="#DejaVuSans-55" transform="translate(569.820312 0)"/>
      </g>
     </g>
    </g>
    <g id="text_7">
     <!-- System-Resource -->
     <g transform="translate(503.823437 568.333056) scale(0.1 -0.1)">
      <defs>
       <path id="DejaVuSans-53" d="M 3425 4513 
L 3425 3897 
Q 3066 4069 2747 4153 
Q 2428 4238 2131 4238 
Q 1616 4238 1336 4038 
Q 1056 3838 1056 3469 
Q 1056 3159 1242 3001 
Q 1428 2844 1947 2747 
L 2328 2669 
Q 3034 2534 3370 2195 
Q 3706 1856 3706 1288 
Q 3706 609 3251 259 
Q 2797 -91 1919 -91 
Q 1588 -91 1214 -16 
Q 841 59 441 206 
L 441 856 
Q 825 641 1194 531 
Q 1563 422 1919 422 
Q 2459 422 2753 634 
Q 3047 847 3047 1241 
Q 3047 1584 2836 1778 
Q 2625 1972 2144 2069 
L 1759 2144 
Q 1053 2284 737 2584 
Q 422 2884 422 3419 
Q 422 4038 858 4394 
Q 1294 4750 2059 4750 
Q 2388 4750 2728 4690 
Q 3069 4631 3425 4513 
z
" transform="scale(0.015625)"/>
       <path id="DejaVuSans-73" d="M 2834 3397 
L 2834 2853 
Q 2591 2978 2328 3040 
Q 2066 3103 1784 3103 
Q 1356 3103 1142 2972 
Q 928 2841 928 2578 
Q 928 2378 1081 2264 
Q 1234 2150 1697 2047 
L 1894 2003 
Q 2506 1872 2764 1633 
Q 3022 1394 3022 966 
Q 3022 478 2636 193 
Q 2250 -91 1575 -91 
Q 1294 -91 989 -36 
Q 684 19 347 128 
L 347 722 
Q 666 556 975 473 
Q 1284 391 1588 391 
Q 1994 391 2212 530 
Q 2431 669 2431 922 
Q 2431 1156 2273 1281 
Q 2116 1406 1581 1522 
L 1381 1569 
Q 847 1681 609 1914 
Q 372 2147 372 2553 
Q 372 3047 722 3315 
Q 1072 3584 1716 3584 
Q 2034 3584 2315 3537 
Q 2597 3491 2834 3397 
z
" transform="scale(0.015625)"/>
       <path id="DejaVuSans-74" d="M 1172 4494 
L 1172 3500 
L 2356 3500 
L 2356 3053 
L 1172 3053 
L 1172 1153 
Q 1172 725 1289 603 
Q 1406 481 1766 481 
L 2356 481 
L 2356 0 
L 1766 0 
Q 1100 0 847 248 
Q 594 497 594 1153 
L 594 3053 
L 172 3053 
L 172 3500 
L 594 3500 
L 594 4494 
L 1172 4494 
z
" transform="scale(0.015625)"/>
       <path id="DejaVuSans-52" d="M 2841 2188 
Q 3044 2119 3236 1894 
Q 3428 1669 3622 1275 
L 4263 0 
L 3584 0 
L 2988 1197 
Q 2756 1666 2539 1819 
Q 2322 1972 1947 1972 
L 1259 1972 
L 1259 0 
L 628 0 
L 628 4666 
L 2053 4666 
Q 2853 4666 3247 4331 
Q 3641 3997 3641 3322 
Q 3641 2881 3436 2590 
Q 3231 2300 2841 2188 
z
M 1259 4147 
L 1259 2491 
L 2053 2491 
Q 2509 2491 2742 2702 
Q 2975 2913 2975 3322 
Q 2975 3731 2742 3939 
Q 2509 4147 2053 4147 
L 1259 4147 
z
" transform="scale(0.015625)"/>
      </defs>
      <use xlink:href="#DejaVuSans-53"/>
      <use xlink:href="#DejaVuSans-79" transform="translate(63.476562 0)"/>
      <use xlink:href="#DejaVuSans-73" transform="translate(122.65625 0)"/>
      <use xlink:href="#DejaVuSans-74" transform="translate(174.755859 0)"/>
      <use xlink:href="#DejaVuSans-65" transform="translate(213.964844 0)"/>
      <use xlink:href="#DejaVuSans-6d" transform="translate(275.488281 0)"/>
      <use xlink:href="#DejaVuSans-2d" transform="translate(372.900391 0)"/>
      <use xlink:href="#DejaVuSans-52" transform="translate(408.984375 0)"/>
      <use xlink:href="#DejaVuSans-65" transform="translate(473.966797 0)"/>
      <use xlink:href="#DejaVuSans-73" transform="translate(535.490234 0)"/>
      <use xlink:href="#DejaVuSans-6f" transform="translate(587.589844 0)"/>
      <use xlink:href="#DejaVuSans-75" transform="translate(648.771484 0)"/>
      <use xlink:href="#DejaVuSans-72" transform="translate(712.150391 0)"/>
      <use xlink:href="#DejaVuSans-63" transform="translate(751.013672 0)"/>
      <use xlink:href="#DejaVuSans-65" transform="translate(805.994141 0)"/>
     </g>
    </g>
   </g>
   <g id="matplotlib.axis_2">
    <g id="ytick_1">
     <g id="line2d_7">
      <path d="M 46.08 483.84 
L 1048.32 483.84 
" clip-path="url(#p7be3e1c636)" style="fill: none; stroke: #b0b0b0; stroke-opacity: 0.3; stroke-width: 0.8; stroke-linecap: square"/>
     </g>
     <g id="line2d_8">
      <defs>
       <path id="mf5eae6149d" d="M 0 0 
L -3.5 0 
" style="stroke: #000000; stroke-width: 0.8"/>
      </defs>
      <g>
       <use xlink:href="#mf5eae6149d" x="46.08" y="483.84" style="stroke: #000000; stroke-width: 0.8"/>
      </g>
     </g>
     <g id="text_8">
      <!-- 0.0 -->
      <g transform="translate(23.176875 487.639219) scale(0.1 -0.1)">
       <defs>
        <path id="DejaVuSans-30" d="M 2034 4250 
Q 1547 4250 1301 3770 
Q 1056 3291 1056 2328 
Q 1056 1369 1301 889 
Q 1547 409 2034 409 
Q 2525 409 2770 889 
Q 3016 1369 3016 2328 
Q 3016 3291 2770 3770 
Q 2525 4250 2034 4250 
z
M 2034 4750 
Q 2819 4750 3233 4129 
Q 3647 3509 3647 2328 
Q 3647 1150 3233 529 
Q 2819 -91 2034 -91 
Q 1250 -91 836 529 
Q 422 1150 422 2328 
Q 422 3509 836 4129 
Q 1250 4750 2034 4750 
z
" transform="scale(0.015625)"/>
        <path id="DejaVuSans-2e" d="M 684 794 
L 1344 794 
L 1344 0 
L 684 0 
L 684 794 
z
" transform="scale(0.015625)"/>
       </defs>
       <use xlink:href="#DejaVuSans-30"/>
       <use xlink:href="#DejaVuSans-2e" transform="translate(63.623047 0)"/>
       <use xlink:href="#DejaVuSans-30" transform="translate(95.410156 0)"/>
      </g>
     </g>
    </g>
    <g id="ytick_2">
     <g id="line2d_9">
      <path d="M 46.08 408.128638 
L 1048.32 408.128638 
" clip-path="url(#p7be3e1c636)" style="fill: none; stroke: #b0b0b0; stroke-opacity: 0.3; stroke-width: 0.8; stroke-linecap: square"/>
     </g>
     <g id="line2d_10">
      <g>
       <use xlink:href="#mf5eae6149d" x="46.08" y="408.128638" style="stroke: #000000; stroke-width: 0.8"/>
      </g>
     </g>
     <g id="text_9">
      <!-- 0.1 -->
      <g transform="translate(23.176875 411.927857) scale(0.1 -0.1)">
       <defs>
        <path id="DejaVuSans-31" d="M 794 531 
L 1825 531 
L 1825 4091 
L 703 3866 
L 703 4441 
L 1819 4666 
L 2450 4666 
L 2450 531 
L 3481 531 
L 3481 0 
L 794 0 
L 794 531 
z
" transform="scale(0.015625)"/>
       </defs>
       <use xlink:href="#DejaVuSans-30"/>
       <use xlink:href="#DejaVuSans-2e" transform="translate(63.623047 0)"/>
       <use xlink:href="#DejaVuSans-31" transform="translate(95.410156 0)"/>
      </g>
     </g>
    </g>
    <g id="ytick_3">
     <g id="line2d_11">
      <path d="M 46.08 332.417276 
L 1048.32 332.417276 
" clip-path="url(#p7be3e1c636)" style="fill: none; stroke: #b0b0b0; stroke-opacity: 0.3; stroke-width: 0.8; stroke-linecap: square"/>
     </g>
     <g id="line2d_12">
      <g>
       <use xlink:href="#mf5eae6149d" x="46.08" y="332.417276" style="stroke: #000000; stroke-width: 0.8"/>
      </g>
     </g>
     <g id="text_10">
      <!-- 0.2 -->
      <g transform="translate(23.176875 336.216494) scale(0.1 -0.1)">
       <defs>
        <path id="DejaVuSans-32" d="M 1228 531 
L 3431 531 
L 3431 0 
L 469 0 
L 469 531 
Q 828 903 1448 1529 
Q 2069 2156 2228 2338 
Q 2531 2678 2651 2914 
Q 2772 3150 2772 3378 
Q 2772 3750 2511 3984 
Q 2250 4219 1831 4219 
Q 1534 4219 1204 4116 
Q 875 4013 500 3803 
L 500 4441 
Q 881 4594 1212 4672 
Q 1544 4750 1819 4750 
Q 2544 4750 2975 4387 
Q 3406 4025 3406 3419 
Q 3406 3131 3298 2873 
Q 3191 2616 2906 2266 
Q 2828 2175 2409 1742 
Q 1991 1309 1228 531 
z
" transform="scale(0.015625)"/>
       </defs>
       <use xlink:href="#DejaVuSans-30"/>
       <use xlink:href="#DejaVuSans-2e" transform="translate(63.623047 0)"/>
       <use xlink:href="#DejaVuSans-32" transform="translate(95.410156 0)"/>
      </g>
     </g>
    </g>
    <g id="ytick_4">
     <g id="line2d_13">
      <path d="M 46.08 256.705914 
L 1048.32 256.705914 
" clip-path="url(#p7be3e1c636)" style="fill: none; stroke: #b0b0b0; stroke-opacity: 0.3; stroke-width: 0.8; stroke-linecap: square"/>
     </g>
     <g id="line2d_14">
      <g>
       <use xlink:href="#mf5eae6149d" x="46.08" y="256.705914" style="stroke: #000000; stroke-width: 0.8"/>
      </g>
     </g>
     <g id="text_11">
      <!-- 0.3 -->
      <g transform="translate(23.176875 260.505132) scale(0.1 -0.1)">
       <defs>
        <path id="DejaVuSans-33" d="M 2597 2516 
Q 3050 2419 3304 2112 
Q 3559 1806 3559 1356 
Q 3559 666 3084 287 
Q 2609 -91 1734 -91 
Q 1441 -91 1130 -33 
Q 819 25 488 141 
L 488 750 
Q 750 597 1062 519 
Q 1375 441 1716 441 
Q 2309 441 2620 675 
Q 2931 909 2931 1356 
Q 2931 1769 2642 2001 
Q 2353 2234 1838 2234 
L 1294 2234 
L 1294 2753 
L 1863 2753 
Q 2328 2753 2575 2939 
Q 2822 3125 2822 3475 
Q 2822 3834 2567 4026 
Q 2313 4219 1838 4219 
Q 1578 4219 1281 4162 
Q 984 4106 628 3988 
L 628 4550 
Q 988 4650 1302 4700 
Q 1616 4750 1894 4750 
Q 2613 4750 3031 4423 
Q 3450 4097 3450 3541 
Q 3450 3153 3228 2886 
Q 3006 2619 2597 2516 
z
" transform="scale(0.015625)"/>
       </defs>
       <use xlink:href="#DejaVuSans-30"/>
       <use xlink:href="#DejaVuSans-2e" transform="translate(63.623047 0)"/>
       <use xlink:href="#DejaVuSans-33" transform="translate(95.410156 0)"/>
      </g>
     </g>
    </g>
    <g id="ytick_5">
     <g id="line2d_15">
      <path d="M 46.08 180.994551 
L 1048.32 180.994551 
" clip-path="url(#p7be3e1c636)" style="fill: none; stroke: #b0b0b0; stroke-opacity: 0.3; stroke-width: 0.8; stroke-linecap: square"/>
     </g>
     <g id="line2d_16">
      <g>
       <use xlink:href="#mf5eae6149d" x="46.08" y="180.994551" style="stroke: #000000; stroke-width: 0.8"/>
      </g>
     </g>
     <g id="text_12">
      <!-- 0.4 -->
      <g transform="translate(23.176875 184.79377) scale(0.1 -0.1)">
       <defs>
        <path id="DejaVuSans-34" d="M 2419 4116 
L 825 1625 
L 2419 1625 
L 2419 4116 
z
M 2253 4666 
L 3047 4666 
L 3047 1625 
L 3713 1625 
L 3713 1100 
L 3047 1100 
L 3047 0 
L 2419 0 
L 2419 1100 
L 313 1100 
L 313 1709 
L 2253 4666 
z
" transform="scale(0.015625)"/>
       </defs>
       <use xlink:href="#DejaVuSans-30"/>
       <use xlink:href="#DejaVuSans-2e" transform="translate(63.623047 0)"/>
       <use xlink:href="#DejaVuSans-34" transform="translate(95.410156 0)"/>
      </g>
     </g>
    </g>
    <g id="ytick_6">
     <g id="line2d_17">
      <path d="M 46.08 105.283189 
L 1048.32 105.283189 
" clip-path="url(#p7be3e1c636)" style="fill: none; stroke: #b0b0b0; stroke-opacity: 0.3; stroke-width: 0.8; stroke-linecap: square"/>
     </g>
     <g id="line2d_18">
      <g>
       <use xlink:href="#mf5eae6149d" x="46.08" y="105.283189" style="stroke: #000000; stroke-width: 0.8"/>
      </g>
     </g>
     <g id="text_13">
      <!-- 0.5 -->
      <g transform="translate(23.176875 109.082408) scale(0.1 -0.1)">
       <defs>
        <path id="DejaVuSans-35" d="M 691 4666 
L 3169 4666 
L 3169 4134 
L 1269 4134 
L 1269 2991 
Q 1406 3038 1543 3061 
Q 1681 3084 1819 3084 
Q 2600 3084 3056 2656 
Q 3513 2228 3513 1497 
Q 3513 744 3044 326 
Q 2575 -91 1722 -91 
Q 1428 -91 1123 -41 
Q 819 9 494 109 
L 494 744 
Q 775 591 1075 516 
Q 1375 441 1709 441 
Q 2250 441 2565 725 
Q 2881 1009 2881 1497 
Q 2881 1984 2565 2268 
Q 2250 2553 1709 2553 
Q 1456 2553 1204 2497 
Q 953 2441 691 2322 
L 691 4666 
z
" transform="scale(0.015625)"/>
       </defs>
       <use xlink:href="#DejaVuSans-30"/>
       <use xlink:href="#DejaVuSans-2e" transform="translate(63.623047 0)"/>
       <use xlink:href="#DejaVuSans-35" transform="translate(95.410156 0)"/>
      </g>
     </g>
    </g>
    <g id="ytick_7">
     <g id="line2d_19">
      <path d="M 46.08 29.571827 
L 1048.32 29.571827 
" clip-path="url(#p7be3e1c636)" style="fill: none; stroke: #b0b0b0; stroke-opacity: 0.3; stroke-width: 0.8; stroke-linecap: square"/>
     </g>
     <g id="line2d_20">
      <g>
       <use xlink:href="#mf5eae6149d" x="46.08" y="29.571827" style="stroke: #000000; stroke-width: 0.8"/>
      </g>
     </g>
     <g id="text_14">
      <!-- 0.6 -->
      <g transform="translate(23.176875 33.371046) scale(0.1 -0.1)">
       <defs>
        <path id="DejaVuSans-36" d="M 2113 2584 
Q 1688 2584 1439 2293 
Q 1191 2003 1191 1497 
Q 1191 994 1439 701 
Q 1688 409 2113 409 
Q 2538 409 2786 701 
Q 3034 994 3034 1497 
Q 3034 2003 2786 2293 
Q 2538 2584 2113 2584 
z
M 3366 4563 
L 3366 3988 
Q 3128 4100 2886 4159 
Q 2644 4219 2406 4219 
Q 1781 4219 1451 3797 
Q 1122 3375 1075 2522 
Q 1259 2794 1537 2939 
Q 1816 3084 2150 3084 
Q 2853 3084 3261 2657 
Q 3669 2231 3669 1497 
Q 3669 778 3244 343 
Q 2819 -91 2113 -91 
Q 1303 -91 875 529 
Q 447 1150 447 2328 
Q 447 3434 972 4092 
Q 1497 4750 2381 4750 
Q 2619 4750 2861 4703 
Q 3103 4656 3366 4563 
z
" transform="scale(0.015625)"/>
       </defs>
       <use xlink:href="#DejaVuSans-30"/>
       <use xlink:href="#DejaVuSans-2e" transform="translate(63.623047 0)"/>
       <use xlink:href="#DejaVuSans-36" transform="translate(95.410156 0)"/>
      </g>
     </g>
    </g>
    <g id="text_15">
     <!-- JFI -->
     <g transform="translate(17.097187 253.505781) rotate(-90) scale(0.1 -0.1)">
      <defs>
       <path id="DejaVuSans-4a" d="M 628 4666 
L 1259 4666 
L 1259 325 
Q 1259 -519 939 -900 
Q 619 -1281 -91 -1281 
L -331 -1281 
L -331 -750 
L -134 -750 
Q 284 -750 456 -515 
Q 628 -281 628 325 
L 628 4666 
z
" transform="scale(0.015625)"/>
       <path id="DejaVuSans-46" d="M 628 4666 
L 3309 4666 
L 3309 4134 
L 1259 4134 
L 1259 2759 
L 3109 2759 
L 3109 2228 
L 1259 2228 
L 1259 0 
L 628 0 
L 628 4666 
z
" transform="scale(0.015625)"/>
       <path id="DejaVuSans-49" d="M 628 4666 
L 1259 4666 
L 1259 0 
L 628 0 
L 628 4666 
z
" transform="scale(0.015625)"/>
      </defs>
      <use xlink:href="#DejaVuSans-4a"/>
      <use xlink:href="#DejaVuSans-46" transform="translate(29.492188 0)"/>
      <use xlink:href="#DejaVuSans-49" transform="translate(87.011719 0)"/>
     </g>
    </g>
   </g>
   <g id="LineCollection_1">
    <path d="M 142.254545 74.998644 
L 142.254545 74.998644 
" clip-path="url(#p7be3e1c636)" style="fill: none; stroke: #000000; stroke-width: 1.5"/>
    <path d="M 304.232727 79.898787 
L 304.232727 73.126957 
" clip-path="url(#p7be3e1c636)" style="fill: none; stroke: #000000; stroke-width: 1.5"/>
    <path d="M 466.210909 233.992505 
L 466.210909 233.992505 
" clip-path="url(#p7be3e1c636)" style="fill: none; stroke: #000000; stroke-width: 1.5"/>
    <path d="M 628.189091 82.569781 
L 628.189091 82.569781 
" clip-path="url(#p7be3e1c636)" style="fill: none; stroke: #000000; stroke-width: 1.5"/>
    <path d="M 790.167273 83.688208 
L 790.167273 75.394444 
" clip-path="url(#p7be3e1c636)" style="fill: none; stroke: #000000; stroke-width: 1.5"/>
    <path d="M 952.145455 233.992505 
L 952.145455 233.992505 
" clip-path="url(#p7be3e1c636)" style="fill: none; stroke: #000000; stroke-width: 1.5"/>
   </g>
   <g id="line2d_21">
    <defs>
     <path id="m0e90fdf00c" d="M 2 0 
L -2 -0 
" style="stroke: #000000"/>
    </defs>
    <g clip-path="url(#p7be3e1c636)">
     <use xlink:href="#m0e90fdf00c" x="142.254545" y="74.998644" style="stroke: #000000"/>
     <use xlink:href="#m0e90fdf00c" x="304.232727" y="79.898787" style="stroke: #000000"/>
     <use xlink:href="#m0e90fdf00c" x="466.210909" y="233.992505" style="stroke: #000000"/>
     <use xlink:href="#m0e90fdf00c" x="628.189091" y="82.569781" style="stroke: #000000"/>
     <use xlink:href="#m0e90fdf00c" x="790.167273" y="83.688208" style="stroke: #000000"/>
     <use xlink:href="#m0e90fdf00c" x="952.145455" y="233.992505" style="stroke: #000000"/>
    </g>
   </g>
   <g id="line2d_22">
    <g clip-path="url(#p7be3e1c636)">
     <use xlink:href="#m0e90fdf00c" x="142.254545" y="74.998644" style="stroke: #000000"/>
     <use xlink:href="#m0e90fdf00c" x="304.232727" y="73.126957" style="stroke: #000000"/>
     <use xlink:href="#m0e90fdf00c" x="466.210909" y="233.992505" style="stroke: #000000"/>
     <use xlink:href="#m0e90fdf00c" x="628.189091" y="82.569781" style="stroke: #000000"/>
     <use xlink:href="#m0e90fdf00c" x="790.167273" y="75.394444" style="stroke: #000000"/>
     <use xlink:href="#m0e90fdf00c" x="952.145455" y="233.992505" style="stroke: #000000"/>
    </g>
   </g>
   <g id="patch_9">
    <path d="M 46.08 483.84 
L 46.08 11.52 
" style="fill: none; stroke: #000000; stroke-width: 0.8; stroke-linejoin: miter; stroke-linecap: square"/>
   </g>
   <g id="patch_10">
    <path d="M 1048.32 483.84 
L 1048.32 11.52 
" style="fill: none; stroke: #000000; stroke-width: 0.8; stroke-linejoin: miter; stroke-linecap: square"/>
   </g>
   <g id="patch_11">
    <path d="M 46.08 483.84 
L 1048.32 483.84 
" style="fill: none; stroke: #000000; stroke-width: 0.8; stroke-linejoin: miter; stroke-linecap: square"/>
   </g>
   <g id="patch_12">
    <path d="M 46.08 11.52 
L 1048.32 11.52 
" style="fill: none; stroke: #000000; stroke-width: 0.8; stroke-linejoin: miter; stroke-linecap: square"/>
   </g>
   <g id="text_16">
    <g id="patch_13">
     <path d="M 133.619389 67.834383 
L 150.889702 67.834383 
Q 151.939702 67.834383 151.939702 66.784383 
L 151.939702 60.009696 
Q 151.939702 58.959696 150.889702 58.959696 
L 133.619389 58.959696 
Q 132.569389 58.959696 132.569389 60.009696 
L 132.569389 66.784383 
Q 132.569389 67.834383 133.619389 67.834383 
z
" style="fill: #ffffff; opacity: 0.8"/>
    </g>
    <!-- 0.54 -->
    <g transform="translate(133.619389 65.328602) scale(0.07 -0.07)">
     <defs>
      <path id="DejaVuSans-Bold-30" d="M 2944 2338 
Q 2944 3213 2780 3570 
Q 2616 3928 2228 3928 
Q 1841 3928 1675 3570 
Q 1509 3213 1509 2338 
Q 1509 1453 1675 1090 
Q 1841 728 2228 728 
Q 2613 728 2778 1090 
Q 2944 1453 2944 2338 
z
M 4147 2328 
Q 4147 1169 3647 539 
Q 3147 -91 2228 -91 
Q 1306 -91 806 539 
Q 306 1169 306 2328 
Q 306 3491 806 4120 
Q 1306 4750 2228 4750 
Q 3147 4750 3647 4120 
Q 4147 3491 4147 2328 
z
" transform="scale(0.015625)"/>
      <path id="DejaVuSans-Bold-2e" d="M 653 1209 
L 1778 1209 
L 1778 0 
L 653 0 
L 653 1209 
z
" transform="scale(0.015625)"/>
      <path id="DejaVuSans-Bold-35" d="M 678 4666 
L 3669 4666 
L 3669 3781 
L 1638 3781 
L 1638 3059 
Q 1775 3097 1914 3117 
Q 2053 3138 2203 3138 
Q 3056 3138 3531 2711 
Q 4006 2284 4006 1522 
Q 4006 766 3489 337 
Q 2972 -91 2053 -91 
Q 1656 -91 1267 -14 
Q 878 63 494 219 
L 494 1166 
Q 875 947 1217 837 
Q 1559 728 1863 728 
Q 2300 728 2551 942 
Q 2803 1156 2803 1522 
Q 2803 1891 2551 2103 
Q 2300 2316 1863 2316 
Q 1603 2316 1309 2248 
Q 1016 2181 678 2041 
L 678 4666 
z
" transform="scale(0.015625)"/>
      <path id="DejaVuSans-Bold-34" d="M 2356 3675 
L 1038 1722 
L 2356 1722 
L 2356 3675 
z
M 2156 4666 
L 3494 4666 
L 3494 1722 
L 4159 1722 
L 4159 850 
L 3494 850 
L 3494 0 
L 2356 0 
L 2356 850 
L 288 850 
L 288 1881 
L 2156 4666 
z
" transform="scale(0.015625)"/>
     </defs>
     <use xlink:href="#DejaVuSans-Bold-30"/>
     <use xlink:href="#DejaVuSans-Bold-2e" transform="translate(69.580078 0)"/>
     <use xlink:href="#DejaVuSans-Bold-35" transform="translate(107.568359 0)"/>
     <use xlink:href="#DejaVuSans-Bold-34" transform="translate(177.148438 0)"/>
    </g>
   </g>
   <g id="text_17">
    <g id="patch_14">
     <path d="M 295.597571 65.962696 
L 312.867884 65.962696 
Q 313.917884 65.962696 313.917884 64.912696 
L 313.917884 58.138008 
Q 313.917884 57.088008 312.867884 57.088008 
L 295.597571 57.088008 
Q 294.547571 57.088008 294.547571 58.138008 
L 294.547571 64.912696 
Q 294.547571 65.962696 295.597571 65.962696 
z
" style="fill: #ffffff; opacity: 0.8"/>
    </g>
    <!-- 0.54 -->
    <g transform="translate(295.597571 63.456914) scale(0.07 -0.07)">
     <use xlink:href="#DejaVuSans-Bold-30"/>
     <use xlink:href="#DejaVuSans-Bold-2e" transform="translate(69.580078 0)"/>
     <use xlink:href="#DejaVuSans-Bold-35" transform="translate(107.568359 0)"/>
     <use xlink:href="#DejaVuSans-Bold-34" transform="translate(177.148438 0)"/>
    </g>
   </g>
   <g id="text_18">
    <g id="patch_15">
     <path d="M 457.575753 226.828244 
L 474.846065 226.828244 
Q 475.896065 226.828244 475.896065 225.778244 
L 475.896065 219.003556 
Q 475.896065 217.953556 474.846065 217.953556 
L 457.575753 217.953556 
Q 456.525753 217.953556 456.525753 219.003556 
L 456.525753 225.778244 
Q 456.525753 226.828244 457.575753 226.828244 
z
" style="fill: #ffffff; opacity: 0.8"/>
    </g>
    <!-- 0.33 -->
    <g transform="translate(457.575753 224.322463) scale(0.07 -0.07)">
     <defs>
      <path id="DejaVuSans-Bold-33" d="M 2981 2516 
Q 3453 2394 3698 2092 
Q 3944 1791 3944 1325 
Q 3944 631 3412 270 
Q 2881 -91 1863 -91 
Q 1503 -91 1142 -33 
Q 781 25 428 141 
L 428 1069 
Q 766 900 1098 814 
Q 1431 728 1753 728 
Q 2231 728 2486 893 
Q 2741 1059 2741 1369 
Q 2741 1688 2480 1852 
Q 2219 2016 1709 2016 
L 1228 2016 
L 1228 2791 
L 1734 2791 
Q 2188 2791 2409 2933 
Q 2631 3075 2631 3366 
Q 2631 3634 2415 3781 
Q 2200 3928 1806 3928 
Q 1516 3928 1219 3862 
Q 922 3797 628 3669 
L 628 4550 
Q 984 4650 1334 4700 
Q 1684 4750 2022 4750 
Q 2931 4750 3382 4451 
Q 3834 4153 3834 3553 
Q 3834 3144 3618 2883 
Q 3403 2622 2981 2516 
z
" transform="scale(0.015625)"/>
     </defs>
     <use xlink:href="#DejaVuSans-Bold-30"/>
     <use xlink:href="#DejaVuSans-Bold-2e" transform="translate(69.580078 0)"/>
     <use xlink:href="#DejaVuSans-Bold-33" transform="translate(107.568359 0)"/>
     <use xlink:href="#DejaVuSans-Bold-33" transform="translate(177.148438 0)"/>
    </g>
   </g>
   <g id="text_19">
    <g id="patch_16">
     <path d="M 619.553935 75.40552 
L 636.824247 75.40552 
Q 637.874247 75.40552 637.874247 74.35552 
L 637.874247 67.580832 
Q 637.874247 66.530832 636.824247 66.530832 
L 619.553935 66.530832 
Q 618.503935 66.530832 618.503935 67.580832 
L 618.503935 74.35552 
Q 618.503935 75.40552 619.553935 75.40552 
z
" style="fill: #ffffff; opacity: 0.8"/>
    </g>
    <!-- 0.53 -->
    <g transform="translate(619.553935 72.899738) scale(0.07 -0.07)">
     <use xlink:href="#DejaVuSans-Bold-30"/>
     <use xlink:href="#DejaVuSans-Bold-2e" transform="translate(69.580078 0)"/>
     <use xlink:href="#DejaVuSans-Bold-35" transform="translate(107.568359 0)"/>
     <use xlink:href="#DejaVuSans-Bold-33" transform="translate(177.148438 0)"/>
    </g>
   </g>
   <g id="text_20">
    <g id="patch_17">
     <path d="M 781.532116 68.230183 
L 798.802429 68.230183 
Q 799.852429 68.230183 799.852429 67.180183 
L 799.852429 60.405496 
Q 799.852429 59.355496 798.802429 59.355496 
L 781.532116 59.355496 
Q 780.482116 59.355496 780.482116 60.405496 
L 780.482116 67.180183 
Q 780.482116 68.230183 781.532116 68.230183 
z
" style="fill: #ffffff; opacity: 0.8"/>
    </g>
    <!-- 0.53 -->
    <g transform="translate(781.532116 65.724402) scale(0.07 -0.07)">
     <use xlink:href="#DejaVuSans-Bold-30"/>
     <use xlink:href="#DejaVuSans-Bold-2e" transform="translate(69.580078 0)"/>
     <use xlink:href="#DejaVuSans-Bold-35" transform="translate(107.568359 0)"/>
     <use xlink:href="#DejaVuSans-Bold-33" transform="translate(177.148438 0)"/>
    </g>
   </g>
   <g id="text_21">
    <g id="patch_18">
     <path d="M 943.510298 226.828244 
L 960.780611 226.828244 
Q 961.830611 226.828244 961.830611 225.778244 
L 961.830611 219.003556 
Q 961.830611 217.953556 960.780611 217.953556 
L 943.510298 217.953556 
Q 942.460298 217.953556 942.460298 219.003556 
L 942.460298 225.778244 
Q 942.460298 226.828244 943.510298 226.828244 
z
" style="fill: #ffffff; opacity: 0.8"/>
    </g>
    <!-- 0.33 -->
    <g transform="translate(943.510298 224.322463) scale(0.07 -0.07)">
     <use xlink:href="#DejaVuSans-Bold-30"/>
     <use xlink:href="#DejaVuSans-Bold-2e" transform="translate(69.580078 0)"/>
     <use xlink:href="#DejaVuSans-Bold-33" transform="translate(107.568359 0)"/>
     <use xlink:href="#DejaVuSans-Bold-33" transform="translate(177.148438 0)"/>
    </g>
   </g>
   <g id="legend_1">
    <g id="patch_19">
     <path d="M 1070.3648 58.554375 
L 1141.410112 58.554375 
Q 1143.410112 58.554375 1143.410112 56.554375 
L 1143.410112 13.52 
Q 1143.410112 11.52 1141.410112 11.52 
L 1070.3648 11.52 
Q 1068.3648 11.52 1068.3648 13.52 
L 1068.3648 56.554375 
Q 1068.3648 58.554375 1070.3648 58.554375 
z
" style="fill: #ffffff; opacity: 0.8; stroke: #cccccc; stroke-linejoin: miter"/>
    </g>
    <g id="text_22">
     <!-- Systems -->
     <g transform="translate(1084.637456 23.118437) scale(0.1 -0.1)">
      <use xlink:href="#DejaVuSans-53"/>
      <use xlink:href="#DejaVuSans-79" transform="translate(63.476562 0)"/>
      <use xlink:href="#DejaVuSans-73" transform="translate(122.65625 0)"/>
      <use xlink:href="#DejaVuSans-74" transform="translate(174.755859 0)"/>
      <use xlink:href="#DejaVuSans-65" transform="translate(213.964844 0)"/>
      <use xlink:href="#DejaVuSans-6d" transform="translate(275.488281 0)"/>
      <use xlink:href="#DejaVuSans-73" transform="translate(372.900391 0)"/>
     </g>
    </g>
    <g id="patch_20">
     <path d="M 1072.3648 37.796562 
L 1092.3648 37.796562 
L 1092.3648 30.796562 
L 1072.3648 30.796562 
z
" style="fill: #0000ff; stroke: #000000; stroke-linejoin: miter"/>
    </g>
    <g id="text_23">
     <!-- Kueue -->
     <g transform="translate(1100.3648 37.796562) scale(0.1 -0.1)">
      <use xlink:href="#DejaVuSans-4b"/>
      <use xlink:href="#DejaVuSans-75" transform="translate(60.576172 0)"/>
      <use xlink:href="#DejaVuSans-65" transform="translate(123.955078 0)"/>
      <use xlink:href="#DejaVuSans-75" transform="translate(185.478516 0)"/>
      <use xlink:href="#DejaVuSans-65" transform="translate(248.857422 0)"/>
     </g>
    </g>
    <g id="patch_21">
     <path d="M 1072.3648 52.474687 
L 1092.3648 52.474687 
L 1092.3648 45.474687 
L 1072.3648 45.474687 
z
" style="fill: #ff0000; stroke: #000000; stroke-linejoin: miter"/>
    </g>
    <g id="text_24">
     <!-- Volcano -->
     <g transform="translate(1100.3648 52.474687) scale(0.1 -0.1)">
      <use xlink:href="#DejaVuSans-56"/>
      <use xlink:href="#DejaVuSans-6f" transform="translate(60.658203 0)"/>
      <use xlink:href="#DejaVuSans-6c" transform="translate(121.839844 0)"/>
      <use xlink:href="#DejaVuSans-63" transform="translate(149.623047 0)"/>
      <use xlink:href="#DejaVuSans-61" transform="translate(204.603516 0)"/>
      <use xlink:href="#DejaVuSans-6e" transform="translate(265.882812 0)"/>
      <use xlink:href="#DejaVuSans-6f" transform="translate(329.261719 0)"/>
     </g>
    </g>
   </g>
   <g id="legend_2">
    <g id="patch_22">
     <path d="M 1070.3648 158.2501 
L 1143.035112 158.2501 
Q 1145.035112 158.2501 1145.035112 156.2501 
L 1145.035112 98.5376 
Q 1145.035112 96.5376 1143.035112 96.5376 
L 1070.3648 96.5376 
Q 1068.3648 96.5376 1068.3648 98.5376 
L 1068.3648 156.2501 
Q 1068.3648 158.2501 1070.3648 158.2501 
z
" style="fill: #ffffff; opacity: 0.8; stroke: #cccccc; stroke-linejoin: miter"/>
    </g>
    <g id="text_25">
     <!-- Resources -->
     <g transform="translate(1081.167925 108.136037) scale(0.1 -0.1)">
      <use xlink:href="#DejaVuSans-52"/>
      <use xlink:href="#DejaVuSans-65" transform="translate(64.982422 0)"/>
      <use xlink:href="#DejaVuSans-73" transform="translate(126.505859 0)"/>
      <use xlink:href="#DejaVuSans-6f" transform="translate(178.605469 0)"/>
      <use xlink:href="#DejaVuSans-75" transform="translate(239.787109 0)"/>
      <use xlink:href="#DejaVuSans-72" transform="translate(303.166016 0)"/>
      <use xlink:href="#DejaVuSans-63" transform="translate(342.029297 0)"/>
      <use xlink:href="#DejaVuSans-65" transform="translate(397.009766 0)"/>
      <use xlink:href="#DejaVuSans-73" transform="translate(458.533203 0)"/>
     </g>
    </g>
    <g id="patch_23">
     <path d="M 1072.3648 122.814163 
L 1092.3648 122.814163 
L 1092.3648 115.814163 
L 1072.3648 115.814163 
z
" style="fill: url(#h586f76b5a5); stroke: #000000; stroke-linejoin: miter"/>
    </g>
    <g id="text_26">
     <!-- CPU -->
     <g transform="translate(1100.3648 122.814163) scale(0.1 -0.1)">
      <use xlink:href="#DejaVuSans-43"/>
      <use xlink:href="#DejaVuSans-50" transform="translate(69.824219 0)"/>
      <use xlink:href="#DejaVuSans-55" transform="translate(130.126953 0)"/>
     </g>
    </g>
    <g id="patch_24">
     <path d="M 1072.3648 137.492288 
L 1092.3648 137.492288 
L 1092.3648 130.492288 
L 1072.3648 130.492288 
z
" style="fill: url(#h5e8b26eec8); stroke: #000000; stroke-linejoin: miter"/>
    </g>
    <g id="text_27">
     <!-- Memory -->
     <g transform="translate(1100.3648 137.492288) scale(0.1 -0.1)">
      <use xlink:href="#DejaVuSans-4d"/>
      <use xlink:href="#DejaVuSans-65" transform="translate(86.279297 0)"/>
      <use xlink:href="#DejaVuSans-6d" transform="translate(147.802734 0)"/>
      <use xlink:href="#DejaVuSans-6f" transform="translate(245.214844 0)"/>
      <use xlink:href="#DejaVuSans-72" transform="translate(306.396484 0)"/>
      <use xlink:href="#DejaVuSans-79" transform="translate(347.509766 0)"/>
     </g>
    </g>
    <g id="patch_25">
     <path d="M 1072.3648 152.170412 
L 1092.3648 152.170412 
L 1092.3648 145.170412 
L 1072.3648 145.170412 
z
" style="fill: url(#h872df13bf8); stroke: #000000; stroke-linejoin: miter"/>
    </g>
    <g id="text_28">
     <!-- GPU -->
     <g transform="translate(1100.3648 152.170412) scale(0.1 -0.1)">
      <use xlink:href="#DejaVuSans-47"/>
      <use xlink:href="#DejaVuSans-50" transform="translate(77.490234 0)"/>
      <use xlink:href="#DejaVuSans-55" transform="translate(137.792969 0)"/>
     </g>
    </g>
   </g>
  </g>
 </g>
 <defs>
  <clipPath id="p7be3e1c636">
   <rect x="46.08" y="11.52" width="1002.24" height="472.32"/>
  </clipPath>
 </defs>
 <defs>
  <pattern id="hb0c2905715" patternUnits="userSpaceOnUse" x="0" y="0" width="72" height="72">
   <rect x="0" y="0" width="73" height="73" fill="#0000ff"/>
   <path d="M -36 36 
L 36 -36 
M -32 40 
L 40 -32 
M -28 44 
L 44 -28 
M -24 48 
L 48 -24 
M -20 52 
L 52 -20 
M -16 56 
L 56 -16 
M -12 60 
L 60 -12 
M -8 64 
L 64 -8 
M -4 68 
L 68 -4 
M 0 72 
L 72 0 
M 4 76 
L 76 4 
M 8 80 
L 80 8 
M 12 84 
L 84 12 
M 16 88 
L 88 16 
M 20 92 
L 92 20 
M 24 96 
L 96 24 
M 28 100 
L 100 28 
M 32 104 
L 104 32 
M 36 108 
L 108 36 
" style="fill: #000000; stroke: #000000; stroke-width: 0.5; stroke-linecap: butt; stroke-linejoin: miter; stroke-opacity: 0.8"/>
  </pattern>
  <pattern id="h2046676d62" patternUnits="userSpaceOnUse" x="0" y="0" width="72" height="72">
   <rect x="0" y="0" width="73" height="73" fill="#0000ff"/>
   <path d="M -36 36 
L 36 108 
M -32 32 
L 40 104 
M -28 28 
L 44 100 
M -24 24 
L 48 96 
M -20 20 
L 52 92 
M -16 16 
L 56 88 
M -12 12 
L 60 84 
M -8 8 
L 64 80 
M -4 4 
L 68 76 
M 0 0 
L 72 72 
M 4 -4 
L 76 68 
M 8 -8 
L 80 64 
M 12 -12 
L 84 60 
M 16 -16 
L 88 56 
M 20 -20 
L 92 52 
M 24 -24 
L 96 48 
M 28 -28 
L 100 44 
M 32 -32 
L 104 40 
M 36 -36 
L 108 36 
" style="fill: #000000; stroke: #000000; stroke-width: 0.5; stroke-linecap: butt; stroke-linejoin: miter; stroke-opacity: 0.8"/>
  </pattern>
  <pattern id="ha6e5b093d5" patternUnits="userSpaceOnUse" x="0" y="0" width="72" height="72">
   <rect x="0" y="0" width="73" height="73" fill="#0000ff"/>
   <path d="M 0 70 
L 72 70 
M 0 66 
L 72 66 
M 0 62 
L 72 62 
M 0 58 
L 72 58 
M 0 54 
L 72 54 
M 0 50 
L 72 50 
M 0 46 
L 72 46 
M 0 42 
L 72 42 
M 0 38 
L 72 38 
M 0 34 
L 72 34 
M 0 30 
L 72 30 
M 0 26 
L 72 26 
M 0 22 
L 72 22 
M 0 18 
L 72 18 
M 0 14 
L 72 14 
M 0 10 
L 72 10 
M 0 6 
L 72 6 
M 0 2 
L 72 2 
M 2 72 
L 2 0 
M 6 72 
L 6 0 
M 10 72 
L 10 0 
M 14 72 
L 14 0 
M 18 72 
L 18 0 
M 22 72 
L 22 0 
M 26 72 
L 26 0 
M 30 72 
L 30 0 
M 34 72 
L 34 0 
M 38 72 
L 38 0 
M 42 72 
L 42 0 
M 46 72 
L 46 0 
M 50 72 
L 50 0 
M 54 72 
L 54 0 
M 58 72 
L 58 0 
M 62 72 
L 62 0 
M 66 72 
L 66 0 
M 70 72 
L 70 0 
" style="fill: #000000; stroke: #000000; stroke-width: 0.5; stroke-linecap: butt; stroke-linejoin: miter; stroke-opacity: 0.8"/>
  </pattern>
  <pattern id="h07d0626176" patternUnits="userSpaceOnUse" x="0" y="0" width="72" height="72">
   <rect x="0" y="0" width="73" height="73" fill="#ff0000"/>
   <path d="M -36 36 
L 36 -36 
M -32 40 
L 40 -32 
M -28 44 
L 44 -28 
M -24 48 
L 48 -24 
M -20 52 
L 52 -20 
M -16 56 
L 56 -16 
M -12 60 
L 60 -12 
M -8 64 
L 64 -8 
M -4 68 
L 68 -4 
M 0 72 
L 72 0 
M 4 76 
L 76 4 
M 8 80 
L 80 8 
M 12 84 
L 84 12 
M 16 88 
L 88 16 
M 20 92 
L 92 20 
M 24 96 
L 96 24 
M 28 100 
L 100 28 
M 32 104 
L 104 32 
M 36 108 
L 108 36 
" style="fill: #000000; stroke: #000000; stroke-width: 0.5; stroke-linecap: butt; stroke-linejoin: miter; stroke-opacity: 0.8"/>
  </pattern>
  <pattern id="h565cc880de" patternUnits="userSpaceOnUse" x="0" y="0" width="72" height="72">
   <rect x="0" y="0" width="73" height="73" fill="#ff0000"/>
   <path d="M -36 36 
L 36 108 
M -32 32 
L 40 104 
M -28 28 
L 44 100 
M -24 24 
L 48 96 
M -20 20 
L 52 92 
M -16 16 
L 56 88 
M -12 12 
L 60 84 
M -8 8 
L 64 80 
M -4 4 
L 68 76 
M 0 0 
L 72 72 
M 4 -4 
L 76 68 
M 8 -8 
L 80 64 
M 12 -12 
L 84 60 
M 16 -16 
L 88 56 
M 20 -20 
L 92 52 
M 24 -24 
L 96 48 
M 28 -28 
L 100 44 
M 32 -32 
L 104 40 
M 36 -36 
L 108 36 
" style="fill: #000000; stroke: #000000; stroke-width: 0.5; stroke-linecap: butt; stroke-linejoin: miter; stroke-opacity: 0.8"/>
  </pattern>
  <pattern id="h7443869861" patternUnits="userSpaceOnUse" x="0" y="0" width="72" height="72">
   <rect x="0" y="0" width="73" height="73" fill="#ff0000"/>
   <path d="M 0 70 
L 72 70 
M 0 66 
L 72 66 
M 0 62 
L 72 62 
M 0 58 
L 72 58 
M 0 54 
L 72 54 
M 0 50 
L 72 50 
M 0 46 
L 72 46 
M 0 42 
L 72 42 
M 0 38 
L 72 38 
M 0 34 
L 72 34 
M 0 30 
L 72 30 
M 0 26 
L 72 26 
M 0 22 
L 72 22 
M 0 18 
L 72 18 
M 0 14 
L 72 14 
M 0 10 
L 72 10 
M 0 6 
L 72 6 
M 0 2 
L 72 2 
M 2 72 
L 2 0 
M 6 72 
L 6 0 
M 10 72 
L 10 0 
M 14 72 
L 14 0 
M 18 72 
L 18 0 
M 22 72 
L 22 0 
M 26 72 
L 26 0 
M 30 72 
L 30 0 
M 34 72 
L 34 0 
M 38 72 
L 38 0 
M 42 72 
L 42 0 
M 46 72 
L 46 0 
M 50 72 
L 50 0 
M 54 72 
L 54 0 
M 58 72 
L 58 0 
M 62 72 
L 62 0 
M 66 72 
L 66 0 
M 70 72 
L 70 0 
" style="fill: #000000; stroke: #000000; stroke-width: 0.5; stroke-linecap: butt; stroke-linejoin: miter; stroke-opacity: 0.8"/>
  </pattern>
  <pattern id="h586f76b5a5" patternUnits="userSpaceOnUse" x="0" y="0" width="72" height="72">
   <rect x="0" y="0" width="73" height="73" fill="#ffffff"/>
   <path d="M -36 36 
L 36 -36 
M -32 40 
L 40 -32 
M -28 44 
L 44 -28 
M -24 48 
L 48 -24 
M -20 52 
L 52 -20 
M -16 56 
L 56 -16 
M -12 60 
L 60 -12 
M -8 64 
L 64 -8 
M -4 68 
L 68 -4 
M 0 72 
L 72 0 
M 4 76 
L 76 4 
M 8 80 
L 80 8 
M 12 84 
L 84 12 
M 16 88 
L 88 16 
M 20 92 
L 92 20 
M 24 96 
L 96 24 
M 28 100 
L 100 28 
M 32 104 
L 104 32 
M 36 108 
L 108 36 
" style="fill: #000000; stroke: #000000; stroke-width: 0.5; stroke-linecap: butt; stroke-linejoin: miter"/>
  </pattern>
  <pattern id="h5e8b26eec8" patternUnits="userSpaceOnUse" x="0" y="0" width="72" height="72">
   <rect x="0" y="0" width="73" height="73" fill="#ffffff"/>
   <path d="M -36 36 
L 36 108 
M -32 32 
L 40 104 
M -28 28 
L 44 100 
M -24 24 
L 48 96 
M -20 20 
L 52 92 
M -16 16 
L 56 88 
M -12 12 
L 60 84 
M -8 8 
L 64 80 
M -4 4 
L 68 76 
M 0 0 
L 72 72 
M 4 -4 
L 76 68 
M 8 -8 
L 80 64 
M 12 -12 
L 84 60 
M 16 -16 
L 88 56 
M 20 -20 
L 92 52 
M 24 -24 
L 96 48 
M 28 -28 
L 100 44 
M 32 -32 
L 104 40 
M 36 -36 
L 108 36 
" style="fill: #000000; stroke: #000000; stroke-width: 0.5; stroke-linecap: butt; stroke-linejoin: miter"/>
  </pattern>
  <pattern id="h872df13bf8" patternUnits="userSpaceOnUse" x="0" y="0" width="72" height="72">
   <rect x="0" y="0" width="73" height="73" fill="#ffffff"/>
   <path d="M 0 70 
L 72 70 
M 0 66 
L 72 66 
M 0 62 
L 72 62 
M 0 58 
L 72 58 
M 0 54 
L 72 54 
M 0 50 
L 72 50 
M 0 46 
L 72 46 
M 0 42 
L 72 42 
M 0 38 
L 72 38 
M 0 34 
L 72 34 
M 0 30 
L 72 30 
M 0 26 
L 72 26 
M 0 22 
L 72 22 
M 0 18 
L 72 18 
M 0 14 
L 72 14 
M 0 10 
L 72 10 
M 0 6 
L 72 6 
M 0 2 
L 72 2 
M 2 72 
L 2 0 
M 6 72 
L 6 0 
M 10 72 
L 10 0 
M 14 72 
L 14 0 
M 18 72 
L 18 0 
M 22 72 
L 22 0 
M 26 72 
L 26 0 
M 30 72 
L 30 0 
M 34 72 
L 34 0 
M 38 72 
L 38 0 
M 42 72 
L 42 0 
M 46 72 
L 46 0 
M 50 72 
L 50 0 
M 54 72 
L 54 0 
M 58 72 
L 58 0 
M 62 72 
L 62 0 
M 66 72 
L 66 0 
M 70 72 
L 70 0 
" style="fill: #000000; stroke: #000000; stroke-width: 0.5; stroke-linecap: butt; stroke-linejoin: miter"/>
  </pattern>
 </defs>
</svg>
