<?xml version="1.0" encoding="utf-8" standalone="no"?>
<!DOCTYPE svg PUBLIC "-//W3C//DTD SVG 1.1//EN"
  "http://www.w3.org/Graphics/SVG/1.1/DTD/svg11.dtd">
<svg xmlns:xlink="http://www.w3.org/1999/xlink" width="1152pt" height="576pt" viewBox="0 0 1152 576" xmlns="http://www.w3.org/2000/svg" version="1.1">
 <metadata>
  <rdf:RDF xmlns:dc="http://purl.org/dc/elements/1.1/" xmlns:cc="http://creativecommons.org/ns#" xmlns:rdf="http://www.w3.org/1999/02/22-rdf-syntax-ns#">
   <cc:Work>
    <dc:type rdf:resource="http://purl.org/dc/dcmitype/StillImage"/>
    <dc:date>2025-06-05T08:46:32.426256</dc:date>
    <dc:format>image/svg+xml</dc:format>
    <dc:creator>
     <cc:Agent>
      <dc:title>Matplotlib v3.10.1, https://matplotlib.org/</dc:title>
     </cc:Agent>
    </dc:creator>
   </cc:Work>
  </rdf:RDF>
 </metadata>
 <defs>
  <style type="text/css">*{stroke-linejoin: round; stroke-linecap: butt}</style>
 </defs>
 <g id="figure_1">
  <g id="patch_1">
   <path d="M 0 576 
L 1152 576 
L 1152 0 
L 0 0 
z
" style="fill: #ffffff"/>
  </g>
  <g id="axes_1">
   <g id="patch_2">
    <path d="M 46.08 489.6 
L 1048.32 489.6 
L 1048.32 11.52 
L 46.08 11.52 
z
" style="fill: #ffffff"/>
   </g>
   <g id="patch_3">
    <path d="M 91.636364 489.6 
L 134.212404 489.6 
L 134.212404 212.3136 
L 91.636364 212.3136 
z
" clip-path="url(#p72ed4a37d3)" style="fill: url(#h62f72c56cb); opacity: 0.8; stroke: #000000; stroke-width: 0.5; stroke-linejoin: miter"/>
   </g>
   <g id="patch_4">
    <path d="M 142.727613 489.6 
L 185.303653 489.6 
L 185.303653 420.17447 
L 142.727613 420.17447 
z
" clip-path="url(#p72ed4a37d3)" style="fill: url(#hf7b37203f1); opacity: 0.8; stroke: #000000; stroke-width: 0.5; stroke-linejoin: miter"/>
   </g>
   <g id="patch_5">
    <path d="M 193.818862 489.6 
L 236.394902 489.6 
L 236.394902 489.6 
L 193.818862 489.6 
z
" clip-path="url(#p72ed4a37d3)" style="fill: url(#hbfa5c9548e); opacity: 0.8; stroke: #000000; stroke-width: 0.5; stroke-linejoin: miter"/>
   </g>
   <g id="patch_6">
    <path d="M 244.91011 489.6 
L 287.486151 489.6 
L 287.486151 419.259882 
L 244.91011 419.259882 
z
" clip-path="url(#p72ed4a37d3)" style="fill: url(#h62f72c56cb); opacity: 0.8; stroke: #000000; stroke-width: 0.5; stroke-linejoin: miter"/>
   </g>
   <g id="patch_7">
    <path d="M 296.001359 489.6 
L 338.5774 489.6 
L 338.5774 208.073238 
L 296.001359 208.073238 
z
" clip-path="url(#p72ed4a37d3)" style="fill: url(#hf7b37203f1); opacity: 0.8; stroke: #000000; stroke-width: 0.5; stroke-linejoin: miter"/>
   </g>
   <g id="patch_8">
    <path d="M 347.092608 489.6 
L 389.668649 489.6 
L 389.668649 489.6 
L 347.092608 489.6 
z
" clip-path="url(#p72ed4a37d3)" style="fill: url(#hbfa5c9548e); opacity: 0.8; stroke: #000000; stroke-width: 0.5; stroke-linejoin: miter"/>
   </g>
   <g id="patch_9">
    <path d="M 398.183857 489.6 
L 440.759898 489.6 
L 440.759898 472.139687 
L 398.183857 472.139687 
z
" clip-path="url(#p72ed4a37d3)" style="fill: url(#h62f72c56cb); opacity: 0.8; stroke: #000000; stroke-width: 0.5; stroke-linejoin: miter"/>
   </g>
   <g id="patch_10">
    <path d="M 449.275106 489.6 
L 491.851147 489.6 
L 491.851147 472.139687 
L 449.275106 472.139687 
z
" clip-path="url(#p72ed4a37d3)" style="fill: url(#hf7b37203f1); opacity: 0.8; stroke: #000000; stroke-width: 0.5; stroke-linejoin: miter"/>
   </g>
   <g id="patch_11">
    <path d="M 500.366355 489.6 
L 542.942396 489.6 
L 542.942396 73.878261 
L 500.366355 73.878261 
z
" clip-path="url(#p72ed4a37d3)" style="fill: url(#hbfa5c9548e); opacity: 0.8; stroke: #000000; stroke-width: 0.5; stroke-linejoin: miter"/>
   </g>
   <g id="patch_12">
    <path d="M 551.457604 489.6 
L 594.033645 489.6 
L 594.033645 191.194936 
L 551.457604 191.194936 
z
" clip-path="url(#p72ed4a37d3)" style="fill: url(#h1210595908); opacity: 0.8; stroke: #000000; stroke-width: 0.5; stroke-linejoin: miter"/>
   </g>
   <g id="patch_13">
    <path d="M 602.548853 489.6 
L 645.124894 489.6 
L 645.124894 415.01952 
L 602.548853 415.01952 
z
" clip-path="url(#p72ed4a37d3)" style="fill: url(#h9e506a5ebf); opacity: 0.8; stroke: #000000; stroke-width: 0.5; stroke-linejoin: miter"/>
   </g>
   <g id="patch_14">
    <path d="M 653.640102 489.6 
L 696.216143 489.6 
L 696.216143 489.6 
L 653.640102 489.6 
z
" clip-path="url(#p72ed4a37d3)" style="fill: url(#h3677284e75); opacity: 0.8; stroke: #000000; stroke-width: 0.5; stroke-linejoin: miter"/>
   </g>
   <g id="patch_15">
    <path d="M 704.731351 489.6 
L 747.307392 489.6 
L 747.307392 416.017252 
L 704.731351 416.017252 
z
" clip-path="url(#p72ed4a37d3)" style="fill: url(#h1210595908); opacity: 0.8; stroke: #000000; stroke-width: 0.5; stroke-linejoin: miter"/>
   </g>
   <g id="patch_16">
    <path d="M 755.8226 489.6 
L 798.398641 489.6 
L 798.398641 195.352153 
L 755.8226 195.352153 
z
" clip-path="url(#p72ed4a37d3)" style="fill: url(#h9e506a5ebf); opacity: 0.8; stroke: #000000; stroke-width: 0.5; stroke-linejoin: miter"/>
   </g>
   <g id="patch_17">
    <path d="M 806.913849 489.6 
L 849.48989 489.6 
L 849.48989 489.6 
L 806.913849 489.6 
z
" clip-path="url(#p72ed4a37d3)" style="fill: url(#h3677284e75); opacity: 0.8; stroke: #000000; stroke-width: 0.5; stroke-linejoin: miter"/>
   </g>
   <g id="patch_18">
    <path d="M 858.005098 489.6 
L 900.581138 489.6 
L 900.581138 473.469997 
L 858.005098 473.469997 
z
" clip-path="url(#p72ed4a37d3)" style="fill: url(#h1210595908); opacity: 0.8; stroke: #000000; stroke-width: 0.5; stroke-linejoin: miter"/>
   </g>
   <g id="patch_19">
    <path d="M 909.096347 489.6 
L 951.672387 489.6 
L 951.672387 473.469997 
L 909.096347 473.469997 
z
" clip-path="url(#p72ed4a37d3)" style="fill: url(#h9e506a5ebf); opacity: 0.8; stroke: #000000; stroke-width: 0.5; stroke-linejoin: miter"/>
   </g>
   <g id="patch_20">
    <path d="M 960.187596 489.6 
L 1002.763636 489.6 
L 1002.763636 103.801912 
L 960.187596 103.801912 
z
" clip-path="url(#p72ed4a37d3)" style="fill: url(#h3677284e75); opacity: 0.8; stroke: #000000; stroke-width: 0.5; stroke-linejoin: miter"/>
   </g>
   <g id="matplotlib.axis_1">
    <g id="xtick_1">
     <g id="line2d_1">
      <defs>
       <path id="mf3702daf18" d="M 0 0 
L 0 3.5 
" style="stroke: #000000; stroke-width: 0.8"/>
      </defs>
      <g>
       <use xlink:href="#mf3702daf18" x="112.924384" y="489.6" style="stroke: #000000; stroke-width: 0.8"/>
      </g>
     </g>
     <g id="text_1">
      <!-- Kueue-A-CPU -->
      <g transform="translate(74.991641 537.65462) rotate(-45) scale(0.08 -0.08)">
       <defs>
        <path id="DejaVuSans-4b" d="M 628 4666 
L 1259 4666 
L 1259 2694 
L 3353 4666 
L 4166 4666 
L 1850 2491 
L 4331 0 
L 3500 0 
L 1259 2247 
L 1259 0 
L 628 0 
L 628 4666 
z
" transform="scale(0.015625)"/>
        <path id="DejaVuSans-75" d="M 544 1381 
L 544 3500 
L 1119 3500 
L 1119 1403 
Q 1119 906 1312 657 
Q 1506 409 1894 409 
Q 2359 409 2629 706 
Q 2900 1003 2900 1516 
L 2900 3500 
L 3475 3500 
L 3475 0 
L 2900 0 
L 2900 538 
Q 2691 219 2414 64 
Q 2138 -91 1772 -91 
Q 1169 -91 856 284 
Q 544 659 544 1381 
z
M 1991 3584 
L 1991 3584 
z
" transform="scale(0.015625)"/>
        <path id="DejaVuSans-65" d="M 3597 1894 
L 3597 1613 
L 953 1613 
Q 991 1019 1311 708 
Q 1631 397 2203 397 
Q 2534 397 2845 478 
Q 3156 559 3463 722 
L 3463 178 
Q 3153 47 2828 -22 
Q 2503 -91 2169 -91 
Q 1331 -91 842 396 
Q 353 884 353 1716 
Q 353 2575 817 3079 
Q 1281 3584 2069 3584 
Q 2775 3584 3186 3129 
Q 3597 2675 3597 1894 
z
M 3022 2063 
Q 3016 2534 2758 2815 
Q 2500 3097 2075 3097 
Q 1594 3097 1305 2825 
Q 1016 2553 972 2059 
L 3022 2063 
z
" transform="scale(0.015625)"/>
        <path id="DejaVuSans-2d" d="M 313 2009 
L 1997 2009 
L 1997 1497 
L 313 1497 
L 313 2009 
z
" transform="scale(0.015625)"/>
        <path id="DejaVuSans-41" d="M 2188 4044 
L 1331 1722 
L 3047 1722 
L 2188 4044 
z
M 1831 4666 
L 2547 4666 
L 4325 0 
L 3669 0 
L 3244 1197 
L 1141 1197 
L 716 0 
L 50 0 
L 1831 4666 
z
" transform="scale(0.015625)"/>
        <path id="DejaVuSans-43" d="M 4122 4306 
L 4122 3641 
Q 3803 3938 3442 4084 
Q 3081 4231 2675 4231 
Q 1875 4231 1450 3742 
Q 1025 3253 1025 2328 
Q 1025 1406 1450 917 
Q 1875 428 2675 428 
Q 3081 428 3442 575 
Q 3803 722 4122 1019 
L 4122 359 
Q 3791 134 3420 21 
Q 3050 -91 2638 -91 
Q 1578 -91 968 557 
Q 359 1206 359 2328 
Q 359 3453 968 4101 
Q 1578 4750 2638 4750 
Q 3056 4750 3426 4639 
Q 3797 4528 4122 4306 
z
" transform="scale(0.015625)"/>
        <path id="DejaVuSans-50" d="M 1259 4147 
L 1259 2394 
L 2053 2394 
Q 2494 2394 2734 2622 
Q 2975 2850 2975 3272 
Q 2975 3691 2734 3919 
Q 2494 4147 2053 4147 
L 1259 4147 
z
M 628 4666 
L 2053 4666 
Q 2838 4666 3239 4311 
Q 3641 3956 3641 3272 
Q 3641 2581 3239 2228 
Q 2838 1875 2053 1875 
L 1259 1875 
L 1259 0 
L 628 0 
L 628 4666 
z
" transform="scale(0.015625)"/>
        <path id="DejaVuSans-55" d="M 556 4666 
L 1191 4666 
L 1191 1831 
Q 1191 1081 1462 751 
Q 1734 422 2344 422 
Q 2950 422 3222 751 
Q 3494 1081 3494 1831 
L 3494 4666 
L 4128 4666 
L 4128 1753 
Q 4128 841 3676 375 
Q 3225 -91 2344 -91 
Q 1459 -91 1007 375 
Q 556 841 556 1753 
L 556 4666 
z
" transform="scale(0.015625)"/>
       </defs>
       <use xlink:href="#DejaVuSans-4b"/>
       <use xlink:href="#DejaVuSans-75" transform="translate(60.576172 0)"/>
       <use xlink:href="#DejaVuSans-65" transform="translate(123.955078 0)"/>
       <use xlink:href="#DejaVuSans-75" transform="translate(185.478516 0)"/>
       <use xlink:href="#DejaVuSans-65" transform="translate(248.857422 0)"/>
       <use xlink:href="#DejaVuSans-2d" transform="translate(310.380859 0)"/>
       <use xlink:href="#DejaVuSans-41" transform="translate(344.214844 0)"/>
       <use xlink:href="#DejaVuSans-2d" transform="translate(410.373047 0)"/>
       <use xlink:href="#DejaVuSans-43" transform="translate(446.457031 0)"/>
       <use xlink:href="#DejaVuSans-50" transform="translate(516.28125 0)"/>
       <use xlink:href="#DejaVuSans-55" transform="translate(576.583984 0)"/>
      </g>
     </g>
    </g>
    <g id="xtick_2">
     <g id="line2d_2">
      <g>
       <use xlink:href="#mf3702daf18" x="164.015633" y="489.6" style="stroke: #000000; stroke-width: 0.8"/>
      </g>
     </g>
     <g id="text_2">
      <!-- Kueue-A-Memory -->
      <g transform="translate(114.577378 549.160131) rotate(-45) scale(0.08 -0.08)">
       <defs>
        <path id="DejaVuSans-4d" d="M 628 4666 
L 1569 4666 
L 2759 1491 
L 3956 4666 
L 4897 4666 
L 4897 0 
L 4281 0 
L 4281 4097 
L 3078 897 
L 2444 897 
L 1241 4097 
L 1241 0 
L 628 0 
L 628 4666 
z
" transform="scale(0.015625)"/>
        <path id="DejaVuSans-6d" d="M 3328 2828 
Q 3544 3216 3844 3400 
Q 4144 3584 4550 3584 
Q 5097 3584 5394 3201 
Q 5691 2819 5691 2113 
L 5691 0 
L 5113 0 
L 5113 2094 
Q 5113 2597 4934 2840 
Q 4756 3084 4391 3084 
Q 3944 3084 3684 2787 
Q 3425 2491 3425 1978 
L 3425 0 
L 2847 0 
L 2847 2094 
Q 2847 2600 2669 2842 
Q 2491 3084 2119 3084 
Q 1678 3084 1418 2786 
Q 1159 2488 1159 1978 
L 1159 0 
L 581 0 
L 581 3500 
L 1159 3500 
L 1159 2956 
Q 1356 3278 1631 3431 
Q 1906 3584 2284 3584 
Q 2666 3584 2933 3390 
Q 3200 3197 3328 2828 
z
" transform="scale(0.015625)"/>
        <path id="DejaVuSans-6f" d="M 1959 3097 
Q 1497 3097 1228 2736 
Q 959 2375 959 1747 
Q 959 1119 1226 758 
Q 1494 397 1959 397 
Q 2419 397 2687 759 
Q 2956 1122 2956 1747 
Q 2956 2369 2687 2733 
Q 2419 3097 1959 3097 
z
M 1959 3584 
Q 2709 3584 3137 3096 
Q 3566 2609 3566 1747 
Q 3566 888 3137 398 
Q 2709 -91 1959 -91 
Q 1206 -91 779 398 
Q 353 888 353 1747 
Q 353 2609 779 3096 
Q 1206 3584 1959 3584 
z
" transform="scale(0.015625)"/>
        <path id="DejaVuSans-72" d="M 2631 2963 
Q 2534 3019 2420 3045 
Q 2306 3072 2169 3072 
Q 1681 3072 1420 2755 
Q 1159 2438 1159 1844 
L 1159 0 
L 581 0 
L 581 3500 
L 1159 3500 
L 1159 2956 
Q 1341 3275 1631 3429 
Q 1922 3584 2338 3584 
Q 2397 3584 2469 3576 
Q 2541 3569 2628 3553 
L 2631 2963 
z
" transform="scale(0.015625)"/>
        <path id="DejaVuSans-79" d="M 2059 -325 
Q 1816 -950 1584 -1140 
Q 1353 -1331 966 -1331 
L 506 -1331 
L 506 -850 
L 844 -850 
Q 1081 -850 1212 -737 
Q 1344 -625 1503 -206 
L 1606 56 
L 191 3500 
L 800 3500 
L 1894 763 
L 2988 3500 
L 3597 3500 
L 2059 -325 
z
" transform="scale(0.015625)"/>
       </defs>
       <use xlink:href="#DejaVuSans-4b"/>
       <use xlink:href="#DejaVuSans-75" transform="translate(60.576172 0)"/>
       <use xlink:href="#DejaVuSans-65" transform="translate(123.955078 0)"/>
       <use xlink:href="#DejaVuSans-75" transform="translate(185.478516 0)"/>
       <use xlink:href="#DejaVuSans-65" transform="translate(248.857422 0)"/>
       <use xlink:href="#DejaVuSans-2d" transform="translate(310.380859 0)"/>
       <use xlink:href="#DejaVuSans-41" transform="translate(344.214844 0)"/>
       <use xlink:href="#DejaVuSans-2d" transform="translate(410.373047 0)"/>
       <use xlink:href="#DejaVuSans-4d" transform="translate(446.457031 0)"/>
       <use xlink:href="#DejaVuSans-65" transform="translate(532.736328 0)"/>
       <use xlink:href="#DejaVuSans-6d" transform="translate(594.259766 0)"/>
       <use xlink:href="#DejaVuSans-6f" transform="translate(691.671875 0)"/>
       <use xlink:href="#DejaVuSans-72" transform="translate(752.853516 0)"/>
       <use xlink:href="#DejaVuSans-79" transform="translate(793.966797 0)"/>
      </g>
     </g>
    </g>
    <g id="xtick_3">
     <g id="line2d_3">
      <g>
       <use xlink:href="#mf3702daf18" x="215.106882" y="489.6" style="stroke: #000000; stroke-width: 0.8"/>
      </g>
     </g>
     <g id="text_3">
      <!-- Kueue-A-GPU -->
      <g transform="translate(176.535975 538.292784) rotate(-45) scale(0.08 -0.08)">
       <defs>
        <path id="DejaVuSans-47" d="M 3809 666 
L 3809 1919 
L 2778 1919 
L 2778 2438 
L 4434 2438 
L 4434 434 
Q 4069 175 3628 42 
Q 3188 -91 2688 -91 
Q 1594 -91 976 548 
Q 359 1188 359 2328 
Q 359 3472 976 4111 
Q 1594 4750 2688 4750 
Q 3144 4750 3555 4637 
Q 3966 4525 4313 4306 
L 4313 3634 
Q 3963 3931 3569 4081 
Q 3175 4231 2741 4231 
Q 1884 4231 1454 3753 
Q 1025 3275 1025 2328 
Q 1025 1384 1454 906 
Q 1884 428 2741 428 
Q 3075 428 3337 486 
Q 3600 544 3809 666 
z
" transform="scale(0.015625)"/>
       </defs>
       <use xlink:href="#DejaVuSans-4b"/>
       <use xlink:href="#DejaVuSans-75" transform="translate(60.576172 0)"/>
       <use xlink:href="#DejaVuSans-65" transform="translate(123.955078 0)"/>
       <use xlink:href="#DejaVuSans-75" transform="translate(185.478516 0)"/>
       <use xlink:href="#DejaVuSans-65" transform="translate(248.857422 0)"/>
       <use xlink:href="#DejaVuSans-2d" transform="translate(310.380859 0)"/>
       <use xlink:href="#DejaVuSans-41" transform="translate(344.214844 0)"/>
       <use xlink:href="#DejaVuSans-2d" transform="translate(410.373047 0)"/>
       <use xlink:href="#DejaVuSans-47" transform="translate(450.082031 0)"/>
       <use xlink:href="#DejaVuSans-50" transform="translate(527.572266 0)"/>
       <use xlink:href="#DejaVuSans-55" transform="translate(587.875 0)"/>
      </g>
     </g>
    </g>
    <g id="xtick_4">
     <g id="line2d_4">
      <g>
       <use xlink:href="#mf3702daf18" x="266.198131" y="489.6" style="stroke: #000000; stroke-width: 0.8"/>
      </g>
     </g>
     <g id="text_4">
      <!-- Kueue-B-CPU -->
      <g transform="translate(228.2044 537.715608) rotate(-45) scale(0.08 -0.08)">
       <defs>
        <path id="DejaVuSans-42" d="M 1259 2228 
L 1259 519 
L 2272 519 
Q 2781 519 3026 730 
Q 3272 941 3272 1375 
Q 3272 1813 3026 2020 
Q 2781 2228 2272 2228 
L 1259 2228 
z
M 1259 4147 
L 1259 2741 
L 2194 2741 
Q 2656 2741 2882 2914 
Q 3109 3088 3109 3444 
Q 3109 3797 2882 3972 
Q 2656 4147 2194 4147 
L 1259 4147 
z
M 628 4666 
L 2241 4666 
Q 2963 4666 3353 4366 
Q 3744 4066 3744 3513 
Q 3744 3084 3544 2831 
Q 3344 2578 2956 2516 
Q 3422 2416 3680 2098 
Q 3938 1781 3938 1306 
Q 3938 681 3513 340 
Q 3088 0 2303 0 
L 628 0 
L 628 4666 
z
" transform="scale(0.015625)"/>
       </defs>
       <use xlink:href="#DejaVuSans-4b"/>
       <use xlink:href="#DejaVuSans-75" transform="translate(60.576172 0)"/>
       <use xlink:href="#DejaVuSans-65" transform="translate(123.955078 0)"/>
       <use xlink:href="#DejaVuSans-75" transform="translate(185.478516 0)"/>
       <use xlink:href="#DejaVuSans-65" transform="translate(248.857422 0)"/>
       <use xlink:href="#DejaVuSans-2d" transform="translate(310.380859 0)"/>
       <use xlink:href="#DejaVuSans-42" transform="translate(342.839844 0)"/>
       <use xlink:href="#DejaVuSans-2d" transform="translate(411.443359 0)"/>
       <use xlink:href="#DejaVuSans-43" transform="translate(447.527344 0)"/>
       <use xlink:href="#DejaVuSans-50" transform="translate(517.351562 0)"/>
       <use xlink:href="#DejaVuSans-55" transform="translate(577.654297 0)"/>
      </g>
     </g>
    </g>
    <g id="xtick_5">
     <g id="line2d_5">
      <g>
       <use xlink:href="#mf3702daf18" x="317.28938" y="489.6" style="stroke: #000000; stroke-width: 0.8"/>
      </g>
     </g>
     <g id="text_5">
      <!-- Kueue-B-Memory -->
      <g transform="translate(267.790137 549.221119) rotate(-45) scale(0.08 -0.08)">
       <use xlink:href="#DejaVuSans-4b"/>
       <use xlink:href="#DejaVuSans-75" transform="translate(60.576172 0)"/>
       <use xlink:href="#DejaVuSans-65" transform="translate(123.955078 0)"/>
       <use xlink:href="#DejaVuSans-75" transform="translate(185.478516 0)"/>
       <use xlink:href="#DejaVuSans-65" transform="translate(248.857422 0)"/>
       <use xlink:href="#DejaVuSans-2d" transform="translate(310.380859 0)"/>
       <use xlink:href="#DejaVuSans-42" transform="translate(342.839844 0)"/>
       <use xlink:href="#DejaVuSans-2d" transform="translate(411.443359 0)"/>
       <use xlink:href="#DejaVuSans-4d" transform="translate(447.527344 0)"/>
       <use xlink:href="#DejaVuSans-65" transform="translate(533.806641 0)"/>
       <use xlink:href="#DejaVuSans-6d" transform="translate(595.330078 0)"/>
       <use xlink:href="#DejaVuSans-6f" transform="translate(692.742188 0)"/>
       <use xlink:href="#DejaVuSans-72" transform="translate(753.923828 0)"/>
       <use xlink:href="#DejaVuSans-79" transform="translate(795.037109 0)"/>
      </g>
     </g>
    </g>
    <g id="xtick_6">
     <g id="line2d_6">
      <g>
       <use xlink:href="#mf3702daf18" x="368.380629" y="489.6" style="stroke: #000000; stroke-width: 0.8"/>
      </g>
     </g>
     <g id="text_6">
      <!-- Kueue-B-GPU -->
      <g transform="translate(329.748734 538.353772) rotate(-45) scale(0.08 -0.08)">
       <use xlink:href="#DejaVuSans-4b"/>
       <use xlink:href="#DejaVuSans-75" transform="translate(60.576172 0)"/>
       <use xlink:href="#DejaVuSans-65" transform="translate(123.955078 0)"/>
       <use xlink:href="#DejaVuSans-75" transform="translate(185.478516 0)"/>
       <use xlink:href="#DejaVuSans-65" transform="translate(248.857422 0)"/>
       <use xlink:href="#DejaVuSans-2d" transform="translate(310.380859 0)"/>
       <use xlink:href="#DejaVuSans-42" transform="translate(342.839844 0)"/>
       <use xlink:href="#DejaVuSans-2d" transform="translate(411.443359 0)"/>
       <use xlink:href="#DejaVuSans-47" transform="translate(451.152344 0)"/>
       <use xlink:href="#DejaVuSans-50" transform="translate(528.642578 0)"/>
       <use xlink:href="#DejaVuSans-55" transform="translate(588.945312 0)"/>
      </g>
     </g>
    </g>
    <g id="xtick_7">
     <g id="line2d_7">
      <g>
       <use xlink:href="#mf3702daf18" x="419.471878" y="489.6" style="stroke: #000000; stroke-width: 0.8"/>
      </g>
     </g>
     <g id="text_7">
      <!-- Kueue-C-CPU -->
      <g transform="translate(381.204143 537.989612) rotate(-45) scale(0.08 -0.08)">
       <use xlink:href="#DejaVuSans-4b"/>
       <use xlink:href="#DejaVuSans-75" transform="translate(60.576172 0)"/>
       <use xlink:href="#DejaVuSans-65" transform="translate(123.955078 0)"/>
       <use xlink:href="#DejaVuSans-75" transform="translate(185.478516 0)"/>
       <use xlink:href="#DejaVuSans-65" transform="translate(248.857422 0)"/>
       <use xlink:href="#DejaVuSans-2d" transform="translate(310.380859 0)"/>
       <use xlink:href="#DejaVuSans-43" transform="translate(346.464844 0)"/>
       <use xlink:href="#DejaVuSans-2d" transform="translate(416.289062 0)"/>
       <use xlink:href="#DejaVuSans-43" transform="translate(452.373047 0)"/>
       <use xlink:href="#DejaVuSans-50" transform="translate(522.197266 0)"/>
       <use xlink:href="#DejaVuSans-55" transform="translate(582.5 0)"/>
      </g>
     </g>
    </g>
    <g id="xtick_8">
     <g id="line2d_8">
      <g>
       <use xlink:href="#mf3702daf18" x="470.563127" y="489.6" style="stroke: #000000; stroke-width: 0.8"/>
      </g>
     </g>
     <g id="text_8">
      <!-- Kueue-C-Memory -->
      <g transform="translate(420.78988 549.495123) rotate(-45) scale(0.08 -0.08)">
       <use xlink:href="#DejaVuSans-4b"/>
       <use xlink:href="#DejaVuSans-75" transform="translate(60.576172 0)"/>
       <use xlink:href="#DejaVuSans-65" transform="translate(123.955078 0)"/>
       <use xlink:href="#DejaVuSans-75" transform="translate(185.478516 0)"/>
       <use xlink:href="#DejaVuSans-65" transform="translate(248.857422 0)"/>
       <use xlink:href="#DejaVuSans-2d" transform="translate(310.380859 0)"/>
       <use xlink:href="#DejaVuSans-43" transform="translate(346.464844 0)"/>
       <use xlink:href="#DejaVuSans-2d" transform="translate(416.289062 0)"/>
       <use xlink:href="#DejaVuSans-4d" transform="translate(452.373047 0)"/>
       <use xlink:href="#DejaVuSans-65" transform="translate(538.652344 0)"/>
       <use xlink:href="#DejaVuSans-6d" transform="translate(600.175781 0)"/>
       <use xlink:href="#DejaVuSans-6f" transform="translate(697.587891 0)"/>
       <use xlink:href="#DejaVuSans-72" transform="translate(758.769531 0)"/>
       <use xlink:href="#DejaVuSans-79" transform="translate(799.882812 0)"/>
      </g>
     </g>
    </g>
    <g id="xtick_9">
     <g id="line2d_9">
      <g>
       <use xlink:href="#mf3702daf18" x="521.654376" y="489.6" style="stroke: #000000; stroke-width: 0.8"/>
      </g>
     </g>
     <g id="text_9">
      <!-- Kueue-C-GPU -->
      <g transform="translate(482.748477 538.627775) rotate(-45) scale(0.08 -0.08)">
       <use xlink:href="#DejaVuSans-4b"/>
       <use xlink:href="#DejaVuSans-75" transform="translate(60.576172 0)"/>
       <use xlink:href="#DejaVuSans-65" transform="translate(123.955078 0)"/>
       <use xlink:href="#DejaVuSans-75" transform="translate(185.478516 0)"/>
       <use xlink:href="#DejaVuSans-65" transform="translate(248.857422 0)"/>
       <use xlink:href="#DejaVuSans-2d" transform="translate(310.380859 0)"/>
       <use xlink:href="#DejaVuSans-43" transform="translate(346.464844 0)"/>
       <use xlink:href="#DejaVuSans-2d" transform="translate(416.289062 0)"/>
       <use xlink:href="#DejaVuSans-47" transform="translate(455.998047 0)"/>
       <use xlink:href="#DejaVuSans-50" transform="translate(533.488281 0)"/>
       <use xlink:href="#DejaVuSans-55" transform="translate(593.791016 0)"/>
      </g>
     </g>
    </g>
    <g id="xtick_10">
     <g id="line2d_10">
      <g>
       <use xlink:href="#mf3702daf18" x="572.745624" y="489.6" style="stroke: #000000; stroke-width: 0.8"/>
      </g>
     </g>
     <g id="text_10">
      <!-- Volcano-A-CPU -->
      <g transform="translate(530.177796 542.289705) rotate(-45) scale(0.08 -0.08)">
       <defs>
        <path id="DejaVuSans-56" d="M 1831 0 
L 50 4666 
L 709 4666 
L 2188 738 
L 3669 4666 
L 4325 4666 
L 2547 0 
L 1831 0 
z
" transform="scale(0.015625)"/>
        <path id="DejaVuSans-6c" d="M 603 4863 
L 1178 4863 
L 1178 0 
L 603 0 
L 603 4863 
z
" transform="scale(0.015625)"/>
        <path id="DejaVuSans-63" d="M 3122 3366 
L 3122 2828 
Q 2878 2963 2633 3030 
Q 2388 3097 2138 3097 
Q 1578 3097 1268 2742 
Q 959 2388 959 1747 
Q 959 1106 1268 751 
Q 1578 397 2138 397 
Q 2388 397 2633 464 
Q 2878 531 3122 666 
L 3122 134 
Q 2881 22 2623 -34 
Q 2366 -91 2075 -91 
Q 1284 -91 818 406 
Q 353 903 353 1747 
Q 353 2603 823 3093 
Q 1294 3584 2113 3584 
Q 2378 3584 2631 3529 
Q 2884 3475 3122 3366 
z
" transform="scale(0.015625)"/>
        <path id="DejaVuSans-61" d="M 2194 1759 
Q 1497 1759 1228 1600 
Q 959 1441 959 1056 
Q 959 750 1161 570 
Q 1363 391 1709 391 
Q 2188 391 2477 730 
Q 2766 1069 2766 1631 
L 2766 1759 
L 2194 1759 
z
M 3341 1997 
L 3341 0 
L 2766 0 
L 2766 531 
Q 2569 213 2275 61 
Q 1981 -91 1556 -91 
Q 1019 -91 701 211 
Q 384 513 384 1019 
Q 384 1609 779 1909 
Q 1175 2209 1959 2209 
L 2766 2209 
L 2766 2266 
Q 2766 2663 2505 2880 
Q 2244 3097 1772 3097 
Q 1472 3097 1187 3025 
Q 903 2953 641 2809 
L 641 3341 
Q 956 3463 1253 3523 
Q 1550 3584 1831 3584 
Q 2591 3584 2966 3190 
Q 3341 2797 3341 1997 
z
" transform="scale(0.015625)"/>
        <path id="DejaVuSans-6e" d="M 3513 2113 
L 3513 0 
L 2938 0 
L 2938 2094 
Q 2938 2591 2744 2837 
Q 2550 3084 2163 3084 
Q 1697 3084 1428 2787 
Q 1159 2491 1159 1978 
L 1159 0 
L 581 0 
L 581 3500 
L 1159 3500 
L 1159 2956 
Q 1366 3272 1645 3428 
Q 1925 3584 2291 3584 
Q 2894 3584 3203 3211 
Q 3513 2838 3513 2113 
z
" transform="scale(0.015625)"/>
       </defs>
       <use xlink:href="#DejaVuSans-56"/>
       <use xlink:href="#DejaVuSans-6f" transform="translate(60.658203 0)"/>
       <use xlink:href="#DejaVuSans-6c" transform="translate(121.839844 0)"/>
       <use xlink:href="#DejaVuSans-63" transform="translate(149.623047 0)"/>
       <use xlink:href="#DejaVuSans-61" transform="translate(204.603516 0)"/>
       <use xlink:href="#DejaVuSans-6e" transform="translate(265.882812 0)"/>
       <use xlink:href="#DejaVuSans-6f" transform="translate(329.261719 0)"/>
       <use xlink:href="#DejaVuSans-2d" transform="translate(392.318359 0)"/>
       <use xlink:href="#DejaVuSans-41" transform="translate(426.152344 0)"/>
       <use xlink:href="#DejaVuSans-2d" transform="translate(492.310547 0)"/>
       <use xlink:href="#DejaVuSans-43" transform="translate(528.394531 0)"/>
       <use xlink:href="#DejaVuSans-50" transform="translate(598.21875 0)"/>
       <use xlink:href="#DejaVuSans-55" transform="translate(658.521484 0)"/>
      </g>
     </g>
    </g>
    <g id="xtick_11">
     <g id="line2d_11">
      <g>
       <use xlink:href="#mf3702daf18" x="623.836873" y="489.6" style="stroke: #000000; stroke-width: 0.8"/>
      </g>
     </g>
     <g id="text_11">
      <!-- Volcano-A-Memory -->
      <g transform="translate(569.763534 553.795216) rotate(-45) scale(0.08 -0.08)">
       <use xlink:href="#DejaVuSans-56"/>
       <use xlink:href="#DejaVuSans-6f" transform="translate(60.658203 0)"/>
       <use xlink:href="#DejaVuSans-6c" transform="translate(121.839844 0)"/>
       <use xlink:href="#DejaVuSans-63" transform="translate(149.623047 0)"/>
       <use xlink:href="#DejaVuSans-61" transform="translate(204.603516 0)"/>
       <use xlink:href="#DejaVuSans-6e" transform="translate(265.882812 0)"/>
       <use xlink:href="#DejaVuSans-6f" transform="translate(329.261719 0)"/>
       <use xlink:href="#DejaVuSans-2d" transform="translate(392.318359 0)"/>
       <use xlink:href="#DejaVuSans-41" transform="translate(426.152344 0)"/>
       <use xlink:href="#DejaVuSans-2d" transform="translate(492.310547 0)"/>
       <use xlink:href="#DejaVuSans-4d" transform="translate(528.394531 0)"/>
       <use xlink:href="#DejaVuSans-65" transform="translate(614.673828 0)"/>
       <use xlink:href="#DejaVuSans-6d" transform="translate(676.197266 0)"/>
       <use xlink:href="#DejaVuSans-6f" transform="translate(773.609375 0)"/>
       <use xlink:href="#DejaVuSans-72" transform="translate(834.791016 0)"/>
       <use xlink:href="#DejaVuSans-79" transform="translate(875.904297 0)"/>
      </g>
     </g>
    </g>
    <g id="xtick_12">
     <g id="line2d_12">
      <g>
       <use xlink:href="#mf3702daf18" x="674.928122" y="489.6" style="stroke: #000000; stroke-width: 0.8"/>
      </g>
     </g>
     <g id="text_12">
      <!-- Volcano-A-GPU -->
      <g transform="translate(631.72213 542.927869) rotate(-45) scale(0.08 -0.08)">
       <use xlink:href="#DejaVuSans-56"/>
       <use xlink:href="#DejaVuSans-6f" transform="translate(60.658203 0)"/>
       <use xlink:href="#DejaVuSans-6c" transform="translate(121.839844 0)"/>
       <use xlink:href="#DejaVuSans-63" transform="translate(149.623047 0)"/>
       <use xlink:href="#DejaVuSans-61" transform="translate(204.603516 0)"/>
       <use xlink:href="#DejaVuSans-6e" transform="translate(265.882812 0)"/>
       <use xlink:href="#DejaVuSans-6f" transform="translate(329.261719 0)"/>
       <use xlink:href="#DejaVuSans-2d" transform="translate(392.318359 0)"/>
       <use xlink:href="#DejaVuSans-41" transform="translate(426.152344 0)"/>
       <use xlink:href="#DejaVuSans-2d" transform="translate(492.310547 0)"/>
       <use xlink:href="#DejaVuSans-47" transform="translate(532.019531 0)"/>
       <use xlink:href="#DejaVuSans-50" transform="translate(609.509766 0)"/>
       <use xlink:href="#DejaVuSans-55" transform="translate(669.8125 0)"/>
      </g>
     </g>
    </g>
    <g id="xtick_13">
     <g id="line2d_13">
      <g>
       <use xlink:href="#mf3702daf18" x="726.019371" y="489.6" style="stroke: #000000; stroke-width: 0.8"/>
      </g>
     </g>
     <g id="text_13">
      <!-- Volcano-B-CPU -->
      <g transform="translate(683.390555 542.350693) rotate(-45) scale(0.08 -0.08)">
       <use xlink:href="#DejaVuSans-56"/>
       <use xlink:href="#DejaVuSans-6f" transform="translate(60.658203 0)"/>
       <use xlink:href="#DejaVuSans-6c" transform="translate(121.839844 0)"/>
       <use xlink:href="#DejaVuSans-63" transform="translate(149.623047 0)"/>
       <use xlink:href="#DejaVuSans-61" transform="translate(204.603516 0)"/>
       <use xlink:href="#DejaVuSans-6e" transform="translate(265.882812 0)"/>
       <use xlink:href="#DejaVuSans-6f" transform="translate(329.261719 0)"/>
       <use xlink:href="#DejaVuSans-2d" transform="translate(392.318359 0)"/>
       <use xlink:href="#DejaVuSans-42" transform="translate(424.777344 0)"/>
       <use xlink:href="#DejaVuSans-2d" transform="translate(493.380859 0)"/>
       <use xlink:href="#DejaVuSans-43" transform="translate(529.464844 0)"/>
       <use xlink:href="#DejaVuSans-50" transform="translate(599.289062 0)"/>
       <use xlink:href="#DejaVuSans-55" transform="translate(659.591797 0)"/>
      </g>
     </g>
    </g>
    <g id="xtick_14">
     <g id="line2d_14">
      <g>
       <use xlink:href="#mf3702daf18" x="777.11062" y="489.6" style="stroke: #000000; stroke-width: 0.8"/>
      </g>
     </g>
     <g id="text_14">
      <!-- Volcano-B-Memory -->
      <g transform="translate(722.976293 553.856204) rotate(-45) scale(0.08 -0.08)">
       <use xlink:href="#DejaVuSans-56"/>
       <use xlink:href="#DejaVuSans-6f" transform="translate(60.658203 0)"/>
       <use xlink:href="#DejaVuSans-6c" transform="translate(121.839844 0)"/>
       <use xlink:href="#DejaVuSans-63" transform="translate(149.623047 0)"/>
       <use xlink:href="#DejaVuSans-61" transform="translate(204.603516 0)"/>
       <use xlink:href="#DejaVuSans-6e" transform="translate(265.882812 0)"/>
       <use xlink:href="#DejaVuSans-6f" transform="translate(329.261719 0)"/>
       <use xlink:href="#DejaVuSans-2d" transform="translate(392.318359 0)"/>
       <use xlink:href="#DejaVuSans-42" transform="translate(424.777344 0)"/>
       <use xlink:href="#DejaVuSans-2d" transform="translate(493.380859 0)"/>
       <use xlink:href="#DejaVuSans-4d" transform="translate(529.464844 0)"/>
       <use xlink:href="#DejaVuSans-65" transform="translate(615.744141 0)"/>
       <use xlink:href="#DejaVuSans-6d" transform="translate(677.267578 0)"/>
       <use xlink:href="#DejaVuSans-6f" transform="translate(774.679688 0)"/>
       <use xlink:href="#DejaVuSans-72" transform="translate(835.861328 0)"/>
       <use xlink:href="#DejaVuSans-79" transform="translate(876.974609 0)"/>
      </g>
     </g>
    </g>
    <g id="xtick_15">
     <g id="line2d_15">
      <g>
       <use xlink:href="#mf3702daf18" x="828.201869" y="489.6" style="stroke: #000000; stroke-width: 0.8"/>
      </g>
     </g>
     <g id="text_15">
      <!-- Volcano-B-GPU -->
      <g transform="translate(784.934889 542.988856) rotate(-45) scale(0.08 -0.08)">
       <use xlink:href="#DejaVuSans-56"/>
       <use xlink:href="#DejaVuSans-6f" transform="translate(60.658203 0)"/>
       <use xlink:href="#DejaVuSans-6c" transform="translate(121.839844 0)"/>
       <use xlink:href="#DejaVuSans-63" transform="translate(149.623047 0)"/>
       <use xlink:href="#DejaVuSans-61" transform="translate(204.603516 0)"/>
       <use xlink:href="#DejaVuSans-6e" transform="translate(265.882812 0)"/>
       <use xlink:href="#DejaVuSans-6f" transform="translate(329.261719 0)"/>
       <use xlink:href="#DejaVuSans-2d" transform="translate(392.318359 0)"/>
       <use xlink:href="#DejaVuSans-42" transform="translate(424.777344 0)"/>
       <use xlink:href="#DejaVuSans-2d" transform="translate(493.380859 0)"/>
       <use xlink:href="#DejaVuSans-47" transform="translate(533.089844 0)"/>
       <use xlink:href="#DejaVuSans-50" transform="translate(610.580078 0)"/>
       <use xlink:href="#DejaVuSans-55" transform="translate(670.882812 0)"/>
      </g>
     </g>
    </g>
    <g id="xtick_16">
     <g id="line2d_16">
      <g>
       <use xlink:href="#mf3702daf18" x="879.293118" y="489.6" style="stroke: #000000; stroke-width: 0.8"/>
      </g>
     </g>
     <g id="text_16">
      <!-- Volcano-C-CPU -->
      <g transform="translate(836.390298 542.624697) rotate(-45) scale(0.08 -0.08)">
       <use xlink:href="#DejaVuSans-56"/>
       <use xlink:href="#DejaVuSans-6f" transform="translate(60.658203 0)"/>
       <use xlink:href="#DejaVuSans-6c" transform="translate(121.839844 0)"/>
       <use xlink:href="#DejaVuSans-63" transform="translate(149.623047 0)"/>
       <use xlink:href="#DejaVuSans-61" transform="translate(204.603516 0)"/>
       <use xlink:href="#DejaVuSans-6e" transform="translate(265.882812 0)"/>
       <use xlink:href="#DejaVuSans-6f" transform="translate(329.261719 0)"/>
       <use xlink:href="#DejaVuSans-2d" transform="translate(392.318359 0)"/>
       <use xlink:href="#DejaVuSans-43" transform="translate(428.402344 0)"/>
       <use xlink:href="#DejaVuSans-2d" transform="translate(498.226562 0)"/>
       <use xlink:href="#DejaVuSans-43" transform="translate(534.310547 0)"/>
       <use xlink:href="#DejaVuSans-50" transform="translate(604.134766 0)"/>
       <use xlink:href="#DejaVuSans-55" transform="translate(664.4375 0)"/>
      </g>
     </g>
    </g>
    <g id="xtick_17">
     <g id="line2d_17">
      <g>
       <use xlink:href="#mf3702daf18" x="930.384367" y="489.6" style="stroke: #000000; stroke-width: 0.8"/>
      </g>
     </g>
     <g id="text_17">
      <!-- Volcano-C-Memory -->
      <g transform="translate(875.976036 554.130208) rotate(-45) scale(0.08 -0.08)">
       <use xlink:href="#DejaVuSans-56"/>
       <use xlink:href="#DejaVuSans-6f" transform="translate(60.658203 0)"/>
       <use xlink:href="#DejaVuSans-6c" transform="translate(121.839844 0)"/>
       <use xlink:href="#DejaVuSans-63" transform="translate(149.623047 0)"/>
       <use xlink:href="#DejaVuSans-61" transform="translate(204.603516 0)"/>
       <use xlink:href="#DejaVuSans-6e" transform="translate(265.882812 0)"/>
       <use xlink:href="#DejaVuSans-6f" transform="translate(329.261719 0)"/>
       <use xlink:href="#DejaVuSans-2d" transform="translate(392.318359 0)"/>
       <use xlink:href="#DejaVuSans-43" transform="translate(428.402344 0)"/>
       <use xlink:href="#DejaVuSans-2d" transform="translate(498.226562 0)"/>
       <use xlink:href="#DejaVuSans-4d" transform="translate(534.310547 0)"/>
       <use xlink:href="#DejaVuSans-65" transform="translate(620.589844 0)"/>
       <use xlink:href="#DejaVuSans-6d" transform="translate(682.113281 0)"/>
       <use xlink:href="#DejaVuSans-6f" transform="translate(779.525391 0)"/>
       <use xlink:href="#DejaVuSans-72" transform="translate(840.707031 0)"/>
       <use xlink:href="#DejaVuSans-79" transform="translate(881.820312 0)"/>
      </g>
     </g>
    </g>
    <g id="xtick_18">
     <g id="line2d_18">
      <g>
       <use xlink:href="#mf3702daf18" x="981.475616" y="489.6" style="stroke: #000000; stroke-width: 0.8"/>
      </g>
     </g>
     <g id="text_18">
      <!-- Volcano-C-GPU -->
      <g transform="translate(937.934632 543.26286) rotate(-45) scale(0.08 -0.08)">
       <use xlink:href="#DejaVuSans-56"/>
       <use xlink:href="#DejaVuSans-6f" transform="translate(60.658203 0)"/>
       <use xlink:href="#DejaVuSans-6c" transform="translate(121.839844 0)"/>
       <use xlink:href="#DejaVuSans-63" transform="translate(149.623047 0)"/>
       <use xlink:href="#DejaVuSans-61" transform="translate(204.603516 0)"/>
       <use xlink:href="#DejaVuSans-6e" transform="translate(265.882812 0)"/>
       <use xlink:href="#DejaVuSans-6f" transform="translate(329.261719 0)"/>
       <use xlink:href="#DejaVuSans-2d" transform="translate(392.318359 0)"/>
       <use xlink:href="#DejaVuSans-43" transform="translate(428.402344 0)"/>
       <use xlink:href="#DejaVuSans-2d" transform="translate(498.226562 0)"/>
       <use xlink:href="#DejaVuSans-47" transform="translate(537.935547 0)"/>
       <use xlink:href="#DejaVuSans-50" transform="translate(615.425781 0)"/>
       <use xlink:href="#DejaVuSans-55" transform="translate(675.728516 0)"/>
      </g>
     </g>
    </g>
    <g id="text_19">
     <!-- System-Tenant-Resource -->
     <g transform="translate(485.833594 566.905094) scale(0.1 -0.1)">
      <defs>
       <path id="DejaVuSans-53" d="M 3425 4513 
L 3425 3897 
Q 3066 4069 2747 4153 
Q 2428 4238 2131 4238 
Q 1616 4238 1336 4038 
Q 1056 3838 1056 3469 
Q 1056 3159 1242 3001 
Q 1428 2844 1947 2747 
L 2328 2669 
Q 3034 2534 3370 2195 
Q 3706 1856 3706 1288 
Q 3706 609 3251 259 
Q 2797 -91 1919 -91 
Q 1588 -91 1214 -16 
Q 841 59 441 206 
L 441 856 
Q 825 641 1194 531 
Q 1563 422 1919 422 
Q 2459 422 2753 634 
Q 3047 847 3047 1241 
Q 3047 1584 2836 1778 
Q 2625 1972 2144 2069 
L 1759 2144 
Q 1053 2284 737 2584 
Q 422 2884 422 3419 
Q 422 4038 858 4394 
Q 1294 4750 2059 4750 
Q 2388 4750 2728 4690 
Q 3069 4631 3425 4513 
z
" transform="scale(0.015625)"/>
       <path id="DejaVuSans-73" d="M 2834 3397 
L 2834 2853 
Q 2591 2978 2328 3040 
Q 2066 3103 1784 3103 
Q 1356 3103 1142 2972 
Q 928 2841 928 2578 
Q 928 2378 1081 2264 
Q 1234 2150 1697 2047 
L 1894 2003 
Q 2506 1872 2764 1633 
Q 3022 1394 3022 966 
Q 3022 478 2636 193 
Q 2250 -91 1575 -91 
Q 1294 -91 989 -36 
Q 684 19 347 128 
L 347 722 
Q 666 556 975 473 
Q 1284 391 1588 391 
Q 1994 391 2212 530 
Q 2431 669 2431 922 
Q 2431 1156 2273 1281 
Q 2116 1406 1581 1522 
L 1381 1569 
Q 847 1681 609 1914 
Q 372 2147 372 2553 
Q 372 3047 722 3315 
Q 1072 3584 1716 3584 
Q 2034 3584 2315 3537 
Q 2597 3491 2834 3397 
z
" transform="scale(0.015625)"/>
       <path id="DejaVuSans-74" d="M 1172 4494 
L 1172 3500 
L 2356 3500 
L 2356 3053 
L 1172 3053 
L 1172 1153 
Q 1172 725 1289 603 
Q 1406 481 1766 481 
L 2356 481 
L 2356 0 
L 1766 0 
Q 1100 0 847 248 
Q 594 497 594 1153 
L 594 3053 
L 172 3053 
L 172 3500 
L 594 3500 
L 594 4494 
L 1172 4494 
z
" transform="scale(0.015625)"/>
       <path id="DejaVuSans-54" d="M -19 4666 
L 3928 4666 
L 3928 4134 
L 2272 4134 
L 2272 0 
L 1638 0 
L 1638 4134 
L -19 4134 
L -19 4666 
z
" transform="scale(0.015625)"/>
       <path id="DejaVuSans-52" d="M 2841 2188 
Q 3044 2119 3236 1894 
Q 3428 1669 3622 1275 
L 4263 0 
L 3584 0 
L 2988 1197 
Q 2756 1666 2539 1819 
Q 2322 1972 1947 1972 
L 1259 1972 
L 1259 0 
L 628 0 
L 628 4666 
L 2053 4666 
Q 2853 4666 3247 4331 
Q 3641 3997 3641 3322 
Q 3641 2881 3436 2590 
Q 3231 2300 2841 2188 
z
M 1259 4147 
L 1259 2491 
L 2053 2491 
Q 2509 2491 2742 2702 
Q 2975 2913 2975 3322 
Q 2975 3731 2742 3939 
Q 2509 4147 2053 4147 
L 1259 4147 
z
" transform="scale(0.015625)"/>
      </defs>
      <use xlink:href="#DejaVuSans-53"/>
      <use xlink:href="#DejaVuSans-79" transform="translate(63.476562 0)"/>
      <use xlink:href="#DejaVuSans-73" transform="translate(122.65625 0)"/>
      <use xlink:href="#DejaVuSans-74" transform="translate(174.755859 0)"/>
      <use xlink:href="#DejaVuSans-65" transform="translate(213.964844 0)"/>
      <use xlink:href="#DejaVuSans-6d" transform="translate(275.488281 0)"/>
      <use xlink:href="#DejaVuSans-2d" transform="translate(372.900391 0)"/>
      <use xlink:href="#DejaVuSans-54" transform="translate(399.859375 0)"/>
      <use xlink:href="#DejaVuSans-65" transform="translate(443.943359 0)"/>
      <use xlink:href="#DejaVuSans-6e" transform="translate(505.466797 0)"/>
      <use xlink:href="#DejaVuSans-61" transform="translate(568.845703 0)"/>
      <use xlink:href="#DejaVuSans-6e" transform="translate(630.125 0)"/>
      <use xlink:href="#DejaVuSans-74" transform="translate(693.503906 0)"/>
      <use xlink:href="#DejaVuSans-2d" transform="translate(732.712891 0)"/>
      <use xlink:href="#DejaVuSans-52" transform="translate(768.796875 0)"/>
      <use xlink:href="#DejaVuSans-65" transform="translate(833.779297 0)"/>
      <use xlink:href="#DejaVuSans-73" transform="translate(895.302734 0)"/>
      <use xlink:href="#DejaVuSans-6f" transform="translate(947.402344 0)"/>
      <use xlink:href="#DejaVuSans-75" transform="translate(1008.583984 0)"/>
      <use xlink:href="#DejaVuSans-72" transform="translate(1071.962891 0)"/>
      <use xlink:href="#DejaVuSans-63" transform="translate(1110.826172 0)"/>
      <use xlink:href="#DejaVuSans-65" transform="translate(1165.806641 0)"/>
     </g>
    </g>
   </g>
   <g id="matplotlib.axis_2">
    <g id="ytick_1">
     <g id="line2d_19">
      <path d="M 46.08 489.6 
L 1048.32 489.6 
" clip-path="url(#p72ed4a37d3)" style="fill: none; stroke: #b0b0b0; stroke-opacity: 0.3; stroke-width: 0.8; stroke-linecap: square"/>
     </g>
     <g id="line2d_20">
      <defs>
       <path id="m511c35fcbd" d="M 0 0 
L -3.5 0 
" style="stroke: #000000; stroke-width: 0.8"/>
      </defs>
      <g>
       <use xlink:href="#m511c35fcbd" x="46.08" y="489.6" style="stroke: #000000; stroke-width: 0.8"/>
      </g>
     </g>
     <g id="text_20">
      <!-- 0 -->
      <g transform="translate(32.7175 493.399219) scale(0.1 -0.1)">
       <defs>
        <path id="DejaVuSans-30" d="M 2034 4250 
Q 1547 4250 1301 3770 
Q 1056 3291 1056 2328 
Q 1056 1369 1301 889 
Q 1547 409 2034 409 
Q 2525 409 2770 889 
Q 3016 1369 3016 2328 
Q 3016 3291 2770 3770 
Q 2525 4250 2034 4250 
z
M 2034 4750 
Q 2819 4750 3233 4129 
Q 3647 3509 3647 2328 
Q 3647 1150 3233 529 
Q 2819 -91 2034 -91 
Q 1250 -91 836 529 
Q 422 1150 422 2328 
Q 422 3509 836 4129 
Q 1250 4750 2034 4750 
z
" transform="scale(0.015625)"/>
       </defs>
       <use xlink:href="#DejaVuSans-30"/>
      </g>
     </g>
    </g>
    <g id="ytick_2">
     <g id="line2d_21">
      <path d="M 46.08 406.455652 
L 1048.32 406.455652 
" clip-path="url(#p72ed4a37d3)" style="fill: none; stroke: #b0b0b0; stroke-opacity: 0.3; stroke-width: 0.8; stroke-linecap: square"/>
     </g>
     <g id="line2d_22">
      <g>
       <use xlink:href="#m511c35fcbd" x="46.08" y="406.455652" style="stroke: #000000; stroke-width: 0.8"/>
      </g>
     </g>
     <g id="text_21">
      <!-- 20 -->
      <g transform="translate(26.355 410.254871) scale(0.1 -0.1)">
       <defs>
        <path id="DejaVuSans-32" d="M 1228 531 
L 3431 531 
L 3431 0 
L 469 0 
L 469 531 
Q 828 903 1448 1529 
Q 2069 2156 2228 2338 
Q 2531 2678 2651 2914 
Q 2772 3150 2772 3378 
Q 2772 3750 2511 3984 
Q 2250 4219 1831 4219 
Q 1534 4219 1204 4116 
Q 875 4013 500 3803 
L 500 4441 
Q 881 4594 1212 4672 
Q 1544 4750 1819 4750 
Q 2544 4750 2975 4387 
Q 3406 4025 3406 3419 
Q 3406 3131 3298 2873 
Q 3191 2616 2906 2266 
Q 2828 2175 2409 1742 
Q 1991 1309 1228 531 
z
" transform="scale(0.015625)"/>
       </defs>
       <use xlink:href="#DejaVuSans-32"/>
       <use xlink:href="#DejaVuSans-30" transform="translate(63.623047 0)"/>
      </g>
     </g>
    </g>
    <g id="ytick_3">
     <g id="line2d_23">
      <path d="M 46.08 323.311304 
L 1048.32 323.311304 
" clip-path="url(#p72ed4a37d3)" style="fill: none; stroke: #b0b0b0; stroke-opacity: 0.3; stroke-width: 0.8; stroke-linecap: square"/>
     </g>
     <g id="line2d_24">
      <g>
       <use xlink:href="#m511c35fcbd" x="46.08" y="323.311304" style="stroke: #000000; stroke-width: 0.8"/>
      </g>
     </g>
     <g id="text_22">
      <!-- 40 -->
      <g transform="translate(26.355 327.110523) scale(0.1 -0.1)">
       <defs>
        <path id="DejaVuSans-34" d="M 2419 4116 
L 825 1625 
L 2419 1625 
L 2419 4116 
z
M 2253 4666 
L 3047 4666 
L 3047 1625 
L 3713 1625 
L 3713 1100 
L 3047 1100 
L 3047 0 
L 2419 0 
L 2419 1100 
L 313 1100 
L 313 1709 
L 2253 4666 
z
" transform="scale(0.015625)"/>
       </defs>
       <use xlink:href="#DejaVuSans-34"/>
       <use xlink:href="#DejaVuSans-30" transform="translate(63.623047 0)"/>
      </g>
     </g>
    </g>
    <g id="ytick_4">
     <g id="line2d_25">
      <path d="M 46.08 240.166957 
L 1048.32 240.166957 
" clip-path="url(#p72ed4a37d3)" style="fill: none; stroke: #b0b0b0; stroke-opacity: 0.3; stroke-width: 0.8; stroke-linecap: square"/>
     </g>
     <g id="line2d_26">
      <g>
       <use xlink:href="#m511c35fcbd" x="46.08" y="240.166957" style="stroke: #000000; stroke-width: 0.8"/>
      </g>
     </g>
     <g id="text_23">
      <!-- 60 -->
      <g transform="translate(26.355 243.966175) scale(0.1 -0.1)">
       <defs>
        <path id="DejaVuSans-36" d="M 2113 2584 
Q 1688 2584 1439 2293 
Q 1191 2003 1191 1497 
Q 1191 994 1439 701 
Q 1688 409 2113 409 
Q 2538 409 2786 701 
Q 3034 994 3034 1497 
Q 3034 2003 2786 2293 
Q 2538 2584 2113 2584 
z
M 3366 4563 
L 3366 3988 
Q 3128 4100 2886 4159 
Q 2644 4219 2406 4219 
Q 1781 4219 1451 3797 
Q 1122 3375 1075 2522 
Q 1259 2794 1537 2939 
Q 1816 3084 2150 3084 
Q 2853 3084 3261 2657 
Q 3669 2231 3669 1497 
Q 3669 778 3244 343 
Q 2819 -91 2113 -91 
Q 1303 -91 875 529 
Q 447 1150 447 2328 
Q 447 3434 972 4092 
Q 1497 4750 2381 4750 
Q 2619 4750 2861 4703 
Q 3103 4656 3366 4563 
z
" transform="scale(0.015625)"/>
       </defs>
       <use xlink:href="#DejaVuSans-36"/>
       <use xlink:href="#DejaVuSans-30" transform="translate(63.623047 0)"/>
      </g>
     </g>
    </g>
    <g id="ytick_5">
     <g id="line2d_27">
      <path d="M 46.08 157.022609 
L 1048.32 157.022609 
" clip-path="url(#p72ed4a37d3)" style="fill: none; stroke: #b0b0b0; stroke-opacity: 0.3; stroke-width: 0.8; stroke-linecap: square"/>
     </g>
     <g id="line2d_28">
      <g>
       <use xlink:href="#m511c35fcbd" x="46.08" y="157.022609" style="stroke: #000000; stroke-width: 0.8"/>
      </g>
     </g>
     <g id="text_24">
      <!-- 80 -->
      <g transform="translate(26.355 160.821827) scale(0.1 -0.1)">
       <defs>
        <path id="DejaVuSans-38" d="M 2034 2216 
Q 1584 2216 1326 1975 
Q 1069 1734 1069 1313 
Q 1069 891 1326 650 
Q 1584 409 2034 409 
Q 2484 409 2743 651 
Q 3003 894 3003 1313 
Q 3003 1734 2745 1975 
Q 2488 2216 2034 2216 
z
M 1403 2484 
Q 997 2584 770 2862 
Q 544 3141 544 3541 
Q 544 4100 942 4425 
Q 1341 4750 2034 4750 
Q 2731 4750 3128 4425 
Q 3525 4100 3525 3541 
Q 3525 3141 3298 2862 
Q 3072 2584 2669 2484 
Q 3125 2378 3379 2068 
Q 3634 1759 3634 1313 
Q 3634 634 3220 271 
Q 2806 -91 2034 -91 
Q 1263 -91 848 271 
Q 434 634 434 1313 
Q 434 1759 690 2068 
Q 947 2378 1403 2484 
z
M 1172 3481 
Q 1172 3119 1398 2916 
Q 1625 2713 2034 2713 
Q 2441 2713 2670 2916 
Q 2900 3119 2900 3481 
Q 2900 3844 2670 4047 
Q 2441 4250 2034 4250 
Q 1625 4250 1398 4047 
Q 1172 3844 1172 3481 
z
" transform="scale(0.015625)"/>
       </defs>
       <use xlink:href="#DejaVuSans-38"/>
       <use xlink:href="#DejaVuSans-30" transform="translate(63.623047 0)"/>
      </g>
     </g>
    </g>
    <g id="ytick_6">
     <g id="line2d_29">
      <path d="M 46.08 73.878261 
L 1048.32 73.878261 
" clip-path="url(#p72ed4a37d3)" style="fill: none; stroke: #b0b0b0; stroke-opacity: 0.3; stroke-width: 0.8; stroke-linecap: square"/>
     </g>
     <g id="line2d_30">
      <g>
       <use xlink:href="#m511c35fcbd" x="46.08" y="73.878261" style="stroke: #000000; stroke-width: 0.8"/>
      </g>
     </g>
     <g id="text_25">
      <!-- 100 -->
      <g transform="translate(19.9925 77.67748) scale(0.1 -0.1)">
       <defs>
        <path id="DejaVuSans-31" d="M 794 531 
L 1825 531 
L 1825 4091 
L 703 3866 
L 703 4441 
L 1819 4666 
L 2450 4666 
L 2450 531 
L 3481 531 
L 3481 0 
L 794 0 
L 794 531 
z
" transform="scale(0.015625)"/>
       </defs>
       <use xlink:href="#DejaVuSans-31"/>
       <use xlink:href="#DejaVuSans-30" transform="translate(63.623047 0)"/>
       <use xlink:href="#DejaVuSans-30" transform="translate(127.246094 0)"/>
      </g>
     </g>
    </g>
    <g id="text_26">
     <!-- Resource share [%] -->
     <g transform="translate(13.912812 299.174844) rotate(-90) scale(0.1 -0.1)">
      <defs>
       <path id="DejaVuSans-20" transform="scale(0.015625)"/>
       <path id="DejaVuSans-68" d="M 3513 2113 
L 3513 0 
L 2938 0 
L 2938 2094 
Q 2938 2591 2744 2837 
Q 2550 3084 2163 3084 
Q 1697 3084 1428 2787 
Q 1159 2491 1159 1978 
L 1159 0 
L 581 0 
L 581 4863 
L 1159 4863 
L 1159 2956 
Q 1366 3272 1645 3428 
Q 1925 3584 2291 3584 
Q 2894 3584 3203 3211 
Q 3513 2838 3513 2113 
z
" transform="scale(0.015625)"/>
       <path id="DejaVuSans-5b" d="M 550 4863 
L 1875 4863 
L 1875 4416 
L 1125 4416 
L 1125 -397 
L 1875 -397 
L 1875 -844 
L 550 -844 
L 550 4863 
z
" transform="scale(0.015625)"/>
       <path id="DejaVuSans-25" d="M 4653 2053 
Q 4381 2053 4226 1822 
Q 4072 1591 4072 1178 
Q 4072 772 4226 539 
Q 4381 306 4653 306 
Q 4919 306 5073 539 
Q 5228 772 5228 1178 
Q 5228 1588 5073 1820 
Q 4919 2053 4653 2053 
z
M 4653 2450 
Q 5147 2450 5437 2106 
Q 5728 1763 5728 1178 
Q 5728 594 5436 251 
Q 5144 -91 4653 -91 
Q 4153 -91 3862 251 
Q 3572 594 3572 1178 
Q 3572 1766 3864 2108 
Q 4156 2450 4653 2450 
z
M 1428 4353 
Q 1159 4353 1004 4120 
Q 850 3888 850 3481 
Q 850 3069 1003 2837 
Q 1156 2606 1428 2606 
Q 1700 2606 1854 2837 
Q 2009 3069 2009 3481 
Q 2009 3884 1853 4118 
Q 1697 4353 1428 4353 
z
M 4250 4750 
L 4750 4750 
L 1831 -91 
L 1331 -91 
L 4250 4750 
z
M 1428 4750 
Q 1922 4750 2215 4408 
Q 2509 4066 2509 3481 
Q 2509 2891 2217 2550 
Q 1925 2209 1428 2209 
Q 931 2209 642 2551 
Q 353 2894 353 3481 
Q 353 4063 643 4406 
Q 934 4750 1428 4750 
z
" transform="scale(0.015625)"/>
       <path id="DejaVuSans-5d" d="M 1947 4863 
L 1947 -844 
L 622 -844 
L 622 -397 
L 1369 -397 
L 1369 4416 
L 622 4416 
L 622 4863 
L 1947 4863 
z
" transform="scale(0.015625)"/>
      </defs>
      <use xlink:href="#DejaVuSans-52"/>
      <use xlink:href="#DejaVuSans-65" transform="translate(64.982422 0)"/>
      <use xlink:href="#DejaVuSans-73" transform="translate(126.505859 0)"/>
      <use xlink:href="#DejaVuSans-6f" transform="translate(178.605469 0)"/>
      <use xlink:href="#DejaVuSans-75" transform="translate(239.787109 0)"/>
      <use xlink:href="#DejaVuSans-72" transform="translate(303.166016 0)"/>
      <use xlink:href="#DejaVuSans-63" transform="translate(342.029297 0)"/>
      <use xlink:href="#DejaVuSans-65" transform="translate(397.009766 0)"/>
      <use xlink:href="#DejaVuSans-20" transform="translate(458.533203 0)"/>
      <use xlink:href="#DejaVuSans-73" transform="translate(490.320312 0)"/>
      <use xlink:href="#DejaVuSans-68" transform="translate(542.419922 0)"/>
      <use xlink:href="#DejaVuSans-61" transform="translate(605.798828 0)"/>
      <use xlink:href="#DejaVuSans-72" transform="translate(667.078125 0)"/>
      <use xlink:href="#DejaVuSans-65" transform="translate(705.941406 0)"/>
      <use xlink:href="#DejaVuSans-20" transform="translate(767.464844 0)"/>
      <use xlink:href="#DejaVuSans-5b" transform="translate(799.251953 0)"/>
      <use xlink:href="#DejaVuSans-25" transform="translate(838.265625 0)"/>
      <use xlink:href="#DejaVuSans-5d" transform="translate(933.285156 0)"/>
     </g>
    </g>
   </g>
   <g id="LineCollection_1">
    <path d="M 112.924384 212.3136 
L 112.924384 212.3136 
" clip-path="url(#p72ed4a37d3)" style="fill: none; stroke: #000000; stroke-width: 1.5"/>
    <path d="M 164.015633 420.17447 
L 164.015633 420.17447 
" clip-path="url(#p72ed4a37d3)" style="fill: none; stroke: #000000; stroke-width: 1.5"/>
    <path d="M 215.106882 489.6 
L 215.106882 489.6 
" clip-path="url(#p72ed4a37d3)" style="fill: none; stroke: #000000; stroke-width: 1.5"/>
    <path d="M 266.198131 420.003547 
L 266.198131 418.516216 
" clip-path="url(#p72ed4a37d3)" style="fill: none; stroke: #000000; stroke-width: 1.5"/>
    <path d="M 317.28938 211.161914 
L 317.28938 204.984563 
" clip-path="url(#p72ed4a37d3)" style="fill: none; stroke: #000000; stroke-width: 1.5"/>
    <path d="M 368.380629 489.6 
L 368.380629 489.6 
" clip-path="url(#p72ed4a37d3)" style="fill: none; stroke: #000000; stroke-width: 1.5"/>
    <path d="M 419.471878 472.139687 
L 419.471878 472.139687 
" clip-path="url(#p72ed4a37d3)" style="fill: none; stroke: #000000; stroke-width: 1.5"/>
    <path d="M 470.563127 472.139687 
L 470.563127 472.139687 
" clip-path="url(#p72ed4a37d3)" style="fill: none; stroke: #000000; stroke-width: 1.5"/>
    <path d="M 521.654376 73.878261 
L 521.654376 73.878261 
" clip-path="url(#p72ed4a37d3)" style="fill: none; stroke: #000000; stroke-width: 1.5"/>
    <path d="M 572.745624 195.588625 
L 572.745624 186.801247 
" clip-path="url(#p72ed4a37d3)" style="fill: none; stroke: #000000; stroke-width: 1.5"/>
    <path d="M 623.836873 416.180568 
L 623.836873 413.858472 
" clip-path="url(#p72ed4a37d3)" style="fill: none; stroke: #000000; stroke-width: 1.5"/>
    <path d="M 674.928122 489.6 
L 674.928122 489.6 
" clip-path="url(#p72ed4a37d3)" style="fill: none; stroke: #000000; stroke-width: 1.5"/>
    <path d="M 726.019371 416.311212 
L 726.019371 415.723293 
" clip-path="url(#p72ed4a37d3)" style="fill: none; stroke: #000000; stroke-width: 1.5"/>
    <path d="M 777.11062 196.679862 
L 777.11062 194.024444 
" clip-path="url(#p72ed4a37d3)" style="fill: none; stroke: #000000; stroke-width: 1.5"/>
    <path d="M 828.201869 489.6 
L 828.201869 489.6 
" clip-path="url(#p72ed4a37d3)" style="fill: none; stroke: #000000; stroke-width: 1.5"/>
    <path d="M 879.293118 473.655913 
L 879.293118 473.28408 
" clip-path="url(#p72ed4a37d3)" style="fill: none; stroke: #000000; stroke-width: 1.5"/>
    <path d="M 930.384367 473.655913 
L 930.384367 473.28408 
" clip-path="url(#p72ed4a37d3)" style="fill: none; stroke: #000000; stroke-width: 1.5"/>
    <path d="M 981.475616 107.083271 
L 981.475616 100.520553 
" clip-path="url(#p72ed4a37d3)" style="fill: none; stroke: #000000; stroke-width: 1.5"/>
   </g>
   <g id="line2d_31">
    <defs>
     <path id="m3a59499d40" d="M 2 0 
L -2 -0 
" style="stroke: #000000"/>
    </defs>
    <g clip-path="url(#p72ed4a37d3)">
     <use xlink:href="#m3a59499d40" x="112.924384" y="212.3136" style="stroke: #000000"/>
     <use xlink:href="#m3a59499d40" x="164.015633" y="420.17447" style="stroke: #000000"/>
     <use xlink:href="#m3a59499d40" x="215.106882" y="489.6" style="stroke: #000000"/>
     <use xlink:href="#m3a59499d40" x="266.198131" y="420.003547" style="stroke: #000000"/>
     <use xlink:href="#m3a59499d40" x="317.28938" y="211.161914" style="stroke: #000000"/>
     <use xlink:href="#m3a59499d40" x="368.380629" y="489.6" style="stroke: #000000"/>
     <use xlink:href="#m3a59499d40" x="419.471878" y="472.139687" style="stroke: #000000"/>
     <use xlink:href="#m3a59499d40" x="470.563127" y="472.139687" style="stroke: #000000"/>
     <use xlink:href="#m3a59499d40" x="521.654376" y="73.878261" style="stroke: #000000"/>
     <use xlink:href="#m3a59499d40" x="572.745624" y="195.588625" style="stroke: #000000"/>
     <use xlink:href="#m3a59499d40" x="623.836873" y="416.180568" style="stroke: #000000"/>
     <use xlink:href="#m3a59499d40" x="674.928122" y="489.6" style="stroke: #000000"/>
     <use xlink:href="#m3a59499d40" x="726.019371" y="416.311212" style="stroke: #000000"/>
     <use xlink:href="#m3a59499d40" x="777.11062" y="196.679862" style="stroke: #000000"/>
     <use xlink:href="#m3a59499d40" x="828.201869" y="489.6" style="stroke: #000000"/>
     <use xlink:href="#m3a59499d40" x="879.293118" y="473.655913" style="stroke: #000000"/>
     <use xlink:href="#m3a59499d40" x="930.384367" y="473.655913" style="stroke: #000000"/>
     <use xlink:href="#m3a59499d40" x="981.475616" y="107.083271" style="stroke: #000000"/>
    </g>
   </g>
   <g id="line2d_32">
    <g clip-path="url(#p72ed4a37d3)">
     <use xlink:href="#m3a59499d40" x="112.924384" y="212.3136" style="stroke: #000000"/>
     <use xlink:href="#m3a59499d40" x="164.015633" y="420.17447" style="stroke: #000000"/>
     <use xlink:href="#m3a59499d40" x="215.106882" y="489.6" style="stroke: #000000"/>
     <use xlink:href="#m3a59499d40" x="266.198131" y="418.516216" style="stroke: #000000"/>
     <use xlink:href="#m3a59499d40" x="317.28938" y="204.984563" style="stroke: #000000"/>
     <use xlink:href="#m3a59499d40" x="368.380629" y="489.6" style="stroke: #000000"/>
     <use xlink:href="#m3a59499d40" x="419.471878" y="472.139687" style="stroke: #000000"/>
     <use xlink:href="#m3a59499d40" x="470.563127" y="472.139687" style="stroke: #000000"/>
     <use xlink:href="#m3a59499d40" x="521.654376" y="73.878261" style="stroke: #000000"/>
     <use xlink:href="#m3a59499d40" x="572.745624" y="186.801247" style="stroke: #000000"/>
     <use xlink:href="#m3a59499d40" x="623.836873" y="413.858472" style="stroke: #000000"/>
     <use xlink:href="#m3a59499d40" x="674.928122" y="489.6" style="stroke: #000000"/>
     <use xlink:href="#m3a59499d40" x="726.019371" y="415.723293" style="stroke: #000000"/>
     <use xlink:href="#m3a59499d40" x="777.11062" y="194.024444" style="stroke: #000000"/>
     <use xlink:href="#m3a59499d40" x="828.201869" y="489.6" style="stroke: #000000"/>
     <use xlink:href="#m3a59499d40" x="879.293118" y="473.28408" style="stroke: #000000"/>
     <use xlink:href="#m3a59499d40" x="930.384367" y="473.28408" style="stroke: #000000"/>
     <use xlink:href="#m3a59499d40" x="981.475616" y="100.520553" style="stroke: #000000"/>
    </g>
   </g>
   <g id="patch_21">
    <path d="M 46.08 489.6 
L 46.08 11.52 
" style="fill: none; stroke: #000000; stroke-width: 0.8; stroke-linejoin: miter; stroke-linecap: square"/>
   </g>
   <g id="patch_22">
    <path d="M 1048.32 489.6 
L 1048.32 11.52 
" style="fill: none; stroke: #000000; stroke-width: 0.8; stroke-linejoin: miter; stroke-linecap: square"/>
   </g>
   <g id="patch_23">
    <path d="M 46.08 489.6 
L 1048.32 489.6 
" style="fill: none; stroke: #000000; stroke-width: 0.8; stroke-linejoin: miter; stroke-linecap: square"/>
   </g>
   <g id="patch_24">
    <path d="M 46.08 11.52 
L 1048.32 11.52 
" style="fill: none; stroke: #000000; stroke-width: 0.8; stroke-linejoin: miter; stroke-linecap: square"/>
   </g>
   <g id="text_27">
    <g id="patch_25">
     <path d="M 101.853993 205.049165 
L 123.994775 205.049165 
Q 125.044775 205.049165 125.044775 203.999165 
L 125.044775 197.224478 
Q 125.044775 196.174478 123.994775 196.174478 
L 101.853993 196.174478 
Q 100.803993 196.174478 100.803993 197.224478 
L 100.803993 203.999165 
Q 100.803993 205.049165 101.853993 205.049165 
z
" style="fill: #ffffff; opacity: 0.8"/>
    </g>
    <!-- 66.70 -->
    <g transform="translate(101.853993 202.543384) scale(0.07 -0.07)">
     <defs>
      <path id="DejaVuSans-Bold-36" d="M 2316 2303 
Q 2000 2303 1842 2098 
Q 1684 1894 1684 1484 
Q 1684 1075 1842 870 
Q 2000 666 2316 666 
Q 2634 666 2792 870 
Q 2950 1075 2950 1484 
Q 2950 1894 2792 2098 
Q 2634 2303 2316 2303 
z
M 3803 4544 
L 3803 3681 
Q 3506 3822 3243 3889 
Q 2981 3956 2731 3956 
Q 2194 3956 1894 3657 
Q 1594 3359 1544 2772 
Q 1750 2925 1990 3001 
Q 2231 3078 2516 3078 
Q 3231 3078 3670 2659 
Q 4109 2241 4109 1563 
Q 4109 813 3618 361 
Q 3128 -91 2303 -91 
Q 1394 -91 895 523 
Q 397 1138 397 2266 
Q 397 3422 980 4083 
Q 1563 4744 2578 4744 
Q 2900 4744 3203 4694 
Q 3506 4644 3803 4544 
z
" transform="scale(0.015625)"/>
      <path id="DejaVuSans-Bold-2e" d="M 653 1209 
L 1778 1209 
L 1778 0 
L 653 0 
L 653 1209 
z
" transform="scale(0.015625)"/>
      <path id="DejaVuSans-Bold-37" d="M 428 4666 
L 3944 4666 
L 3944 3988 
L 2125 0 
L 953 0 
L 2675 3781 
L 428 3781 
L 428 4666 
z
" transform="scale(0.015625)"/>
      <path id="DejaVuSans-Bold-30" d="M 2944 2338 
Q 2944 3213 2780 3570 
Q 2616 3928 2228 3928 
Q 1841 3928 1675 3570 
Q 1509 3213 1509 2338 
Q 1509 1453 1675 1090 
Q 1841 728 2228 728 
Q 2613 728 2778 1090 
Q 2944 1453 2944 2338 
z
M 4147 2328 
Q 4147 1169 3647 539 
Q 3147 -91 2228 -91 
Q 1306 -91 806 539 
Q 306 1169 306 2328 
Q 306 3491 806 4120 
Q 1306 4750 2228 4750 
Q 3147 4750 3647 4120 
Q 4147 3491 4147 2328 
z
" transform="scale(0.015625)"/>
     </defs>
     <use xlink:href="#DejaVuSans-Bold-36"/>
     <use xlink:href="#DejaVuSans-Bold-36" transform="translate(69.580078 0)"/>
     <use xlink:href="#DejaVuSans-Bold-2e" transform="translate(139.160156 0)"/>
     <use xlink:href="#DejaVuSans-Bold-37" transform="translate(177.148438 0)"/>
     <use xlink:href="#DejaVuSans-Bold-30" transform="translate(246.728516 0)"/>
    </g>
   </g>
   <g id="text_28">
    <g id="patch_26">
     <path d="M 152.945242 412.910035 
L 175.086024 412.910035 
Q 176.136024 412.910035 176.136024 411.860035 
L 176.136024 405.085347 
Q 176.136024 404.035347 175.086024 404.035347 
L 152.945242 404.035347 
Q 151.895242 404.035347 151.895242 405.085347 
L 151.895242 411.860035 
Q 151.895242 412.910035 152.945242 412.910035 
z
" style="fill: #ffffff; opacity: 0.8"/>
    </g>
    <!-- 16.70 -->
    <g transform="translate(152.945242 410.404254) scale(0.07 -0.07)">
     <defs>
      <path id="DejaVuSans-Bold-31" d="M 750 831 
L 1813 831 
L 1813 3847 
L 722 3622 
L 722 4441 
L 1806 4666 
L 2950 4666 
L 2950 831 
L 4013 831 
L 4013 0 
L 750 0 
L 750 831 
z
" transform="scale(0.015625)"/>
     </defs>
     <use xlink:href="#DejaVuSans-Bold-31"/>
     <use xlink:href="#DejaVuSans-Bold-36" transform="translate(69.580078 0)"/>
     <use xlink:href="#DejaVuSans-Bold-2e" transform="translate(139.160156 0)"/>
     <use xlink:href="#DejaVuSans-Bold-37" transform="translate(177.148438 0)"/>
     <use xlink:href="#DejaVuSans-Bold-30" transform="translate(246.728516 0)"/>
    </g>
   </g>
   <g id="text_29">
    <g id="patch_27">
     <path d="M 206.471726 482.335565 
L 223.742038 482.335565 
Q 224.792038 482.335565 224.792038 481.285565 
L 224.792038 474.510878 
Q 224.792038 473.460878 223.742038 473.460878 
L 206.471726 473.460878 
Q 205.421726 473.460878 205.421726 474.510878 
L 205.421726 481.285565 
Q 205.421726 482.335565 206.471726 482.335565 
z
" style="fill: #ffffff; opacity: 0.8"/>
    </g>
    <!-- 0.00 -->
    <g transform="translate(206.471726 479.829784) scale(0.07 -0.07)">
     <use xlink:href="#DejaVuSans-Bold-30"/>
     <use xlink:href="#DejaVuSans-Bold-2e" transform="translate(69.580078 0)"/>
     <use xlink:href="#DejaVuSans-Bold-30" transform="translate(107.568359 0)"/>
     <use xlink:href="#DejaVuSans-Bold-30" transform="translate(177.148438 0)"/>
    </g>
   </g>
   <g id="text_30">
    <g id="patch_28">
     <path d="M 255.12774 411.251781 
L 277.268521 411.251781 
Q 278.318521 411.251781 278.318521 410.201781 
L 278.318521 403.427094 
Q 278.318521 402.377094 277.268521 402.377094 
L 255.12774 402.377094 
Q 254.07774 402.377094 254.07774 403.427094 
L 254.07774 410.201781 
Q 254.07774 411.251781 255.12774 411.251781 
z
" style="fill: #ffffff; opacity: 0.8"/>
    </g>
    <!-- 16.92 -->
    <g transform="translate(255.12774 408.746) scale(0.07 -0.07)">
     <defs>
      <path id="DejaVuSans-Bold-39" d="M 641 103 
L 641 966 
Q 928 831 1190 764 
Q 1453 697 1709 697 
Q 2247 697 2547 995 
Q 2847 1294 2900 1881 
Q 2688 1725 2447 1647 
Q 2206 1569 1925 1569 
Q 1209 1569 770 1986 
Q 331 2403 331 3084 
Q 331 3838 820 4291 
Q 1309 4744 2131 4744 
Q 3044 4744 3544 4128 
Q 4044 3513 4044 2388 
Q 4044 1231 3459 570 
Q 2875 -91 1856 -91 
Q 1528 -91 1228 -42 
Q 928 6 641 103 
z
M 2125 2350 
Q 2441 2350 2600 2554 
Q 2759 2759 2759 3169 
Q 2759 3575 2600 3781 
Q 2441 3988 2125 3988 
Q 1809 3988 1650 3781 
Q 1491 3575 1491 3169 
Q 1491 2759 1650 2554 
Q 1809 2350 2125 2350 
z
" transform="scale(0.015625)"/>
      <path id="DejaVuSans-Bold-32" d="M 1844 884 
L 3897 884 
L 3897 0 
L 506 0 
L 506 884 
L 2209 2388 
Q 2438 2594 2547 2791 
Q 2656 2988 2656 3200 
Q 2656 3528 2436 3728 
Q 2216 3928 1850 3928 
Q 1569 3928 1234 3808 
Q 900 3688 519 3450 
L 519 4475 
Q 925 4609 1322 4679 
Q 1719 4750 2100 4750 
Q 2938 4750 3402 4381 
Q 3866 4013 3866 3353 
Q 3866 2972 3669 2642 
Q 3472 2313 2841 1759 
L 1844 884 
z
" transform="scale(0.015625)"/>
     </defs>
     <use xlink:href="#DejaVuSans-Bold-31"/>
     <use xlink:href="#DejaVuSans-Bold-36" transform="translate(69.580078 0)"/>
     <use xlink:href="#DejaVuSans-Bold-2e" transform="translate(139.160156 0)"/>
     <use xlink:href="#DejaVuSans-Bold-39" transform="translate(177.148438 0)"/>
     <use xlink:href="#DejaVuSans-Bold-32" transform="translate(246.728516 0)"/>
    </g>
   </g>
   <g id="text_31">
    <g id="patch_29">
     <path d="M 306.218989 197.720128 
L 328.35977 197.720128 
Q 329.40977 197.720128 329.40977 196.670128 
L 329.40977 189.895441 
Q 329.40977 188.845441 328.35977 188.845441 
L 306.218989 188.845441 
Q 305.168989 188.845441 305.168989 189.895441 
L 305.168989 196.670128 
Q 305.168989 197.720128 306.218989 197.720128 
z
" style="fill: #ffffff; opacity: 0.8"/>
    </g>
    <!-- 67.72 -->
    <g transform="translate(306.218989 195.214347) scale(0.07 -0.07)">
     <use xlink:href="#DejaVuSans-Bold-36"/>
     <use xlink:href="#DejaVuSans-Bold-37" transform="translate(69.580078 0)"/>
     <use xlink:href="#DejaVuSans-Bold-2e" transform="translate(139.160156 0)"/>
     <use xlink:href="#DejaVuSans-Bold-37" transform="translate(177.148438 0)"/>
     <use xlink:href="#DejaVuSans-Bold-32" transform="translate(246.728516 0)"/>
    </g>
   </g>
   <g id="text_32">
    <g id="patch_30">
     <path d="M 359.745472 482.335565 
L 377.015785 482.335565 
Q 378.065785 482.335565 378.065785 481.285565 
L 378.065785 474.510878 
Q 378.065785 473.460878 377.015785 473.460878 
L 359.745472 473.460878 
Q 358.695472 473.460878 358.695472 474.510878 
L 358.695472 481.285565 
Q 358.695472 482.335565 359.745472 482.335565 
z
" style="fill: #ffffff; opacity: 0.8"/>
    </g>
    <!-- 0.00 -->
    <g transform="translate(359.745472 479.829784) scale(0.07 -0.07)">
     <use xlink:href="#DejaVuSans-Bold-30"/>
     <use xlink:href="#DejaVuSans-Bold-2e" transform="translate(69.580078 0)"/>
     <use xlink:href="#DejaVuSans-Bold-30" transform="translate(107.568359 0)"/>
     <use xlink:href="#DejaVuSans-Bold-30" transform="translate(177.148438 0)"/>
    </g>
   </g>
   <g id="text_33">
    <g id="patch_31">
     <path d="M 410.836721 464.875252 
L 428.107034 464.875252 
Q 429.157034 464.875252 429.157034 463.825252 
L 429.157034 457.050565 
Q 429.157034 456.000565 428.107034 456.000565 
L 410.836721 456.000565 
Q 409.786721 456.000565 409.786721 457.050565 
L 409.786721 463.825252 
Q 409.786721 464.875252 410.836721 464.875252 
z
" style="fill: #ffffff; opacity: 0.8"/>
    </g>
    <!-- 4.20 -->
    <g transform="translate(410.836721 462.369471) scale(0.07 -0.07)">
     <defs>
      <path id="DejaVuSans-Bold-34" d="M 2356 3675 
L 1038 1722 
L 2356 1722 
L 2356 3675 
z
M 2156 4666 
L 3494 4666 
L 3494 1722 
L 4159 1722 
L 4159 850 
L 3494 850 
L 3494 0 
L 2356 0 
L 2356 850 
L 288 850 
L 288 1881 
L 2156 4666 
z
" transform="scale(0.015625)"/>
     </defs>
     <use xlink:href="#DejaVuSans-Bold-34"/>
     <use xlink:href="#DejaVuSans-Bold-2e" transform="translate(69.580078 0)"/>
     <use xlink:href="#DejaVuSans-Bold-32" transform="translate(107.568359 0)"/>
     <use xlink:href="#DejaVuSans-Bold-30" transform="translate(177.148438 0)"/>
    </g>
   </g>
   <g id="text_34">
    <g id="patch_32">
     <path d="M 461.92797 464.875252 
L 479.198283 464.875252 
Q 480.248283 464.875252 480.248283 463.825252 
L 480.248283 457.050565 
Q 480.248283 456.000565 479.198283 456.000565 
L 461.92797 456.000565 
Q 460.87797 456.000565 460.87797 457.050565 
L 460.87797 463.825252 
Q 460.87797 464.875252 461.92797 464.875252 
z
" style="fill: #ffffff; opacity: 0.8"/>
    </g>
    <!-- 4.20 -->
    <g transform="translate(461.92797 462.369471) scale(0.07 -0.07)">
     <use xlink:href="#DejaVuSans-Bold-34"/>
     <use xlink:href="#DejaVuSans-Bold-2e" transform="translate(69.580078 0)"/>
     <use xlink:href="#DejaVuSans-Bold-32" transform="translate(107.568359 0)"/>
     <use xlink:href="#DejaVuSans-Bold-30" transform="translate(177.148438 0)"/>
    </g>
   </g>
   <g id="text_35">
    <g id="patch_33">
     <path d="M 508.148751 66.613826 
L 535.160001 66.613826 
Q 536.210001 66.613826 536.210001 65.563826 
L 536.210001 58.789139 
Q 536.210001 57.739139 535.160001 57.739139 
L 508.148751 57.739139 
Q 507.098751 57.739139 507.098751 58.789139 
L 507.098751 65.563826 
Q 507.098751 66.613826 508.148751 66.613826 
z
" style="fill: #ffffff; opacity: 0.8"/>
    </g>
    <!-- 100.00 -->
    <g transform="translate(508.148751 64.108045) scale(0.07 -0.07)">
     <use xlink:href="#DejaVuSans-Bold-31"/>
     <use xlink:href="#DejaVuSans-Bold-30" transform="translate(69.580078 0)"/>
     <use xlink:href="#DejaVuSans-Bold-30" transform="translate(139.160156 0)"/>
     <use xlink:href="#DejaVuSans-Bold-2e" transform="translate(208.740234 0)"/>
     <use xlink:href="#DejaVuSans-Bold-30" transform="translate(246.728516 0)"/>
     <use xlink:href="#DejaVuSans-Bold-30" transform="translate(316.308594 0)"/>
    </g>
   </g>
   <g id="text_36">
    <g id="patch_34">
     <path d="M 561.675234 179.536812 
L 583.816015 179.536812 
Q 584.866015 179.536812 584.866015 178.486812 
L 584.866015 171.712124 
Q 584.866015 170.662124 583.816015 170.662124 
L 561.675234 170.662124 
Q 560.625234 170.662124 560.625234 171.712124 
L 560.625234 178.486812 
Q 560.625234 179.536812 561.675234 179.536812 
z
" style="fill: #ffffff; opacity: 0.8"/>
    </g>
    <!-- 71.78 -->
    <g transform="translate(561.675234 177.031031) scale(0.07 -0.07)">
     <defs>
      <path id="DejaVuSans-Bold-38" d="M 2228 2088 
Q 1891 2088 1709 1903 
Q 1528 1719 1528 1375 
Q 1528 1031 1709 848 
Q 1891 666 2228 666 
Q 2563 666 2741 848 
Q 2919 1031 2919 1375 
Q 2919 1722 2741 1905 
Q 2563 2088 2228 2088 
z
M 1350 2484 
Q 925 2613 709 2878 
Q 494 3144 494 3541 
Q 494 4131 934 4440 
Q 1375 4750 2228 4750 
Q 3075 4750 3515 4442 
Q 3956 4134 3956 3541 
Q 3956 3144 3739 2878 
Q 3522 2613 3097 2484 
Q 3572 2353 3814 2058 
Q 4056 1763 4056 1313 
Q 4056 619 3595 264 
Q 3134 -91 2228 -91 
Q 1319 -91 855 264 
Q 391 619 391 1313 
Q 391 1763 633 2058 
Q 875 2353 1350 2484 
z
M 1631 3419 
Q 1631 3141 1786 2991 
Q 1941 2841 2228 2841 
Q 2509 2841 2662 2991 
Q 2816 3141 2816 3419 
Q 2816 3697 2662 3845 
Q 2509 3994 2228 3994 
Q 1941 3994 1786 3844 
Q 1631 3694 1631 3419 
z
" transform="scale(0.015625)"/>
     </defs>
     <use xlink:href="#DejaVuSans-Bold-37"/>
     <use xlink:href="#DejaVuSans-Bold-31" transform="translate(69.580078 0)"/>
     <use xlink:href="#DejaVuSans-Bold-2e" transform="translate(139.160156 0)"/>
     <use xlink:href="#DejaVuSans-Bold-37" transform="translate(177.148438 0)"/>
     <use xlink:href="#DejaVuSans-Bold-38" transform="translate(246.728516 0)"/>
    </g>
   </g>
   <g id="text_37">
    <g id="patch_35">
     <path d="M 612.766483 406.594038 
L 634.907264 406.594038 
Q 635.957264 406.594038 635.957264 405.544038 
L 635.957264 398.76935 
Q 635.957264 397.71935 634.907264 397.71935 
L 612.766483 397.71935 
Q 611.716483 397.71935 611.716483 398.76935 
L 611.716483 405.544038 
Q 611.716483 406.594038 612.766483 406.594038 
z
" style="fill: #ffffff; opacity: 0.8"/>
    </g>
    <!-- 17.94 -->
    <g transform="translate(612.766483 404.088256) scale(0.07 -0.07)">
     <use xlink:href="#DejaVuSans-Bold-31"/>
     <use xlink:href="#DejaVuSans-Bold-37" transform="translate(69.580078 0)"/>
     <use xlink:href="#DejaVuSans-Bold-2e" transform="translate(139.160156 0)"/>
     <use xlink:href="#DejaVuSans-Bold-39" transform="translate(177.148438 0)"/>
     <use xlink:href="#DejaVuSans-Bold-34" transform="translate(246.728516 0)"/>
    </g>
   </g>
   <g id="text_38">
    <g id="patch_36">
     <path d="M 666.292966 482.335565 
L 683.563279 482.335565 
Q 684.613279 482.335565 684.613279 481.285565 
L 684.613279 474.510878 
Q 684.613279 473.460878 683.563279 473.460878 
L 666.292966 473.460878 
Q 665.242966 473.460878 665.242966 474.510878 
L 665.242966 481.285565 
Q 665.242966 482.335565 666.292966 482.335565 
z
" style="fill: #ffffff; opacity: 0.8"/>
    </g>
    <!-- 0.00 -->
    <g transform="translate(666.292966 479.829784) scale(0.07 -0.07)">
     <use xlink:href="#DejaVuSans-Bold-30"/>
     <use xlink:href="#DejaVuSans-Bold-2e" transform="translate(69.580078 0)"/>
     <use xlink:href="#DejaVuSans-Bold-30" transform="translate(107.568359 0)"/>
     <use xlink:href="#DejaVuSans-Bold-30" transform="translate(177.148438 0)"/>
    </g>
   </g>
   <g id="text_39">
    <g id="patch_37">
     <path d="M 714.948981 408.458858 
L 737.089762 408.458858 
Q 738.139762 408.458858 738.139762 407.408858 
L 738.139762 400.63417 
Q 738.139762 399.58417 737.089762 399.58417 
L 714.948981 399.58417 
Q 713.898981 399.58417 713.898981 400.63417 
L 713.898981 407.408858 
Q 713.898981 408.458858 714.948981 408.458858 
z
" style="fill: #ffffff; opacity: 0.8"/>
    </g>
    <!-- 17.70 -->
    <g transform="translate(714.948981 405.953076) scale(0.07 -0.07)">
     <use xlink:href="#DejaVuSans-Bold-31"/>
     <use xlink:href="#DejaVuSans-Bold-37" transform="translate(69.580078 0)"/>
     <use xlink:href="#DejaVuSans-Bold-2e" transform="translate(139.160156 0)"/>
     <use xlink:href="#DejaVuSans-Bold-37" transform="translate(177.148438 0)"/>
     <use xlink:href="#DejaVuSans-Bold-30" transform="translate(246.728516 0)"/>
    </g>
   </g>
   <g id="text_40">
    <g id="patch_38">
     <path d="M 766.04023 186.760009 
L 788.181011 186.760009 
Q 789.231011 186.760009 789.231011 185.710009 
L 789.231011 178.935322 
Q 789.231011 177.885322 788.181011 177.885322 
L 766.04023 177.885322 
Q 764.99023 177.885322 764.99023 178.935322 
L 764.99023 185.710009 
Q 764.99023 186.760009 766.04023 186.760009 
z
" style="fill: #ffffff; opacity: 0.8"/>
    </g>
    <!-- 70.78 -->
    <g transform="translate(766.04023 184.254228) scale(0.07 -0.07)">
     <use xlink:href="#DejaVuSans-Bold-37"/>
     <use xlink:href="#DejaVuSans-Bold-30" transform="translate(69.580078 0)"/>
     <use xlink:href="#DejaVuSans-Bold-2e" transform="translate(139.160156 0)"/>
     <use xlink:href="#DejaVuSans-Bold-37" transform="translate(177.148438 0)"/>
     <use xlink:href="#DejaVuSans-Bold-38" transform="translate(246.728516 0)"/>
    </g>
   </g>
   <g id="text_41">
    <g id="patch_39">
     <path d="M 819.566713 482.335565 
L 836.837025 482.335565 
Q 837.887025 482.335565 837.887025 481.285565 
L 837.887025 474.510878 
Q 837.887025 473.460878 836.837025 473.460878 
L 819.566713 473.460878 
Q 818.516713 473.460878 818.516713 474.510878 
L 818.516713 481.285565 
Q 818.516713 482.335565 819.566713 482.335565 
z
" style="fill: #ffffff; opacity: 0.8"/>
    </g>
    <!-- 0.00 -->
    <g transform="translate(819.566713 479.829784) scale(0.07 -0.07)">
     <use xlink:href="#DejaVuSans-Bold-30"/>
     <use xlink:href="#DejaVuSans-Bold-2e" transform="translate(69.580078 0)"/>
     <use xlink:href="#DejaVuSans-Bold-30" transform="translate(107.568359 0)"/>
     <use xlink:href="#DejaVuSans-Bold-30" transform="translate(177.148438 0)"/>
    </g>
   </g>
   <g id="text_42">
    <g id="patch_40">
     <path d="M 870.657962 466.019645 
L 887.928274 466.019645 
Q 888.978274 466.019645 888.978274 464.969645 
L 888.978274 458.194958 
Q 888.978274 457.144958 887.928274 457.144958 
L 870.657962 457.144958 
Q 869.607962 457.144958 869.607962 458.194958 
L 869.607962 464.969645 
Q 869.607962 466.019645 870.657962 466.019645 
z
" style="fill: #ffffff; opacity: 0.8"/>
    </g>
    <!-- 3.88 -->
    <g transform="translate(870.657962 463.513864) scale(0.07 -0.07)">
     <defs>
      <path id="DejaVuSans-Bold-33" d="M 2981 2516 
Q 3453 2394 3698 2092 
Q 3944 1791 3944 1325 
Q 3944 631 3412 270 
Q 2881 -91 1863 -91 
Q 1503 -91 1142 -33 
Q 781 25 428 141 
L 428 1069 
Q 766 900 1098 814 
Q 1431 728 1753 728 
Q 2231 728 2486 893 
Q 2741 1059 2741 1369 
Q 2741 1688 2480 1852 
Q 2219 2016 1709 2016 
L 1228 2016 
L 1228 2791 
L 1734 2791 
Q 2188 2791 2409 2933 
Q 2631 3075 2631 3366 
Q 2631 3634 2415 3781 
Q 2200 3928 1806 3928 
Q 1516 3928 1219 3862 
Q 922 3797 628 3669 
L 628 4550 
Q 984 4650 1334 4700 
Q 1684 4750 2022 4750 
Q 2931 4750 3382 4451 
Q 3834 4153 3834 3553 
Q 3834 3144 3618 2883 
Q 3403 2622 2981 2516 
z
" transform="scale(0.015625)"/>
     </defs>
     <use xlink:href="#DejaVuSans-Bold-33"/>
     <use xlink:href="#DejaVuSans-Bold-2e" transform="translate(69.580078 0)"/>
     <use xlink:href="#DejaVuSans-Bold-38" transform="translate(107.568359 0)"/>
     <use xlink:href="#DejaVuSans-Bold-38" transform="translate(177.148438 0)"/>
    </g>
   </g>
   <g id="text_43">
    <g id="patch_41">
     <path d="M 921.749211 466.019645 
L 939.019523 466.019645 
Q 940.069523 466.019645 940.069523 464.969645 
L 940.069523 458.194958 
Q 940.069523 457.144958 939.019523 457.144958 
L 921.749211 457.144958 
Q 920.699211 457.144958 920.699211 458.194958 
L 920.699211 464.969645 
Q 920.699211 466.019645 921.749211 466.019645 
z
" style="fill: #ffffff; opacity: 0.8"/>
    </g>
    <!-- 3.88 -->
    <g transform="translate(921.749211 463.513864) scale(0.07 -0.07)">
     <use xlink:href="#DejaVuSans-Bold-33"/>
     <use xlink:href="#DejaVuSans-Bold-2e" transform="translate(69.580078 0)"/>
     <use xlink:href="#DejaVuSans-Bold-38" transform="translate(107.568359 0)"/>
     <use xlink:href="#DejaVuSans-Bold-38" transform="translate(177.148438 0)"/>
    </g>
   </g>
   <g id="text_44">
    <g id="patch_42">
     <path d="M 970.405225 93.256118 
L 992.546007 93.256118 
Q 993.596007 93.256118 993.596007 92.206118 
L 993.596007 85.431431 
Q 993.596007 84.381431 992.546007 84.381431 
L 970.405225 84.381431 
Q 969.355225 84.381431 969.355225 85.431431 
L 969.355225 92.206118 
Q 969.355225 93.256118 970.405225 93.256118 
z
" style="fill: #ffffff; opacity: 0.8"/>
    </g>
    <!-- 92.80 -->
    <g transform="translate(970.405225 90.750337) scale(0.07 -0.07)">
     <use xlink:href="#DejaVuSans-Bold-39"/>
     <use xlink:href="#DejaVuSans-Bold-32" transform="translate(69.580078 0)"/>
     <use xlink:href="#DejaVuSans-Bold-2e" transform="translate(139.160156 0)"/>
     <use xlink:href="#DejaVuSans-Bold-38" transform="translate(177.148438 0)"/>
     <use xlink:href="#DejaVuSans-Bold-30" transform="translate(246.728516 0)"/>
    </g>
   </g>
   <g id="legend_1">
    <g id="patch_43">
     <path d="M 1070.3648 58.554375 
L 1141.410112 58.554375 
Q 1143.410112 58.554375 1143.410112 56.554375 
L 1143.410112 13.52 
Q 1143.410112 11.52 1141.410112 11.52 
L 1070.3648 11.52 
Q 1068.3648 11.52 1068.3648 13.52 
L 1068.3648 56.554375 
Q 1068.3648 58.554375 1070.3648 58.554375 
z
" style="fill: #ffffff; opacity: 0.8; stroke: #cccccc; stroke-linejoin: miter"/>
    </g>
    <g id="text_45">
     <!-- Systems -->
     <g transform="translate(1084.637456 23.118437) scale(0.1 -0.1)">
      <use xlink:href="#DejaVuSans-53"/>
      <use xlink:href="#DejaVuSans-79" transform="translate(63.476562 0)"/>
      <use xlink:href="#DejaVuSans-73" transform="translate(122.65625 0)"/>
      <use xlink:href="#DejaVuSans-74" transform="translate(174.755859 0)"/>
      <use xlink:href="#DejaVuSans-65" transform="translate(213.964844 0)"/>
      <use xlink:href="#DejaVuSans-6d" transform="translate(275.488281 0)"/>
      <use xlink:href="#DejaVuSans-73" transform="translate(372.900391 0)"/>
     </g>
    </g>
    <g id="patch_44">
     <path d="M 1072.3648 37.796562 
L 1092.3648 37.796562 
L 1092.3648 30.796562 
L 1072.3648 30.796562 
z
" style="fill: #0000ff; stroke: #000000; stroke-linejoin: miter"/>
    </g>
    <g id="text_46">
     <!-- Kueue -->
     <g transform="translate(1100.3648 37.796562) scale(0.1 -0.1)">
      <use xlink:href="#DejaVuSans-4b"/>
      <use xlink:href="#DejaVuSans-75" transform="translate(60.576172 0)"/>
      <use xlink:href="#DejaVuSans-65" transform="translate(123.955078 0)"/>
      <use xlink:href="#DejaVuSans-75" transform="translate(185.478516 0)"/>
      <use xlink:href="#DejaVuSans-65" transform="translate(248.857422 0)"/>
     </g>
    </g>
    <g id="patch_45">
     <path d="M 1072.3648 52.474687 
L 1092.3648 52.474687 
L 1092.3648 45.474687 
L 1072.3648 45.474687 
z
" style="fill: #ff0000; stroke: #000000; stroke-linejoin: miter"/>
    </g>
    <g id="text_47">
     <!-- Volcano -->
     <g transform="translate(1100.3648 52.474687) scale(0.1 -0.1)">
      <use xlink:href="#DejaVuSans-56"/>
      <use xlink:href="#DejaVuSans-6f" transform="translate(60.658203 0)"/>
      <use xlink:href="#DejaVuSans-6c" transform="translate(121.839844 0)"/>
      <use xlink:href="#DejaVuSans-63" transform="translate(149.623047 0)"/>
      <use xlink:href="#DejaVuSans-61" transform="translate(204.603516 0)"/>
      <use xlink:href="#DejaVuSans-6e" transform="translate(265.882812 0)"/>
      <use xlink:href="#DejaVuSans-6f" transform="translate(329.261719 0)"/>
     </g>
    </g>
   </g>
   <g id="legend_2">
    <g id="patch_46">
     <path d="M 1070.3648 159.2869 
L 1143.035112 159.2869 
Q 1145.035112 159.2869 1145.035112 157.2869 
L 1145.035112 99.5744 
Q 1145.035112 97.5744 1143.035112 97.5744 
L 1070.3648 97.5744 
Q 1068.3648 97.5744 1068.3648 99.5744 
L 1068.3648 157.2869 
Q 1068.3648 159.2869 1070.3648 159.2869 
z
" style="fill: #ffffff; opacity: 0.8; stroke: #cccccc; stroke-linejoin: miter"/>
    </g>
    <g id="text_48">
     <!-- Resources -->
     <g transform="translate(1081.167925 109.172837) scale(0.1 -0.1)">
      <use xlink:href="#DejaVuSans-52"/>
      <use xlink:href="#DejaVuSans-65" transform="translate(64.982422 0)"/>
      <use xlink:href="#DejaVuSans-73" transform="translate(126.505859 0)"/>
      <use xlink:href="#DejaVuSans-6f" transform="translate(178.605469 0)"/>
      <use xlink:href="#DejaVuSans-75" transform="translate(239.787109 0)"/>
      <use xlink:href="#DejaVuSans-72" transform="translate(303.166016 0)"/>
      <use xlink:href="#DejaVuSans-63" transform="translate(342.029297 0)"/>
      <use xlink:href="#DejaVuSans-65" transform="translate(397.009766 0)"/>
      <use xlink:href="#DejaVuSans-73" transform="translate(458.533203 0)"/>
     </g>
    </g>
    <g id="patch_47">
     <path d="M 1072.3648 123.850962 
L 1092.3648 123.850962 
L 1092.3648 116.850962 
L 1072.3648 116.850962 
z
" style="fill: url(#h921c83fa9b); stroke: #000000; stroke-linejoin: miter"/>
    </g>
    <g id="text_49">
     <!-- CPU -->
     <g transform="translate(1100.3648 123.850962) scale(0.1 -0.1)">
      <use xlink:href="#DejaVuSans-43"/>
      <use xlink:href="#DejaVuSans-50" transform="translate(69.824219 0)"/>
      <use xlink:href="#DejaVuSans-55" transform="translate(130.126953 0)"/>
     </g>
    </g>
    <g id="patch_48">
     <path d="M 1072.3648 138.529088 
L 1092.3648 138.529088 
L 1092.3648 131.529088 
L 1072.3648 131.529088 
z
" style="fill: url(#h4ff822e35c); stroke: #000000; stroke-linejoin: miter"/>
    </g>
    <g id="text_50">
     <!-- Memory -->
     <g transform="translate(1100.3648 138.529088) scale(0.1 -0.1)">
      <use xlink:href="#DejaVuSans-4d"/>
      <use xlink:href="#DejaVuSans-65" transform="translate(86.279297 0)"/>
      <use xlink:href="#DejaVuSans-6d" transform="translate(147.802734 0)"/>
      <use xlink:href="#DejaVuSans-6f" transform="translate(245.214844 0)"/>
      <use xlink:href="#DejaVuSans-72" transform="translate(306.396484 0)"/>
      <use xlink:href="#DejaVuSans-79" transform="translate(347.509766 0)"/>
     </g>
    </g>
    <g id="patch_49">
     <path d="M 1072.3648 153.207212 
L 1092.3648 153.207212 
L 1092.3648 146.207212 
L 1072.3648 146.207212 
z
" style="fill: url(#h43b4ae0289); stroke: #000000; stroke-linejoin: miter"/>
    </g>
    <g id="text_51">
     <!-- GPU -->
     <g transform="translate(1100.3648 153.207212) scale(0.1 -0.1)">
      <use xlink:href="#DejaVuSans-47"/>
      <use xlink:href="#DejaVuSans-50" transform="translate(77.490234 0)"/>
      <use xlink:href="#DejaVuSans-55" transform="translate(137.792969 0)"/>
     </g>
    </g>
   </g>
  </g>
 </g>
 <defs>
  <clipPath id="p72ed4a37d3">
   <rect x="46.08" y="11.52" width="1002.24" height="478.08"/>
  </clipPath>
 </defs>
 <defs>
  <pattern id="h62f72c56cb" patternUnits="userSpaceOnUse" x="0" y="0" width="72" height="72">
   <rect x="0" y="0" width="73" height="73" fill="#0000ff"/>
   <path d="M -36 36 
L 36 -36 
M -32 40 
L 40 -32 
M -28 44 
L 44 -28 
M -24 48 
L 48 -24 
M -20 52 
L 52 -20 
M -16 56 
L 56 -16 
M -12 60 
L 60 -12 
M -8 64 
L 64 -8 
M -4 68 
L 68 -4 
M 0 72 
L 72 0 
M 4 76 
L 76 4 
M 8 80 
L 80 8 
M 12 84 
L 84 12 
M 16 88 
L 88 16 
M 20 92 
L 92 20 
M 24 96 
L 96 24 
M 28 100 
L 100 28 
M 32 104 
L 104 32 
M 36 108 
L 108 36 
" style="fill: #000000; stroke: #000000; stroke-width: 0.5; stroke-linecap: butt; stroke-linejoin: miter; stroke-opacity: 0.8"/>
  </pattern>
  <pattern id="hf7b37203f1" patternUnits="userSpaceOnUse" x="0" y="0" width="72" height="72">
   <rect x="0" y="0" width="73" height="73" fill="#0000ff"/>
   <path d="M -36 36 
L 36 108 
M -32 32 
L 40 104 
M -28 28 
L 44 100 
M -24 24 
L 48 96 
M -20 20 
L 52 92 
M -16 16 
L 56 88 
M -12 12 
L 60 84 
M -8 8 
L 64 80 
M -4 4 
L 68 76 
M 0 0 
L 72 72 
M 4 -4 
L 76 68 
M 8 -8 
L 80 64 
M 12 -12 
L 84 60 
M 16 -16 
L 88 56 
M 20 -20 
L 92 52 
M 24 -24 
L 96 48 
M 28 -28 
L 100 44 
M 32 -32 
L 104 40 
M 36 -36 
L 108 36 
" style="fill: #000000; stroke: #000000; stroke-width: 0.5; stroke-linecap: butt; stroke-linejoin: miter; stroke-opacity: 0.8"/>
  </pattern>
  <pattern id="hbfa5c9548e" patternUnits="userSpaceOnUse" x="0" y="0" width="72" height="72">
   <rect x="0" y="0" width="73" height="73" fill="#0000ff"/>
   <path d="M 0 70 
L 72 70 
M 0 66 
L 72 66 
M 0 62 
L 72 62 
M 0 58 
L 72 58 
M 0 54 
L 72 54 
M 0 50 
L 72 50 
M 0 46 
L 72 46 
M 0 42 
L 72 42 
M 0 38 
L 72 38 
M 0 34 
L 72 34 
M 0 30 
L 72 30 
M 0 26 
L 72 26 
M 0 22 
L 72 22 
M 0 18 
L 72 18 
M 0 14 
L 72 14 
M 0 10 
L 72 10 
M 0 6 
L 72 6 
M 0 2 
L 72 2 
M 2 72 
L 2 0 
M 6 72 
L 6 0 
M 10 72 
L 10 0 
M 14 72 
L 14 0 
M 18 72 
L 18 0 
M 22 72 
L 22 0 
M 26 72 
L 26 0 
M 30 72 
L 30 0 
M 34 72 
L 34 0 
M 38 72 
L 38 0 
M 42 72 
L 42 0 
M 46 72 
L 46 0 
M 50 72 
L 50 0 
M 54 72 
L 54 0 
M 58 72 
L 58 0 
M 62 72 
L 62 0 
M 66 72 
L 66 0 
M 70 72 
L 70 0 
" style="fill: #000000; stroke: #000000; stroke-width: 0.5; stroke-linecap: butt; stroke-linejoin: miter; stroke-opacity: 0.8"/>
  </pattern>
  <pattern id="h1210595908" patternUnits="userSpaceOnUse" x="0" y="0" width="72" height="72">
   <rect x="0" y="0" width="73" height="73" fill="#ff0000"/>
   <path d="M -36 36 
L 36 -36 
M -32 40 
L 40 -32 
M -28 44 
L 44 -28 
M -24 48 
L 48 -24 
M -20 52 
L 52 -20 
M -16 56 
L 56 -16 
M -12 60 
L 60 -12 
M -8 64 
L 64 -8 
M -4 68 
L 68 -4 
M 0 72 
L 72 0 
M 4 76 
L 76 4 
M 8 80 
L 80 8 
M 12 84 
L 84 12 
M 16 88 
L 88 16 
M 20 92 
L 92 20 
M 24 96 
L 96 24 
M 28 100 
L 100 28 
M 32 104 
L 104 32 
M 36 108 
L 108 36 
" style="fill: #000000; stroke: #000000; stroke-width: 0.5; stroke-linecap: butt; stroke-linejoin: miter; stroke-opacity: 0.8"/>
  </pattern>
  <pattern id="h9e506a5ebf" patternUnits="userSpaceOnUse" x="0" y="0" width="72" height="72">
   <rect x="0" y="0" width="73" height="73" fill="#ff0000"/>
   <path d="M -36 36 
L 36 108 
M -32 32 
L 40 104 
M -28 28 
L 44 100 
M -24 24 
L 48 96 
M -20 20 
L 52 92 
M -16 16 
L 56 88 
M -12 12 
L 60 84 
M -8 8 
L 64 80 
M -4 4 
L 68 76 
M 0 0 
L 72 72 
M 4 -4 
L 76 68 
M 8 -8 
L 80 64 
M 12 -12 
L 84 60 
M 16 -16 
L 88 56 
M 20 -20 
L 92 52 
M 24 -24 
L 96 48 
M 28 -28 
L 100 44 
M 32 -32 
L 104 40 
M 36 -36 
L 108 36 
" style="fill: #000000; stroke: #000000; stroke-width: 0.5; stroke-linecap: butt; stroke-linejoin: miter; stroke-opacity: 0.8"/>
  </pattern>
  <pattern id="h3677284e75" patternUnits="userSpaceOnUse" x="0" y="0" width="72" height="72">
   <rect x="0" y="0" width="73" height="73" fill="#ff0000"/>
   <path d="M 0 70 
L 72 70 
M 0 66 
L 72 66 
M 0 62 
L 72 62 
M 0 58 
L 72 58 
M 0 54 
L 72 54 
M 0 50 
L 72 50 
M 0 46 
L 72 46 
M 0 42 
L 72 42 
M 0 38 
L 72 38 
M 0 34 
L 72 34 
M 0 30 
L 72 30 
M 0 26 
L 72 26 
M 0 22 
L 72 22 
M 0 18 
L 72 18 
M 0 14 
L 72 14 
M 0 10 
L 72 10 
M 0 6 
L 72 6 
M 0 2 
L 72 2 
M 2 72 
L 2 0 
M 6 72 
L 6 0 
M 10 72 
L 10 0 
M 14 72 
L 14 0 
M 18 72 
L 18 0 
M 22 72 
L 22 0 
M 26 72 
L 26 0 
M 30 72 
L 30 0 
M 34 72 
L 34 0 
M 38 72 
L 38 0 
M 42 72 
L 42 0 
M 46 72 
L 46 0 
M 50 72 
L 50 0 
M 54 72 
L 54 0 
M 58 72 
L 58 0 
M 62 72 
L 62 0 
M 66 72 
L 66 0 
M 70 72 
L 70 0 
" style="fill: #000000; stroke: #000000; stroke-width: 0.5; stroke-linecap: butt; stroke-linejoin: miter; stroke-opacity: 0.8"/>
  </pattern>
  <pattern id="h921c83fa9b" patternUnits="userSpaceOnUse" x="0" y="0" width="72" height="72">
   <rect x="0" y="0" width="73" height="73" fill="#ffffff"/>
   <path d="M -36 36 
L 36 -36 
M -32 40 
L 40 -32 
M -28 44 
L 44 -28 
M -24 48 
L 48 -24 
M -20 52 
L 52 -20 
M -16 56 
L 56 -16 
M -12 60 
L 60 -12 
M -8 64 
L 64 -8 
M -4 68 
L 68 -4 
M 0 72 
L 72 0 
M 4 76 
L 76 4 
M 8 80 
L 80 8 
M 12 84 
L 84 12 
M 16 88 
L 88 16 
M 20 92 
L 92 20 
M 24 96 
L 96 24 
M 28 100 
L 100 28 
M 32 104 
L 104 32 
M 36 108 
L 108 36 
" style="fill: #000000; stroke: #000000; stroke-width: 0.5; stroke-linecap: butt; stroke-linejoin: miter"/>
  </pattern>
  <pattern id="h4ff822e35c" patternUnits="userSpaceOnUse" x="0" y="0" width="72" height="72">
   <rect x="0" y="0" width="73" height="73" fill="#ffffff"/>
   <path d="M -36 36 
L 36 108 
M -32 32 
L 40 104 
M -28 28 
L 44 100 
M -24 24 
L 48 96 
M -20 20 
L 52 92 
M -16 16 
L 56 88 
M -12 12 
L 60 84 
M -8 8 
L 64 80 
M -4 4 
L 68 76 
M 0 0 
L 72 72 
M 4 -4 
L 76 68 
M 8 -8 
L 80 64 
M 12 -12 
L 84 60 
M 16 -16 
L 88 56 
M 20 -20 
L 92 52 
M 24 -24 
L 96 48 
M 28 -28 
L 100 44 
M 32 -32 
L 104 40 
M 36 -36 
L 108 36 
" style="fill: #000000; stroke: #000000; stroke-width: 0.5; stroke-linecap: butt; stroke-linejoin: miter"/>
  </pattern>
  <pattern id="h43b4ae0289" patternUnits="userSpaceOnUse" x="0" y="0" width="72" height="72">
   <rect x="0" y="0" width="73" height="73" fill="#ffffff"/>
   <path d="M 0 70 
L 72 70 
M 0 66 
L 72 66 
M 0 62 
L 72 62 
M 0 58 
L 72 58 
M 0 54 
L 72 54 
M 0 50 
L 72 50 
M 0 46 
L 72 46 
M 0 42 
L 72 42 
M 0 38 
L 72 38 
M 0 34 
L 72 34 
M 0 30 
L 72 30 
M 0 26 
L 72 26 
M 0 22 
L 72 22 
M 0 18 
L 72 18 
M 0 14 
L 72 14 
M 0 10 
L 72 10 
M 0 6 
L 72 6 
M 0 2 
L 72 2 
M 2 72 
L 2 0 
M 6 72 
L 6 0 
M 10 72 
L 10 0 
M 14 72 
L 14 0 
M 18 72 
L 18 0 
M 22 72 
L 22 0 
M 26 72 
L 26 0 
M 30 72 
L 30 0 
M 34 72 
L 34 0 
M 38 72 
L 38 0 
M 42 72 
L 42 0 
M 46 72 
L 46 0 
M 50 72 
L 50 0 
M 54 72 
L 54 0 
M 58 72 
L 58 0 
M 62 72 
L 62 0 
M 66 72 
L 66 0 
M 70 72 
L 70 0 
" style="fill: #000000; stroke: #000000; stroke-width: 0.5; stroke-linecap: butt; stroke-linejoin: miter"/>
  </pattern>
 </defs>
</svg>
