<?xml version="1.0" encoding="utf-8" standalone="no"?>
<!DOCTYPE svg PUBLIC "-//W3C//DTD SVG 1.1//EN"
  "http://www.w3.org/Graphics/SVG/1.1/DTD/svg11.dtd">
<svg xmlns:xlink="http://www.w3.org/1999/xlink" width="567.950015pt" height="279.074375pt" viewBox="0 0 567.950015 279.074375" xmlns="http://www.w3.org/2000/svg" version="1.1">
 <metadata>
  <rdf:RDF xmlns:dc="http://purl.org/dc/elements/1.1/" xmlns:cc="http://creativecommons.org/ns#" xmlns:rdf="http://www.w3.org/1999/02/22-rdf-syntax-ns#">
   <cc:Work>
    <dc:type rdf:resource="http://purl.org/dc/dcmitype/StillImage"/>
    <dc:date>2025-05-10T21:37:28.842863</dc:date>
    <dc:format>image/svg+xml</dc:format>
    <dc:creator>
     <cc:Agent>
      <dc:title>Matplotlib v3.10.1, https://matplotlib.org/</dc:title>
     </cc:Agent>
    </dc:creator>
   </cc:Work>
  </rdf:RDF>
 </metadata>
 <defs>
  <style type="text/css">*{stroke-linejoin: round; stroke-linecap: butt}</style>
 </defs>
 <g id="figure_1">
  <g id="patch_1">
   <path d="M 0 279.074375 
L 567.950015 279.074375 
L 567.950015 0 
L 0 0 
z
" style="fill: #ffffff"/>
  </g>
  <g id="axes_1">
   <g id="patch_2">
    <path d="M 40.603125 241.118125 
L 448.535125 241.118125 
L 448.535125 22.318125 
L 40.603125 22.318125 
z
" style="fill: #ffffff"/>
   </g>
   <g id="patch_3">
    <path d="M 59.145489 241.118125 
L 76.804883 241.118125 
L 76.804883 200.815449 
L 59.145489 200.815449 
z
" clip-path="url(#p6218695af6)" style="fill: url(#h59b9a32dd0); opacity: 0.8; stroke: #000000; stroke-width: 0.5; stroke-linejoin: miter"/>
   </g>
   <g id="patch_4">
    <path d="M 191.590943 241.118125 
L 209.250337 241.118125 
L 209.250337 200.655517 
L 191.590943 200.655517 
z
" clip-path="url(#p6218695af6)" style="fill: url(#h59b9a32dd0); opacity: 0.8; stroke: #000000; stroke-width: 0.5; stroke-linejoin: miter"/>
   </g>
   <g id="patch_5">
    <path d="M 324.036398 241.118125 
L 341.695792 241.118125 
L 341.695792 182.583285 
L 324.036398 182.583285 
z
" clip-path="url(#p6218695af6)" style="fill: url(#h59b9a32dd0); opacity: 0.8; stroke: #000000; stroke-width: 0.5; stroke-linejoin: miter"/>
   </g>
   <g id="patch_6">
    <path d="M 76.804883 241.118125 
L 94.464277 241.118125 
L 94.464277 160.672703 
L 76.804883 160.672703 
z
" clip-path="url(#p6218695af6)" style="fill: #0000ff; opacity: 0.8; stroke: #000000; stroke-width: 0.5; stroke-linejoin: miter"/>
   </g>
   <g id="patch_7">
    <path d="M 209.250337 241.118125 
L 226.909731 241.118125 
L 226.909731 160.19291 
L 209.250337 160.19291 
z
" clip-path="url(#p6218695af6)" style="fill: #0000ff; opacity: 0.8; stroke: #000000; stroke-width: 0.5; stroke-linejoin: miter"/>
   </g>
   <g id="patch_8">
    <path d="M 341.695792 241.118125 
L 359.355186 241.118125 
L 359.355186 124.368308 
L 341.695792 124.368308 
z
" clip-path="url(#p6218695af6)" style="fill: #0000ff; opacity: 0.8; stroke: #000000; stroke-width: 0.5; stroke-linejoin: miter"/>
   </g>
   <g id="patch_9">
    <path d="M 94.464277 241.118125 
L 112.12367 241.118125 
L 112.12367 151.556622 
L 94.464277 151.556622 
z
" clip-path="url(#p6218695af6)" style="fill: url(#hb82f60875e); opacity: 0.8; stroke: #000000; stroke-width: 0.5; stroke-linejoin: miter"/>
   </g>
   <g id="patch_10">
    <path d="M 226.909731 241.118125 
L 244.569125 241.118125 
L 244.569125 179.704523 
L 226.909731 179.704523 
z
" clip-path="url(#p6218695af6)" style="fill: url(#hb82f60875e); opacity: 0.8; stroke: #000000; stroke-width: 0.5; stroke-linejoin: miter"/>
   </g>
   <g id="patch_11">
    <path d="M 359.355186 241.118125 
L 377.01458 241.118125 
L 377.01458 175.706241 
L 359.355186 175.706241 
z
" clip-path="url(#p6218695af6)" style="fill: url(#hb82f60875e); opacity: 0.8; stroke: #000000; stroke-width: 0.5; stroke-linejoin: miter"/>
   </g>
   <g id="patch_12">
    <path d="M 112.12367 241.118125 
L 129.783064 241.118125 
L 129.783064 61.995118 
L 112.12367 61.995118 
z
" clip-path="url(#p6218695af6)" style="fill: #ff0000; opacity: 0.8; stroke: #000000; stroke-width: 0.5; stroke-linejoin: miter"/>
   </g>
   <g id="patch_13">
    <path d="M 244.569125 241.118125 
L 262.228519 241.118125 
L 262.228519 118.450852 
L 244.569125 118.450852 
z
" clip-path="url(#p6218695af6)" style="fill: #ff0000; opacity: 0.8; stroke: #000000; stroke-width: 0.5; stroke-linejoin: miter"/>
   </g>
   <g id="patch_14">
    <path d="M 377.01458 241.118125 
L 394.673973 241.118125 
L 394.673973 110.61422 
L 377.01458 110.61422 
z
" clip-path="url(#p6218695af6)" style="fill: #ff0000; opacity: 0.8; stroke: #000000; stroke-width: 0.5; stroke-linejoin: miter"/>
   </g>
   <g id="patch_15">
    <path d="M 129.783064 241.118125 
L 147.442458 241.118125 
L 147.442458 153.955591 
L 129.783064 153.955591 
z
" clip-path="url(#p6218695af6)" style="fill: url(#h1b47bb6bde); opacity: 0.8; stroke: #000000; stroke-width: 0.5; stroke-linejoin: miter"/>
   </g>
   <g id="patch_16">
    <path d="M 262.228519 241.118125 
L 279.887913 241.118125 
L 279.887913 168.989129 
L 262.228519 168.989129 
z
" clip-path="url(#p6218695af6)" style="fill: url(#h1b47bb6bde); opacity: 0.8; stroke: #000000; stroke-width: 0.5; stroke-linejoin: miter"/>
   </g>
   <g id="patch_17">
    <path d="M 394.673973 241.118125 
L 412.333367 241.118125 
L 412.333367 153.315865 
L 394.673973 153.315865 
z
" clip-path="url(#p6218695af6)" style="fill: url(#h1b47bb6bde); opacity: 0.8; stroke: #000000; stroke-width: 0.5; stroke-linejoin: miter"/>
   </g>
   <g id="patch_18">
    <path d="M 147.442458 241.118125 
L 165.101852 241.118125 
L 165.101852 66.952987 
L 147.442458 66.952987 
z
" clip-path="url(#p6218695af6)" style="fill: #008000; opacity: 0.8; stroke: #000000; stroke-width: 0.5; stroke-linejoin: miter"/>
   </g>
   <g id="patch_19">
    <path d="M 279.887913 241.118125 
L 297.547307 241.118125 
L 297.547307 97.020063 
L 279.887913 97.020063 
z
" clip-path="url(#p6218695af6)" style="fill: #008000; opacity: 0.8; stroke: #000000; stroke-width: 0.5; stroke-linejoin: miter"/>
   </g>
   <g id="patch_20">
    <path d="M 412.333367 241.118125 
L 429.992761 241.118125 
L 429.992761 65.193743 
L 412.333367 65.193743 
z
" clip-path="url(#p6218695af6)" style="fill: #008000; opacity: 0.8; stroke: #000000; stroke-width: 0.5; stroke-linejoin: miter"/>
   </g>
   <g id="matplotlib.axis_1">
    <g id="xtick_1">
     <g id="line2d_1">
      <defs>
       <path id="m7a4211b602" d="M 0 0 
L 0 3.5 
" style="stroke: #000000; stroke-width: 0.8"/>
      </defs>
      <g>
       <use xlink:href="#m7a4211b602" x="112.12367" y="241.118125" style="stroke: #000000; stroke-width: 0.8"/>
      </g>
     </g>
     <g id="text_1">
      <!-- 300x300 -->
      <g transform="translate(90.076795 255.716563) scale(0.1 -0.1)">
       <defs>
        <path id="DejaVuSans-33" d="M 2597 2516 
Q 3050 2419 3304 2112 
Q 3559 1806 3559 1356 
Q 3559 666 3084 287 
Q 2609 -91 1734 -91 
Q 1441 -91 1130 -33 
Q 819 25 488 141 
L 488 750 
Q 750 597 1062 519 
Q 1375 441 1716 441 
Q 2309 441 2620 675 
Q 2931 909 2931 1356 
Q 2931 1769 2642 2001 
Q 2353 2234 1838 2234 
L 1294 2234 
L 1294 2753 
L 1863 2753 
Q 2328 2753 2575 2939 
Q 2822 3125 2822 3475 
Q 2822 3834 2567 4026 
Q 2313 4219 1838 4219 
Q 1578 4219 1281 4162 
Q 984 4106 628 3988 
L 628 4550 
Q 988 4650 1302 4700 
Q 1616 4750 1894 4750 
Q 2613 4750 3031 4423 
Q 3450 4097 3450 3541 
Q 3450 3153 3228 2886 
Q 3006 2619 2597 2516 
z
" transform="scale(0.015625)"/>
        <path id="DejaVuSans-30" d="M 2034 4250 
Q 1547 4250 1301 3770 
Q 1056 3291 1056 2328 
Q 1056 1369 1301 889 
Q 1547 409 2034 409 
Q 2525 409 2770 889 
Q 3016 1369 3016 2328 
Q 3016 3291 2770 3770 
Q 2525 4250 2034 4250 
z
M 2034 4750 
Q 2819 4750 3233 4129 
Q 3647 3509 3647 2328 
Q 3647 1150 3233 529 
Q 2819 -91 2034 -91 
Q 1250 -91 836 529 
Q 422 1150 422 2328 
Q 422 3509 836 4129 
Q 1250 4750 2034 4750 
z
" transform="scale(0.015625)"/>
        <path id="DejaVuSans-78" d="M 3513 3500 
L 2247 1797 
L 3578 0 
L 2900 0 
L 1881 1375 
L 863 0 
L 184 0 
L 1544 1831 
L 300 3500 
L 978 3500 
L 1906 2253 
L 2834 3500 
L 3513 3500 
z
" transform="scale(0.015625)"/>
       </defs>
       <use xlink:href="#DejaVuSans-33"/>
       <use xlink:href="#DejaVuSans-30" transform="translate(63.623047 0)"/>
       <use xlink:href="#DejaVuSans-30" transform="translate(127.246094 0)"/>
       <use xlink:href="#DejaVuSans-78" transform="translate(190.869141 0)"/>
       <use xlink:href="#DejaVuSans-33" transform="translate(250.048828 0)"/>
       <use xlink:href="#DejaVuSans-30" transform="translate(313.671875 0)"/>
       <use xlink:href="#DejaVuSans-30" transform="translate(377.294922 0)"/>
      </g>
     </g>
    </g>
    <g id="xtick_2">
     <g id="line2d_2">
      <g>
       <use xlink:href="#m7a4211b602" x="244.569125" y="241.118125" style="stroke: #000000; stroke-width: 0.8"/>
      </g>
     </g>
     <g id="text_2">
      <!-- 400x400 -->
      <g transform="translate(222.52225 255.716563) scale(0.1 -0.1)">
       <defs>
        <path id="DejaVuSans-34" d="M 2419 4116 
L 825 1625 
L 2419 1625 
L 2419 4116 
z
M 2253 4666 
L 3047 4666 
L 3047 1625 
L 3713 1625 
L 3713 1100 
L 3047 1100 
L 3047 0 
L 2419 0 
L 2419 1100 
L 313 1100 
L 313 1709 
L 2253 4666 
z
" transform="scale(0.015625)"/>
       </defs>
       <use xlink:href="#DejaVuSans-34"/>
       <use xlink:href="#DejaVuSans-30" transform="translate(63.623047 0)"/>
       <use xlink:href="#DejaVuSans-30" transform="translate(127.246094 0)"/>
       <use xlink:href="#DejaVuSans-78" transform="translate(190.869141 0)"/>
       <use xlink:href="#DejaVuSans-34" transform="translate(250.048828 0)"/>
       <use xlink:href="#DejaVuSans-30" transform="translate(313.671875 0)"/>
       <use xlink:href="#DejaVuSans-30" transform="translate(377.294922 0)"/>
      </g>
     </g>
    </g>
    <g id="xtick_3">
     <g id="line2d_3">
      <g>
       <use xlink:href="#m7a4211b602" x="377.01458" y="241.118125" style="stroke: #000000; stroke-width: 0.8"/>
      </g>
     </g>
     <g id="text_3">
      <!-- 500x500 -->
      <g transform="translate(354.967705 255.716563) scale(0.1 -0.1)">
       <defs>
        <path id="DejaVuSans-35" d="M 691 4666 
L 3169 4666 
L 3169 4134 
L 1269 4134 
L 1269 2991 
Q 1406 3038 1543 3061 
Q 1681 3084 1819 3084 
Q 2600 3084 3056 2656 
Q 3513 2228 3513 1497 
Q 3513 744 3044 326 
Q 2575 -91 1722 -91 
Q 1428 -91 1123 -41 
Q 819 9 494 109 
L 494 744 
Q 775 591 1075 516 
Q 1375 441 1709 441 
Q 2250 441 2565 725 
Q 2881 1009 2881 1497 
Q 2881 1984 2565 2268 
Q 2250 2553 1709 2553 
Q 1456 2553 1204 2497 
Q 953 2441 691 2322 
L 691 4666 
z
" transform="scale(0.015625)"/>
       </defs>
       <use xlink:href="#DejaVuSans-35"/>
       <use xlink:href="#DejaVuSans-30" transform="translate(63.623047 0)"/>
       <use xlink:href="#DejaVuSans-30" transform="translate(127.246094 0)"/>
       <use xlink:href="#DejaVuSans-78" transform="translate(190.869141 0)"/>
       <use xlink:href="#DejaVuSans-35" transform="translate(250.048828 0)"/>
       <use xlink:href="#DejaVuSans-30" transform="translate(313.671875 0)"/>
       <use xlink:href="#DejaVuSans-30" transform="translate(377.294922 0)"/>
      </g>
     </g>
    </g>
    <g id="text_4">
     <!-- Kombinacje węzłów i zadań -->
     <g transform="translate(175.988656 269.794688) scale(0.1 -0.1)">
      <defs>
       <path id="DejaVuSans-4b" d="M 628 4666 
L 1259 4666 
L 1259 2694 
L 3353 4666 
L 4166 4666 
L 1850 2491 
L 4331 0 
L 3500 0 
L 1259 2247 
L 1259 0 
L 628 0 
L 628 4666 
z
" transform="scale(0.015625)"/>
       <path id="DejaVuSans-6f" d="M 1959 3097 
Q 1497 3097 1228 2736 
Q 959 2375 959 1747 
Q 959 1119 1226 758 
Q 1494 397 1959 397 
Q 2419 397 2687 759 
Q 2956 1122 2956 1747 
Q 2956 2369 2687 2733 
Q 2419 3097 1959 3097 
z
M 1959 3584 
Q 2709 3584 3137 3096 
Q 3566 2609 3566 1747 
Q 3566 888 3137 398 
Q 2709 -91 1959 -91 
Q 1206 -91 779 398 
Q 353 888 353 1747 
Q 353 2609 779 3096 
Q 1206 3584 1959 3584 
z
" transform="scale(0.015625)"/>
       <path id="DejaVuSans-6d" d="M 3328 2828 
Q 3544 3216 3844 3400 
Q 4144 3584 4550 3584 
Q 5097 3584 5394 3201 
Q 5691 2819 5691 2113 
L 5691 0 
L 5113 0 
L 5113 2094 
Q 5113 2597 4934 2840 
Q 4756 3084 4391 3084 
Q 3944 3084 3684 2787 
Q 3425 2491 3425 1978 
L 3425 0 
L 2847 0 
L 2847 2094 
Q 2847 2600 2669 2842 
Q 2491 3084 2119 3084 
Q 1678 3084 1418 2786 
Q 1159 2488 1159 1978 
L 1159 0 
L 581 0 
L 581 3500 
L 1159 3500 
L 1159 2956 
Q 1356 3278 1631 3431 
Q 1906 3584 2284 3584 
Q 2666 3584 2933 3390 
Q 3200 3197 3328 2828 
z
" transform="scale(0.015625)"/>
       <path id="DejaVuSans-62" d="M 3116 1747 
Q 3116 2381 2855 2742 
Q 2594 3103 2138 3103 
Q 1681 3103 1420 2742 
Q 1159 2381 1159 1747 
Q 1159 1113 1420 752 
Q 1681 391 2138 391 
Q 2594 391 2855 752 
Q 3116 1113 3116 1747 
z
M 1159 2969 
Q 1341 3281 1617 3432 
Q 1894 3584 2278 3584 
Q 2916 3584 3314 3078 
Q 3713 2572 3713 1747 
Q 3713 922 3314 415 
Q 2916 -91 2278 -91 
Q 1894 -91 1617 61 
Q 1341 213 1159 525 
L 1159 0 
L 581 0 
L 581 4863 
L 1159 4863 
L 1159 2969 
z
" transform="scale(0.015625)"/>
       <path id="DejaVuSans-69" d="M 603 3500 
L 1178 3500 
L 1178 0 
L 603 0 
L 603 3500 
z
M 603 4863 
L 1178 4863 
L 1178 4134 
L 603 4134 
L 603 4863 
z
" transform="scale(0.015625)"/>
       <path id="DejaVuSans-6e" d="M 3513 2113 
L 3513 0 
L 2938 0 
L 2938 2094 
Q 2938 2591 2744 2837 
Q 2550 3084 2163 3084 
Q 1697 3084 1428 2787 
Q 1159 2491 1159 1978 
L 1159 0 
L 581 0 
L 581 3500 
L 1159 3500 
L 1159 2956 
Q 1366 3272 1645 3428 
Q 1925 3584 2291 3584 
Q 2894 3584 3203 3211 
Q 3513 2838 3513 2113 
z
" transform="scale(0.015625)"/>
       <path id="DejaVuSans-61" d="M 2194 1759 
Q 1497 1759 1228 1600 
Q 959 1441 959 1056 
Q 959 750 1161 570 
Q 1363 391 1709 391 
Q 2188 391 2477 730 
Q 2766 1069 2766 1631 
L 2766 1759 
L 2194 1759 
z
M 3341 1997 
L 3341 0 
L 2766 0 
L 2766 531 
Q 2569 213 2275 61 
Q 1981 -91 1556 -91 
Q 1019 -91 701 211 
Q 384 513 384 1019 
Q 384 1609 779 1909 
Q 1175 2209 1959 2209 
L 2766 2209 
L 2766 2266 
Q 2766 2663 2505 2880 
Q 2244 3097 1772 3097 
Q 1472 3097 1187 3025 
Q 903 2953 641 2809 
L 641 3341 
Q 956 3463 1253 3523 
Q 1550 3584 1831 3584 
Q 2591 3584 2966 3190 
Q 3341 2797 3341 1997 
z
" transform="scale(0.015625)"/>
       <path id="DejaVuSans-63" d="M 3122 3366 
L 3122 2828 
Q 2878 2963 2633 3030 
Q 2388 3097 2138 3097 
Q 1578 3097 1268 2742 
Q 959 2388 959 1747 
Q 959 1106 1268 751 
Q 1578 397 2138 397 
Q 2388 397 2633 464 
Q 2878 531 3122 666 
L 3122 134 
Q 2881 22 2623 -34 
Q 2366 -91 2075 -91 
Q 1284 -91 818 406 
Q 353 903 353 1747 
Q 353 2603 823 3093 
Q 1294 3584 2113 3584 
Q 2378 3584 2631 3529 
Q 2884 3475 3122 3366 
z
" transform="scale(0.015625)"/>
       <path id="DejaVuSans-6a" d="M 603 3500 
L 1178 3500 
L 1178 -63 
Q 1178 -731 923 -1031 
Q 669 -1331 103 -1331 
L -116 -1331 
L -116 -844 
L 38 -844 
Q 366 -844 484 -692 
Q 603 -541 603 -63 
L 603 3500 
z
M 603 4863 
L 1178 4863 
L 1178 4134 
L 603 4134 
L 603 4863 
z
" transform="scale(0.015625)"/>
       <path id="DejaVuSans-65" d="M 3597 1894 
L 3597 1613 
L 953 1613 
Q 991 1019 1311 708 
Q 1631 397 2203 397 
Q 2534 397 2845 478 
Q 3156 559 3463 722 
L 3463 178 
Q 3153 47 2828 -22 
Q 2503 -91 2169 -91 
Q 1331 -91 842 396 
Q 353 884 353 1716 
Q 353 2575 817 3079 
Q 1281 3584 2069 3584 
Q 2775 3584 3186 3129 
Q 3597 2675 3597 1894 
z
M 3022 2063 
Q 3016 2534 2758 2815 
Q 2500 3097 2075 3097 
Q 1594 3097 1305 2825 
Q 1016 2553 972 2059 
L 3022 2063 
z
" transform="scale(0.015625)"/>
       <path id="DejaVuSans-20" transform="scale(0.015625)"/>
       <path id="DejaVuSans-77" d="M 269 3500 
L 844 3500 
L 1563 769 
L 2278 3500 
L 2956 3500 
L 3675 769 
L 4391 3500 
L 4966 3500 
L 4050 0 
L 3372 0 
L 2619 2869 
L 1863 0 
L 1184 0 
L 269 3500 
z
" transform="scale(0.015625)"/>
       <path id="DejaVuSans-119" d="M 3597 1894 
L 3597 1613 
L 953 1613 
Q 991 1019 1311 708 
Q 1631 397 2203 397 
Q 2534 397 2845 478 
Q 3156 559 3463 722 
L 3463 178 
Q 3153 47 2828 -22 
Q 2503 -91 2169 -91 
Q 1331 -91 842 396 
Q 353 884 353 1716 
Q 353 2575 817 3079 
Q 1281 3584 2069 3584 
Q 2775 3584 3186 3129 
Q 3597 2675 3597 1894 
z
M 3022 2063 
Q 3016 2534 2758 2815 
Q 2500 3097 2075 3097 
Q 1594 3097 1305 2825 
Q 1016 2553 972 2059 
L 3022 2063 
z
M 2551 0 
L 2923 0 
Q 2782 -191 2715 -328 
Q 2648 -466 2648 -563 
Q 2648 -706 2734 -778 
Q 2820 -850 2989 -850 
Q 3089 -850 3185 -826 
Q 3282 -803 3379 -756 
L 3379 -1172 
Q 3260 -1203 3154 -1218 
Q 3048 -1234 2954 -1234 
Q 2573 -1234 2393 -1098 
Q 2214 -963 2214 -672 
Q 2214 -522 2296 -358 
Q 2379 -194 2551 0 
z
" transform="scale(0.015625)"/>
       <path id="DejaVuSans-7a" d="M 353 3500 
L 3084 3500 
L 3084 2975 
L 922 459 
L 3084 459 
L 3084 0 
L 275 0 
L 275 525 
L 2438 3041 
L 353 3041 
L 353 3500 
z
" transform="scale(0.015625)"/>
       <path id="DejaVuSans-142" d="M 622 4863 
L 1197 4863 
L 1197 2981 
L 1588 3263 
L 1825 2931 
L 1197 2491 
L 1197 0 
L 622 0 
L 622 2081 
L 238 1806 
L 6 2138 
L 622 2578 
L 622 4863 
z
" transform="scale(0.015625)"/>
       <path id="DejaVuSans-f3" d="M 1959 3097 
Q 1497 3097 1228 2736 
Q 959 2375 959 1747 
Q 959 1119 1226 758 
Q 1494 397 1959 397 
Q 2419 397 2687 759 
Q 2956 1122 2956 1747 
Q 2956 2369 2687 2733 
Q 2419 3097 1959 3097 
z
M 1959 3584 
Q 2709 3584 3137 3096 
Q 3566 2609 3566 1747 
Q 3566 888 3137 398 
Q 2709 -91 1959 -91 
Q 1206 -91 779 398 
Q 353 888 353 1747 
Q 353 2609 779 3096 
Q 1206 3584 1959 3584 
z
M 2394 5119 
L 3016 5119 
L 1998 3944 
L 1519 3944 
L 2394 5119 
z
" transform="scale(0.015625)"/>
       <path id="DejaVuSans-64" d="M 2906 2969 
L 2906 4863 
L 3481 4863 
L 3481 0 
L 2906 0 
L 2906 525 
Q 2725 213 2448 61 
Q 2172 -91 1784 -91 
Q 1150 -91 751 415 
Q 353 922 353 1747 
Q 353 2572 751 3078 
Q 1150 3584 1784 3584 
Q 2172 3584 2448 3432 
Q 2725 3281 2906 2969 
z
M 947 1747 
Q 947 1113 1208 752 
Q 1469 391 1925 391 
Q 2381 391 2643 752 
Q 2906 1113 2906 1747 
Q 2906 2381 2643 2742 
Q 2381 3103 1925 3103 
Q 1469 3103 1208 2742 
Q 947 2381 947 1747 
z
" transform="scale(0.015625)"/>
       <path id="DejaVuSans-144" d="M 2242 5119 
L 2864 5119 
L 1846 3944 
L 1367 3944 
L 2242 5119 
z
M 3513 2113 
L 3513 0 
L 2938 0 
L 2938 2094 
Q 2938 2591 2744 2837 
Q 2550 3084 2163 3084 
Q 1697 3084 1428 2787 
Q 1159 2491 1159 1978 
L 1159 0 
L 581 0 
L 581 3500 
L 1159 3500 
L 1159 2956 
Q 1366 3272 1645 3428 
Q 1925 3584 2291 3584 
Q 2894 3584 3203 3211 
Q 3513 2838 3513 2113 
z
" transform="scale(0.015625)"/>
      </defs>
      <use xlink:href="#DejaVuSans-4b"/>
      <use xlink:href="#DejaVuSans-6f" transform="translate(60.576172 0)"/>
      <use xlink:href="#DejaVuSans-6d" transform="translate(121.757812 0)"/>
      <use xlink:href="#DejaVuSans-62" transform="translate(219.169922 0)"/>
      <use xlink:href="#DejaVuSans-69" transform="translate(282.646484 0)"/>
      <use xlink:href="#DejaVuSans-6e" transform="translate(310.429688 0)"/>
      <use xlink:href="#DejaVuSans-61" transform="translate(373.808594 0)"/>
      <use xlink:href="#DejaVuSans-63" transform="translate(435.087891 0)"/>
      <use xlink:href="#DejaVuSans-6a" transform="translate(490.068359 0)"/>
      <use xlink:href="#DejaVuSans-65" transform="translate(517.851562 0)"/>
      <use xlink:href="#DejaVuSans-20" transform="translate(579.375 0)"/>
      <use xlink:href="#DejaVuSans-77" transform="translate(611.162109 0)"/>
      <use xlink:href="#DejaVuSans-119" transform="translate(692.949219 0)"/>
      <use xlink:href="#DejaVuSans-7a" transform="translate(754.472656 0)"/>
      <use xlink:href="#DejaVuSans-142" transform="translate(806.962891 0)"/>
      <use xlink:href="#DejaVuSans-f3" transform="translate(835.380859 0)"/>
      <use xlink:href="#DejaVuSans-77" transform="translate(896.5625 0)"/>
      <use xlink:href="#DejaVuSans-20" transform="translate(978.349609 0)"/>
      <use xlink:href="#DejaVuSans-69" transform="translate(1010.136719 0)"/>
      <use xlink:href="#DejaVuSans-20" transform="translate(1037.919922 0)"/>
      <use xlink:href="#DejaVuSans-7a" transform="translate(1069.707031 0)"/>
      <use xlink:href="#DejaVuSans-61" transform="translate(1122.197266 0)"/>
      <use xlink:href="#DejaVuSans-64" transform="translate(1183.476562 0)"/>
      <use xlink:href="#DejaVuSans-61" transform="translate(1246.953125 0)"/>
      <use xlink:href="#DejaVuSans-144" transform="translate(1308.232422 0)"/>
     </g>
    </g>
   </g>
   <g id="matplotlib.axis_2">
    <g id="ytick_1">
     <g id="line2d_4">
      <defs>
       <path id="m998ca6efbf" d="M 0 0 
L -3.5 0 
" style="stroke: #000000; stroke-width: 0.8"/>
      </defs>
      <g>
       <use xlink:href="#m998ca6efbf" x="40.603125" y="241.118125" style="stroke: #000000; stroke-width: 0.8"/>
      </g>
     </g>
     <g id="text_5">
      <!-- 0 -->
      <g transform="translate(27.240625 244.917344) scale(0.1 -0.1)">
       <use xlink:href="#DejaVuSans-30"/>
      </g>
     </g>
    </g>
    <g id="ytick_2">
     <g id="line2d_5">
      <g>
       <use xlink:href="#m998ca6efbf" x="40.603125" y="201.135311" style="stroke: #000000; stroke-width: 0.8"/>
      </g>
     </g>
     <g id="text_6">
      <!-- 5 -->
      <g transform="translate(27.240625 204.93453) scale(0.1 -0.1)">
       <use xlink:href="#DejaVuSans-35"/>
      </g>
     </g>
    </g>
    <g id="ytick_3">
     <g id="line2d_6">
      <g>
       <use xlink:href="#m998ca6efbf" x="40.603125" y="161.152497" style="stroke: #000000; stroke-width: 0.8"/>
      </g>
     </g>
     <g id="text_7">
      <!-- 10 -->
      <g transform="translate(20.878125 164.951716) scale(0.1 -0.1)">
       <defs>
        <path id="DejaVuSans-31" d="M 794 531 
L 1825 531 
L 1825 4091 
L 703 3866 
L 703 4441 
L 1819 4666 
L 2450 4666 
L 2450 531 
L 3481 531 
L 3481 0 
L 794 0 
L 794 531 
z
" transform="scale(0.015625)"/>
       </defs>
       <use xlink:href="#DejaVuSans-31"/>
       <use xlink:href="#DejaVuSans-30" transform="translate(63.623047 0)"/>
      </g>
     </g>
    </g>
    <g id="ytick_4">
     <g id="line2d_7">
      <g>
       <use xlink:href="#m998ca6efbf" x="40.603125" y="121.169683" style="stroke: #000000; stroke-width: 0.8"/>
      </g>
     </g>
     <g id="text_8">
      <!-- 15 -->
      <g transform="translate(20.878125 124.968902) scale(0.1 -0.1)">
       <use xlink:href="#DejaVuSans-31"/>
       <use xlink:href="#DejaVuSans-35" transform="translate(63.623047 0)"/>
      </g>
     </g>
    </g>
    <g id="ytick_5">
     <g id="line2d_8">
      <g>
       <use xlink:href="#m998ca6efbf" x="40.603125" y="81.186869" style="stroke: #000000; stroke-width: 0.8"/>
      </g>
     </g>
     <g id="text_9">
      <!-- 20 -->
      <g transform="translate(20.878125 84.986088) scale(0.1 -0.1)">
       <defs>
        <path id="DejaVuSans-32" d="M 1228 531 
L 3431 531 
L 3431 0 
L 469 0 
L 469 531 
Q 828 903 1448 1529 
Q 2069 2156 2228 2338 
Q 2531 2678 2651 2914 
Q 2772 3150 2772 3378 
Q 2772 3750 2511 3984 
Q 2250 4219 1831 4219 
Q 1534 4219 1204 4116 
Q 875 4013 500 3803 
L 500 4441 
Q 881 4594 1212 4672 
Q 1544 4750 1819 4750 
Q 2544 4750 2975 4387 
Q 3406 4025 3406 3419 
Q 3406 3131 3298 2873 
Q 3191 2616 2906 2266 
Q 2828 2175 2409 1742 
Q 1991 1309 1228 531 
z
" transform="scale(0.015625)"/>
       </defs>
       <use xlink:href="#DejaVuSans-32"/>
       <use xlink:href="#DejaVuSans-30" transform="translate(63.623047 0)"/>
      </g>
     </g>
    </g>
    <g id="ytick_6">
     <g id="line2d_9">
      <g>
       <use xlink:href="#m998ca6efbf" x="40.603125" y="41.204055" style="stroke: #000000; stroke-width: 0.8"/>
      </g>
     </g>
     <g id="text_10">
      <!-- 25 -->
      <g transform="translate(20.878125 45.003274) scale(0.1 -0.1)">
       <use xlink:href="#DejaVuSans-32"/>
       <use xlink:href="#DejaVuSans-35" transform="translate(63.623047 0)"/>
      </g>
     </g>
    </g>
    <g id="text_11">
     <!-- Równomierność rozłożenia zasobów (%) -->
     <g transform="translate(14.798438 231.754063) rotate(-90) scale(0.1 -0.1)">
      <defs>
       <path id="DejaVuSans-52" d="M 2841 2188 
Q 3044 2119 3236 1894 
Q 3428 1669 3622 1275 
L 4263 0 
L 3584 0 
L 2988 1197 
Q 2756 1666 2539 1819 
Q 2322 1972 1947 1972 
L 1259 1972 
L 1259 0 
L 628 0 
L 628 4666 
L 2053 4666 
Q 2853 4666 3247 4331 
Q 3641 3997 3641 3322 
Q 3641 2881 3436 2590 
Q 3231 2300 2841 2188 
z
M 1259 4147 
L 1259 2491 
L 2053 2491 
Q 2509 2491 2742 2702 
Q 2975 2913 2975 3322 
Q 2975 3731 2742 3939 
Q 2509 4147 2053 4147 
L 1259 4147 
z
" transform="scale(0.015625)"/>
       <path id="DejaVuSans-72" d="M 2631 2963 
Q 2534 3019 2420 3045 
Q 2306 3072 2169 3072 
Q 1681 3072 1420 2755 
Q 1159 2438 1159 1844 
L 1159 0 
L 581 0 
L 581 3500 
L 1159 3500 
L 1159 2956 
Q 1341 3275 1631 3429 
Q 1922 3584 2338 3584 
Q 2397 3584 2469 3576 
Q 2541 3569 2628 3553 
L 2631 2963 
z
" transform="scale(0.015625)"/>
       <path id="DejaVuSans-15b" d="M 2242 5119 
L 2864 5119 
L 1846 3944 
L 1367 3944 
L 2242 5119 
z
M 2834 3397 
L 2834 2853 
Q 2591 2978 2328 3040 
Q 2066 3103 1784 3103 
Q 1356 3103 1142 2972 
Q 928 2841 928 2578 
Q 928 2378 1081 2264 
Q 1234 2150 1697 2047 
L 1894 2003 
Q 2506 1872 2764 1633 
Q 3022 1394 3022 966 
Q 3022 478 2636 193 
Q 2250 -91 1575 -91 
Q 1294 -91 989 -36 
Q 684 19 347 128 
L 347 722 
Q 666 556 975 473 
Q 1284 391 1588 391 
Q 1994 391 2212 530 
Q 2431 669 2431 922 
Q 2431 1156 2273 1281 
Q 2116 1406 1581 1522 
L 1381 1569 
Q 847 1681 609 1914 
Q 372 2147 372 2553 
Q 372 3047 722 3315 
Q 1072 3584 1716 3584 
Q 2034 3584 2315 3537 
Q 2597 3491 2834 3397 
z
" transform="scale(0.015625)"/>
       <path id="DejaVuSans-107" d="M 3122 3366 
L 3122 2828 
Q 2878 2963 2633 3030 
Q 2388 3097 2138 3097 
Q 1578 3097 1268 2742 
Q 959 2388 959 1747 
Q 959 1106 1268 751 
Q 1578 397 2138 397 
Q 2388 397 2633 464 
Q 2878 531 3122 666 
L 3122 134 
Q 2881 22 2623 -34 
Q 2366 -91 2075 -91 
Q 1284 -91 818 406 
Q 353 903 353 1747 
Q 353 2603 823 3093 
Q 1294 3584 2113 3584 
Q 2378 3584 2631 3529 
Q 2884 3475 3122 3366 
z
M 2466 5119 
L 3088 5119 
L 2070 3944 
L 1591 3944 
L 2466 5119 
z
" transform="scale(0.015625)"/>
       <path id="DejaVuSans-17c" d="M 1378 4863 
L 1953 4863 
L 1953 4134 
L 1378 4134 
L 1378 4863 
z
M 1672 3584 
L 1672 3584 
z
M 353 3500 
L 3084 3500 
L 3084 2975 
L 922 459 
L 3084 459 
L 3084 0 
L 275 0 
L 275 525 
L 2438 3041 
L 353 3041 
L 353 3500 
z
" transform="scale(0.015625)"/>
       <path id="DejaVuSans-73" d="M 2834 3397 
L 2834 2853 
Q 2591 2978 2328 3040 
Q 2066 3103 1784 3103 
Q 1356 3103 1142 2972 
Q 928 2841 928 2578 
Q 928 2378 1081 2264 
Q 1234 2150 1697 2047 
L 1894 2003 
Q 2506 1872 2764 1633 
Q 3022 1394 3022 966 
Q 3022 478 2636 193 
Q 2250 -91 1575 -91 
Q 1294 -91 989 -36 
Q 684 19 347 128 
L 347 722 
Q 666 556 975 473 
Q 1284 391 1588 391 
Q 1994 391 2212 530 
Q 2431 669 2431 922 
Q 2431 1156 2273 1281 
Q 2116 1406 1581 1522 
L 1381 1569 
Q 847 1681 609 1914 
Q 372 2147 372 2553 
Q 372 3047 722 3315 
Q 1072 3584 1716 3584 
Q 2034 3584 2315 3537 
Q 2597 3491 2834 3397 
z
" transform="scale(0.015625)"/>
       <path id="DejaVuSans-28" d="M 1984 4856 
Q 1566 4138 1362 3434 
Q 1159 2731 1159 2009 
Q 1159 1288 1364 580 
Q 1569 -128 1984 -844 
L 1484 -844 
Q 1016 -109 783 600 
Q 550 1309 550 2009 
Q 550 2706 781 3412 
Q 1013 4119 1484 4856 
L 1984 4856 
z
" transform="scale(0.015625)"/>
       <path id="DejaVuSans-25" d="M 4653 2053 
Q 4381 2053 4226 1822 
Q 4072 1591 4072 1178 
Q 4072 772 4226 539 
Q 4381 306 4653 306 
Q 4919 306 5073 539 
Q 5228 772 5228 1178 
Q 5228 1588 5073 1820 
Q 4919 2053 4653 2053 
z
M 4653 2450 
Q 5147 2450 5437 2106 
Q 5728 1763 5728 1178 
Q 5728 594 5436 251 
Q 5144 -91 4653 -91 
Q 4153 -91 3862 251 
Q 3572 594 3572 1178 
Q 3572 1766 3864 2108 
Q 4156 2450 4653 2450 
z
M 1428 4353 
Q 1159 4353 1004 4120 
Q 850 3888 850 3481 
Q 850 3069 1003 2837 
Q 1156 2606 1428 2606 
Q 1700 2606 1854 2837 
Q 2009 3069 2009 3481 
Q 2009 3884 1853 4118 
Q 1697 4353 1428 4353 
z
M 4250 4750 
L 4750 4750 
L 1831 -91 
L 1331 -91 
L 4250 4750 
z
M 1428 4750 
Q 1922 4750 2215 4408 
Q 2509 4066 2509 3481 
Q 2509 2891 2217 2550 
Q 1925 2209 1428 2209 
Q 931 2209 642 2551 
Q 353 2894 353 3481 
Q 353 4063 643 4406 
Q 934 4750 1428 4750 
z
" transform="scale(0.015625)"/>
       <path id="DejaVuSans-29" d="M 513 4856 
L 1013 4856 
Q 1481 4119 1714 3412 
Q 1947 2706 1947 2009 
Q 1947 1309 1714 600 
Q 1481 -109 1013 -844 
L 513 -844 
Q 928 -128 1133 580 
Q 1338 1288 1338 2009 
Q 1338 2731 1133 3434 
Q 928 4138 513 4856 
z
" transform="scale(0.015625)"/>
      </defs>
      <use xlink:href="#DejaVuSans-52"/>
      <use xlink:href="#DejaVuSans-f3" transform="translate(64.982422 0)"/>
      <use xlink:href="#DejaVuSans-77" transform="translate(126.164062 0)"/>
      <use xlink:href="#DejaVuSans-6e" transform="translate(207.951172 0)"/>
      <use xlink:href="#DejaVuSans-6f" transform="translate(271.330078 0)"/>
      <use xlink:href="#DejaVuSans-6d" transform="translate(332.511719 0)"/>
      <use xlink:href="#DejaVuSans-69" transform="translate(429.923828 0)"/>
      <use xlink:href="#DejaVuSans-65" transform="translate(457.707031 0)"/>
      <use xlink:href="#DejaVuSans-72" transform="translate(519.230469 0)"/>
      <use xlink:href="#DejaVuSans-6e" transform="translate(558.59375 0)"/>
      <use xlink:href="#DejaVuSans-6f" transform="translate(621.972656 0)"/>
      <use xlink:href="#DejaVuSans-15b" transform="translate(683.154297 0)"/>
      <use xlink:href="#DejaVuSans-107" transform="translate(735.253906 0)"/>
      <use xlink:href="#DejaVuSans-20" transform="translate(790.234375 0)"/>
      <use xlink:href="#DejaVuSans-72" transform="translate(822.021484 0)"/>
      <use xlink:href="#DejaVuSans-6f" transform="translate(860.884766 0)"/>
      <use xlink:href="#DejaVuSans-7a" transform="translate(922.066406 0)"/>
      <use xlink:href="#DejaVuSans-142" transform="translate(974.556641 0)"/>
      <use xlink:href="#DejaVuSans-6f" transform="translate(1002.974609 0)"/>
      <use xlink:href="#DejaVuSans-17c" transform="translate(1064.15625 0)"/>
      <use xlink:href="#DejaVuSans-65" transform="translate(1116.646484 0)"/>
      <use xlink:href="#DejaVuSans-6e" transform="translate(1178.169922 0)"/>
      <use xlink:href="#DejaVuSans-69" transform="translate(1241.548828 0)"/>
      <use xlink:href="#DejaVuSans-61" transform="translate(1269.332031 0)"/>
      <use xlink:href="#DejaVuSans-20" transform="translate(1330.611328 0)"/>
      <use xlink:href="#DejaVuSans-7a" transform="translate(1362.398438 0)"/>
      <use xlink:href="#DejaVuSans-61" transform="translate(1414.888672 0)"/>
      <use xlink:href="#DejaVuSans-73" transform="translate(1476.167969 0)"/>
      <use xlink:href="#DejaVuSans-6f" transform="translate(1528.267578 0)"/>
      <use xlink:href="#DejaVuSans-62" transform="translate(1589.449219 0)"/>
      <use xlink:href="#DejaVuSans-f3" transform="translate(1652.925781 0)"/>
      <use xlink:href="#DejaVuSans-77" transform="translate(1714.107422 0)"/>
      <use xlink:href="#DejaVuSans-20" transform="translate(1795.894531 0)"/>
      <use xlink:href="#DejaVuSans-28" transform="translate(1827.681641 0)"/>
      <use xlink:href="#DejaVuSans-25" transform="translate(1866.695312 0)"/>
      <use xlink:href="#DejaVuSans-29" transform="translate(1961.714844 0)"/>
     </g>
    </g>
   </g>
   <g id="LineCollection_1">
    <path d="M 67.975186 205.666404 
L 67.975186 195.964493 
" clip-path="url(#p6218695af6)" style="fill: none; stroke: #000000; stroke-width: 1.5"/>
    <path d="M 200.42064 221.327831 
L 200.42064 179.983204 
" clip-path="url(#p6218695af6)" style="fill: none; stroke: #000000; stroke-width: 1.5"/>
    <path d="M 332.866095 192.65705 
L 332.866095 172.50952 
" clip-path="url(#p6218695af6)" style="fill: none; stroke: #000000; stroke-width: 1.5"/>
   </g>
   <g id="line2d_10">
    <defs>
     <path id="ma3d6fe60ca" d="M 3 0 
L -3 -0 
" style="stroke: #000000"/>
    </defs>
    <g clip-path="url(#p6218695af6)">
     <use xlink:href="#ma3d6fe60ca" x="67.975186" y="205.666404" style="stroke: #000000"/>
     <use xlink:href="#ma3d6fe60ca" x="200.42064" y="221.327831" style="stroke: #000000"/>
     <use xlink:href="#ma3d6fe60ca" x="332.866095" y="192.65705" style="stroke: #000000"/>
    </g>
   </g>
   <g id="line2d_11">
    <g clip-path="url(#p6218695af6)">
     <use xlink:href="#ma3d6fe60ca" x="67.975186" y="195.964493" style="stroke: #000000"/>
     <use xlink:href="#ma3d6fe60ca" x="200.42064" y="179.983204" style="stroke: #000000"/>
     <use xlink:href="#ma3d6fe60ca" x="332.866095" y="172.50952" style="stroke: #000000"/>
    </g>
   </g>
   <g id="LineCollection_2">
    <path d="M 85.63458 170.127603 
L 85.63458 151.217803 
" clip-path="url(#p6218695af6)" style="fill: none; stroke: #000000; stroke-width: 1.5"/>
    <path d="M 218.080034 201.409742 
L 218.080034 118.976077 
" clip-path="url(#p6218695af6)" style="fill: none; stroke: #000000; stroke-width: 1.5"/>
    <path d="M 350.525489 144.950721 
L 350.525489 103.785895 
" clip-path="url(#p6218695af6)" style="fill: none; stroke: #000000; stroke-width: 1.5"/>
   </g>
   <g id="line2d_12">
    <g clip-path="url(#p6218695af6)">
     <use xlink:href="#ma3d6fe60ca" x="85.63458" y="170.127603" style="stroke: #000000"/>
     <use xlink:href="#ma3d6fe60ca" x="218.080034" y="201.409742" style="stroke: #000000"/>
     <use xlink:href="#ma3d6fe60ca" x="350.525489" y="144.950721" style="stroke: #000000"/>
    </g>
   </g>
   <g id="line2d_13">
    <g clip-path="url(#p6218695af6)">
     <use xlink:href="#ma3d6fe60ca" x="85.63458" y="151.217803" style="stroke: #000000"/>
     <use xlink:href="#ma3d6fe60ca" x="218.080034" y="118.976077" style="stroke: #000000"/>
     <use xlink:href="#ma3d6fe60ca" x="350.525489" y="103.785895" style="stroke: #000000"/>
    </g>
   </g>
   <g id="LineCollection_3">
    <path d="M 103.293973 164.598621 
L 103.293973 138.514622 
" clip-path="url(#p6218695af6)" style="fill: none; stroke: #000000; stroke-width: 1.5"/>
    <path d="M 235.739428 222.846702 
L 235.739428 136.562344 
" clip-path="url(#p6218695af6)" style="fill: none; stroke: #000000; stroke-width: 1.5"/>
    <path d="M 368.184883 213.777775 
L 368.184883 137.634707 
" clip-path="url(#p6218695af6)" style="fill: none; stroke: #000000; stroke-width: 1.5"/>
   </g>
   <g id="line2d_14">
    <g clip-path="url(#p6218695af6)">
     <use xlink:href="#ma3d6fe60ca" x="103.293973" y="164.598621" style="stroke: #000000"/>
     <use xlink:href="#ma3d6fe60ca" x="235.739428" y="222.846702" style="stroke: #000000"/>
     <use xlink:href="#ma3d6fe60ca" x="368.184883" y="213.777775" style="stroke: #000000"/>
    </g>
   </g>
   <g id="line2d_15">
    <g clip-path="url(#p6218695af6)">
     <use xlink:href="#ma3d6fe60ca" x="103.293973" y="138.514622" style="stroke: #000000"/>
     <use xlink:href="#ma3d6fe60ca" x="235.739428" y="136.562344" style="stroke: #000000"/>
     <use xlink:href="#ma3d6fe60ca" x="368.184883" y="137.634707" style="stroke: #000000"/>
    </g>
   </g>
   <g id="LineCollection_4">
    <path d="M 120.953367 87.894601 
L 120.953367 36.095635 
" clip-path="url(#p6218695af6)" style="fill: none; stroke: #000000; stroke-width: 1.5"/>
    <path d="M 253.398822 204.164531 
L 253.398822 32.737173 
" clip-path="url(#p6218695af6)" style="fill: none; stroke: #000000; stroke-width: 1.5"/>
    <path d="M 385.844277 186.432853 
L 385.844277 34.795587 
" clip-path="url(#p6218695af6)" style="fill: none; stroke: #000000; stroke-width: 1.5"/>
   </g>
   <g id="line2d_16">
    <g clip-path="url(#p6218695af6)">
     <use xlink:href="#ma3d6fe60ca" x="120.953367" y="87.894601" style="stroke: #000000"/>
     <use xlink:href="#ma3d6fe60ca" x="253.398822" y="204.164531" style="stroke: #000000"/>
     <use xlink:href="#ma3d6fe60ca" x="385.844277" y="186.432853" style="stroke: #000000"/>
    </g>
   </g>
   <g id="line2d_17">
    <g clip-path="url(#p6218695af6)">
     <use xlink:href="#ma3d6fe60ca" x="120.953367" y="36.095635" style="stroke: #000000"/>
     <use xlink:href="#ma3d6fe60ca" x="253.398822" y="32.737173" style="stroke: #000000"/>
     <use xlink:href="#ma3d6fe60ca" x="385.844277" y="34.795587" style="stroke: #000000"/>
    </g>
   </g>
   <g id="LineCollection_5">
    <path d="M 138.612761 166.382465 
L 138.612761 141.528716 
" clip-path="url(#p6218695af6)" style="fill: none; stroke: #000000; stroke-width: 1.5"/>
    <path d="M 271.058216 182.109341 
L 271.058216 155.868916 
" clip-path="url(#p6218695af6)" style="fill: none; stroke: #000000; stroke-width: 1.5"/>
    <path d="M 403.50367 160.631737 
L 403.50367 145.999994 
" clip-path="url(#p6218695af6)" style="fill: none; stroke: #000000; stroke-width: 1.5"/>
   </g>
   <g id="line2d_18">
    <g clip-path="url(#p6218695af6)">
     <use xlink:href="#ma3d6fe60ca" x="138.612761" y="166.382465" style="stroke: #000000"/>
     <use xlink:href="#ma3d6fe60ca" x="271.058216" y="182.109341" style="stroke: #000000"/>
     <use xlink:href="#ma3d6fe60ca" x="403.50367" y="160.631737" style="stroke: #000000"/>
    </g>
   </g>
   <g id="line2d_19">
    <g clip-path="url(#p6218695af6)">
     <use xlink:href="#ma3d6fe60ca" x="138.612761" y="141.528716" style="stroke: #000000"/>
     <use xlink:href="#ma3d6fe60ca" x="271.058216" y="155.868916" style="stroke: #000000"/>
     <use xlink:href="#ma3d6fe60ca" x="403.50367" y="145.999994" style="stroke: #000000"/>
    </g>
   </g>
   <g id="LineCollection_6">
    <path d="M 156.272155 92.00151 
L 156.272155 41.904464 
" clip-path="url(#p6218695af6)" style="fill: none; stroke: #000000; stroke-width: 1.5"/>
    <path d="M 288.71761 122.692642 
L 288.71761 71.347485 
" clip-path="url(#p6218695af6)" style="fill: none; stroke: #000000; stroke-width: 1.5"/>
    <path d="M 421.163064 79.531917 
L 421.163064 50.85557 
" clip-path="url(#p6218695af6)" style="fill: none; stroke: #000000; stroke-width: 1.5"/>
   </g>
   <g id="line2d_20">
    <g clip-path="url(#p6218695af6)">
     <use xlink:href="#ma3d6fe60ca" x="156.272155" y="92.00151" style="stroke: #000000"/>
     <use xlink:href="#ma3d6fe60ca" x="288.71761" y="122.692642" style="stroke: #000000"/>
     <use xlink:href="#ma3d6fe60ca" x="421.163064" y="79.531917" style="stroke: #000000"/>
    </g>
   </g>
   <g id="line2d_21">
    <g clip-path="url(#p6218695af6)">
     <use xlink:href="#ma3d6fe60ca" x="156.272155" y="41.904464" style="stroke: #000000"/>
     <use xlink:href="#ma3d6fe60ca" x="288.71761" y="71.347485" style="stroke: #000000"/>
     <use xlink:href="#ma3d6fe60ca" x="421.163064" y="50.85557" style="stroke: #000000"/>
    </g>
   </g>
   <g id="patch_21">
    <path d="M 40.603125 241.118125 
L 40.603125 22.318125 
" style="fill: none; stroke: #000000; stroke-width: 0.8; stroke-linejoin: miter; stroke-linecap: square"/>
   </g>
   <g id="patch_22">
    <path d="M 448.535125 241.118125 
L 448.535125 22.318125 
" style="fill: none; stroke: #000000; stroke-width: 0.8; stroke-linejoin: miter; stroke-linecap: square"/>
   </g>
   <g id="patch_23">
    <path d="M 40.603125 241.118125 
L 448.535125 241.118125 
" style="fill: none; stroke: #000000; stroke-width: 0.8; stroke-linejoin: miter; stroke-linecap: square"/>
   </g>
   <g id="patch_24">
    <path d="M 40.603125 22.318125 
L 448.535125 22.318125 
" style="fill: none; stroke: #000000; stroke-width: 0.8; stroke-linejoin: miter; stroke-linecap: square"/>
   </g>
   <g id="text_12">
    <!-- Scenariusz V2 – Równomierność rozłożenia zasobów -->
    <g transform="translate(87.683188 16.318125) scale(0.12 -0.12)">
     <defs>
      <path id="DejaVuSans-53" d="M 3425 4513 
L 3425 3897 
Q 3066 4069 2747 4153 
Q 2428 4238 2131 4238 
Q 1616 4238 1336 4038 
Q 1056 3838 1056 3469 
Q 1056 3159 1242 3001 
Q 1428 2844 1947 2747 
L 2328 2669 
Q 3034 2534 3370 2195 
Q 3706 1856 3706 1288 
Q 3706 609 3251 259 
Q 2797 -91 1919 -91 
Q 1588 -91 1214 -16 
Q 841 59 441 206 
L 441 856 
Q 825 641 1194 531 
Q 1563 422 1919 422 
Q 2459 422 2753 634 
Q 3047 847 3047 1241 
Q 3047 1584 2836 1778 
Q 2625 1972 2144 2069 
L 1759 2144 
Q 1053 2284 737 2584 
Q 422 2884 422 3419 
Q 422 4038 858 4394 
Q 1294 4750 2059 4750 
Q 2388 4750 2728 4690 
Q 3069 4631 3425 4513 
z
" transform="scale(0.015625)"/>
      <path id="DejaVuSans-75" d="M 544 1381 
L 544 3500 
L 1119 3500 
L 1119 1403 
Q 1119 906 1312 657 
Q 1506 409 1894 409 
Q 2359 409 2629 706 
Q 2900 1003 2900 1516 
L 2900 3500 
L 3475 3500 
L 3475 0 
L 2900 0 
L 2900 538 
Q 2691 219 2414 64 
Q 2138 -91 1772 -91 
Q 1169 -91 856 284 
Q 544 659 544 1381 
z
M 1991 3584 
L 1991 3584 
z
" transform="scale(0.015625)"/>
      <path id="DejaVuSans-56" d="M 1831 0 
L 50 4666 
L 709 4666 
L 2188 738 
L 3669 4666 
L 4325 4666 
L 2547 0 
L 1831 0 
z
" transform="scale(0.015625)"/>
      <path id="DejaVuSans-2013" d="M 313 1978 
L 2888 1978 
L 2888 1528 
L 313 1528 
L 313 1978 
z
" transform="scale(0.015625)"/>
     </defs>
     <use xlink:href="#DejaVuSans-53"/>
     <use xlink:href="#DejaVuSans-63" transform="translate(63.476562 0)"/>
     <use xlink:href="#DejaVuSans-65" transform="translate(118.457031 0)"/>
     <use xlink:href="#DejaVuSans-6e" transform="translate(179.980469 0)"/>
     <use xlink:href="#DejaVuSans-61" transform="translate(243.359375 0)"/>
     <use xlink:href="#DejaVuSans-72" transform="translate(304.638672 0)"/>
     <use xlink:href="#DejaVuSans-69" transform="translate(345.751953 0)"/>
     <use xlink:href="#DejaVuSans-75" transform="translate(373.535156 0)"/>
     <use xlink:href="#DejaVuSans-73" transform="translate(436.914062 0)"/>
     <use xlink:href="#DejaVuSans-7a" transform="translate(489.013672 0)"/>
     <use xlink:href="#DejaVuSans-20" transform="translate(541.503906 0)"/>
     <use xlink:href="#DejaVuSans-56" transform="translate(573.291016 0)"/>
     <use xlink:href="#DejaVuSans-32" transform="translate(641.699219 0)"/>
     <use xlink:href="#DejaVuSans-20" transform="translate(705.322266 0)"/>
     <use xlink:href="#DejaVuSans-2013" transform="translate(737.109375 0)"/>
     <use xlink:href="#DejaVuSans-20" transform="translate(787.109375 0)"/>
     <use xlink:href="#DejaVuSans-52" transform="translate(818.896484 0)"/>
     <use xlink:href="#DejaVuSans-f3" transform="translate(883.878906 0)"/>
     <use xlink:href="#DejaVuSans-77" transform="translate(945.060547 0)"/>
     <use xlink:href="#DejaVuSans-6e" transform="translate(1026.847656 0)"/>
     <use xlink:href="#DejaVuSans-6f" transform="translate(1090.226562 0)"/>
     <use xlink:href="#DejaVuSans-6d" transform="translate(1151.408203 0)"/>
     <use xlink:href="#DejaVuSans-69" transform="translate(1248.820312 0)"/>
     <use xlink:href="#DejaVuSans-65" transform="translate(1276.603516 0)"/>
     <use xlink:href="#DejaVuSans-72" transform="translate(1338.126953 0)"/>
     <use xlink:href="#DejaVuSans-6e" transform="translate(1377.490234 0)"/>
     <use xlink:href="#DejaVuSans-6f" transform="translate(1440.869141 0)"/>
     <use xlink:href="#DejaVuSans-15b" transform="translate(1502.050781 0)"/>
     <use xlink:href="#DejaVuSans-107" transform="translate(1554.150391 0)"/>
     <use xlink:href="#DejaVuSans-20" transform="translate(1609.130859 0)"/>
     <use xlink:href="#DejaVuSans-72" transform="translate(1640.917969 0)"/>
     <use xlink:href="#DejaVuSans-6f" transform="translate(1679.78125 0)"/>
     <use xlink:href="#DejaVuSans-7a" transform="translate(1740.962891 0)"/>
     <use xlink:href="#DejaVuSans-142" transform="translate(1793.453125 0)"/>
     <use xlink:href="#DejaVuSans-6f" transform="translate(1821.871094 0)"/>
     <use xlink:href="#DejaVuSans-17c" transform="translate(1883.052734 0)"/>
     <use xlink:href="#DejaVuSans-65" transform="translate(1935.542969 0)"/>
     <use xlink:href="#DejaVuSans-6e" transform="translate(1997.066406 0)"/>
     <use xlink:href="#DejaVuSans-69" transform="translate(2060.445312 0)"/>
     <use xlink:href="#DejaVuSans-61" transform="translate(2088.228516 0)"/>
     <use xlink:href="#DejaVuSans-20" transform="translate(2149.507812 0)"/>
     <use xlink:href="#DejaVuSans-7a" transform="translate(2181.294922 0)"/>
     <use xlink:href="#DejaVuSans-61" transform="translate(2233.785156 0)"/>
     <use xlink:href="#DejaVuSans-73" transform="translate(2295.064453 0)"/>
     <use xlink:href="#DejaVuSans-6f" transform="translate(2347.164062 0)"/>
     <use xlink:href="#DejaVuSans-62" transform="translate(2408.345703 0)"/>
     <use xlink:href="#DejaVuSans-f3" transform="translate(2471.822266 0)"/>
     <use xlink:href="#DejaVuSans-77" transform="translate(2533.003906 0)"/>
    </g>
   </g>
   <g id="legend_1">
    <g id="patch_25">
     <path d="M 458.693765 113.386875 
L 558.750015 113.386875 
Q 560.750015 113.386875 560.750015 111.386875 
L 560.750015 24.318125 
Q 560.750015 22.318125 558.750015 22.318125 
L 458.693765 22.318125 
Q 456.693765 22.318125 456.693765 24.318125 
L 456.693765 111.386875 
Q 456.693765 113.386875 458.693765 113.386875 
z
" style="fill: #ffffff; opacity: 0.8; stroke: #cccccc; stroke-linejoin: miter"/>
    </g>
    <g id="patch_26">
     <path d="M 460.693765 33.916562 
L 480.693765 33.916562 
L 480.693765 26.916562 
L 460.693765 26.916562 
z
" style="fill: url(#h59b9a32dd0); opacity: 0.8; stroke: #000000; stroke-width: 0.5; stroke-linejoin: miter"/>
    </g>
    <g id="text_13">
     <!-- Kueue CPU -->
     <g transform="translate(488.693765 33.916562) scale(0.1 -0.1)">
      <defs>
       <path id="DejaVuSans-43" d="M 4122 4306 
L 4122 3641 
Q 3803 3938 3442 4084 
Q 3081 4231 2675 4231 
Q 1875 4231 1450 3742 
Q 1025 3253 1025 2328 
Q 1025 1406 1450 917 
Q 1875 428 2675 428 
Q 3081 428 3442 575 
Q 3803 722 4122 1019 
L 4122 359 
Q 3791 134 3420 21 
Q 3050 -91 2638 -91 
Q 1578 -91 968 557 
Q 359 1206 359 2328 
Q 359 3453 968 4101 
Q 1578 4750 2638 4750 
Q 3056 4750 3426 4639 
Q 3797 4528 4122 4306 
z
" transform="scale(0.015625)"/>
       <path id="DejaVuSans-50" d="M 1259 4147 
L 1259 2394 
L 2053 2394 
Q 2494 2394 2734 2622 
Q 2975 2850 2975 3272 
Q 2975 3691 2734 3919 
Q 2494 4147 2053 4147 
L 1259 4147 
z
M 628 4666 
L 2053 4666 
Q 2838 4666 3239 4311 
Q 3641 3956 3641 3272 
Q 3641 2581 3239 2228 
Q 2838 1875 2053 1875 
L 1259 1875 
L 1259 0 
L 628 0 
L 628 4666 
z
" transform="scale(0.015625)"/>
       <path id="DejaVuSans-55" d="M 556 4666 
L 1191 4666 
L 1191 1831 
Q 1191 1081 1462 751 
Q 1734 422 2344 422 
Q 2950 422 3222 751 
Q 3494 1081 3494 1831 
L 3494 4666 
L 4128 4666 
L 4128 1753 
Q 4128 841 3676 375 
Q 3225 -91 2344 -91 
Q 1459 -91 1007 375 
Q 556 841 556 1753 
L 556 4666 
z
" transform="scale(0.015625)"/>
      </defs>
      <use xlink:href="#DejaVuSans-4b"/>
      <use xlink:href="#DejaVuSans-75" transform="translate(60.576172 0)"/>
      <use xlink:href="#DejaVuSans-65" transform="translate(123.955078 0)"/>
      <use xlink:href="#DejaVuSans-75" transform="translate(185.478516 0)"/>
      <use xlink:href="#DejaVuSans-65" transform="translate(248.857422 0)"/>
      <use xlink:href="#DejaVuSans-20" transform="translate(310.380859 0)"/>
      <use xlink:href="#DejaVuSans-43" transform="translate(342.167969 0)"/>
      <use xlink:href="#DejaVuSans-50" transform="translate(411.992188 0)"/>
      <use xlink:href="#DejaVuSans-55" transform="translate(472.294922 0)"/>
     </g>
    </g>
    <g id="patch_27">
     <path d="M 460.693765 48.594687 
L 480.693765 48.594687 
L 480.693765 41.594687 
L 460.693765 41.594687 
z
" style="fill: #0000ff; opacity: 0.8; stroke: #000000; stroke-width: 0.5; stroke-linejoin: miter"/>
    </g>
    <g id="text_14">
     <!-- Kueue RAM -->
     <g transform="translate(488.693765 48.594687) scale(0.1 -0.1)">
      <defs>
       <path id="DejaVuSans-41" d="M 2188 4044 
L 1331 1722 
L 3047 1722 
L 2188 4044 
z
M 1831 4666 
L 2547 4666 
L 4325 0 
L 3669 0 
L 3244 1197 
L 1141 1197 
L 716 0 
L 50 0 
L 1831 4666 
z
" transform="scale(0.015625)"/>
       <path id="DejaVuSans-4d" d="M 628 4666 
L 1569 4666 
L 2759 1491 
L 3956 4666 
L 4897 4666 
L 4897 0 
L 4281 0 
L 4281 4097 
L 3078 897 
L 2444 897 
L 1241 4097 
L 1241 0 
L 628 0 
L 628 4666 
z
" transform="scale(0.015625)"/>
      </defs>
      <use xlink:href="#DejaVuSans-4b"/>
      <use xlink:href="#DejaVuSans-75" transform="translate(60.576172 0)"/>
      <use xlink:href="#DejaVuSans-65" transform="translate(123.955078 0)"/>
      <use xlink:href="#DejaVuSans-75" transform="translate(185.478516 0)"/>
      <use xlink:href="#DejaVuSans-65" transform="translate(248.857422 0)"/>
      <use xlink:href="#DejaVuSans-20" transform="translate(310.380859 0)"/>
      <use xlink:href="#DejaVuSans-52" transform="translate(342.167969 0)"/>
      <use xlink:href="#DejaVuSans-41" transform="translate(407.650391 0)"/>
      <use xlink:href="#DejaVuSans-4d" transform="translate(476.058594 0)"/>
     </g>
    </g>
    <g id="patch_28">
     <path d="M 460.693765 63.272812 
L 480.693765 63.272812 
L 480.693765 56.272812 
L 460.693765 56.272812 
z
" style="fill: url(#hb82f60875e); opacity: 0.8; stroke: #000000; stroke-width: 0.5; stroke-linejoin: miter"/>
    </g>
    <g id="text_15">
     <!-- Volcano CPU -->
     <g transform="translate(488.693765 63.272812) scale(0.1 -0.1)">
      <defs>
       <path id="DejaVuSans-6c" d="M 603 4863 
L 1178 4863 
L 1178 0 
L 603 0 
L 603 4863 
z
" transform="scale(0.015625)"/>
      </defs>
      <use xlink:href="#DejaVuSans-56"/>
      <use xlink:href="#DejaVuSans-6f" transform="translate(60.658203 0)"/>
      <use xlink:href="#DejaVuSans-6c" transform="translate(121.839844 0)"/>
      <use xlink:href="#DejaVuSans-63" transform="translate(149.623047 0)"/>
      <use xlink:href="#DejaVuSans-61" transform="translate(204.603516 0)"/>
      <use xlink:href="#DejaVuSans-6e" transform="translate(265.882812 0)"/>
      <use xlink:href="#DejaVuSans-6f" transform="translate(329.261719 0)"/>
      <use xlink:href="#DejaVuSans-20" transform="translate(390.443359 0)"/>
      <use xlink:href="#DejaVuSans-43" transform="translate(422.230469 0)"/>
      <use xlink:href="#DejaVuSans-50" transform="translate(492.054688 0)"/>
      <use xlink:href="#DejaVuSans-55" transform="translate(552.357422 0)"/>
     </g>
    </g>
    <g id="patch_29">
     <path d="M 460.693765 77.950938 
L 480.693765 77.950938 
L 480.693765 70.950938 
L 460.693765 70.950938 
z
" style="fill: #ff0000; opacity: 0.8; stroke: #000000; stroke-width: 0.5; stroke-linejoin: miter"/>
    </g>
    <g id="text_16">
     <!-- Volcano RAM -->
     <g transform="translate(488.693765 77.950938) scale(0.1 -0.1)">
      <use xlink:href="#DejaVuSans-56"/>
      <use xlink:href="#DejaVuSans-6f" transform="translate(60.658203 0)"/>
      <use xlink:href="#DejaVuSans-6c" transform="translate(121.839844 0)"/>
      <use xlink:href="#DejaVuSans-63" transform="translate(149.623047 0)"/>
      <use xlink:href="#DejaVuSans-61" transform="translate(204.603516 0)"/>
      <use xlink:href="#DejaVuSans-6e" transform="translate(265.882812 0)"/>
      <use xlink:href="#DejaVuSans-6f" transform="translate(329.261719 0)"/>
      <use xlink:href="#DejaVuSans-20" transform="translate(390.443359 0)"/>
      <use xlink:href="#DejaVuSans-52" transform="translate(422.230469 0)"/>
      <use xlink:href="#DejaVuSans-41" transform="translate(487.712891 0)"/>
      <use xlink:href="#DejaVuSans-4d" transform="translate(556.121094 0)"/>
     </g>
    </g>
    <g id="patch_30">
     <path d="M 460.693765 92.629063 
L 480.693765 92.629063 
L 480.693765 85.629063 
L 460.693765 85.629063 
z
" style="fill: url(#h1b47bb6bde); opacity: 0.8; stroke: #000000; stroke-width: 0.5; stroke-linejoin: miter"/>
    </g>
    <g id="text_17">
     <!-- YuniKorn CPU -->
     <g transform="translate(488.693765 92.629063) scale(0.1 -0.1)">
      <defs>
       <path id="DejaVuSans-59" d="M -13 4666 
L 666 4666 
L 1959 2747 
L 3244 4666 
L 3922 4666 
L 2272 2222 
L 2272 0 
L 1638 0 
L 1638 2222 
L -13 4666 
z
" transform="scale(0.015625)"/>
      </defs>
      <use xlink:href="#DejaVuSans-59"/>
      <use xlink:href="#DejaVuSans-75" transform="translate(49.583984 0)"/>
      <use xlink:href="#DejaVuSans-6e" transform="translate(112.962891 0)"/>
      <use xlink:href="#DejaVuSans-69" transform="translate(176.341797 0)"/>
      <use xlink:href="#DejaVuSans-4b" transform="translate(204.125 0)"/>
      <use xlink:href="#DejaVuSans-6f" transform="translate(264.701172 0)"/>
      <use xlink:href="#DejaVuSans-72" transform="translate(325.882812 0)"/>
      <use xlink:href="#DejaVuSans-6e" transform="translate(365.246094 0)"/>
      <use xlink:href="#DejaVuSans-20" transform="translate(428.625 0)"/>
      <use xlink:href="#DejaVuSans-43" transform="translate(460.412109 0)"/>
      <use xlink:href="#DejaVuSans-50" transform="translate(530.236328 0)"/>
      <use xlink:href="#DejaVuSans-55" transform="translate(590.539062 0)"/>
     </g>
    </g>
    <g id="patch_31">
     <path d="M 460.693765 107.307187 
L 480.693765 107.307187 
L 480.693765 100.307187 
L 460.693765 100.307187 
z
" style="fill: #008000; opacity: 0.8; stroke: #000000; stroke-width: 0.5; stroke-linejoin: miter"/>
    </g>
    <g id="text_18">
     <!-- YuniKorn RAM -->
     <g transform="translate(488.693765 107.307187) scale(0.1 -0.1)">
      <use xlink:href="#DejaVuSans-59"/>
      <use xlink:href="#DejaVuSans-75" transform="translate(49.583984 0)"/>
      <use xlink:href="#DejaVuSans-6e" transform="translate(112.962891 0)"/>
      <use xlink:href="#DejaVuSans-69" transform="translate(176.341797 0)"/>
      <use xlink:href="#DejaVuSans-4b" transform="translate(204.125 0)"/>
      <use xlink:href="#DejaVuSans-6f" transform="translate(264.701172 0)"/>
      <use xlink:href="#DejaVuSans-72" transform="translate(325.882812 0)"/>
      <use xlink:href="#DejaVuSans-6e" transform="translate(365.246094 0)"/>
      <use xlink:href="#DejaVuSans-20" transform="translate(428.625 0)"/>
      <use xlink:href="#DejaVuSans-52" transform="translate(460.412109 0)"/>
      <use xlink:href="#DejaVuSans-41" transform="translate(525.894531 0)"/>
      <use xlink:href="#DejaVuSans-4d" transform="translate(594.302734 0)"/>
     </g>
    </g>
   </g>
  </g>
 </g>
 <defs>
  <clipPath id="p6218695af6">
   <rect x="40.603125" y="22.318125" width="407.932" height="218.8"/>
  </clipPath>
 </defs>
 <defs>
  <pattern id="h59b9a32dd0" patternUnits="userSpaceOnUse" x="0" y="0" width="72" height="72">
   <rect x="0" y="0" width="73" height="73" fill="#0000ff"/>
   <path d="M -36 36 
L 36 -36 
M -33 39 
L 39 -33 
M -30 42 
L 42 -30 
M -27 45 
L 45 -27 
M -24 48 
L 48 -24 
M -21 51 
L 51 -21 
M -18 54 
L 54 -18 
M -15 57 
L 57 -15 
M -12 60 
L 60 -12 
M -9 63 
L 63 -9 
M -6 66 
L 66 -6 
M -3 69 
L 69 -3 
M 0 72 
L 72 0 
M 3 75 
L 75 3 
M 6 78 
L 78 6 
M 9 81 
L 81 9 
M 12 84 
L 84 12 
M 15 87 
L 87 15 
M 18 90 
L 90 18 
M 21 93 
L 93 21 
M 24 96 
L 96 24 
M 27 99 
L 99 27 
M 30 102 
L 102 30 
M 33 105 
L 105 33 
M 36 108 
L 108 36 
" style="fill: #000000; stroke: #000000; stroke-width: 0.5; stroke-linecap: butt; stroke-linejoin: miter; stroke-opacity: 0.8"/>
  </pattern>
  <pattern id="hb82f60875e" patternUnits="userSpaceOnUse" x="0" y="0" width="72" height="72">
   <rect x="0" y="0" width="73" height="73" fill="#ff0000"/>
   <path d="M -36 36 
L 36 -36 
M -33 39 
L 39 -33 
M -30 42 
L 42 -30 
M -27 45 
L 45 -27 
M -24 48 
L 48 -24 
M -21 51 
L 51 -21 
M -18 54 
L 54 -18 
M -15 57 
L 57 -15 
M -12 60 
L 60 -12 
M -9 63 
L 63 -9 
M -6 66 
L 66 -6 
M -3 69 
L 69 -3 
M 0 72 
L 72 0 
M 3 75 
L 75 3 
M 6 78 
L 78 6 
M 9 81 
L 81 9 
M 12 84 
L 84 12 
M 15 87 
L 87 15 
M 18 90 
L 90 18 
M 21 93 
L 93 21 
M 24 96 
L 96 24 
M 27 99 
L 99 27 
M 30 102 
L 102 30 
M 33 105 
L 105 33 
M 36 108 
L 108 36 
" style="fill: #000000; stroke: #000000; stroke-width: 0.5; stroke-linecap: butt; stroke-linejoin: miter; stroke-opacity: 0.8"/>
  </pattern>
  <pattern id="h1b47bb6bde" patternUnits="userSpaceOnUse" x="0" y="0" width="72" height="72">
   <rect x="0" y="0" width="73" height="73" fill="#008000"/>
   <path d="M -36 36 
L 36 -36 
M -33 39 
L 39 -33 
M -30 42 
L 42 -30 
M -27 45 
L 45 -27 
M -24 48 
L 48 -24 
M -21 51 
L 51 -21 
M -18 54 
L 54 -18 
M -15 57 
L 57 -15 
M -12 60 
L 60 -12 
M -9 63 
L 63 -9 
M -6 66 
L 66 -6 
M -3 69 
L 69 -3 
M 0 72 
L 72 0 
M 3 75 
L 75 3 
M 6 78 
L 78 6 
M 9 81 
L 81 9 
M 12 84 
L 84 12 
M 15 87 
L 87 15 
M 18 90 
L 90 18 
M 21 93 
L 93 21 
M 24 96 
L 96 24 
M 27 99 
L 99 27 
M 30 102 
L 102 30 
M 33 105 
L 105 33 
M 36 108 
L 108 36 
" style="fill: #000000; stroke: #000000; stroke-width: 0.5; stroke-linecap: butt; stroke-linejoin: miter; stroke-opacity: 0.8"/>
  </pattern>
 </defs>
</svg>
