<?xml version="1.0" encoding="utf-8" standalone="no"?>
<!DOCTYPE svg PUBLIC "-//W3C//DTD SVG 1.1//EN"
  "http://www.w3.org/Graphics/SVG/1.1/DTD/svg11.dtd">
<svg xmlns:xlink="http://www.w3.org/1999/xlink" width="567.982815pt" height="279.194375pt" viewBox="0 0 567.982815 279.194375" xmlns="http://www.w3.org/2000/svg" version="1.1">
 <metadata>
  <rdf:RDF xmlns:dc="http://purl.org/dc/elements/1.1/" xmlns:cc="http://creativecommons.org/ns#" xmlns:rdf="http://www.w3.org/1999/02/22-rdf-syntax-ns#">
   <cc:Work>
    <dc:type rdf:resource="http://purl.org/dc/dcmitype/StillImage"/>
    <dc:date>2025-05-10T21:37:28.498364</dc:date>
    <dc:format>image/svg+xml</dc:format>
    <dc:creator>
     <cc:Agent>
      <dc:title>Matplotlib v3.10.1, https://matplotlib.org/</dc:title>
     </cc:Agent>
    </dc:creator>
   </cc:Work>
  </rdf:RDF>
 </metadata>
 <defs>
  <style type="text/css">*{stroke-linejoin: round; stroke-linecap: butt}</style>
 </defs>
 <g id="figure_1">
  <g id="patch_1">
   <path d="M 0 279.194375 
L 567.982815 279.194375 
L 567.982815 0 
L 0 0 
z
" style="fill: #ffffff"/>
  </g>
  <g id="axes_1">
   <g id="patch_2">
    <path d="M 41.003125 241.238125 
L 448.575125 241.238125 
L 448.575125 22.798125 
L 41.003125 22.798125 
z
" style="fill: #ffffff"/>
   </g>
   <g id="patch_3">
    <path d="M 59.529125 241.238125 
L 71.291665 241.238125 
L 71.291665 189.228601 
L 59.529125 189.228601 
z
" clip-path="url(#pab191b7978)" style="fill: url(#h598de64bf2); opacity: 0.8; stroke: #000000; stroke-width: 0.5; stroke-linejoin: miter"/>
   </g>
   <g id="patch_4">
    <path d="M 191.857696 241.238125 
L 203.620236 241.238125 
L 203.620236 189.228601 
L 191.857696 189.228601 
z
" clip-path="url(#pab191b7978)" style="fill: url(#h598de64bf2); opacity: 0.8; stroke: #000000; stroke-width: 0.5; stroke-linejoin: miter"/>
   </g>
   <g id="patch_5">
    <path d="M 324.186268 241.238125 
L 335.948808 241.238125 
L 335.948808 189.228601 
L 324.186268 189.228601 
z
" clip-path="url(#pab191b7978)" style="fill: url(#h598de64bf2); opacity: 0.8; stroke: #000000; stroke-width: 0.5; stroke-linejoin: miter"/>
   </g>
   <g id="patch_6">
    <path d="M 71.291665 241.238125 
L 83.054204 241.238125 
L 83.054204 137.219077 
L 71.291665 137.219077 
z
" clip-path="url(#pab191b7978)" style="fill: #0000ff; opacity: 0.8; stroke: #000000; stroke-width: 0.5; stroke-linejoin: miter"/>
   </g>
   <g id="patch_7">
    <path d="M 203.620236 241.238125 
L 215.382776 241.238125 
L 215.382776 137.219077 
L 203.620236 137.219077 
z
" clip-path="url(#pab191b7978)" style="fill: #0000ff; opacity: 0.8; stroke: #000000; stroke-width: 0.5; stroke-linejoin: miter"/>
   </g>
   <g id="patch_8">
    <path d="M 335.948808 241.238125 
L 347.711347 241.238125 
L 347.711347 137.219077 
L 335.948808 137.219077 
z
" clip-path="url(#pab191b7978)" style="fill: #0000ff; opacity: 0.8; stroke: #000000; stroke-width: 0.5; stroke-linejoin: miter"/>
   </g>
   <g id="patch_9">
    <path d="M 83.054204 241.238125 
L 94.816744 241.238125 
L 94.816744 33.20003 
L 83.054204 33.20003 
z
" clip-path="url(#pab191b7978)" style="fill: url(#h8ca0273dfe); opacity: 0.8; stroke: #000000; stroke-width: 0.5; stroke-linejoin: miter"/>
   </g>
   <g id="patch_10">
    <path d="M 215.382776 241.238125 
L 227.145315 241.238125 
L 227.145315 33.20003 
L 215.382776 33.20003 
z
" clip-path="url(#pab191b7978)" style="fill: url(#h8ca0273dfe); opacity: 0.8; stroke: #000000; stroke-width: 0.5; stroke-linejoin: miter"/>
   </g>
   <g id="patch_11">
    <path d="M 347.711347 241.238125 
L 359.473887 241.238125 
L 359.473887 33.20003 
L 347.711347 33.20003 
z
" clip-path="url(#pab191b7978)" style="fill: url(#h8ca0273dfe); opacity: 0.8; stroke: #000000; stroke-width: 0.5; stroke-linejoin: miter"/>
   </g>
   <g id="patch_12">
    <path d="M 94.816744 241.238125 
L 106.579284 241.238125 
L 106.579284 189.228601 
L 94.816744 189.228601 
z
" clip-path="url(#pab191b7978)" style="fill: url(#h9b38d9dea9); opacity: 0.8; stroke: #000000; stroke-width: 0.5; stroke-linejoin: miter"/>
   </g>
   <g id="patch_13">
    <path d="M 227.145315 241.238125 
L 238.907855 241.238125 
L 238.907855 189.228601 
L 227.145315 189.228601 
z
" clip-path="url(#pab191b7978)" style="fill: url(#h9b38d9dea9); opacity: 0.8; stroke: #000000; stroke-width: 0.5; stroke-linejoin: miter"/>
   </g>
   <g id="patch_14">
    <path d="M 359.473887 241.238125 
L 371.236427 241.238125 
L 371.236427 189.228601 
L 359.473887 189.228601 
z
" clip-path="url(#pab191b7978)" style="fill: url(#h9b38d9dea9); opacity: 0.8; stroke: #000000; stroke-width: 0.5; stroke-linejoin: miter"/>
   </g>
   <g id="patch_15">
    <path d="M 106.579284 241.238125 
L 118.341823 241.238125 
L 118.341823 137.219077 
L 106.579284 137.219077 
z
" clip-path="url(#pab191b7978)" style="fill: #ff0000; opacity: 0.8; stroke: #000000; stroke-width: 0.5; stroke-linejoin: miter"/>
   </g>
   <g id="patch_16">
    <path d="M 238.907855 241.238125 
L 250.670395 241.238125 
L 250.670395 137.219077 
L 238.907855 137.219077 
z
" clip-path="url(#pab191b7978)" style="fill: #ff0000; opacity: 0.8; stroke: #000000; stroke-width: 0.5; stroke-linejoin: miter"/>
   </g>
   <g id="patch_17">
    <path d="M 371.236427 241.238125 
L 382.998966 241.238125 
L 382.998966 137.219077 
L 371.236427 137.219077 
z
" clip-path="url(#pab191b7978)" style="fill: #ff0000; opacity: 0.8; stroke: #000000; stroke-width: 0.5; stroke-linejoin: miter"/>
   </g>
   <g id="patch_18">
    <path d="M 118.341823 241.238125 
L 130.104363 241.238125 
L 130.104363 33.20003 
L 118.341823 33.20003 
z
" clip-path="url(#pab191b7978)" style="fill: url(#h04165fbbb9); opacity: 0.8; stroke: #000000; stroke-width: 0.5; stroke-linejoin: miter"/>
   </g>
   <g id="patch_19">
    <path d="M 250.670395 241.238125 
L 262.432935 241.238125 
L 262.432935 33.20003 
L 250.670395 33.20003 
z
" clip-path="url(#pab191b7978)" style="fill: url(#h04165fbbb9); opacity: 0.8; stroke: #000000; stroke-width: 0.5; stroke-linejoin: miter"/>
   </g>
   <g id="patch_20">
    <path d="M 382.998966 241.238125 
L 394.761506 241.238125 
L 394.761506 33.20003 
L 382.998966 33.20003 
z
" clip-path="url(#pab191b7978)" style="fill: url(#h04165fbbb9); opacity: 0.8; stroke: #000000; stroke-width: 0.5; stroke-linejoin: miter"/>
   </g>
   <g id="patch_21">
    <path d="M 130.104363 241.238125 
L 141.866903 241.238125 
L 141.866903 189.228601 
L 130.104363 189.228601 
z
" clip-path="url(#pab191b7978)" style="fill: url(#ha81b1a1163); opacity: 0.8; stroke: #000000; stroke-width: 0.5; stroke-linejoin: miter"/>
   </g>
   <g id="patch_22">
    <path d="M 262.432935 241.238125 
L 274.195474 241.238125 
L 274.195474 189.228601 
L 262.432935 189.228601 
z
" clip-path="url(#pab191b7978)" style="fill: url(#ha81b1a1163); opacity: 0.8; stroke: #000000; stroke-width: 0.5; stroke-linejoin: miter"/>
   </g>
   <g id="patch_23">
    <path d="M 394.761506 241.238125 
L 406.524046 241.238125 
L 406.524046 189.228601 
L 394.761506 189.228601 
z
" clip-path="url(#pab191b7978)" style="fill: url(#ha81b1a1163); opacity: 0.8; stroke: #000000; stroke-width: 0.5; stroke-linejoin: miter"/>
   </g>
   <g id="patch_24">
    <path d="M 141.866903 241.238125 
L 153.629442 241.238125 
L 153.629442 137.219077 
L 141.866903 137.219077 
z
" clip-path="url(#pab191b7978)" style="fill: #008000; opacity: 0.8; stroke: #000000; stroke-width: 0.5; stroke-linejoin: miter"/>
   </g>
   <g id="patch_25">
    <path d="M 274.195474 241.238125 
L 285.958014 241.238125 
L 285.958014 137.219077 
L 274.195474 137.219077 
z
" clip-path="url(#pab191b7978)" style="fill: #008000; opacity: 0.8; stroke: #000000; stroke-width: 0.5; stroke-linejoin: miter"/>
   </g>
   <g id="patch_26">
    <path d="M 406.524046 241.238125 
L 418.286585 241.238125 
L 418.286585 137.219077 
L 406.524046 137.219077 
z
" clip-path="url(#pab191b7978)" style="fill: #008000; opacity: 0.8; stroke: #000000; stroke-width: 0.5; stroke-linejoin: miter"/>
   </g>
   <g id="patch_27">
    <path d="M 153.629442 241.238125 
L 165.391982 241.238125 
L 165.391982 33.20003 
L 153.629442 33.20003 
z
" clip-path="url(#pab191b7978)" style="fill: url(#h7ca753097b); opacity: 0.8; stroke: #000000; stroke-width: 0.5; stroke-linejoin: miter"/>
   </g>
   <g id="patch_28">
    <path d="M 285.958014 241.238125 
L 297.720554 241.238125 
L 297.720554 33.20003 
L 285.958014 33.20003 
z
" clip-path="url(#pab191b7978)" style="fill: url(#h7ca753097b); opacity: 0.8; stroke: #000000; stroke-width: 0.5; stroke-linejoin: miter"/>
   </g>
   <g id="patch_29">
    <path d="M 418.286585 241.238125 
L 430.049125 241.238125 
L 430.049125 33.20003 
L 418.286585 33.20003 
z
" clip-path="url(#pab191b7978)" style="fill: url(#h7ca753097b); opacity: 0.8; stroke: #000000; stroke-width: 0.5; stroke-linejoin: miter"/>
   </g>
   <g id="matplotlib.axis_1">
    <g id="xtick_1">
     <g id="line2d_1">
      <defs>
       <path id="mc3097fe5a0" d="M 0 0 
L 0 3.5 
" style="stroke: #000000; stroke-width: 0.8"/>
      </defs>
      <g>
       <use xlink:href="#mc3097fe5a0" x="112.460554" y="241.238125" style="stroke: #000000; stroke-width: 0.8"/>
      </g>
     </g>
     <g id="text_1">
      <!-- 300x300 -->
      <g transform="translate(90.413679 255.836563) scale(0.1 -0.1)">
       <defs>
        <path id="DejaVuSans-33" d="M 2597 2516 
Q 3050 2419 3304 2112 
Q 3559 1806 3559 1356 
Q 3559 666 3084 287 
Q 2609 -91 1734 -91 
Q 1441 -91 1130 -33 
Q 819 25 488 141 
L 488 750 
Q 750 597 1062 519 
Q 1375 441 1716 441 
Q 2309 441 2620 675 
Q 2931 909 2931 1356 
Q 2931 1769 2642 2001 
Q 2353 2234 1838 2234 
L 1294 2234 
L 1294 2753 
L 1863 2753 
Q 2328 2753 2575 2939 
Q 2822 3125 2822 3475 
Q 2822 3834 2567 4026 
Q 2313 4219 1838 4219 
Q 1578 4219 1281 4162 
Q 984 4106 628 3988 
L 628 4550 
Q 988 4650 1302 4700 
Q 1616 4750 1894 4750 
Q 2613 4750 3031 4423 
Q 3450 4097 3450 3541 
Q 3450 3153 3228 2886 
Q 3006 2619 2597 2516 
z
" transform="scale(0.015625)"/>
        <path id="DejaVuSans-30" d="M 2034 4250 
Q 1547 4250 1301 3770 
Q 1056 3291 1056 2328 
Q 1056 1369 1301 889 
Q 1547 409 2034 409 
Q 2525 409 2770 889 
Q 3016 1369 3016 2328 
Q 3016 3291 2770 3770 
Q 2525 4250 2034 4250 
z
M 2034 4750 
Q 2819 4750 3233 4129 
Q 3647 3509 3647 2328 
Q 3647 1150 3233 529 
Q 2819 -91 2034 -91 
Q 1250 -91 836 529 
Q 422 1150 422 2328 
Q 422 3509 836 4129 
Q 1250 4750 2034 4750 
z
" transform="scale(0.015625)"/>
        <path id="DejaVuSans-78" d="M 3513 3500 
L 2247 1797 
L 3578 0 
L 2900 0 
L 1881 1375 
L 863 0 
L 184 0 
L 1544 1831 
L 300 3500 
L 978 3500 
L 1906 2253 
L 2834 3500 
L 3513 3500 
z
" transform="scale(0.015625)"/>
       </defs>
       <use xlink:href="#DejaVuSans-33"/>
       <use xlink:href="#DejaVuSans-30" transform="translate(63.623047 0)"/>
       <use xlink:href="#DejaVuSans-30" transform="translate(127.246094 0)"/>
       <use xlink:href="#DejaVuSans-78" transform="translate(190.869141 0)"/>
       <use xlink:href="#DejaVuSans-33" transform="translate(250.048828 0)"/>
       <use xlink:href="#DejaVuSans-30" transform="translate(313.671875 0)"/>
       <use xlink:href="#DejaVuSans-30" transform="translate(377.294922 0)"/>
      </g>
     </g>
    </g>
    <g id="xtick_2">
     <g id="line2d_2">
      <g>
       <use xlink:href="#mc3097fe5a0" x="244.789125" y="241.238125" style="stroke: #000000; stroke-width: 0.8"/>
      </g>
     </g>
     <g id="text_2">
      <!-- 400x400 -->
      <g transform="translate(222.74225 255.836563) scale(0.1 -0.1)">
       <defs>
        <path id="DejaVuSans-34" d="M 2419 4116 
L 825 1625 
L 2419 1625 
L 2419 4116 
z
M 2253 4666 
L 3047 4666 
L 3047 1625 
L 3713 1625 
L 3713 1100 
L 3047 1100 
L 3047 0 
L 2419 0 
L 2419 1100 
L 313 1100 
L 313 1709 
L 2253 4666 
z
" transform="scale(0.015625)"/>
       </defs>
       <use xlink:href="#DejaVuSans-34"/>
       <use xlink:href="#DejaVuSans-30" transform="translate(63.623047 0)"/>
       <use xlink:href="#DejaVuSans-30" transform="translate(127.246094 0)"/>
       <use xlink:href="#DejaVuSans-78" transform="translate(190.869141 0)"/>
       <use xlink:href="#DejaVuSans-34" transform="translate(250.048828 0)"/>
       <use xlink:href="#DejaVuSans-30" transform="translate(313.671875 0)"/>
       <use xlink:href="#DejaVuSans-30" transform="translate(377.294922 0)"/>
      </g>
     </g>
    </g>
    <g id="xtick_3">
     <g id="line2d_3">
      <g>
       <use xlink:href="#mc3097fe5a0" x="377.117696" y="241.238125" style="stroke: #000000; stroke-width: 0.8"/>
      </g>
     </g>
     <g id="text_3">
      <!-- 500x500 -->
      <g transform="translate(355.070821 255.836563) scale(0.1 -0.1)">
       <defs>
        <path id="DejaVuSans-35" d="M 691 4666 
L 3169 4666 
L 3169 4134 
L 1269 4134 
L 1269 2991 
Q 1406 3038 1543 3061 
Q 1681 3084 1819 3084 
Q 2600 3084 3056 2656 
Q 3513 2228 3513 1497 
Q 3513 744 3044 326 
Q 2575 -91 1722 -91 
Q 1428 -91 1123 -41 
Q 819 9 494 109 
L 494 744 
Q 775 591 1075 516 
Q 1375 441 1709 441 
Q 2250 441 2565 725 
Q 2881 1009 2881 1497 
Q 2881 1984 2565 2268 
Q 2250 2553 1709 2553 
Q 1456 2553 1204 2497 
Q 953 2441 691 2322 
L 691 4666 
z
" transform="scale(0.015625)"/>
       </defs>
       <use xlink:href="#DejaVuSans-35"/>
       <use xlink:href="#DejaVuSans-30" transform="translate(63.623047 0)"/>
       <use xlink:href="#DejaVuSans-30" transform="translate(127.246094 0)"/>
       <use xlink:href="#DejaVuSans-78" transform="translate(190.869141 0)"/>
       <use xlink:href="#DejaVuSans-35" transform="translate(250.048828 0)"/>
       <use xlink:href="#DejaVuSans-30" transform="translate(313.671875 0)"/>
       <use xlink:href="#DejaVuSans-30" transform="translate(377.294922 0)"/>
      </g>
     </g>
    </g>
    <g id="text_4">
     <!-- Kombinacje węzłów i zadań -->
     <g transform="translate(176.208656 269.914688) scale(0.1 -0.1)">
      <defs>
       <path id="DejaVuSans-4b" d="M 628 4666 
L 1259 4666 
L 1259 2694 
L 3353 4666 
L 4166 4666 
L 1850 2491 
L 4331 0 
L 3500 0 
L 1259 2247 
L 1259 0 
L 628 0 
L 628 4666 
z
" transform="scale(0.015625)"/>
       <path id="DejaVuSans-6f" d="M 1959 3097 
Q 1497 3097 1228 2736 
Q 959 2375 959 1747 
Q 959 1119 1226 758 
Q 1494 397 1959 397 
Q 2419 397 2687 759 
Q 2956 1122 2956 1747 
Q 2956 2369 2687 2733 
Q 2419 3097 1959 3097 
z
M 1959 3584 
Q 2709 3584 3137 3096 
Q 3566 2609 3566 1747 
Q 3566 888 3137 398 
Q 2709 -91 1959 -91 
Q 1206 -91 779 398 
Q 353 888 353 1747 
Q 353 2609 779 3096 
Q 1206 3584 1959 3584 
z
" transform="scale(0.015625)"/>
       <path id="DejaVuSans-6d" d="M 3328 2828 
Q 3544 3216 3844 3400 
Q 4144 3584 4550 3584 
Q 5097 3584 5394 3201 
Q 5691 2819 5691 2113 
L 5691 0 
L 5113 0 
L 5113 2094 
Q 5113 2597 4934 2840 
Q 4756 3084 4391 3084 
Q 3944 3084 3684 2787 
Q 3425 2491 3425 1978 
L 3425 0 
L 2847 0 
L 2847 2094 
Q 2847 2600 2669 2842 
Q 2491 3084 2119 3084 
Q 1678 3084 1418 2786 
Q 1159 2488 1159 1978 
L 1159 0 
L 581 0 
L 581 3500 
L 1159 3500 
L 1159 2956 
Q 1356 3278 1631 3431 
Q 1906 3584 2284 3584 
Q 2666 3584 2933 3390 
Q 3200 3197 3328 2828 
z
" transform="scale(0.015625)"/>
       <path id="DejaVuSans-62" d="M 3116 1747 
Q 3116 2381 2855 2742 
Q 2594 3103 2138 3103 
Q 1681 3103 1420 2742 
Q 1159 2381 1159 1747 
Q 1159 1113 1420 752 
Q 1681 391 2138 391 
Q 2594 391 2855 752 
Q 3116 1113 3116 1747 
z
M 1159 2969 
Q 1341 3281 1617 3432 
Q 1894 3584 2278 3584 
Q 2916 3584 3314 3078 
Q 3713 2572 3713 1747 
Q 3713 922 3314 415 
Q 2916 -91 2278 -91 
Q 1894 -91 1617 61 
Q 1341 213 1159 525 
L 1159 0 
L 581 0 
L 581 4863 
L 1159 4863 
L 1159 2969 
z
" transform="scale(0.015625)"/>
       <path id="DejaVuSans-69" d="M 603 3500 
L 1178 3500 
L 1178 0 
L 603 0 
L 603 3500 
z
M 603 4863 
L 1178 4863 
L 1178 4134 
L 603 4134 
L 603 4863 
z
" transform="scale(0.015625)"/>
       <path id="DejaVuSans-6e" d="M 3513 2113 
L 3513 0 
L 2938 0 
L 2938 2094 
Q 2938 2591 2744 2837 
Q 2550 3084 2163 3084 
Q 1697 3084 1428 2787 
Q 1159 2491 1159 1978 
L 1159 0 
L 581 0 
L 581 3500 
L 1159 3500 
L 1159 2956 
Q 1366 3272 1645 3428 
Q 1925 3584 2291 3584 
Q 2894 3584 3203 3211 
Q 3513 2838 3513 2113 
z
" transform="scale(0.015625)"/>
       <path id="DejaVuSans-61" d="M 2194 1759 
Q 1497 1759 1228 1600 
Q 959 1441 959 1056 
Q 959 750 1161 570 
Q 1363 391 1709 391 
Q 2188 391 2477 730 
Q 2766 1069 2766 1631 
L 2766 1759 
L 2194 1759 
z
M 3341 1997 
L 3341 0 
L 2766 0 
L 2766 531 
Q 2569 213 2275 61 
Q 1981 -91 1556 -91 
Q 1019 -91 701 211 
Q 384 513 384 1019 
Q 384 1609 779 1909 
Q 1175 2209 1959 2209 
L 2766 2209 
L 2766 2266 
Q 2766 2663 2505 2880 
Q 2244 3097 1772 3097 
Q 1472 3097 1187 3025 
Q 903 2953 641 2809 
L 641 3341 
Q 956 3463 1253 3523 
Q 1550 3584 1831 3584 
Q 2591 3584 2966 3190 
Q 3341 2797 3341 1997 
z
" transform="scale(0.015625)"/>
       <path id="DejaVuSans-63" d="M 3122 3366 
L 3122 2828 
Q 2878 2963 2633 3030 
Q 2388 3097 2138 3097 
Q 1578 3097 1268 2742 
Q 959 2388 959 1747 
Q 959 1106 1268 751 
Q 1578 397 2138 397 
Q 2388 397 2633 464 
Q 2878 531 3122 666 
L 3122 134 
Q 2881 22 2623 -34 
Q 2366 -91 2075 -91 
Q 1284 -91 818 406 
Q 353 903 353 1747 
Q 353 2603 823 3093 
Q 1294 3584 2113 3584 
Q 2378 3584 2631 3529 
Q 2884 3475 3122 3366 
z
" transform="scale(0.015625)"/>
       <path id="DejaVuSans-6a" d="M 603 3500 
L 1178 3500 
L 1178 -63 
Q 1178 -731 923 -1031 
Q 669 -1331 103 -1331 
L -116 -1331 
L -116 -844 
L 38 -844 
Q 366 -844 484 -692 
Q 603 -541 603 -63 
L 603 3500 
z
M 603 4863 
L 1178 4863 
L 1178 4134 
L 603 4134 
L 603 4863 
z
" transform="scale(0.015625)"/>
       <path id="DejaVuSans-65" d="M 3597 1894 
L 3597 1613 
L 953 1613 
Q 991 1019 1311 708 
Q 1631 397 2203 397 
Q 2534 397 2845 478 
Q 3156 559 3463 722 
L 3463 178 
Q 3153 47 2828 -22 
Q 2503 -91 2169 -91 
Q 1331 -91 842 396 
Q 353 884 353 1716 
Q 353 2575 817 3079 
Q 1281 3584 2069 3584 
Q 2775 3584 3186 3129 
Q 3597 2675 3597 1894 
z
M 3022 2063 
Q 3016 2534 2758 2815 
Q 2500 3097 2075 3097 
Q 1594 3097 1305 2825 
Q 1016 2553 972 2059 
L 3022 2063 
z
" transform="scale(0.015625)"/>
       <path id="DejaVuSans-20" transform="scale(0.015625)"/>
       <path id="DejaVuSans-77" d="M 269 3500 
L 844 3500 
L 1563 769 
L 2278 3500 
L 2956 3500 
L 3675 769 
L 4391 3500 
L 4966 3500 
L 4050 0 
L 3372 0 
L 2619 2869 
L 1863 0 
L 1184 0 
L 269 3500 
z
" transform="scale(0.015625)"/>
       <path id="DejaVuSans-119" d="M 3597 1894 
L 3597 1613 
L 953 1613 
Q 991 1019 1311 708 
Q 1631 397 2203 397 
Q 2534 397 2845 478 
Q 3156 559 3463 722 
L 3463 178 
Q 3153 47 2828 -22 
Q 2503 -91 2169 -91 
Q 1331 -91 842 396 
Q 353 884 353 1716 
Q 353 2575 817 3079 
Q 1281 3584 2069 3584 
Q 2775 3584 3186 3129 
Q 3597 2675 3597 1894 
z
M 3022 2063 
Q 3016 2534 2758 2815 
Q 2500 3097 2075 3097 
Q 1594 3097 1305 2825 
Q 1016 2553 972 2059 
L 3022 2063 
z
M 2551 0 
L 2923 0 
Q 2782 -191 2715 -328 
Q 2648 -466 2648 -563 
Q 2648 -706 2734 -778 
Q 2820 -850 2989 -850 
Q 3089 -850 3185 -826 
Q 3282 -803 3379 -756 
L 3379 -1172 
Q 3260 -1203 3154 -1218 
Q 3048 -1234 2954 -1234 
Q 2573 -1234 2393 -1098 
Q 2214 -963 2214 -672 
Q 2214 -522 2296 -358 
Q 2379 -194 2551 0 
z
" transform="scale(0.015625)"/>
       <path id="DejaVuSans-7a" d="M 353 3500 
L 3084 3500 
L 3084 2975 
L 922 459 
L 3084 459 
L 3084 0 
L 275 0 
L 275 525 
L 2438 3041 
L 353 3041 
L 353 3500 
z
" transform="scale(0.015625)"/>
       <path id="DejaVuSans-142" d="M 622 4863 
L 1197 4863 
L 1197 2981 
L 1588 3263 
L 1825 2931 
L 1197 2491 
L 1197 0 
L 622 0 
L 622 2081 
L 238 1806 
L 6 2138 
L 622 2578 
L 622 4863 
z
" transform="scale(0.015625)"/>
       <path id="DejaVuSans-f3" d="M 1959 3097 
Q 1497 3097 1228 2736 
Q 959 2375 959 1747 
Q 959 1119 1226 758 
Q 1494 397 1959 397 
Q 2419 397 2687 759 
Q 2956 1122 2956 1747 
Q 2956 2369 2687 2733 
Q 2419 3097 1959 3097 
z
M 1959 3584 
Q 2709 3584 3137 3096 
Q 3566 2609 3566 1747 
Q 3566 888 3137 398 
Q 2709 -91 1959 -91 
Q 1206 -91 779 398 
Q 353 888 353 1747 
Q 353 2609 779 3096 
Q 1206 3584 1959 3584 
z
M 2394 5119 
L 3016 5119 
L 1998 3944 
L 1519 3944 
L 2394 5119 
z
" transform="scale(0.015625)"/>
       <path id="DejaVuSans-64" d="M 2906 2969 
L 2906 4863 
L 3481 4863 
L 3481 0 
L 2906 0 
L 2906 525 
Q 2725 213 2448 61 
Q 2172 -91 1784 -91 
Q 1150 -91 751 415 
Q 353 922 353 1747 
Q 353 2572 751 3078 
Q 1150 3584 1784 3584 
Q 2172 3584 2448 3432 
Q 2725 3281 2906 2969 
z
M 947 1747 
Q 947 1113 1208 752 
Q 1469 391 1925 391 
Q 2381 391 2643 752 
Q 2906 1113 2906 1747 
Q 2906 2381 2643 2742 
Q 2381 3103 1925 3103 
Q 1469 3103 1208 2742 
Q 947 2381 947 1747 
z
" transform="scale(0.015625)"/>
       <path id="DejaVuSans-144" d="M 2242 5119 
L 2864 5119 
L 1846 3944 
L 1367 3944 
L 2242 5119 
z
M 3513 2113 
L 3513 0 
L 2938 0 
L 2938 2094 
Q 2938 2591 2744 2837 
Q 2550 3084 2163 3084 
Q 1697 3084 1428 2787 
Q 1159 2491 1159 1978 
L 1159 0 
L 581 0 
L 581 3500 
L 1159 3500 
L 1159 2956 
Q 1366 3272 1645 3428 
Q 1925 3584 2291 3584 
Q 2894 3584 3203 3211 
Q 3513 2838 3513 2113 
z
" transform="scale(0.015625)"/>
      </defs>
      <use xlink:href="#DejaVuSans-4b"/>
      <use xlink:href="#DejaVuSans-6f" transform="translate(60.576172 0)"/>
      <use xlink:href="#DejaVuSans-6d" transform="translate(121.757812 0)"/>
      <use xlink:href="#DejaVuSans-62" transform="translate(219.169922 0)"/>
      <use xlink:href="#DejaVuSans-69" transform="translate(282.646484 0)"/>
      <use xlink:href="#DejaVuSans-6e" transform="translate(310.429688 0)"/>
      <use xlink:href="#DejaVuSans-61" transform="translate(373.808594 0)"/>
      <use xlink:href="#DejaVuSans-63" transform="translate(435.087891 0)"/>
      <use xlink:href="#DejaVuSans-6a" transform="translate(490.068359 0)"/>
      <use xlink:href="#DejaVuSans-65" transform="translate(517.851562 0)"/>
      <use xlink:href="#DejaVuSans-20" transform="translate(579.375 0)"/>
      <use xlink:href="#DejaVuSans-77" transform="translate(611.162109 0)"/>
      <use xlink:href="#DejaVuSans-119" transform="translate(692.949219 0)"/>
      <use xlink:href="#DejaVuSans-7a" transform="translate(754.472656 0)"/>
      <use xlink:href="#DejaVuSans-142" transform="translate(806.962891 0)"/>
      <use xlink:href="#DejaVuSans-f3" transform="translate(835.380859 0)"/>
      <use xlink:href="#DejaVuSans-77" transform="translate(896.5625 0)"/>
      <use xlink:href="#DejaVuSans-20" transform="translate(978.349609 0)"/>
      <use xlink:href="#DejaVuSans-69" transform="translate(1010.136719 0)"/>
      <use xlink:href="#DejaVuSans-20" transform="translate(1037.919922 0)"/>
      <use xlink:href="#DejaVuSans-7a" transform="translate(1069.707031 0)"/>
      <use xlink:href="#DejaVuSans-61" transform="translate(1122.197266 0)"/>
      <use xlink:href="#DejaVuSans-64" transform="translate(1183.476562 0)"/>
      <use xlink:href="#DejaVuSans-61" transform="translate(1246.953125 0)"/>
      <use xlink:href="#DejaVuSans-144" transform="translate(1308.232422 0)"/>
     </g>
    </g>
   </g>
   <g id="matplotlib.axis_2">
    <g id="ytick_1">
     <g id="line2d_4">
      <defs>
       <path id="m644f62311f" d="M 0 0 
L -3.5 0 
" style="stroke: #000000; stroke-width: 0.8"/>
      </defs>
      <g>
       <use xlink:href="#m644f62311f" x="41.003125" y="241.238125" style="stroke: #000000; stroke-width: 0.8"/>
      </g>
     </g>
     <g id="text_5">
      <!-- 0 -->
      <g transform="translate(27.640625 245.037344) scale(0.1 -0.1)">
       <use xlink:href="#DejaVuSans-30"/>
      </g>
     </g>
    </g>
    <g id="ytick_2">
     <g id="line2d_5">
      <g>
       <use xlink:href="#m644f62311f" x="41.003125" y="199.630506" style="stroke: #000000; stroke-width: 0.8"/>
      </g>
     </g>
     <g id="text_6">
      <!-- 10 -->
      <g transform="translate(21.278125 203.429725) scale(0.1 -0.1)">
       <defs>
        <path id="DejaVuSans-31" d="M 794 531 
L 1825 531 
L 1825 4091 
L 703 3866 
L 703 4441 
L 1819 4666 
L 2450 4666 
L 2450 531 
L 3481 531 
L 3481 0 
L 794 0 
L 794 531 
z
" transform="scale(0.015625)"/>
       </defs>
       <use xlink:href="#DejaVuSans-31"/>
       <use xlink:href="#DejaVuSans-30" transform="translate(63.623047 0)"/>
      </g>
     </g>
    </g>
    <g id="ytick_3">
     <g id="line2d_6">
      <g>
       <use xlink:href="#m644f62311f" x="41.003125" y="158.022887" style="stroke: #000000; stroke-width: 0.8"/>
      </g>
     </g>
     <g id="text_7">
      <!-- 20 -->
      <g transform="translate(21.278125 161.822106) scale(0.1 -0.1)">
       <defs>
        <path id="DejaVuSans-32" d="M 1228 531 
L 3431 531 
L 3431 0 
L 469 0 
L 469 531 
Q 828 903 1448 1529 
Q 2069 2156 2228 2338 
Q 2531 2678 2651 2914 
Q 2772 3150 2772 3378 
Q 2772 3750 2511 3984 
Q 2250 4219 1831 4219 
Q 1534 4219 1204 4116 
Q 875 4013 500 3803 
L 500 4441 
Q 881 4594 1212 4672 
Q 1544 4750 1819 4750 
Q 2544 4750 2975 4387 
Q 3406 4025 3406 3419 
Q 3406 3131 3298 2873 
Q 3191 2616 2906 2266 
Q 2828 2175 2409 1742 
Q 1991 1309 1228 531 
z
" transform="scale(0.015625)"/>
       </defs>
       <use xlink:href="#DejaVuSans-32"/>
       <use xlink:href="#DejaVuSans-30" transform="translate(63.623047 0)"/>
      </g>
     </g>
    </g>
    <g id="ytick_4">
     <g id="line2d_7">
      <g>
       <use xlink:href="#m644f62311f" x="41.003125" y="116.415268" style="stroke: #000000; stroke-width: 0.8"/>
      </g>
     </g>
     <g id="text_8">
      <!-- 30 -->
      <g transform="translate(21.278125 120.214487) scale(0.1 -0.1)">
       <use xlink:href="#DejaVuSans-33"/>
       <use xlink:href="#DejaVuSans-30" transform="translate(63.623047 0)"/>
      </g>
     </g>
    </g>
    <g id="ytick_5">
     <g id="line2d_8">
      <g>
       <use xlink:href="#m644f62311f" x="41.003125" y="74.807649" style="stroke: #000000; stroke-width: 0.8"/>
      </g>
     </g>
     <g id="text_9">
      <!-- 40 -->
      <g transform="translate(21.278125 78.606868) scale(0.1 -0.1)">
       <use xlink:href="#DejaVuSans-34"/>
       <use xlink:href="#DejaVuSans-30" transform="translate(63.623047 0)"/>
      </g>
     </g>
    </g>
    <g id="ytick_6">
     <g id="line2d_9">
      <g>
       <use xlink:href="#m644f62311f" x="41.003125" y="33.20003" style="stroke: #000000; stroke-width: 0.8"/>
      </g>
     </g>
     <g id="text_10">
      <!-- 50 -->
      <g transform="translate(21.278125 36.999249) scale(0.1 -0.1)">
       <use xlink:href="#DejaVuSans-35"/>
       <use xlink:href="#DejaVuSans-30" transform="translate(63.623047 0)"/>
      </g>
     </g>
    </g>
    <g id="text_11">
     <!-- Wykorzystanie zasobów (%) -->
     <g transform="translate(15.198437 202.015) rotate(-90) scale(0.1 -0.1)">
      <defs>
       <path id="DejaVuSans-57" d="M 213 4666 
L 850 4666 
L 1831 722 
L 2809 4666 
L 3519 4666 
L 4500 722 
L 5478 4666 
L 6119 4666 
L 4947 0 
L 4153 0 
L 3169 4050 
L 2175 0 
L 1381 0 
L 213 4666 
z
" transform="scale(0.015625)"/>
       <path id="DejaVuSans-79" d="M 2059 -325 
Q 1816 -950 1584 -1140 
Q 1353 -1331 966 -1331 
L 506 -1331 
L 506 -850 
L 844 -850 
Q 1081 -850 1212 -737 
Q 1344 -625 1503 -206 
L 1606 56 
L 191 3500 
L 800 3500 
L 1894 763 
L 2988 3500 
L 3597 3500 
L 2059 -325 
z
" transform="scale(0.015625)"/>
       <path id="DejaVuSans-6b" d="M 581 4863 
L 1159 4863 
L 1159 1991 
L 2875 3500 
L 3609 3500 
L 1753 1863 
L 3688 0 
L 2938 0 
L 1159 1709 
L 1159 0 
L 581 0 
L 581 4863 
z
" transform="scale(0.015625)"/>
       <path id="DejaVuSans-72" d="M 2631 2963 
Q 2534 3019 2420 3045 
Q 2306 3072 2169 3072 
Q 1681 3072 1420 2755 
Q 1159 2438 1159 1844 
L 1159 0 
L 581 0 
L 581 3500 
L 1159 3500 
L 1159 2956 
Q 1341 3275 1631 3429 
Q 1922 3584 2338 3584 
Q 2397 3584 2469 3576 
Q 2541 3569 2628 3553 
L 2631 2963 
z
" transform="scale(0.015625)"/>
       <path id="DejaVuSans-73" d="M 2834 3397 
L 2834 2853 
Q 2591 2978 2328 3040 
Q 2066 3103 1784 3103 
Q 1356 3103 1142 2972 
Q 928 2841 928 2578 
Q 928 2378 1081 2264 
Q 1234 2150 1697 2047 
L 1894 2003 
Q 2506 1872 2764 1633 
Q 3022 1394 3022 966 
Q 3022 478 2636 193 
Q 2250 -91 1575 -91 
Q 1294 -91 989 -36 
Q 684 19 347 128 
L 347 722 
Q 666 556 975 473 
Q 1284 391 1588 391 
Q 1994 391 2212 530 
Q 2431 669 2431 922 
Q 2431 1156 2273 1281 
Q 2116 1406 1581 1522 
L 1381 1569 
Q 847 1681 609 1914 
Q 372 2147 372 2553 
Q 372 3047 722 3315 
Q 1072 3584 1716 3584 
Q 2034 3584 2315 3537 
Q 2597 3491 2834 3397 
z
" transform="scale(0.015625)"/>
       <path id="DejaVuSans-74" d="M 1172 4494 
L 1172 3500 
L 2356 3500 
L 2356 3053 
L 1172 3053 
L 1172 1153 
Q 1172 725 1289 603 
Q 1406 481 1766 481 
L 2356 481 
L 2356 0 
L 1766 0 
Q 1100 0 847 248 
Q 594 497 594 1153 
L 594 3053 
L 172 3053 
L 172 3500 
L 594 3500 
L 594 4494 
L 1172 4494 
z
" transform="scale(0.015625)"/>
       <path id="DejaVuSans-28" d="M 1984 4856 
Q 1566 4138 1362 3434 
Q 1159 2731 1159 2009 
Q 1159 1288 1364 580 
Q 1569 -128 1984 -844 
L 1484 -844 
Q 1016 -109 783 600 
Q 550 1309 550 2009 
Q 550 2706 781 3412 
Q 1013 4119 1484 4856 
L 1984 4856 
z
" transform="scale(0.015625)"/>
       <path id="DejaVuSans-25" d="M 4653 2053 
Q 4381 2053 4226 1822 
Q 4072 1591 4072 1178 
Q 4072 772 4226 539 
Q 4381 306 4653 306 
Q 4919 306 5073 539 
Q 5228 772 5228 1178 
Q 5228 1588 5073 1820 
Q 4919 2053 4653 2053 
z
M 4653 2450 
Q 5147 2450 5437 2106 
Q 5728 1763 5728 1178 
Q 5728 594 5436 251 
Q 5144 -91 4653 -91 
Q 4153 -91 3862 251 
Q 3572 594 3572 1178 
Q 3572 1766 3864 2108 
Q 4156 2450 4653 2450 
z
M 1428 4353 
Q 1159 4353 1004 4120 
Q 850 3888 850 3481 
Q 850 3069 1003 2837 
Q 1156 2606 1428 2606 
Q 1700 2606 1854 2837 
Q 2009 3069 2009 3481 
Q 2009 3884 1853 4118 
Q 1697 4353 1428 4353 
z
M 4250 4750 
L 4750 4750 
L 1831 -91 
L 1331 -91 
L 4250 4750 
z
M 1428 4750 
Q 1922 4750 2215 4408 
Q 2509 4066 2509 3481 
Q 2509 2891 2217 2550 
Q 1925 2209 1428 2209 
Q 931 2209 642 2551 
Q 353 2894 353 3481 
Q 353 4063 643 4406 
Q 934 4750 1428 4750 
z
" transform="scale(0.015625)"/>
       <path id="DejaVuSans-29" d="M 513 4856 
L 1013 4856 
Q 1481 4119 1714 3412 
Q 1947 2706 1947 2009 
Q 1947 1309 1714 600 
Q 1481 -109 1013 -844 
L 513 -844 
Q 928 -128 1133 580 
Q 1338 1288 1338 2009 
Q 1338 2731 1133 3434 
Q 928 4138 513 4856 
z
" transform="scale(0.015625)"/>
      </defs>
      <use xlink:href="#DejaVuSans-57"/>
      <use xlink:href="#DejaVuSans-79" transform="translate(97.126953 0)"/>
      <use xlink:href="#DejaVuSans-6b" transform="translate(156.306641 0)"/>
      <use xlink:href="#DejaVuSans-6f" transform="translate(210.591797 0)"/>
      <use xlink:href="#DejaVuSans-72" transform="translate(271.773438 0)"/>
      <use xlink:href="#DejaVuSans-7a" transform="translate(312.886719 0)"/>
      <use xlink:href="#DejaVuSans-79" transform="translate(365.376953 0)"/>
      <use xlink:href="#DejaVuSans-73" transform="translate(424.556641 0)"/>
      <use xlink:href="#DejaVuSans-74" transform="translate(476.65625 0)"/>
      <use xlink:href="#DejaVuSans-61" transform="translate(515.865234 0)"/>
      <use xlink:href="#DejaVuSans-6e" transform="translate(577.144531 0)"/>
      <use xlink:href="#DejaVuSans-69" transform="translate(640.523438 0)"/>
      <use xlink:href="#DejaVuSans-65" transform="translate(668.306641 0)"/>
      <use xlink:href="#DejaVuSans-20" transform="translate(729.830078 0)"/>
      <use xlink:href="#DejaVuSans-7a" transform="translate(761.617188 0)"/>
      <use xlink:href="#DejaVuSans-61" transform="translate(814.107422 0)"/>
      <use xlink:href="#DejaVuSans-73" transform="translate(875.386719 0)"/>
      <use xlink:href="#DejaVuSans-6f" transform="translate(927.486328 0)"/>
      <use xlink:href="#DejaVuSans-62" transform="translate(988.667969 0)"/>
      <use xlink:href="#DejaVuSans-f3" transform="translate(1052.144531 0)"/>
      <use xlink:href="#DejaVuSans-77" transform="translate(1113.326172 0)"/>
      <use xlink:href="#DejaVuSans-20" transform="translate(1195.113281 0)"/>
      <use xlink:href="#DejaVuSans-28" transform="translate(1226.900391 0)"/>
      <use xlink:href="#DejaVuSans-25" transform="translate(1265.914062 0)"/>
      <use xlink:href="#DejaVuSans-29" transform="translate(1360.933594 0)"/>
     </g>
    </g>
   </g>
   <g id="LineCollection_1">
    <path d="M 65.410395 189.228601 
L 65.410395 189.228601 
" clip-path="url(#pab191b7978)" style="fill: none; stroke: #000000; stroke-width: 1.5"/>
    <path d="M 197.738966 189.228601 
L 197.738966 189.228601 
" clip-path="url(#pab191b7978)" style="fill: none; stroke: #000000; stroke-width: 1.5"/>
    <path d="M 330.067538 189.228601 
L 330.067538 189.228601 
" clip-path="url(#pab191b7978)" style="fill: none; stroke: #000000; stroke-width: 1.5"/>
   </g>
   <g id="line2d_10">
    <defs>
     <path id="mbbde26ad43" d="M 3 0 
L -3 -0 
" style="stroke: #000000"/>
    </defs>
    <g clip-path="url(#pab191b7978)">
     <use xlink:href="#mbbde26ad43" x="65.410395" y="189.228601" style="stroke: #000000"/>
     <use xlink:href="#mbbde26ad43" x="197.738966" y="189.228601" style="stroke: #000000"/>
     <use xlink:href="#mbbde26ad43" x="330.067538" y="189.228601" style="stroke: #000000"/>
    </g>
   </g>
   <g id="line2d_11">
    <g clip-path="url(#pab191b7978)">
     <use xlink:href="#mbbde26ad43" x="65.410395" y="189.228601" style="stroke: #000000"/>
     <use xlink:href="#mbbde26ad43" x="197.738966" y="189.228601" style="stroke: #000000"/>
     <use xlink:href="#mbbde26ad43" x="330.067538" y="189.228601" style="stroke: #000000"/>
    </g>
   </g>
   <g id="LineCollection_2">
    <path d="M 77.172935 137.219077 
L 77.172935 137.219077 
" clip-path="url(#pab191b7978)" style="fill: none; stroke: #000000; stroke-width: 1.5"/>
    <path d="M 209.501506 137.219077 
L 209.501506 137.219077 
" clip-path="url(#pab191b7978)" style="fill: none; stroke: #000000; stroke-width: 1.5"/>
    <path d="M 341.830077 137.219077 
L 341.830077 137.219077 
" clip-path="url(#pab191b7978)" style="fill: none; stroke: #000000; stroke-width: 1.5"/>
   </g>
   <g id="line2d_12">
    <g clip-path="url(#pab191b7978)">
     <use xlink:href="#mbbde26ad43" x="77.172935" y="137.219077" style="stroke: #000000"/>
     <use xlink:href="#mbbde26ad43" x="209.501506" y="137.219077" style="stroke: #000000"/>
     <use xlink:href="#mbbde26ad43" x="341.830077" y="137.219077" style="stroke: #000000"/>
    </g>
   </g>
   <g id="line2d_13">
    <g clip-path="url(#pab191b7978)">
     <use xlink:href="#mbbde26ad43" x="77.172935" y="137.219077" style="stroke: #000000"/>
     <use xlink:href="#mbbde26ad43" x="209.501506" y="137.219077" style="stroke: #000000"/>
     <use xlink:href="#mbbde26ad43" x="341.830077" y="137.219077" style="stroke: #000000"/>
    </g>
   </g>
   <g id="LineCollection_3">
    <path d="M 88.935474 33.20003 
L 88.935474 33.20003 
" clip-path="url(#pab191b7978)" style="fill: none; stroke: #000000; stroke-width: 1.5"/>
    <path d="M 221.264046 33.20003 
L 221.264046 33.20003 
" clip-path="url(#pab191b7978)" style="fill: none; stroke: #000000; stroke-width: 1.5"/>
    <path d="M 353.592617 33.20003 
L 353.592617 33.20003 
" clip-path="url(#pab191b7978)" style="fill: none; stroke: #000000; stroke-width: 1.5"/>
   </g>
   <g id="line2d_14">
    <g clip-path="url(#pab191b7978)">
     <use xlink:href="#mbbde26ad43" x="88.935474" y="33.20003" style="stroke: #000000"/>
     <use xlink:href="#mbbde26ad43" x="221.264046" y="33.20003" style="stroke: #000000"/>
     <use xlink:href="#mbbde26ad43" x="353.592617" y="33.20003" style="stroke: #000000"/>
    </g>
   </g>
   <g id="line2d_15">
    <g clip-path="url(#pab191b7978)">
     <use xlink:href="#mbbde26ad43" x="88.935474" y="33.20003" style="stroke: #000000"/>
     <use xlink:href="#mbbde26ad43" x="221.264046" y="33.20003" style="stroke: #000000"/>
     <use xlink:href="#mbbde26ad43" x="353.592617" y="33.20003" style="stroke: #000000"/>
    </g>
   </g>
   <g id="LineCollection_4">
    <path d="M 100.698014 189.228601 
L 100.698014 189.228601 
" clip-path="url(#pab191b7978)" style="fill: none; stroke: #000000; stroke-width: 1.5"/>
    <path d="M 233.026585 189.228601 
L 233.026585 189.228601 
" clip-path="url(#pab191b7978)" style="fill: none; stroke: #000000; stroke-width: 1.5"/>
    <path d="M 365.355157 189.228601 
L 365.355157 189.228601 
" clip-path="url(#pab191b7978)" style="fill: none; stroke: #000000; stroke-width: 1.5"/>
   </g>
   <g id="line2d_16">
    <g clip-path="url(#pab191b7978)">
     <use xlink:href="#mbbde26ad43" x="100.698014" y="189.228601" style="stroke: #000000"/>
     <use xlink:href="#mbbde26ad43" x="233.026585" y="189.228601" style="stroke: #000000"/>
     <use xlink:href="#mbbde26ad43" x="365.355157" y="189.228601" style="stroke: #000000"/>
    </g>
   </g>
   <g id="line2d_17">
    <g clip-path="url(#pab191b7978)">
     <use xlink:href="#mbbde26ad43" x="100.698014" y="189.228601" style="stroke: #000000"/>
     <use xlink:href="#mbbde26ad43" x="233.026585" y="189.228601" style="stroke: #000000"/>
     <use xlink:href="#mbbde26ad43" x="365.355157" y="189.228601" style="stroke: #000000"/>
    </g>
   </g>
   <g id="LineCollection_5">
    <path d="M 112.460554 137.219077 
L 112.460554 137.219077 
" clip-path="url(#pab191b7978)" style="fill: none; stroke: #000000; stroke-width: 1.5"/>
    <path d="M 244.789125 137.219077 
L 244.789125 137.219077 
" clip-path="url(#pab191b7978)" style="fill: none; stroke: #000000; stroke-width: 1.5"/>
    <path d="M 377.117696 137.219077 
L 377.117696 137.219077 
" clip-path="url(#pab191b7978)" style="fill: none; stroke: #000000; stroke-width: 1.5"/>
   </g>
   <g id="line2d_18">
    <g clip-path="url(#pab191b7978)">
     <use xlink:href="#mbbde26ad43" x="112.460554" y="137.219077" style="stroke: #000000"/>
     <use xlink:href="#mbbde26ad43" x="244.789125" y="137.219077" style="stroke: #000000"/>
     <use xlink:href="#mbbde26ad43" x="377.117696" y="137.219077" style="stroke: #000000"/>
    </g>
   </g>
   <g id="line2d_19">
    <g clip-path="url(#pab191b7978)">
     <use xlink:href="#mbbde26ad43" x="112.460554" y="137.219077" style="stroke: #000000"/>
     <use xlink:href="#mbbde26ad43" x="244.789125" y="137.219077" style="stroke: #000000"/>
     <use xlink:href="#mbbde26ad43" x="377.117696" y="137.219077" style="stroke: #000000"/>
    </g>
   </g>
   <g id="LineCollection_6">
    <path d="M 124.223093 33.20003 
L 124.223093 33.20003 
" clip-path="url(#pab191b7978)" style="fill: none; stroke: #000000; stroke-width: 1.5"/>
    <path d="M 256.551665 33.20003 
L 256.551665 33.20003 
" clip-path="url(#pab191b7978)" style="fill: none; stroke: #000000; stroke-width: 1.5"/>
    <path d="M 388.880236 33.20003 
L 388.880236 33.20003 
" clip-path="url(#pab191b7978)" style="fill: none; stroke: #000000; stroke-width: 1.5"/>
   </g>
   <g id="line2d_20">
    <g clip-path="url(#pab191b7978)">
     <use xlink:href="#mbbde26ad43" x="124.223093" y="33.20003" style="stroke: #000000"/>
     <use xlink:href="#mbbde26ad43" x="256.551665" y="33.20003" style="stroke: #000000"/>
     <use xlink:href="#mbbde26ad43" x="388.880236" y="33.20003" style="stroke: #000000"/>
    </g>
   </g>
   <g id="line2d_21">
    <g clip-path="url(#pab191b7978)">
     <use xlink:href="#mbbde26ad43" x="124.223093" y="33.20003" style="stroke: #000000"/>
     <use xlink:href="#mbbde26ad43" x="256.551665" y="33.20003" style="stroke: #000000"/>
     <use xlink:href="#mbbde26ad43" x="388.880236" y="33.20003" style="stroke: #000000"/>
    </g>
   </g>
   <g id="LineCollection_7">
    <path d="M 135.985633 189.228601 
L 135.985633 189.228601 
" clip-path="url(#pab191b7978)" style="fill: none; stroke: #000000; stroke-width: 1.5"/>
    <path d="M 268.314204 189.228601 
L 268.314204 189.228601 
" clip-path="url(#pab191b7978)" style="fill: none; stroke: #000000; stroke-width: 1.5"/>
    <path d="M 400.642776 189.228601 
L 400.642776 189.228601 
" clip-path="url(#pab191b7978)" style="fill: none; stroke: #000000; stroke-width: 1.5"/>
   </g>
   <g id="line2d_22">
    <g clip-path="url(#pab191b7978)">
     <use xlink:href="#mbbde26ad43" x="135.985633" y="189.228601" style="stroke: #000000"/>
     <use xlink:href="#mbbde26ad43" x="268.314204" y="189.228601" style="stroke: #000000"/>
     <use xlink:href="#mbbde26ad43" x="400.642776" y="189.228601" style="stroke: #000000"/>
    </g>
   </g>
   <g id="line2d_23">
    <g clip-path="url(#pab191b7978)">
     <use xlink:href="#mbbde26ad43" x="135.985633" y="189.228601" style="stroke: #000000"/>
     <use xlink:href="#mbbde26ad43" x="268.314204" y="189.228601" style="stroke: #000000"/>
     <use xlink:href="#mbbde26ad43" x="400.642776" y="189.228601" style="stroke: #000000"/>
    </g>
   </g>
   <g id="LineCollection_8">
    <path d="M 147.748173 137.219077 
L 147.748173 137.219077 
" clip-path="url(#pab191b7978)" style="fill: none; stroke: #000000; stroke-width: 1.5"/>
    <path d="M 280.076744 137.219077 
L 280.076744 137.219077 
" clip-path="url(#pab191b7978)" style="fill: none; stroke: #000000; stroke-width: 1.5"/>
    <path d="M 412.405315 137.219077 
L 412.405315 137.219077 
" clip-path="url(#pab191b7978)" style="fill: none; stroke: #000000; stroke-width: 1.5"/>
   </g>
   <g id="line2d_24">
    <g clip-path="url(#pab191b7978)">
     <use xlink:href="#mbbde26ad43" x="147.748173" y="137.219077" style="stroke: #000000"/>
     <use xlink:href="#mbbde26ad43" x="280.076744" y="137.219077" style="stroke: #000000"/>
     <use xlink:href="#mbbde26ad43" x="412.405315" y="137.219077" style="stroke: #000000"/>
    </g>
   </g>
   <g id="line2d_25">
    <g clip-path="url(#pab191b7978)">
     <use xlink:href="#mbbde26ad43" x="147.748173" y="137.219077" style="stroke: #000000"/>
     <use xlink:href="#mbbde26ad43" x="280.076744" y="137.219077" style="stroke: #000000"/>
     <use xlink:href="#mbbde26ad43" x="412.405315" y="137.219077" style="stroke: #000000"/>
    </g>
   </g>
   <g id="LineCollection_9">
    <path d="M 159.510712 33.20003 
L 159.510712 33.20003 
" clip-path="url(#pab191b7978)" style="fill: none; stroke: #000000; stroke-width: 1.5"/>
    <path d="M 291.839284 33.20003 
L 291.839284 33.20003 
" clip-path="url(#pab191b7978)" style="fill: none; stroke: #000000; stroke-width: 1.5"/>
    <path d="M 424.167855 33.20003 
L 424.167855 33.20003 
" clip-path="url(#pab191b7978)" style="fill: none; stroke: #000000; stroke-width: 1.5"/>
   </g>
   <g id="line2d_26">
    <g clip-path="url(#pab191b7978)">
     <use xlink:href="#mbbde26ad43" x="159.510712" y="33.20003" style="stroke: #000000"/>
     <use xlink:href="#mbbde26ad43" x="291.839284" y="33.20003" style="stroke: #000000"/>
     <use xlink:href="#mbbde26ad43" x="424.167855" y="33.20003" style="stroke: #000000"/>
    </g>
   </g>
   <g id="line2d_27">
    <g clip-path="url(#pab191b7978)">
     <use xlink:href="#mbbde26ad43" x="159.510712" y="33.20003" style="stroke: #000000"/>
     <use xlink:href="#mbbde26ad43" x="291.839284" y="33.20003" style="stroke: #000000"/>
     <use xlink:href="#mbbde26ad43" x="424.167855" y="33.20003" style="stroke: #000000"/>
    </g>
   </g>
   <g id="patch_30">
    <path d="M 41.003125 241.238125 
L 41.003125 22.798125 
" style="fill: none; stroke: #000000; stroke-width: 0.8; stroke-linejoin: miter; stroke-linecap: square"/>
   </g>
   <g id="patch_31">
    <path d="M 448.575125 241.238125 
L 448.575125 22.798125 
" style="fill: none; stroke: #000000; stroke-width: 0.8; stroke-linejoin: miter; stroke-linecap: square"/>
   </g>
   <g id="patch_32">
    <path d="M 41.003125 241.238125 
L 448.575125 241.238125 
" style="fill: none; stroke: #000000; stroke-width: 0.8; stroke-linejoin: miter; stroke-linecap: square"/>
   </g>
   <g id="patch_33">
    <path d="M 41.003125 22.798125 
L 448.575125 22.798125 
" style="fill: none; stroke: #000000; stroke-width: 0.8; stroke-linejoin: miter; stroke-linecap: square"/>
   </g>
   <g id="text_12">
    <!-- Scenariusz V2 – Wykorzystanie zasobów -->
    <g transform="translate(123.950063 16.798125) scale(0.12 -0.12)">
     <defs>
      <path id="DejaVuSans-53" d="M 3425 4513 
L 3425 3897 
Q 3066 4069 2747 4153 
Q 2428 4238 2131 4238 
Q 1616 4238 1336 4038 
Q 1056 3838 1056 3469 
Q 1056 3159 1242 3001 
Q 1428 2844 1947 2747 
L 2328 2669 
Q 3034 2534 3370 2195 
Q 3706 1856 3706 1288 
Q 3706 609 3251 259 
Q 2797 -91 1919 -91 
Q 1588 -91 1214 -16 
Q 841 59 441 206 
L 441 856 
Q 825 641 1194 531 
Q 1563 422 1919 422 
Q 2459 422 2753 634 
Q 3047 847 3047 1241 
Q 3047 1584 2836 1778 
Q 2625 1972 2144 2069 
L 1759 2144 
Q 1053 2284 737 2584 
Q 422 2884 422 3419 
Q 422 4038 858 4394 
Q 1294 4750 2059 4750 
Q 2388 4750 2728 4690 
Q 3069 4631 3425 4513 
z
" transform="scale(0.015625)"/>
      <path id="DejaVuSans-75" d="M 544 1381 
L 544 3500 
L 1119 3500 
L 1119 1403 
Q 1119 906 1312 657 
Q 1506 409 1894 409 
Q 2359 409 2629 706 
Q 2900 1003 2900 1516 
L 2900 3500 
L 3475 3500 
L 3475 0 
L 2900 0 
L 2900 538 
Q 2691 219 2414 64 
Q 2138 -91 1772 -91 
Q 1169 -91 856 284 
Q 544 659 544 1381 
z
M 1991 3584 
L 1991 3584 
z
" transform="scale(0.015625)"/>
      <path id="DejaVuSans-56" d="M 1831 0 
L 50 4666 
L 709 4666 
L 2188 738 
L 3669 4666 
L 4325 4666 
L 2547 0 
L 1831 0 
z
" transform="scale(0.015625)"/>
      <path id="DejaVuSans-2013" d="M 313 1978 
L 2888 1978 
L 2888 1528 
L 313 1528 
L 313 1978 
z
" transform="scale(0.015625)"/>
     </defs>
     <use xlink:href="#DejaVuSans-53"/>
     <use xlink:href="#DejaVuSans-63" transform="translate(63.476562 0)"/>
     <use xlink:href="#DejaVuSans-65" transform="translate(118.457031 0)"/>
     <use xlink:href="#DejaVuSans-6e" transform="translate(179.980469 0)"/>
     <use xlink:href="#DejaVuSans-61" transform="translate(243.359375 0)"/>
     <use xlink:href="#DejaVuSans-72" transform="translate(304.638672 0)"/>
     <use xlink:href="#DejaVuSans-69" transform="translate(345.751953 0)"/>
     <use xlink:href="#DejaVuSans-75" transform="translate(373.535156 0)"/>
     <use xlink:href="#DejaVuSans-73" transform="translate(436.914062 0)"/>
     <use xlink:href="#DejaVuSans-7a" transform="translate(489.013672 0)"/>
     <use xlink:href="#DejaVuSans-20" transform="translate(541.503906 0)"/>
     <use xlink:href="#DejaVuSans-56" transform="translate(573.291016 0)"/>
     <use xlink:href="#DejaVuSans-32" transform="translate(641.699219 0)"/>
     <use xlink:href="#DejaVuSans-20" transform="translate(705.322266 0)"/>
     <use xlink:href="#DejaVuSans-2013" transform="translate(737.109375 0)"/>
     <use xlink:href="#DejaVuSans-20" transform="translate(787.109375 0)"/>
     <use xlink:href="#DejaVuSans-57" transform="translate(818.896484 0)"/>
     <use xlink:href="#DejaVuSans-79" transform="translate(916.023438 0)"/>
     <use xlink:href="#DejaVuSans-6b" transform="translate(975.203125 0)"/>
     <use xlink:href="#DejaVuSans-6f" transform="translate(1029.488281 0)"/>
     <use xlink:href="#DejaVuSans-72" transform="translate(1090.669922 0)"/>
     <use xlink:href="#DejaVuSans-7a" transform="translate(1131.783203 0)"/>
     <use xlink:href="#DejaVuSans-79" transform="translate(1184.273438 0)"/>
     <use xlink:href="#DejaVuSans-73" transform="translate(1243.453125 0)"/>
     <use xlink:href="#DejaVuSans-74" transform="translate(1295.552734 0)"/>
     <use xlink:href="#DejaVuSans-61" transform="translate(1334.761719 0)"/>
     <use xlink:href="#DejaVuSans-6e" transform="translate(1396.041016 0)"/>
     <use xlink:href="#DejaVuSans-69" transform="translate(1459.419922 0)"/>
     <use xlink:href="#DejaVuSans-65" transform="translate(1487.203125 0)"/>
     <use xlink:href="#DejaVuSans-20" transform="translate(1548.726562 0)"/>
     <use xlink:href="#DejaVuSans-7a" transform="translate(1580.513672 0)"/>
     <use xlink:href="#DejaVuSans-61" transform="translate(1633.003906 0)"/>
     <use xlink:href="#DejaVuSans-73" transform="translate(1694.283203 0)"/>
     <use xlink:href="#DejaVuSans-6f" transform="translate(1746.382812 0)"/>
     <use xlink:href="#DejaVuSans-62" transform="translate(1807.564453 0)"/>
     <use xlink:href="#DejaVuSans-f3" transform="translate(1871.041016 0)"/>
     <use xlink:href="#DejaVuSans-77" transform="translate(1932.222656 0)"/>
    </g>
   </g>
   <g id="legend_1">
    <g id="patch_34">
     <path d="M 458.726565 157.90125 
L 558.782815 157.90125 
Q 560.782815 157.90125 560.782815 155.90125 
L 560.782815 24.798125 
Q 560.782815 22.798125 558.782815 22.798125 
L 458.726565 22.798125 
Q 456.726565 22.798125 456.726565 24.798125 
L 456.726565 155.90125 
Q 456.726565 157.90125 458.726565 157.90125 
z
" style="fill: #ffffff; opacity: 0.8; stroke: #cccccc; stroke-linejoin: miter"/>
    </g>
    <g id="patch_35">
     <path d="M 460.726565 34.396562 
L 480.726565 34.396562 
L 480.726565 27.396562 
L 460.726565 27.396562 
z
" style="fill: url(#h598de64bf2); opacity: 0.8; stroke: #000000; stroke-width: 0.5; stroke-linejoin: miter"/>
    </g>
    <g id="text_13">
     <!-- Kueue CPU -->
     <g transform="translate(488.726565 34.396562) scale(0.1 -0.1)">
      <defs>
       <path id="DejaVuSans-43" d="M 4122 4306 
L 4122 3641 
Q 3803 3938 3442 4084 
Q 3081 4231 2675 4231 
Q 1875 4231 1450 3742 
Q 1025 3253 1025 2328 
Q 1025 1406 1450 917 
Q 1875 428 2675 428 
Q 3081 428 3442 575 
Q 3803 722 4122 1019 
L 4122 359 
Q 3791 134 3420 21 
Q 3050 -91 2638 -91 
Q 1578 -91 968 557 
Q 359 1206 359 2328 
Q 359 3453 968 4101 
Q 1578 4750 2638 4750 
Q 3056 4750 3426 4639 
Q 3797 4528 4122 4306 
z
" transform="scale(0.015625)"/>
       <path id="DejaVuSans-50" d="M 1259 4147 
L 1259 2394 
L 2053 2394 
Q 2494 2394 2734 2622 
Q 2975 2850 2975 3272 
Q 2975 3691 2734 3919 
Q 2494 4147 2053 4147 
L 1259 4147 
z
M 628 4666 
L 2053 4666 
Q 2838 4666 3239 4311 
Q 3641 3956 3641 3272 
Q 3641 2581 3239 2228 
Q 2838 1875 2053 1875 
L 1259 1875 
L 1259 0 
L 628 0 
L 628 4666 
z
" transform="scale(0.015625)"/>
       <path id="DejaVuSans-55" d="M 556 4666 
L 1191 4666 
L 1191 1831 
Q 1191 1081 1462 751 
Q 1734 422 2344 422 
Q 2950 422 3222 751 
Q 3494 1081 3494 1831 
L 3494 4666 
L 4128 4666 
L 4128 1753 
Q 4128 841 3676 375 
Q 3225 -91 2344 -91 
Q 1459 -91 1007 375 
Q 556 841 556 1753 
L 556 4666 
z
" transform="scale(0.015625)"/>
      </defs>
      <use xlink:href="#DejaVuSans-4b"/>
      <use xlink:href="#DejaVuSans-75" transform="translate(60.576172 0)"/>
      <use xlink:href="#DejaVuSans-65" transform="translate(123.955078 0)"/>
      <use xlink:href="#DejaVuSans-75" transform="translate(185.478516 0)"/>
      <use xlink:href="#DejaVuSans-65" transform="translate(248.857422 0)"/>
      <use xlink:href="#DejaVuSans-20" transform="translate(310.380859 0)"/>
      <use xlink:href="#DejaVuSans-43" transform="translate(342.167969 0)"/>
      <use xlink:href="#DejaVuSans-50" transform="translate(411.992188 0)"/>
      <use xlink:href="#DejaVuSans-55" transform="translate(472.294922 0)"/>
     </g>
    </g>
    <g id="patch_36">
     <path d="M 460.726565 49.074687 
L 480.726565 49.074687 
L 480.726565 42.074687 
L 460.726565 42.074687 
z
" style="fill: #0000ff; opacity: 0.8; stroke: #000000; stroke-width: 0.5; stroke-linejoin: miter"/>
    </g>
    <g id="text_14">
     <!-- Kueue RAM -->
     <g transform="translate(488.726565 49.074687) scale(0.1 -0.1)">
      <defs>
       <path id="DejaVuSans-52" d="M 2841 2188 
Q 3044 2119 3236 1894 
Q 3428 1669 3622 1275 
L 4263 0 
L 3584 0 
L 2988 1197 
Q 2756 1666 2539 1819 
Q 2322 1972 1947 1972 
L 1259 1972 
L 1259 0 
L 628 0 
L 628 4666 
L 2053 4666 
Q 2853 4666 3247 4331 
Q 3641 3997 3641 3322 
Q 3641 2881 3436 2590 
Q 3231 2300 2841 2188 
z
M 1259 4147 
L 1259 2491 
L 2053 2491 
Q 2509 2491 2742 2702 
Q 2975 2913 2975 3322 
Q 2975 3731 2742 3939 
Q 2509 4147 2053 4147 
L 1259 4147 
z
" transform="scale(0.015625)"/>
       <path id="DejaVuSans-41" d="M 2188 4044 
L 1331 1722 
L 3047 1722 
L 2188 4044 
z
M 1831 4666 
L 2547 4666 
L 4325 0 
L 3669 0 
L 3244 1197 
L 1141 1197 
L 716 0 
L 50 0 
L 1831 4666 
z
" transform="scale(0.015625)"/>
       <path id="DejaVuSans-4d" d="M 628 4666 
L 1569 4666 
L 2759 1491 
L 3956 4666 
L 4897 4666 
L 4897 0 
L 4281 0 
L 4281 4097 
L 3078 897 
L 2444 897 
L 1241 4097 
L 1241 0 
L 628 0 
L 628 4666 
z
" transform="scale(0.015625)"/>
      </defs>
      <use xlink:href="#DejaVuSans-4b"/>
      <use xlink:href="#DejaVuSans-75" transform="translate(60.576172 0)"/>
      <use xlink:href="#DejaVuSans-65" transform="translate(123.955078 0)"/>
      <use xlink:href="#DejaVuSans-75" transform="translate(185.478516 0)"/>
      <use xlink:href="#DejaVuSans-65" transform="translate(248.857422 0)"/>
      <use xlink:href="#DejaVuSans-20" transform="translate(310.380859 0)"/>
      <use xlink:href="#DejaVuSans-52" transform="translate(342.167969 0)"/>
      <use xlink:href="#DejaVuSans-41" transform="translate(407.650391 0)"/>
      <use xlink:href="#DejaVuSans-4d" transform="translate(476.058594 0)"/>
     </g>
    </g>
    <g id="patch_37">
     <path d="M 460.726565 63.752812 
L 480.726565 63.752812 
L 480.726565 56.752812 
L 460.726565 56.752812 
z
" style="fill: url(#h8ca0273dfe); opacity: 0.8; stroke: #000000; stroke-width: 0.5; stroke-linejoin: miter"/>
    </g>
    <g id="text_15">
     <!-- Kueue GPU -->
     <g transform="translate(488.726565 63.752812) scale(0.1 -0.1)">
      <defs>
       <path id="DejaVuSans-47" d="M 3809 666 
L 3809 1919 
L 2778 1919 
L 2778 2438 
L 4434 2438 
L 4434 434 
Q 4069 175 3628 42 
Q 3188 -91 2688 -91 
Q 1594 -91 976 548 
Q 359 1188 359 2328 
Q 359 3472 976 4111 
Q 1594 4750 2688 4750 
Q 3144 4750 3555 4637 
Q 3966 4525 4313 4306 
L 4313 3634 
Q 3963 3931 3569 4081 
Q 3175 4231 2741 4231 
Q 1884 4231 1454 3753 
Q 1025 3275 1025 2328 
Q 1025 1384 1454 906 
Q 1884 428 2741 428 
Q 3075 428 3337 486 
Q 3600 544 3809 666 
z
" transform="scale(0.015625)"/>
      </defs>
      <use xlink:href="#DejaVuSans-4b"/>
      <use xlink:href="#DejaVuSans-75" transform="translate(60.576172 0)"/>
      <use xlink:href="#DejaVuSans-65" transform="translate(123.955078 0)"/>
      <use xlink:href="#DejaVuSans-75" transform="translate(185.478516 0)"/>
      <use xlink:href="#DejaVuSans-65" transform="translate(248.857422 0)"/>
      <use xlink:href="#DejaVuSans-20" transform="translate(310.380859 0)"/>
      <use xlink:href="#DejaVuSans-47" transform="translate(342.167969 0)"/>
      <use xlink:href="#DejaVuSans-50" transform="translate(419.658203 0)"/>
      <use xlink:href="#DejaVuSans-55" transform="translate(479.960938 0)"/>
     </g>
    </g>
    <g id="patch_38">
     <path d="M 460.726565 78.430937 
L 480.726565 78.430937 
L 480.726565 71.430937 
L 460.726565 71.430937 
z
" style="fill: url(#h9b38d9dea9); opacity: 0.8; stroke: #000000; stroke-width: 0.5; stroke-linejoin: miter"/>
    </g>
    <g id="text_16">
     <!-- Volcano CPU -->
     <g transform="translate(488.726565 78.430937) scale(0.1 -0.1)">
      <defs>
       <path id="DejaVuSans-6c" d="M 603 4863 
L 1178 4863 
L 1178 0 
L 603 0 
L 603 4863 
z
" transform="scale(0.015625)"/>
      </defs>
      <use xlink:href="#DejaVuSans-56"/>
      <use xlink:href="#DejaVuSans-6f" transform="translate(60.658203 0)"/>
      <use xlink:href="#DejaVuSans-6c" transform="translate(121.839844 0)"/>
      <use xlink:href="#DejaVuSans-63" transform="translate(149.623047 0)"/>
      <use xlink:href="#DejaVuSans-61" transform="translate(204.603516 0)"/>
      <use xlink:href="#DejaVuSans-6e" transform="translate(265.882812 0)"/>
      <use xlink:href="#DejaVuSans-6f" transform="translate(329.261719 0)"/>
      <use xlink:href="#DejaVuSans-20" transform="translate(390.443359 0)"/>
      <use xlink:href="#DejaVuSans-43" transform="translate(422.230469 0)"/>
      <use xlink:href="#DejaVuSans-50" transform="translate(492.054688 0)"/>
      <use xlink:href="#DejaVuSans-55" transform="translate(552.357422 0)"/>
     </g>
    </g>
    <g id="patch_39">
     <path d="M 460.726565 93.109062 
L 480.726565 93.109062 
L 480.726565 86.109062 
L 460.726565 86.109062 
z
" style="fill: #ff0000; opacity: 0.8; stroke: #000000; stroke-width: 0.5; stroke-linejoin: miter"/>
    </g>
    <g id="text_17">
     <!-- Volcano RAM -->
     <g transform="translate(488.726565 93.109062) scale(0.1 -0.1)">
      <use xlink:href="#DejaVuSans-56"/>
      <use xlink:href="#DejaVuSans-6f" transform="translate(60.658203 0)"/>
      <use xlink:href="#DejaVuSans-6c" transform="translate(121.839844 0)"/>
      <use xlink:href="#DejaVuSans-63" transform="translate(149.623047 0)"/>
      <use xlink:href="#DejaVuSans-61" transform="translate(204.603516 0)"/>
      <use xlink:href="#DejaVuSans-6e" transform="translate(265.882812 0)"/>
      <use xlink:href="#DejaVuSans-6f" transform="translate(329.261719 0)"/>
      <use xlink:href="#DejaVuSans-20" transform="translate(390.443359 0)"/>
      <use xlink:href="#DejaVuSans-52" transform="translate(422.230469 0)"/>
      <use xlink:href="#DejaVuSans-41" transform="translate(487.712891 0)"/>
      <use xlink:href="#DejaVuSans-4d" transform="translate(556.121094 0)"/>
     </g>
    </g>
    <g id="patch_40">
     <path d="M 460.726565 107.787187 
L 480.726565 107.787187 
L 480.726565 100.787187 
L 460.726565 100.787187 
z
" style="fill: url(#h04165fbbb9); opacity: 0.8; stroke: #000000; stroke-width: 0.5; stroke-linejoin: miter"/>
    </g>
    <g id="text_18">
     <!-- Volcano GPU -->
     <g transform="translate(488.726565 107.787187) scale(0.1 -0.1)">
      <use xlink:href="#DejaVuSans-56"/>
      <use xlink:href="#DejaVuSans-6f" transform="translate(60.658203 0)"/>
      <use xlink:href="#DejaVuSans-6c" transform="translate(121.839844 0)"/>
      <use xlink:href="#DejaVuSans-63" transform="translate(149.623047 0)"/>
      <use xlink:href="#DejaVuSans-61" transform="translate(204.603516 0)"/>
      <use xlink:href="#DejaVuSans-6e" transform="translate(265.882812 0)"/>
      <use xlink:href="#DejaVuSans-6f" transform="translate(329.261719 0)"/>
      <use xlink:href="#DejaVuSans-20" transform="translate(390.443359 0)"/>
      <use xlink:href="#DejaVuSans-47" transform="translate(422.230469 0)"/>
      <use xlink:href="#DejaVuSans-50" transform="translate(499.720703 0)"/>
      <use xlink:href="#DejaVuSans-55" transform="translate(560.023438 0)"/>
     </g>
    </g>
    <g id="patch_41">
     <path d="M 460.726565 122.465312 
L 480.726565 122.465312 
L 480.726565 115.465312 
L 460.726565 115.465312 
z
" style="fill: url(#ha81b1a1163); opacity: 0.8; stroke: #000000; stroke-width: 0.5; stroke-linejoin: miter"/>
    </g>
    <g id="text_19">
     <!-- YuniKorn CPU -->
     <g transform="translate(488.726565 122.465312) scale(0.1 -0.1)">
      <defs>
       <path id="DejaVuSans-59" d="M -13 4666 
L 666 4666 
L 1959 2747 
L 3244 4666 
L 3922 4666 
L 2272 2222 
L 2272 0 
L 1638 0 
L 1638 2222 
L -13 4666 
z
" transform="scale(0.015625)"/>
      </defs>
      <use xlink:href="#DejaVuSans-59"/>
      <use xlink:href="#DejaVuSans-75" transform="translate(49.583984 0)"/>
      <use xlink:href="#DejaVuSans-6e" transform="translate(112.962891 0)"/>
      <use xlink:href="#DejaVuSans-69" transform="translate(176.341797 0)"/>
      <use xlink:href="#DejaVuSans-4b" transform="translate(204.125 0)"/>
      <use xlink:href="#DejaVuSans-6f" transform="translate(264.701172 0)"/>
      <use xlink:href="#DejaVuSans-72" transform="translate(325.882812 0)"/>
      <use xlink:href="#DejaVuSans-6e" transform="translate(365.246094 0)"/>
      <use xlink:href="#DejaVuSans-20" transform="translate(428.625 0)"/>
      <use xlink:href="#DejaVuSans-43" transform="translate(460.412109 0)"/>
      <use xlink:href="#DejaVuSans-50" transform="translate(530.236328 0)"/>
      <use xlink:href="#DejaVuSans-55" transform="translate(590.539062 0)"/>
     </g>
    </g>
    <g id="patch_42">
     <path d="M 460.726565 137.143437 
L 480.726565 137.143437 
L 480.726565 130.143437 
L 460.726565 130.143437 
z
" style="fill: #008000; opacity: 0.8; stroke: #000000; stroke-width: 0.5; stroke-linejoin: miter"/>
    </g>
    <g id="text_20">
     <!-- YuniKorn RAM -->
     <g transform="translate(488.726565 137.143437) scale(0.1 -0.1)">
      <use xlink:href="#DejaVuSans-59"/>
      <use xlink:href="#DejaVuSans-75" transform="translate(49.583984 0)"/>
      <use xlink:href="#DejaVuSans-6e" transform="translate(112.962891 0)"/>
      <use xlink:href="#DejaVuSans-69" transform="translate(176.341797 0)"/>
      <use xlink:href="#DejaVuSans-4b" transform="translate(204.125 0)"/>
      <use xlink:href="#DejaVuSans-6f" transform="translate(264.701172 0)"/>
      <use xlink:href="#DejaVuSans-72" transform="translate(325.882812 0)"/>
      <use xlink:href="#DejaVuSans-6e" transform="translate(365.246094 0)"/>
      <use xlink:href="#DejaVuSans-20" transform="translate(428.625 0)"/>
      <use xlink:href="#DejaVuSans-52" transform="translate(460.412109 0)"/>
      <use xlink:href="#DejaVuSans-41" transform="translate(525.894531 0)"/>
      <use xlink:href="#DejaVuSans-4d" transform="translate(594.302734 0)"/>
     </g>
    </g>
    <g id="patch_43">
     <path d="M 460.726565 151.821562 
L 480.726565 151.821562 
L 480.726565 144.821562 
L 460.726565 144.821562 
z
" style="fill: url(#h7ca753097b); opacity: 0.8; stroke: #000000; stroke-width: 0.5; stroke-linejoin: miter"/>
    </g>
    <g id="text_21">
     <!-- YuniKorn GPU -->
     <g transform="translate(488.726565 151.821562) scale(0.1 -0.1)">
      <use xlink:href="#DejaVuSans-59"/>
      <use xlink:href="#DejaVuSans-75" transform="translate(49.583984 0)"/>
      <use xlink:href="#DejaVuSans-6e" transform="translate(112.962891 0)"/>
      <use xlink:href="#DejaVuSans-69" transform="translate(176.341797 0)"/>
      <use xlink:href="#DejaVuSans-4b" transform="translate(204.125 0)"/>
      <use xlink:href="#DejaVuSans-6f" transform="translate(264.701172 0)"/>
      <use xlink:href="#DejaVuSans-72" transform="translate(325.882812 0)"/>
      <use xlink:href="#DejaVuSans-6e" transform="translate(365.246094 0)"/>
      <use xlink:href="#DejaVuSans-20" transform="translate(428.625 0)"/>
      <use xlink:href="#DejaVuSans-47" transform="translate(460.412109 0)"/>
      <use xlink:href="#DejaVuSans-50" transform="translate(537.902344 0)"/>
      <use xlink:href="#DejaVuSans-55" transform="translate(598.205078 0)"/>
     </g>
    </g>
   </g>
  </g>
 </g>
 <defs>
  <clipPath id="pab191b7978">
   <rect x="41.003125" y="22.798125" width="407.572" height="218.44"/>
  </clipPath>
 </defs>
 <defs>
  <pattern id="h598de64bf2" patternUnits="userSpaceOnUse" x="0" y="0" width="72" height="72">
   <rect x="0" y="0" width="73" height="73" fill="#0000ff"/>
   <path d="M -36 36 
L 36 -36 
M -33 39 
L 39 -33 
M -30 42 
L 42 -30 
M -27 45 
L 45 -27 
M -24 48 
L 48 -24 
M -21 51 
L 51 -21 
M -18 54 
L 54 -18 
M -15 57 
L 57 -15 
M -12 60 
L 60 -12 
M -9 63 
L 63 -9 
M -6 66 
L 66 -6 
M -3 69 
L 69 -3 
M 0 72 
L 72 0 
M 3 75 
L 75 3 
M 6 78 
L 78 6 
M 9 81 
L 81 9 
M 12 84 
L 84 12 
M 15 87 
L 87 15 
M 18 90 
L 90 18 
M 21 93 
L 93 21 
M 24 96 
L 96 24 
M 27 99 
L 99 27 
M 30 102 
L 102 30 
M 33 105 
L 105 33 
M 36 108 
L 108 36 
" style="fill: #000000; stroke: #000000; stroke-width: 0.5; stroke-linecap: butt; stroke-linejoin: miter; stroke-opacity: 0.8"/>
  </pattern>
  <pattern id="h8ca0273dfe" patternUnits="userSpaceOnUse" x="0" y="0" width="72" height="72">
   <rect x="0" y="0" width="73" height="73" fill="#0000ff"/>
   <path d="M -36 36 
L 36 -36 
M -32 40 
L 40 -32 
M -28 44 
L 44 -28 
M -24 48 
L 48 -24 
M -20 52 
L 52 -20 
M -16 56 
L 56 -16 
M -12 60 
L 60 -12 
M -8 64 
L 64 -8 
M -4 68 
L 68 -4 
M 0 72 
L 72 0 
M 4 76 
L 76 4 
M 8 80 
L 80 8 
M 12 84 
L 84 12 
M 16 88 
L 88 16 
M 20 92 
L 92 20 
M 24 96 
L 96 24 
M 28 100 
L 100 28 
M 32 104 
L 104 32 
M 36 108 
L 108 36 
M -36 36 
L 36 108 
M -32 32 
L 40 104 
M -28 28 
L 44 100 
M -24 24 
L 48 96 
M -20 20 
L 52 92 
M -16 16 
L 56 88 
M -12 12 
L 60 84 
M -8 8 
L 64 80 
M -4 4 
L 68 76 
M 0 0 
L 72 72 
M 4 -4 
L 76 68 
M 8 -8 
L 80 64 
M 12 -12 
L 84 60 
M 16 -16 
L 88 56 
M 20 -20 
L 92 52 
M 24 -24 
L 96 48 
M 28 -28 
L 100 44 
M 32 -32 
L 104 40 
M 36 -36 
L 108 36 
" style="fill: #000000; stroke: #000000; stroke-width: 0.5; stroke-linecap: butt; stroke-linejoin: miter; stroke-opacity: 0.8"/>
  </pattern>
  <pattern id="h9b38d9dea9" patternUnits="userSpaceOnUse" x="0" y="0" width="72" height="72">
   <rect x="0" y="0" width="73" height="73" fill="#ff0000"/>
   <path d="M -36 36 
L 36 -36 
M -33 39 
L 39 -33 
M -30 42 
L 42 -30 
M -27 45 
L 45 -27 
M -24 48 
L 48 -24 
M -21 51 
L 51 -21 
M -18 54 
L 54 -18 
M -15 57 
L 57 -15 
M -12 60 
L 60 -12 
M -9 63 
L 63 -9 
M -6 66 
L 66 -6 
M -3 69 
L 69 -3 
M 0 72 
L 72 0 
M 3 75 
L 75 3 
M 6 78 
L 78 6 
M 9 81 
L 81 9 
M 12 84 
L 84 12 
M 15 87 
L 87 15 
M 18 90 
L 90 18 
M 21 93 
L 93 21 
M 24 96 
L 96 24 
M 27 99 
L 99 27 
M 30 102 
L 102 30 
M 33 105 
L 105 33 
M 36 108 
L 108 36 
" style="fill: #000000; stroke: #000000; stroke-width: 0.5; stroke-linecap: butt; stroke-linejoin: miter; stroke-opacity: 0.8"/>
  </pattern>
  <pattern id="h04165fbbb9" patternUnits="userSpaceOnUse" x="0" y="0" width="72" height="72">
   <rect x="0" y="0" width="73" height="73" fill="#ff0000"/>
   <path d="M -36 36 
L 36 -36 
M -32 40 
L 40 -32 
M -28 44 
L 44 -28 
M -24 48 
L 48 -24 
M -20 52 
L 52 -20 
M -16 56 
L 56 -16 
M -12 60 
L 60 -12 
M -8 64 
L 64 -8 
M -4 68 
L 68 -4 
M 0 72 
L 72 0 
M 4 76 
L 76 4 
M 8 80 
L 80 8 
M 12 84 
L 84 12 
M 16 88 
L 88 16 
M 20 92 
L 92 20 
M 24 96 
L 96 24 
M 28 100 
L 100 28 
M 32 104 
L 104 32 
M 36 108 
L 108 36 
M -36 36 
L 36 108 
M -32 32 
L 40 104 
M -28 28 
L 44 100 
M -24 24 
L 48 96 
M -20 20 
L 52 92 
M -16 16 
L 56 88 
M -12 12 
L 60 84 
M -8 8 
L 64 80 
M -4 4 
L 68 76 
M 0 0 
L 72 72 
M 4 -4 
L 76 68 
M 8 -8 
L 80 64 
M 12 -12 
L 84 60 
M 16 -16 
L 88 56 
M 20 -20 
L 92 52 
M 24 -24 
L 96 48 
M 28 -28 
L 100 44 
M 32 -32 
L 104 40 
M 36 -36 
L 108 36 
" style="fill: #000000; stroke: #000000; stroke-width: 0.5; stroke-linecap: butt; stroke-linejoin: miter; stroke-opacity: 0.8"/>
  </pattern>
  <pattern id="ha81b1a1163" patternUnits="userSpaceOnUse" x="0" y="0" width="72" height="72">
   <rect x="0" y="0" width="73" height="73" fill="#008000"/>
   <path d="M -36 36 
L 36 -36 
M -33 39 
L 39 -33 
M -30 42 
L 42 -30 
M -27 45 
L 45 -27 
M -24 48 
L 48 -24 
M -21 51 
L 51 -21 
M -18 54 
L 54 -18 
M -15 57 
L 57 -15 
M -12 60 
L 60 -12 
M -9 63 
L 63 -9 
M -6 66 
L 66 -6 
M -3 69 
L 69 -3 
M 0 72 
L 72 0 
M 3 75 
L 75 3 
M 6 78 
L 78 6 
M 9 81 
L 81 9 
M 12 84 
L 84 12 
M 15 87 
L 87 15 
M 18 90 
L 90 18 
M 21 93 
L 93 21 
M 24 96 
L 96 24 
M 27 99 
L 99 27 
M 30 102 
L 102 30 
M 33 105 
L 105 33 
M 36 108 
L 108 36 
" style="fill: #000000; stroke: #000000; stroke-width: 0.5; stroke-linecap: butt; stroke-linejoin: miter; stroke-opacity: 0.8"/>
  </pattern>
  <pattern id="h7ca753097b" patternUnits="userSpaceOnUse" x="0" y="0" width="72" height="72">
   <rect x="0" y="0" width="73" height="73" fill="#008000"/>
   <path d="M -36 36 
L 36 -36 
M -32 40 
L 40 -32 
M -28 44 
L 44 -28 
M -24 48 
L 48 -24 
M -20 52 
L 52 -20 
M -16 56 
L 56 -16 
M -12 60 
L 60 -12 
M -8 64 
L 64 -8 
M -4 68 
L 68 -4 
M 0 72 
L 72 0 
M 4 76 
L 76 4 
M 8 80 
L 80 8 
M 12 84 
L 84 12 
M 16 88 
L 88 16 
M 20 92 
L 92 20 
M 24 96 
L 96 24 
M 28 100 
L 100 28 
M 32 104 
L 104 32 
M 36 108 
L 108 36 
M -36 36 
L 36 108 
M -32 32 
L 40 104 
M -28 28 
L 44 100 
M -24 24 
L 48 96 
M -20 20 
L 52 92 
M -16 16 
L 56 88 
M -12 12 
L 60 84 
M -8 8 
L 64 80 
M -4 4 
L 68 76 
M 0 0 
L 72 72 
M 4 -4 
L 76 68 
M 8 -8 
L 80 64 
M 12 -12 
L 84 60 
M 16 -16 
L 88 56 
M 20 -20 
L 92 52 
M 24 -24 
L 96 48 
M 28 -28 
L 100 44 
M 32 -32 
L 104 40 
M 36 -36 
L 108 36 
" style="fill: #000000; stroke: #000000; stroke-width: 0.5; stroke-linecap: butt; stroke-linejoin: miter; stroke-opacity: 0.8"/>
  </pattern>
 </defs>
</svg>
